<svg xmlns="http://www.w3.org/2000/svg" width="373.572" height="207.647" viewBox="0 0 373.572 207.647">
  <g id="Grupo_24763" data-name="Grupo 24763" transform="translate(-147.824 -340.274)">
    <g id="Grupo_24708" data-name="Grupo 24708" transform="translate(147.824 352.958)">
      <g id="Grupo_24704" data-name="Grupo 24704" transform="translate(34.697 0)">
        <path id="Trazado_11692" data-name="Trazado 11692" d="M523.24,515.923l-40.589,7.687a7.032,7.032,0,0,1-8.218-5.6L460.18,442.743a7.032,7.032,0,0,1,5.6-8.218l40.59-7.687a7.032,7.032,0,0,1,8.218,5.6l14.254,75.266A7.032,7.032,0,0,1,523.24,515.923Z" transform="translate(-460.056 -426.683)" fill="#f47458"/>
        <path id="Trazado_11693" data-name="Trazado 11693" d="M661.968,426.615,642.25,430.35l16.871,89.085,19.718-3.734a6.927,6.927,0,0,0,5.4-8.173L669.98,432.249A6.927,6.927,0,0,0,661.968,426.615Z" transform="translate(-615.449 -426.498)" fill="#f47458" opacity="0.3" style="mix-blend-mode: multiply;isolation: isolate"/>
        <rect id="Rectángulo_5749" data-name="Rectángulo 5749" width="1.64" height="88.652" transform="translate(25.402 5.142) rotate(-10.723)" fill="#f47458" opacity="0.5" style="mix-blend-mode: multiply;isolation: isolate"/>
        <g id="Grupo_24692" data-name="Grupo 24692" transform="translate(34.234 12.785)">
          <path id="Trazado_11694" data-name="Trazado 11694" d="M700.234,520.043l-5.118.929a2.847,2.847,0,0,0-2.292,3.31h0a2.847,2.847,0,0,0,3.31,2.292l5.118-.929Z" transform="translate(-692.777 -519.067)" fill="#fae0b2"/>
          <path id="Trazado_11695" data-name="Trazado 11695" d="M743.47,514.387l1.017,5.6,5.118-.929a2.847,2.847,0,0,0,2.292-3.31h0a2.847,2.847,0,0,0-3.31-2.292Z" transform="translate(-736.013 -513.411)" fill="#50bfa5"/>
          <path id="Trazado_11696" data-name="Trazado 11696" d="M701.011,539.085l-7.919,1.438a2.847,2.847,0,0,0,3.31,2.292l5.118-.929Z" transform="translate(-693.046 -535.308)" fill="#9bc1f9" opacity="0.3" style="mix-blend-mode: multiply;isolation: isolate"/>
          <path id="Trazado_11697" data-name="Trazado 11697" d="M754.847,529.31l-7.919,1.438.509,2.8,5.118-.93A2.847,2.847,0,0,0,754.847,529.31Z" transform="translate(-738.962 -526.971)" fill="#f47458" opacity="0.3" style="mix-blend-mode: multiply;isolation: isolate"/>
        </g>
        <g id="Grupo_24693" data-name="Grupo 24693" transform="translate(36.654 25.566)">
          <path id="Trazado_11698" data-name="Trazado 11698" d="M716.688,606.927l-5.118.929a2.847,2.847,0,0,0-2.292,3.31h0a2.847,2.847,0,0,0,3.31,2.292l5.118-.929Z" transform="translate(-709.231 -605.951)" fill="#fae0b2"/>
          <path id="Trazado_11699" data-name="Trazado 11699" d="M759.924,601.27l1.017,5.6,5.118-.929a2.847,2.847,0,0,0,2.292-3.31h0a2.847,2.847,0,0,0-3.31-2.292Z" transform="translate(-752.467 -600.294)" fill="#50bfa5"/>
          <path id="Trazado_11700" data-name="Trazado 11700" d="M717.465,625.969l-7.919,1.438a2.847,2.847,0,0,0,3.31,2.292l5.118-.929Z" transform="translate(-709.5 -622.192)" fill="#9bc1f9" opacity="0.3" style="mix-blend-mode: multiply;isolation: isolate"/>
          <path id="Trazado_11701" data-name="Trazado 11701" d="M771.3,616.193l-7.919,1.438.509,2.8,5.118-.929A2.847,2.847,0,0,0,771.3,616.193Z" transform="translate(-755.416 -613.854)" fill="#f47458" opacity="0.3" style="mix-blend-mode: multiply;isolation: isolate"/>
        </g>
        <g id="Grupo_24694" data-name="Grupo 24694" transform="translate(39.074 38.346)">
          <path id="Trazado_11702" data-name="Trazado 11702" d="M733.142,693.811l-5.118.929a2.847,2.847,0,0,0-2.292,3.31h0a2.847,2.847,0,0,0,3.31,2.292l5.118-.929Z" transform="translate(-725.685 -692.835)" fill="#fae0b2"/>
          <path id="Trazado_11703" data-name="Trazado 11703" d="M776.378,688.154l1.017,5.6,5.118-.929a2.847,2.847,0,0,0,2.292-3.31h0a2.847,2.847,0,0,0-3.31-2.292Z" transform="translate(-768.921 -687.178)" fill="#50bfa5"/>
          <path id="Trazado_11704" data-name="Trazado 11704" d="M733.918,712.853,726,714.291a2.847,2.847,0,0,0,3.31,2.292l5.119-.929Z" transform="translate(-725.953 -709.076)" fill="#9bc1f9" opacity="0.3" style="mix-blend-mode: multiply;isolation: isolate"/>
          <path id="Trazado_11705" data-name="Trazado 11705" d="M787.754,703.077l-7.919,1.438.509,2.8,5.118-.929A2.847,2.847,0,0,0,787.754,703.077Z" transform="translate(-771.869 -700.738)" fill="#f47458" opacity="0.3" style="mix-blend-mode: multiply;isolation: isolate"/>
        </g>
        <g id="Grupo_24695" data-name="Grupo 24695" transform="translate(41.495 51.127)">
          <path id="Trazado_11706" data-name="Trazado 11706" d="M749.6,780.7l-5.118.929a2.847,2.847,0,0,0-2.292,3.31h0a2.847,2.847,0,0,0,3.31,2.292l5.118-.929Z" transform="translate(-742.138 -779.719)" fill="#fae0b2"/>
          <path id="Trazado_11707" data-name="Trazado 11707" d="M792.831,775.038l1.017,5.6,5.118-.929a2.847,2.847,0,0,0,2.292-3.31h0a2.847,2.847,0,0,0-3.31-2.292Z" transform="translate(-785.374 -774.063)" fill="#50bfa5"/>
          <path id="Trazado_11708" data-name="Trazado 11708" d="M750.372,799.737l-7.919,1.438a2.847,2.847,0,0,0,3.31,2.292l5.118-.929Z" transform="translate(-742.407 -795.96)" fill="#9bc1f9" opacity="0.3" style="mix-blend-mode: multiply;isolation: isolate"/>
          <path id="Trazado_11709" data-name="Trazado 11709" d="M804.208,789.961l-7.919,1.438.509,2.8,5.118-.929A2.847,2.847,0,0,0,804.208,789.961Z" transform="translate(-788.323 -787.622)" fill="#f47458" opacity="0.3" style="mix-blend-mode: multiply;isolation: isolate"/>
        </g>
        <g id="Grupo_24696" data-name="Grupo 24696" transform="translate(43.915 63.908)">
          <path id="Trazado_11710" data-name="Trazado 11710" d="M766.049,867.579l-5.118.929a2.847,2.847,0,0,0-2.292,3.31h0a2.847,2.847,0,0,0,3.31,2.292l5.118-.929Z" transform="translate(-758.592 -866.603)" fill="#fae0b2"/>
          <path id="Trazado_11711" data-name="Trazado 11711" d="M809.285,861.922l1.017,5.6,5.118-.929a2.847,2.847,0,0,0,2.292-3.31h0a2.847,2.847,0,0,0-3.31-2.292Z" transform="translate(-801.828 -860.946)" fill="#50bfa5"/>
          <path id="Trazado_11712" data-name="Trazado 11712" d="M766.826,886.621l-7.919,1.438a2.847,2.847,0,0,0,3.31,2.292l5.118-.929Z" transform="translate(-758.861 -882.844)" fill="#9bc1f9" opacity="0.3" style="mix-blend-mode: multiply;isolation: isolate"/>
          <path id="Trazado_11713" data-name="Trazado 11713" d="M820.662,876.846l-7.919,1.438.509,2.8,5.118-.929A2.847,2.847,0,0,0,820.662,876.846Z" transform="translate(-804.777 -874.507)" fill="#f47458" opacity="0.3" style="mix-blend-mode: multiply;isolation: isolate"/>
        </g>
        <g id="Grupo_24697" data-name="Grupo 24697" transform="translate(46.335 76.689)">
          <path id="Trazado_11714" data-name="Trazado 11714" d="M782.5,954.463l-5.118.93a2.847,2.847,0,0,0-2.292,3.31h0a2.847,2.847,0,0,0,3.31,2.292l5.118-.929Z" transform="translate(-775.046 -953.487)" fill="#fae0b2"/>
          <path id="Trazado_11715" data-name="Trazado 11715" d="M825.739,948.807l1.017,5.6,5.118-.929a2.847,2.847,0,0,0,2.292-3.31h0a2.847,2.847,0,0,0-3.31-2.292Z" transform="translate(-818.282 -947.831)" fill="#50bfa5"/>
          <path id="Trazado_11716" data-name="Trazado 11716" d="M783.28,973.5l-7.919,1.438a2.847,2.847,0,0,0,3.31,2.292l5.118-.93Z" transform="translate(-775.315 -969.728)" fill="#9bc1f9" opacity="0.3" style="mix-blend-mode: multiply;isolation: isolate"/>
          <path id="Trazado_11717" data-name="Trazado 11717" d="M837.116,963.73l-7.919,1.438.509,2.8,5.118-.929A2.847,2.847,0,0,0,837.116,963.73Z" transform="translate(-821.231 -961.391)" fill="#f47458" opacity="0.3" style="mix-blend-mode: multiply;isolation: isolate"/>
        </g>
        <g id="Grupo_24698" data-name="Grupo 24698" transform="translate(7.401 17.792)">
          <path id="Trazado_11718" data-name="Trazado 11718" d="M560.674,548.511l5.1-1.007a2.847,2.847,0,0,1,3.344,2.242h0a2.847,2.847,0,0,1-2.242,3.344l-5.1,1.006Z" transform="translate(-553.274 -547.45)" fill="#fae0b2"/>
          <path id="Trazado_11719" data-name="Trazado 11719" d="M517.767,554.661l1.1,5.586-5.1,1.006a2.847,2.847,0,0,1-3.344-2.242h0a2.847,2.847,0,0,1,2.242-3.344Z" transform="translate(-510.367 -553.6)" fill="#50bfa5"/>
          <path id="Trazado_11720" data-name="Trazado 11720" d="M564.418,564.619l7.9-1.557a2.847,2.847,0,0,1-2.242,3.344l-5.1,1.007Z" transform="translate(-556.467 -560.766)" fill="#9bc1f9" opacity="0.3" style="mix-blend-mode: multiply;isolation: isolate"/>
          <path id="Trazado_11721" data-name="Trazado 11721" d="M510.736,575.205l7.9-1.557.551,2.793-5.1,1.006A2.847,2.847,0,0,1,510.736,575.205Z" transform="translate(-510.682 -569.794)" fill="#f47458" opacity="0.3" style="mix-blend-mode: multiply;isolation: isolate"/>
        </g>
        <g id="Grupo_24699" data-name="Grupo 24699" transform="translate(9.821 30.573)">
          <path id="Trazado_11722" data-name="Trazado 11722" d="M577.128,635.394l5.1-1.006a2.847,2.847,0,0,1,3.344,2.242h0a2.847,2.847,0,0,1-2.242,3.344l-5.1,1.006Z" transform="translate(-569.728 -634.334)" fill="#fae0b2"/>
          <path id="Trazado_11723" data-name="Trazado 11723" d="M534.221,641.544l1.1,5.586-5.1,1.007a2.847,2.847,0,0,1-3.344-2.242h0a2.847,2.847,0,0,1,2.242-3.344Z" transform="translate(-526.821 -640.483)" fill="#50bfa5"/>
          <path id="Trazado_11724" data-name="Trazado 11724" d="M580.872,651.5l7.9-1.557a2.847,2.847,0,0,1-2.242,3.344l-5.1,1.007Z" transform="translate(-572.921 -647.649)" fill="#9bc1f9" opacity="0.3" style="mix-blend-mode: multiply;isolation: isolate"/>
          <path id="Trazado_11725" data-name="Trazado 11725" d="M527.19,662.089l7.9-1.557.551,2.793-5.1,1.007A2.847,2.847,0,0,1,527.19,662.089Z" transform="translate(-527.136 -656.678)" fill="#f47458" opacity="0.3" style="mix-blend-mode: multiply;isolation: isolate"/>
        </g>
        <g id="Grupo_24700" data-name="Grupo 24700" transform="translate(12.242 43.354)">
          <path id="Trazado_11726" data-name="Trazado 11726" d="M593.581,722.279l5.1-1.006a2.847,2.847,0,0,1,3.344,2.242h0a2.847,2.847,0,0,1-2.242,3.344l-5.1,1.007Z" transform="translate(-586.181 -721.218)" fill="#fae0b2"/>
          <path id="Trazado_11727" data-name="Trazado 11727" d="M550.675,728.429l1.1,5.586-5.1,1.006a2.847,2.847,0,0,1-3.344-2.242h0a2.847,2.847,0,0,1,2.242-3.344Z" transform="translate(-543.275 -727.368)" fill="#50bfa5"/>
          <path id="Trazado_11728" data-name="Trazado 11728" d="M597.326,738.387l7.9-1.557a2.847,2.847,0,0,1-2.242,3.344l-5.1,1.007Z" transform="translate(-589.375 -734.533)" fill="#9bc1f9" opacity="0.3" style="mix-blend-mode: multiply;isolation: isolate"/>
          <path id="Trazado_11729" data-name="Trazado 11729" d="M543.644,748.973l7.9-1.557.551,2.793-5.1,1.006A2.847,2.847,0,0,1,543.644,748.973Z" transform="translate(-543.59 -743.562)" fill="#f47458" opacity="0.3" style="mix-blend-mode: multiply;isolation: isolate"/>
        </g>
        <g id="Grupo_24701" data-name="Grupo 24701" transform="translate(14.662 56.134)">
          <path id="Trazado_11730" data-name="Trazado 11730" d="M610.035,809.163l5.1-1.006a2.847,2.847,0,0,1,3.344,2.242h0a2.847,2.847,0,0,1-2.242,3.344l-5.1,1.006Z" transform="translate(-602.635 -808.102)" fill="#fae0b2"/>
          <path id="Trazado_11731" data-name="Trazado 11731" d="M567.129,815.313l1.1,5.586-5.1,1.006a2.847,2.847,0,0,1-3.344-2.242h0a2.846,2.846,0,0,1,2.242-3.344Z" transform="translate(-559.728 -814.252)" fill="#50bfa5"/>
          <path id="Trazado_11732" data-name="Trazado 11732" d="M613.779,825.271l7.9-1.557a2.847,2.847,0,0,1-2.242,3.344l-5.1,1.007Z" transform="translate(-605.828 -821.417)" fill="#9bc1f9" opacity="0.3" style="mix-blend-mode: multiply;isolation: isolate"/>
          <path id="Trazado_11733" data-name="Trazado 11733" d="M560.1,835.857l7.9-1.557.551,2.793-5.1,1.006A2.847,2.847,0,0,1,560.1,835.857Z" transform="translate(-560.043 -830.446)" fill="#f47458" opacity="0.3" style="mix-blend-mode: multiply;isolation: isolate"/>
        </g>
        <g id="Grupo_24702" data-name="Grupo 24702" transform="translate(17.082 68.915)">
          <path id="Trazado_11734" data-name="Trazado 11734" d="M626.489,896.046l5.1-1.006a2.847,2.847,0,0,1,3.344,2.242h0a2.847,2.847,0,0,1-2.242,3.344l-5.1,1.006Z" transform="translate(-619.089 -894.986)" fill="#fae0b2"/>
          <path id="Trazado_11735" data-name="Trazado 11735" d="M583.582,902.2l1.1,5.586-5.1,1.007a2.847,2.847,0,0,1-3.344-2.242h0a2.847,2.847,0,0,1,2.242-3.344Z" transform="translate(-576.182 -901.135)" fill="#f47458"/>
          <path id="Trazado_11736" data-name="Trazado 11736" d="M630.233,912.155l7.9-1.557a2.847,2.847,0,0,1-2.242,3.344l-5.1,1.006Z" transform="translate(-622.282 -908.301)" fill="#9bc1f9" opacity="0.3" style="mix-blend-mode: multiply;isolation: isolate"/>
          <path id="Trazado_11737" data-name="Trazado 11737" d="M576.551,922.741l7.9-1.557.551,2.793-5.1,1.007A2.847,2.847,0,0,1,576.551,922.741Z" transform="translate(-576.497 -917.33)" fill="#f47458" opacity="0.3" style="mix-blend-mode: multiply;isolation: isolate"/>
        </g>
        <g id="Grupo_24703" data-name="Grupo 24703" transform="translate(19.503 81.696)">
          <path id="Trazado_11738" data-name="Trazado 11738" d="M642.943,982.93l5.1-1.006a2.847,2.847,0,0,1,3.344,2.242h0a2.847,2.847,0,0,1-2.242,3.344l-5.1,1.006Z" transform="translate(-635.543 -981.87)" fill="#fae0b2"/>
          <path id="Trazado_11739" data-name="Trazado 11739" d="M600.036,989.081l1.1,5.586-5.1,1.006a2.847,2.847,0,0,1-3.344-2.242h0a2.847,2.847,0,0,1,2.242-3.344Z" transform="translate(-592.636 -988.02)" fill="#f47458"/>
          <path id="Trazado_11740" data-name="Trazado 11740" d="M646.687,999.039l7.9-1.557a2.847,2.847,0,0,1-2.242,3.344l-5.1,1.006Z" transform="translate(-638.736 -995.186)" fill="#9bc1f9" opacity="0.3" style="mix-blend-mode: multiply;isolation: isolate"/>
          <path id="Trazado_11741" data-name="Trazado 11741" d="M593.005,1009.624l7.9-1.557.551,2.793-5.1,1.007A2.847,2.847,0,0,1,593.005,1009.624Z" transform="translate(-592.951 -1004.213)" fill="#f47458" opacity="0.3" style="mix-blend-mode: multiply;isolation: isolate"/>
        </g>
      </g>
      <g id="Grupo_24707" data-name="Grupo 24707" transform="translate(0 25.384)">
        <g id="Grupo_24706" data-name="Grupo 24706">
          <path id="Trazado_11742" data-name="Trazado 11742" d="M239.971,599.8l-14.719,12.637a3.061,3.061,0,0,0-.328,4.316l7.945,9.253a3.061,3.061,0,0,0,4.316.328L251.9,613.7a3.061,3.061,0,0,0,.328-4.316l-7.944-9.253A3.061,3.061,0,0,0,239.971,599.8Z" transform="translate(-224.185 -599.06)" fill="#f47458"/>
          <path id="Trazado_11743" data-name="Trazado 11743" d="M255.862,713.578h0a.823.823,0,0,1-1.161-.089l-7.642-8.9a.823.823,0,0,1,.088-1.161h0a.823.823,0,0,1,1.161.088l7.642,8.9A.823.823,0,0,1,255.862,713.578Z" transform="translate(-243.525 -687.906)" fill="#b75742"/>
          <path id="Trazado_11744" data-name="Trazado 11744" d="M278.686,693.982h0a.823.823,0,0,1-1.161-.088l-7.642-8.9a.823.823,0,0,1,.088-1.161h0a.823.823,0,0,1,1.161.088l7.642,8.9A.823.823,0,0,1,278.686,693.982Z" transform="translate(-262.991 -671.193)" fill="#b75742"/>
          <path id="Trazado_11745" data-name="Trazado 11745" d="M301.51,674.386h0a.823.823,0,0,1-1.161-.088l-7.642-8.9a.823.823,0,0,1,.088-1.161h0a.823.823,0,0,1,1.161.088l7.642,8.9A.823.823,0,0,1,301.51,674.386Z" transform="translate(-282.458 -654.479)" fill="#b75742"/>
          <path id="Trazado_11746" data-name="Trazado 11746" d="M324.333,654.79h0a.823.823,0,0,1-1.161-.088l-7.642-8.9a.823.823,0,0,1,.088-1.161h0a.823.823,0,0,1,1.161.088l7.642,8.9A.823.823,0,0,1,324.333,654.79Z" transform="translate(-301.924 -637.766)" fill="#b75742"/>
          <path id="Trazado_11747" data-name="Trazado 11747" d="M347.157,635.2h0a.824.824,0,0,1-1.161-.088l-7.642-8.9a.823.823,0,0,1,.088-1.161h0a.823.823,0,0,1,1.161.088l7.642,8.9A.823.823,0,0,1,347.157,635.2Z" transform="translate(-321.39 -621.053)" fill="#b75742"/>
          <path id="Trazado_11748" data-name="Trazado 11748" d="M567.742,978.906,540.029,1002.7a1.127,1.127,0,0,1-1.589-.121l-.443-.516a1.127,1.127,0,0,1,.121-1.589l27.713-23.794a1.127,1.127,0,0,1,1.589.121l.443.516A1.126,1.126,0,0,1,567.742,978.906Z" transform="translate(-491.604 -920.901)" fill="#fae0b2"/>
          <path id="Trazado_11749" data-name="Trazado 11749" d="M277.75,638.134l-1.737,1.491-1.619-1.885a.926.926,0,0,1,.1-1.306h0a.926.926,0,0,0,.1-1.306l-2.521-2.936a.926.926,0,0,0-1.306-.1l-27.093,23.262a.926.926,0,0,0-.1,1.306l2.521,2.936a.926.926,0,0,0,1.306.1.926.926,0,0,1,1.306.1l1.619,1.885-1.737,1.492a6.818,6.818,0,0,0-.732,9.614l29.865,34.784a6.818,6.818,0,0,0,9.614.732L316.5,683.263a6.817,6.817,0,0,0,.732-9.614l-29.865-34.784A6.817,6.817,0,0,0,277.75,638.134Z" transform="translate(-240.531 -627.043)" fill="#f7cc7f"/>
          <path id="Trazado_11750" data-name="Trazado 11750" d="M377.087,758.551l-26.414,22.678a3.586,3.586,0,0,1-5.058-.385l-12.086-14.077a3.587,3.587,0,0,1,.385-5.058l26.414-22.678a3.587,3.587,0,0,1,5.058.385l12.086,14.077A3.587,3.587,0,0,1,377.087,758.551Z" transform="translate(-316.706 -717.703)" fill="#fff"/>
          <g id="Grupo_24705" data-name="Grupo 24705" transform="translate(19.403 35.606)">
            <path id="Trazado_11751" data-name="Trazado 11751" d="M369.367,908.548l-1.176,1.009-3.44-1.152a6.764,6.764,0,0,0-.858-.238,2.82,2.82,0,0,0-.7-.059,1.7,1.7,0,0,0-.6.139,2.239,2.239,0,0,0-.555.359l-.811.7,3.079,3.585-.987.848-7.237-8.429,2.516-2.16a4.724,4.724,0,0,1,1.138-.738,3.008,3.008,0,0,1,1.172-.276,2.572,2.572,0,0,1,1.141.241,3.067,3.067,0,0,1,1.039.818,3.123,3.123,0,0,1,.562.922,2.787,2.787,0,0,1,.187.978,3,3,0,0,1-.167,1,3.952,3.952,0,0,1-.5.978l.02.023a2.363,2.363,0,0,1,.552-.1,2.672,2.672,0,0,1,.542.03,4.989,4.989,0,0,1,.6.133q.317.09.725.22Zm-11.525-3.2,2.624,3.056,1.34-1.151a2.68,2.68,0,0,0,.589-.7,2.089,2.089,0,0,0,.269-.787,1.915,1.915,0,0,0-.081-.819,2.262,2.262,0,0,0-.453-.79,1.742,1.742,0,0,0-1.344-.679,2.48,2.48,0,0,0-1.592.708Z" transform="translate(-356.088 -893.156)" fill="#b75742"/>
            <path id="Trazado_11752" data-name="Trazado 11752" d="M421.8,849.511l-1.2,1.035-4.71-1.562a3.8,3.8,0,0,1-.552-.251l-.023.02q.057.186.158.589l.772,4.943-1.211,1.04-.817-6.66-6.2-1.96,1.211-1.04,4.266,1.484a7.8,7.8,0,0,1,.8.33l.023-.02a8.621,8.621,0,0,1-.2-.894l-.73-4.478,1.134-.974.937,6.455Z" transform="translate(-400.38 -841.112)" fill="#b75742"/>
          </g>
          <rect id="Rectángulo_5750" data-name="Rectángulo 5750" width="15.763" height="1.078" transform="matrix(-0.76, 0.65, -0.65, -0.76, 47.45, 25.134)" fill="#9bc1f9"/>
          <rect id="Rectángulo_5751" data-name="Rectángulo 5751" width="15.763" height="1.078" transform="translate(50.94 29.198) rotate(139.455)" fill="#9bc1f9"/>
          <rect id="Rectángulo_5752" data-name="Rectángulo 5752" width="15.763" height="1.078" transform="translate(54.429 33.262) rotate(139.455)" fill="#9bc1f9"/>
          <rect id="Rectángulo_5753" data-name="Rectángulo 5753" width="36.033" height="1.078" transform="matrix(-0.76, 0.65, -0.65, -0.76, 57.918, 37.326)" fill="#9bc1f9"/>
          <path id="Trazado_11753" data-name="Trazado 11753" d="M247.046,659.884l27.688-23.772a.925.925,0,0,0-.141-.984l-2.521-2.936a.926.926,0,0,0-1.306-.1l-27.093,23.262a.926.926,0,0,0-.1,1.306l2.521,2.936A.926.926,0,0,0,247.046,659.884Z" transform="translate(-240.531 -627.043)" fill="#fae0b2"/>
        </g>
        <path id="Trazado_11754" data-name="Trazado 11754" d="M356.808,638.134l-1.737,1.491-1.619-1.885a.926.926,0,0,1,.1-1.306h0a.926.926,0,0,0,.1-1.306l-2.521-2.936a.926.926,0,0,0-1.306-.1l-13.781,11.832,44.7,52.059,14.815-12.72a6.817,6.817,0,0,0,.732-9.614l-29.865-34.784A6.817,6.817,0,0,0,356.808,638.134Z" transform="translate(-319.589 -627.043)" fill="#f7cc7f" opacity="0.5" style="mix-blend-mode: multiply;isolation: isolate"/>
      </g>
    </g>
    <path id="Trazado_11763" data-name="Trazado 11763" d="M754.8,567.757c9.491-40.258,22.8-123.179,6.919-134.817-21.087-15.457-38.033,10.3-54.6-10.153-7.226-8.923-7.864-12.922-22.8-20.2-20.981-10.217-36.794-.216-58.662-18.3-43.919-36.31-158.254-26.342-156.914,40.541.717,35.752-31.083,24.63-30.488,57.051.18,9.787,17.447,20.458-4.142,44.7-10.578,11.88-10.247,27.906-7.159,41.164Z" transform="translate(-247.697 -19.836)" fill="#ffe5ef"/>
    <path id="Trazado_11764" data-name="Trazado 11764" d="M2038.385,1434.761c-.4-.845,3.793-2,3.928-2.906s-5.482-.4-5.763-1.156c-.519-1.4,6.117-.94,5.919-1.6s-7.019-1.466-6.418-2.692,6.985,1.576,7.086.776-6.171-2.072-6.24-3.8c-.037-.922,10.445,3.532,11.543,2.915s-1.735-4.673-.886-5.407,4.527,7.749,5.192,8,15.046,4.6,19.937,5.317c.413-1.656,4.091-10.769,4.444-12.331,2.871,1.625,6.53-.331,9.47,1.118-1.479,5.217-4.8,22.4-6.129,23.176-4.042,2.356-25.309-8.877-28.824-10.866s-5.315-1.04-7.607-1.546S2038.782,1435.605,2038.385,1434.761Z" transform="translate(-1621.669 -921.624)" fill="#f7a491"/>
    <path id="Trazado_11765" data-name="Trazado 11765" d="M1257.188,1042.867c1.107-10.454-4.852-20.1-14.662-22.961a22.052,22.052,0,0,0-7.933-15.016c-8.806-7.057-24.1-9.844-28.975.782-7.343,5.1-12.518,15.059-9.336,23.331-6.765,8.415-2.5,21.968,9.156,27.392.695,8.6,6.191,16.665,14.224,19.558a51.42,51.42,0,0,1,5.333,1.974c-.524-.4,7.33,15.772,25.671,6.151C1269.381,1074.262,1270.939,1051.805,1257.188,1042.867Z" transform="translate(-902.71 -561.51)" fill="#355389"/>
    <path id="Trazado_11766" data-name="Trazado 11766" d="M1526.5,1486.523c.565-.875-3.9-2.883-3.919-3.922s6.13.5,6.555-.292c.782-1.469-6.635-2.107-6.319-2.807s7.99-.422,7.507-1.894-7.969.55-7.963-.36,7.142-1.245,7.474-3.157c.178-1.022-12.092,2.135-13.216,1.256s2.615-4.915,1.784-5.881-6.172,8.582-6.945,8.743-17.41,4.687-22.934,4.645c-.211-1.919-2.524-12.412-2.684-14.216-3.421,1.317-6.917.878-10.387,1.986.863,6.078,5.116,21.606,6.471,22.7,4.127,3.328,25.622-6.872,29.81-8.483s6.041-.241,8.655-.41S1525.938,1487.4,1526.5,1486.523Z" transform="translate(-1143.57 -962.38)" fill="#f48c7f"/>
    <path id="Trazado_11767" data-name="Trazado 11767" d="M1418.552,1311.371c9.429,3.2,13.853,25.777,13.853,25.777s-14.793,4.13-18.584,1.964c0,0-4.3-19.07-5.844-18.4Z" transform="translate(-1086.017 -828.248)" fill="#eab054"/>
    <path id="Trazado_11768" data-name="Trazado 11768" d="M1256.689,1358.026h34.551c.334-4.046,1.817-34.334,1.943-36.429.334-14.661-1.6-26.574-5.22-28.1a110.13,110.13,0,0,0-10.54-3.4h0c-3.926-.028-15.985,1.969-21.423,3.129-.983.21-1.909,4.982-1.909,4.982l1.184,17.3C1260.427,1339.661,1257.512,1354.616,1256.689,1358.026Z" transform="translate(-954.766 -810.105)" fill="#f7cc7f"/>
    <path id="Trazado_11769" data-name="Trazado 11769" d="M1340.856,1201.166s1.679,8.685,1.343,12.11,1.281,14.467,8.532,14.5,1.377-14.037.694-17.394-.845-13.749-.845-13.749Z" transform="translate(-1028.769 -730.39)" fill="#f7a491"/>
    <path id="Trazado_11770" data-name="Trazado 11770" d="M1350.73,1201.85c-.113-2.843-.15-5.214-.15-5.214l-9.724,4.53s.343,1.776.688,4.038C1345.8,1206.06,1348.885,1204.484,1350.73,1201.85Z" transform="translate(-1028.769 -730.39)" fill="#f47458"/>
    <path id="Trazado_11771" data-name="Trazado 11771" d="M1311.648,1055a12.046,12.046,0,0,0-6.932,4.635c-2.721,3.843-4.907,15.367,3.393,21.082s15.182-1.7,15.56-9.158S1322.806,1054.08,1311.648,1055Z" transform="translate(-995.856 -609.536)" fill="#f7a491"/>
    <path id="Trazado_11772" data-name="Trazado 11772" d="M1437.042,1128.424c-.79,1.774-2.268,2.841-3.3,2.38s-1.232-2.271-.443-4.046,2.268-2.84,3.3-2.381S1437.831,1126.649,1437.042,1128.424Z" transform="translate(-1107.2 -668.67)" fill="#f7a491"/>
    <path id="Trazado_11773" data-name="Trazado 11773" d="M1285.689,1053.9s-5.755,11.753-10.472,12.652-4.866,6.912-4.866,6.912.6-13.876,5.1-16.9S1285.689,1053.9,1285.689,1053.9Z" transform="translate(-968.635 -608.64)" fill="#355389"/>
    <path id="Trazado_11774" data-name="Trazado 11774" d="M1286.474,1140.236c.546,1.962-.086,3.852-1.413,4.221s-2.844-.922-3.39-2.884.086-3.852,1.412-4.221S1285.928,1138.274,1286.474,1140.236Z" transform="translate(-978.123 -679.773)" fill="#f7a491"/>
    <path id="Trazado_11775" data-name="Trazado 11775" d="M1230.694,1310.816c-8.051,5.045-10.171,27.9-10.171,27.9s15.28,1.563,18.648-1.214c0,0-1.274-19.56.358-19.164Z" transform="translate(-926.137 -827.774)" fill="#f7cc7f"/>
    <path id="Trazado_11776" data-name="Trazado 11776" d="M1377,1196.636l-6.571.726a2.919,2.919,0,0,0,3.332,2.29C1377.3,1199.366,1377,1196.636,1377,1196.636Z" transform="translate(-1053.995 -730.39)" fill="#fff"/>
    <path id="Trazado_11777" data-name="Trazado 11777" d="M939.331,1326.808s-13.026-7.891-17.285-13.982,2.328-2.456,8.542-4.694c2.353-.848.521-14.907,5.471-10.714,8.121,6.879,15.517,21.3,15.517,21.3Z" transform="translate(-670.41 -815.682)" fill="#d66350"/>
    <path id="Trazado_11778" data-name="Trazado 11778" d="M871.581,1134.146s-.034.392-.1,1.06c-.313,3.2-1.663,13.857-2.938,16.865-1.541,3.634,7.566,14.01,15.291,11.978,2.3-.6-2.855-10.011-2.738-11.065.224-2.017.527-4.769.837-7.591.175-1.592.351-3.205.517-4.722.472-4.31.856-7.835.856-7.835Z" transform="translate(-625.787 -675.975)" fill="#f7a491"/>
    <path id="Trazado_11779" data-name="Trazado 11779" d="M800.431,1337.7c-.222-12.629-.667-34.259-1.153-37.9-.695-5.2-8.265-26.078-10.059-28.232s-18.141-5.022-18.141-5.022-13.894-2.16-19.939,5.6c-3.53,4.533-2.926,45.154-2.389,65.555Z" transform="translate(-523.412 -789.777)" fill="#f47458"/>
    <g id="Grupo_24721" data-name="Grupo 24721" transform="translate(265.741 471.34)">
      <path id="Trazado_11780" data-name="Trazado 11780" d="M1045.111,1231.841a6.805,6.805,0,0,1,8.242,2.24c3.641,4.512,1.914,4.238,3.693,6.5s5.659,1.319,6.08,5.089-1.274,4.551-1.274,4.551a6.456,6.456,0,0,1,.5,5.965c-1.422,3.212-5.519,6.3-9.236,6.288,0,0-5.176,3.637-10.863,2.826s-3.761-1.026-6.022-.773-8.721-2.165-8.221-6.8c0,0-4.219-4.01-1.007-8.028s3.486-7.766,5.038-12.858S1042.467,1230.949,1045.111,1231.841Z" transform="translate(-1025.792 -1231.269)" fill="#184655"/>
    </g>
    <path id="Trazado_11781" data-name="Trazado 11781" d="M888.068,1138.817c.065-.668.1-1.06.1-1.06l11.725-1.31s-.384,3.525-.856,7.835c-.165,1.508-.341,3.113-.514,4.7a11.058,11.058,0,0,1-5.854-2.321,14.849,14.849,0,0,1-4.8-5.94C887.954,1139.963,888.019,1139.314,888.068,1138.817Z" transform="translate(-642.42 -679.055)" fill="#f47458"/>
    <path id="Trazado_11782" data-name="Trazado 11782" d="M1092.651,1442.8l-5.669,2.894,1.5,10.821,6.34.377Z" transform="translate(-812.24 -940.34)" fill="#89a6e5"/>
    <path id="Trazado_11783" data-name="Trazado 11783" d="M1149.679,1385.444s.781,6.669.207,7.352a2.449,2.449,0,0,0-.3,3.315c1.062,1.515,4.983.15,6.772-.925a8.868,8.868,0,0,0,2.733-2.763l-1.853-10.51Z" transform="translate(-865.189 -888.413)" fill="#f7a491"/>
    <path id="Trazado_11784" data-name="Trazado 11784" d="M1108.033,1488.26a31.108,31.108,0,0,0-1.183-11.844c-2.687-8.464-3.672-13.6-3.944-16.741-3.317-13.167-6.827-16.8-6.827-16.8-2.938-.023-8.291.325-8.291.325s-5.66-.378-9.2-.4c-2.006-.012-9.19,35.1-7.952,45.464Z" transform="translate(-798.177 -940.34)" fill="#9bc1f9"/>
    <path id="Trazado_11785" data-name="Trazado 11785" d="M1161.863,1387.9l-1.055-5.984-7.561,3.531a11.859,11.859,0,0,1,.182,1.834C1153.468,1387.857,1157.535,1390.143,1161.863,1387.9Z" transform="translate(-868.757 -888.413)" fill="#f47458"/>
    <path id="Trazado_11786" data-name="Trazado 11786" d="M841.329,1504.7l13.1-2.663s3.155,10.841,3.759,12.012c0,0,24.633-.283,34.366-1.464l3.559,7.055c-1.883.279-3.464.365-4.378.541-1.793.346-30.3,6.228-30.3,6.228s-11.485,1.847-12.8.183S841.329,1504.7,841.329,1504.7Z" transform="translate(-602.723 -990.864)" fill="#f7a491"/>
    <path id="Trazado_11787" data-name="Trazado 11787" d="M760.785,1321.149s-14.617-26.912-15.524-34.761,6.284-17.04,13.182-15.863S777,1312.606,777,1312.606Z" transform="translate(-520.721 -793.323)" fill="#d66350"/>
    <path id="Trazado_11788" data-name="Trazado 11788" d="M1097.978,1327.867s-.626-3.9-2.95-2.87.172,6.744,2.147,6.327S1097.978,1327.867,1097.978,1327.867Z" transform="translate(-818.304 -839.721)" fill="#f7a491"/>
    <path id="Trazado_11789" data-name="Trazado 11789" d="M1112.995,1252.479s3.76-.5,6.013,2.213,5.281,10.859,2.743,16.993-6.76,5.163-8.5,4.764-5.194-1.329-7.471-6.545S1103.362,1252.409,1112.995,1252.479Z" transform="translate(-827.179 -777.987)" fill="#f7a491"/>
    <g id="Grupo_24723" data-name="Grupo 24723" transform="translate(236.053 423.871)">
      <g id="Grupo_24722" data-name="Grupo 24722" transform="translate(0 0)">
        <path id="Trazado_11790" data-name="Trazado 11790" d="M884.121,965.324c-.34-.192-6.019,18.218-2.068,24.2s13.05,9.247,17.1,5.727c4.475-3.893,7.665-24.166,1.067-30.745S884.121,965.324,884.121,965.324Z" transform="translate(-872.323 -953.955)" fill="#f7a491"/>
        <path id="Trazado_11791" data-name="Trazado 11791" d="M850.7,908.578a21.081,21.081,0,0,0-11.951,4.4c-2.679-.128-6.493.728-11.2,6.219-5.787,6.752-3.826,15.629.772,20.591s4.7,9.109,4.7,9.109,1.783-5.405,1.9-7.377a11.374,11.374,0,0,0-.278-3.6c-.815-2.937,3.484-4.081,4.983-6.162,1.154-1.6,1.862-5.59,3.7-8.25l1.991-1.932s4.232-2.29,7.76-.856S858.379,908.3,850.7,908.578Z" transform="translate(-823.976 -908.574)" fill="#0e2e35"/>
        <path id="Trazado_11792" data-name="Trazado 11792" d="M896.492,1062.365c-.345,2.3-1.7,4.011-3.034,3.812s-2.129-2.227-1.784-4.532,1.7-4.011,3.034-3.812S896.838,1060.061,896.492,1062.365Z" transform="translate(-881.647 -1035.864)" fill="#f7a491"/>
      </g>
      <path id="Trazado_11793" data-name="Trazado 11793" d="M971.994,1133.692l7.321.835a3.221,3.221,0,0,1-3.716,2.487C971.661,1136.68,971.994,1133.692,971.994,1133.692Z" transform="translate(-950.215 -1100.577)" fill="#fff"/>
    </g>
    <g id="Grupo_24724" data-name="Grupo 24724" transform="translate(270.785 530.285)">
      <rect id="Rectángulo_5754" data-name="Rectángulo 5754" width="5.096" height="11.575" transform="translate(1.983 5.675) rotate(-53.654)" fill="#466eb6"/>
      <path id="Trazado_11794" data-name="Trazado 11794" d="M1063.9,1631.975l-.377.134.022.222-.251.089.022.222-.251.089.022.222-.251.089.022.222-.251.089.022.222-.251.089.022.222-.251.089.022.222-.251.089.023.222-.251.089.022.222-.251.089.022.222-.251.089.022.222-.251.089.022.222-.251.089.022.222-.251.089.022.222-.251.089.022.222-.251.089.036.36-.011.015h.013v.01l.031-.011,1.212-.017.7.517,3.02-4.1-.7-.517-.476-1.044-.011.015Z" transform="translate(-1060.086 -1631.975)" fill="#13375b"/>
      <path id="Trazado_11795" data-name="Trazado 11795" d="M1141.8,1689.938l-1.174-.17-.657-.484-3.02,4.1.657.484.379,1.188v.033l.01,0,0,.013.011-.016.363-.066,0-.27.224-.041,0-.27.224-.041.005-.27.224-.041,0-.27.224-.041,0-.27.224-.041.005-.27.224-.041,0-.27.224-.041.005-.27.224-.041,0-.27.224-.041,0-.27.224-.041.005-.271.224-.041,0-.271.224-.041,0-.271.224-.041,0-.27.224-.041,0-.27.224-.041.007-.406-.026,0Z" transform="translate(-1125.64 -1680.854)" fill="#13375b"/>
      <rect id="Rectángulo_5755" data-name="Rectángulo 5755" width="2.943" height="8.987" transform="translate(3.652 5.567) rotate(-53.653)" fill="#50bfa5"/>
      <path id="Trazado_11796" data-name="Trazado 11796" d="M1073.568,1646.755l1.668-.108,1.744-2.37-.392-1.626Z" transform="translate(-1071.585 -1641.08)" fill="#355389"/>
      <path id="Trazado_11797" data-name="Trazado 11797" d="M1134.536,1693.389l-.416-1.641,1.744-2.37,1.692-.093Z" transform="translate(-1123.229 -1680.854)" fill="#355389"/>
    </g>
    <path id="Trazado_11798" data-name="Trazado 11798" d="M1164.832,1366.388l5.8-.953a2.571,2.571,0,0,1-2.312,2.719C1165.227,1368.755,1164.832,1366.388,1164.832,1366.388Z" transform="translate(-878.638 -874.359)" fill="#fff"/>
    <path id="Trazado_11799" data-name="Trazado 11799" d="M1207.591,1517.281c-1.268.728-3.747,2.1-3.861,1.8-.1-.259,1.634-1.2,3.551-2.653l-.652-1.784c-.489.3-.994.541-1.424.817a19.3,19.3,0,0,1-2.2,1.36c-.008-.1-.378-.121.235-.682s2.053-1.414,3.092-2.313l-.674-1.839c-.116.112-.188.184-.188.184s-3.228,2.018-3.527,1.542c-.124-.2,1.6-1.61,3.136-3.3-.267-.725-.521-1.412-.752-2.033-.258.251-.508.488-.66.619-.5.433-2.113,1.608-2.113,1.608s-5.794,3.816-6.041,3.343a3.528,3.528,0,0,1-.141-2.3c.275-.367,1.131-.756,1.407-1.123a1.208,1.208,0,0,0-.1-1.5c-.424-.4-2.431.83-2.431.83a7.23,7.23,0,0,0-2.242,2.207,30.962,30.962,0,0,0-2.423,5.927l3.412,7.075c1.3-.262,4.035-.819,5.925-1.26,2.563-.6,4.7-2.347,5.391-2.631a21.551,21.551,0,0,0,3.814-2.451Z" transform="translate(-899.743 -996.278)" fill="#f8a492"/>
    <path id="Trazado_11800" data-name="Trazado 11800" d="M1115.356,1522.353s2.227,6.691,2.332,7.508c0,0-11.976,7.675-17.407,10.532-.071.026-.141.054-.213.079-.121.042-.245.137-.377.046-.591-.409-2.734-1.627-3.678-2.114a2.015,2.015,0,0,0-.836-.222l-1.859-.082.917.913a.764.764,0,0,1,.021,1.05l-.006.006a3.544,3.544,0,0,1-1.015.685,4.177,4.177,0,0,0-1.274,1.108,1.035,1.035,0,0,0,.082,1.393,3.545,3.545,0,0,1,.694.818c.223.543,3.509,4.285,4.454,4.025a14.388,14.388,0,0,0,3.039-2.091,4.528,4.528,0,0,1,1.609-1,2.866,2.866,0,0,0,.362-.161h0c4.149-1.769,18.2-7.478,18.2-7.478s6.558-3.128,6.645-4.452-4.016-13.844-4.016-13.844Z" transform="translate(-816.29 -1005.394)" fill="#f48c7f"/>
    <path id="Trazado_11801" data-name="Trazado 11801" d="M1230.944,1458.662s-10.654,3.868-13.4,3.68c0,0-3.579-13.393-3.773-14.231-.88-3.792.935-6.029,2.542-6.93C1223.695,1437.038,1230.944,1458.662,1230.944,1458.662Z" transform="translate(-920.182 -938.512)" fill="#89a6e5"/>
    <path id="Trazado_11802" data-name="Trazado 11802" d="M2284.45,1004.626c4.574-1.96,9.695-3.947,14.385-2.282,2.954,1.049,5.227,3.4,7.386,5.671,2.367,2.492,4.882,5.327,4.94,8.763a12.571,12.571,0,0,1-.81,4.092,23.681,23.681,0,0,1-3.562,7.3c-2.716,3.476-6.888,5.537-11.136,6.723-3.759,1.05-4.693.679-8.592.511-2.632-.114-6.8-4.3-8.513-6.3-2.716-3.187-2.48-17,.385-20.48a15.01,15.01,0,0,1,3.049-2.646,24.468,24.468,0,0,1,2.421-1.462Z" transform="translate(-1826.9 -564.148)" fill="#13375b"/>
    <path id="Trazado_11803" data-name="Trazado 11803" d="M2310.953,1353.252c-.841-4.412-2.944-15.919-2.948-20.6,0-5.844,5.811-41.1,1.021-45.066s-18.342-2.978-18.342-2.978-9.94,4.439-11.244,6.28-6.021,19.032-6.234,23.236c-.188,3.687,1.084,32.174,1.4,39.125Z" transform="translate(-1823.953 -805.331)" fill="#94dcf0"/>
    <path id="Trazado_11804" data-name="Trazado 11804" d="M2363.058,1186.682s.056.311.155.84c.476,2.539,2.31,10.96,3.548,13.275,1.5,2.8-5.123,11.721-11.5,10.632-1.9-.324,1.531-8.557,1.363-9.391-.322-1.6-.686-3.417-1.133-5.651l-.747-3.738c-.681-3.412-1.238-6.2-1.238-6.2Z" transform="translate(-1892.46 -721.699)" fill="#f7a491"/>
    <path id="Trazado_11805" data-name="Trazado 11805" d="M2363.213,1187.522c-.1-.529-.155-.84-.155-.84l-9.548-.236s.556,2.791,1.238,6.2c.239,1.194.492,2.464.743,3.717a8.987,8.987,0,0,0,4.559-2.26,11.909,11.909,0,0,0,3.453-5.079C2363.385,1188.43,2363.287,1187.915,2363.213,1187.522Z" transform="translate(-1892.46 -721.699)" fill="#f47458"/>
    <path id="Trazado_11806" data-name="Trazado 11806" d="M2320.917,1037.06a8.661,8.661,0,0,1,7.322,3.094c2.821,3.609,5.861,14.767-1.146,20.834s-13.932-.8-14.958-8.082S2310.708,1036.8,2320.917,1037.06Z" transform="translate(-1856.746 -594.266)" fill="#f7a491"/>
    <path id="Trazado_11807" data-name="Trazado 11807" d="M2371.309,1028.444s6.013,10.611,10.314,11.1,4.866,6.129,4.866,6.129-1.538-12.993-5.8-15.5A15.972,15.972,0,0,0,2371.309,1028.444Z" transform="translate(-1907.641 -586.844)" fill="#13375b"/>
    <path id="Trazado_11808" data-name="Trazado 11808" d="M2430.934,1105.953c-.4,1.875.356,3.625,1.686,3.908s2.731-1.008,3.13-2.883-.356-3.625-1.685-3.908S2431.333,1104.078,2430.934,1105.953Z" transform="translate(-1958.404 -650.554)" fill="#f7a491"/>
    <path id="Trazado_11809" data-name="Trazado 11809" d="M2367.579,1284l3.149,1.6-6.556,5.8,1.083.517-10.786,6.11Z" transform="translate(-1893.279 -804.906)" fill="#c5eff9"/>
    <path id="Trazado_11810" data-name="Trazado 11810" d="M2350.91,1292.441l-3.706,1.975,1.517,1.466-1.916.58,1.127,8.762Z" transform="translate(-1886.742 -812.103)" fill="#c5eff9"/>
    <path id="Trazado_11811" data-name="Trazado 11811" d="M2358.683,1345.03a4.187,4.187,0,0,1-3.016-.633l-1.2,5.14Z" transform="translate(-1893.279 -856.415)" fill="#13375b"/>
    <g id="Grupo_24725" data-name="Grupo 24725" transform="translate(444.494 501.293)">
      <path id="Trazado_11812" data-name="Trazado 11812" d="M2269.6,1440.689l-27.354,4a1.5,1.5,0,0,0-1.271,1.707l5.339,36.494a1.5,1.5,0,0,0,1.707,1.271l27.354-4a1.5,1.5,0,0,0,1.271-1.706l-5.339-36.494A1.5,1.5,0,0,0,2269.6,1440.689Z" transform="translate(-2240.962 -1439.823)" fill="#184655"/>
      <path id="Trazado_11813" data-name="Trazado 11813" d="M2296.949,1441.147a.3.3,0,0,1,.257-.346l11.411-1.669a.305.305,0,0,1,.346.258l.174,1.186-12.014,1.757Z" transform="translate(-2288.711 -1438.505)" fill="#13375b"/>
      <path id="Trazado_11814" data-name="Trazado 11814" d="M2325.513,1436.973a1.819,1.819,0,1,0,1.536-2.063A1.818,1.818,0,0,0,2325.513,1436.973Zm.646-.095a1.166,1.166,0,1,1,1.323.985A1.166,1.166,0,0,1,2326.158,1436.879Z" transform="translate(-2313.058 -1434.891)" fill="#13375b"/>
      <path id="Trazado_11815" data-name="Trazado 11815" d="M2297.093,1449.231a.3.3,0,0,0-.143.305l.173,1.186,12.014-1.757a1.5,1.5,0,0,1-1.27,1.705l-9.039,1.322a1.5,1.5,0,0,1-1.706-1.27l-.173-1.186A.3.3,0,0,1,2297.093,1449.231Z" transform="translate(-2288.711 -1446.895)" fill="#355389"/>
    </g>
    <path id="Trazado_11816" data-name="Trazado 11816" d="M2301.394,1527.545l-9.912,1.013s.162,8.412-.009,9.379c0,0-16.949,4.7-24.033,5.973,0,0-3.225-1.828-4.53-2.409a31.635,31.635,0,0,0-5.588-1.317c-.775-.1-.511.749.156,1.045s2.389,1.109,2.878,2.1a5.386,5.386,0,0,1-2.139-.177c-.74-.33-1.76-1.028-1.776-1.39s-.184-1.235-.427-1.188c-.062.012-.145.3-.228.6s-.163.577-.232.864c-.125.516-.268,1.269-.323,1.608a23.387,23.387,0,0,0,.412,3.66c.121,1.381.516,2,1.245,2.348a18.045,18.045,0,0,0,4.26.861c3.372.349,6.471-.622,7.823-.774s22.934-2.292,22.934-2.292,8.58-1.235,9.149-2.711S2301.394,1527.545,2301.394,1527.545Z" transform="translate(-1808.62 -1012.622)" fill="#f7a491"/>
    <path id="Trazado_11817" data-name="Trazado 11817" d="M2460.6,1300.319s3.128,1.483,5.878,7.89c2.613,6.088,3.381,36.472,3.381,36.472l-10.368-1.728-5.269-14.167a25.981,25.981,0,0,1,2.686-25.838C2458.37,1300.95,2459.715,1299.744,2460.6,1300.319Z" transform="translate(-1976.439 -818.699)" fill="#81b4da"/>
    <path id="Trazado_11818" data-name="Trazado 11818" d="M2354.553,1168.215l-6.917.764a3.072,3.072,0,0,0,3.508,2.41C2354.865,1171.089,2354.553,1168.215,2354.553,1168.215Z" transform="translate(-1887.451 -706.15)" fill="#fff"/>
    <g id="Grupo_24727" data-name="Grupo 24727" transform="translate(334.157 340.3)">
      <g id="Grupo_24726" data-name="Grupo 24726" transform="translate(0)">
        <path id="Trazado_11819" data-name="Trazado 11819" d="M1503.5,358.709h-6.959v-5.65h-5.65V346.1h5.65v-5.65h6.959v5.65h5.65v6.959h-5.65Zm-6.026-.934h5.092v-5.65h5.65v-5.092h-5.65v-5.65h-5.092v5.65h-5.65v5.092h5.65Z" transform="translate(-1490.888 -340.449)" fill="#ff629e"/>
      </g>
    </g>
    <g id="Grupo_24729" data-name="Grupo 24729" transform="translate(495.574 445.866)">
      <g id="Grupo_24728" data-name="Grupo 24728" transform="translate(0 0)">
        <path id="Trazado_11820" data-name="Trazado 11820" d="M2600.821,1076.356h-6.96v-5.65h-5.65v-6.96h5.65v-5.65h6.96v5.65h5.65v6.96h-5.65Zm-6.026-.934h5.092v-5.65h5.65v-5.092h-5.65v-5.65H2594.8v5.65h-5.65v5.092h5.65Z" transform="translate(-2588.211 -1058.096)" fill="#50bfa5"/>
      </g>
    </g>
    <g id="Grupo_24731" data-name="Grupo 24731" transform="translate(389.536 464.572)">
      <g id="Grupo_24730" data-name="Grupo 24730">
        <path id="Trazado_11821" data-name="Trazado 11821" d="M1877.443,1199.857h-5.565v-4.518h-4.518v-5.566h4.518v-4.518h5.565v4.518h4.519v5.566h-4.519Zm-4.819-.747h4.072v-4.518h4.518v-4.072H1876.7V1186h-4.072v4.518h-4.518v4.072h4.518Z" transform="translate(-1867.359 -1185.255)" fill="#50bfa5"/>
      </g>
    </g>
    <g id="Grupo_24732" data-name="Grupo 24732" transform="translate(355.938 399.19)">
      <path id="Trazado_11822" data-name="Trazado 11822" d="M1644.7,749.1h-3.168v-2.571h-2.571v-3.167h2.571v-2.571h3.168v2.571h2.571v3.167H1644.7Zm-2.743-.425h2.317V746.1h2.571v-2.317h-2.571v-2.571h-2.317v2.571h-2.571V746.1h2.571Z" transform="translate(-1638.956 -740.788)" fill="#f47458"/>
    </g>
    <g id="Grupo_24734" data-name="Grupo 24734" transform="translate(198.066 512.168)">
      <g id="Grupo_24733" data-name="Grupo 24733" transform="translate(0 0)">
        <path id="Trazado_11823" data-name="Trazado 11823" d="M576.454,1523.4l-5.559.358-.291-4.513-4.513.29-.358-5.559,4.513-.291-.291-4.513,5.559-.358.291,4.513,4.513-.291.358,5.559-4.513.291Zm-4.861-.436,4.067-.262-.291-4.513,4.513-.291-.262-4.067-4.513.291-.291-4.513-4.067.262.291,4.513-4.513.29.262,4.067,4.513-.291Z" transform="translate(-565.733 -1508.817)" fill="#f47458"/>
      </g>
    </g>
    <g id="Grupo_24736" data-name="Grupo 24736" transform="translate(500.247 490.105)">
      <g id="Grupo_24735" data-name="Grupo 24735" transform="translate(0 0)">
        <path id="Trazado_11824" data-name="Trazado 11824" d="M2622.618,1364.115a2.643,2.643,0,1,1,2.642-2.643A2.645,2.645,0,0,1,2622.618,1364.115Zm0-4.615a1.973,1.973,0,1,0,1.972,1.973A1.975,1.975,0,0,0,2622.618,1359.5Z" transform="translate(-2619.976 -1358.829)" fill="#f7cc7f"/>
      </g>
    </g>
    <g id="Grupo_24738" data-name="Grupo 24738" transform="translate(291.293 340.274)">
      <g id="Grupo_24737" data-name="Grupo 24737">
        <path id="Trazado_11825" data-name="Trazado 11825" d="M1203.37,348.013a3.87,3.87,0,1,1,3.87-3.87A3.874,3.874,0,0,1,1203.37,348.013Zm0-6.758a2.888,2.888,0,1,0,2.888,2.888A2.891,2.891,0,0,0,1203.37,341.256Z" transform="translate(-1199.5 -340.274)" fill="#f47458"/>
      </g>
    </g>
    <g id="Grupo_24740" data-name="Grupo 24740" transform="translate(205.945 461.089)">
      <g id="Grupo_24739" data-name="Grupo 24739">
        <path id="Trazado_11826" data-name="Trazado 11826" d="M621.867,1166.721a2.572,2.572,0,1,1,2.572-2.572A2.575,2.575,0,0,1,621.867,1166.721Zm0-4.491a1.92,1.92,0,1,0,1.92,1.919A1.922,1.922,0,0,0,621.867,1162.229Z" transform="translate(-619.295 -1161.577)" fill="#81b4da"/>
      </g>
    </g>
    <g id="Grupo_24742" data-name="Grupo 24742" transform="translate(240.852 382.918)">
      <g id="Grupo_24741" data-name="Grupo 24741" transform="translate(0 0)">
        <path id="Trazado_11827" data-name="Trazado 11827" d="M858.335,633.641a1.735,1.735,0,1,1,1.735-1.735A1.737,1.737,0,0,1,858.335,633.641Zm0-3.03a1.295,1.295,0,1,0,1.295,1.295A1.3,1.3,0,0,0,858.335,630.611Z" transform="translate(-856.6 -630.171)" fill="#f47458" opacity="0.5" style="mix-blend-mode: multiply;isolation: isolate"/>
      </g>
    </g>
    <g id="Grupo_24744" data-name="Grupo 24744" transform="translate(323.752 423.505)">
      <g id="Grupo_24743" data-name="Grupo 24743" transform="translate(0 0)">
        <path id="Trazado_11828" data-name="Trazado 11828" d="M1423.046,911.855a2.888,2.888,0,1,1,2.888-2.888A2.892,2.892,0,0,1,1423.046,911.855Zm0-5.044a2.156,2.156,0,1,0,2.156,2.156A2.158,2.158,0,0,0,1423.046,906.812Z" transform="translate(-1420.158 -906.079)" fill="#f7cc7f"/>
      </g>
    </g>
    <g id="Grupo_24746" data-name="Grupo 24746" transform="translate(407.259 529.333)">
      <g id="Grupo_24745" data-name="Grupo 24745" transform="translate(0 0)">
        <path id="Trazado_11829" data-name="Trazado 11829" d="M1991.707,1633.245a3.87,3.87,0,1,1,3.87-3.87A3.874,3.874,0,0,1,1991.707,1633.245Zm0-6.758a2.888,2.888,0,1,0,2.888,2.888A2.891,2.891,0,0,0,1991.707,1626.487Z" transform="translate(-1987.837 -1625.505)" fill="#f47458"/>
      </g>
    </g>
    <g id="Grupo_24758" data-name="Grupo 24758" transform="translate(370.148 347.179)">
      <g id="Grupo_24747" data-name="Grupo 24747" transform="translate(12.253 23.65)">
        <path id="Trazado_11830" data-name="Trazado 11830" d="M1892.616,547.987h-67.772a6,6,0,0,0-5.984,6V593.61a6,6,0,0,0,5.984,6h47.421c3.049,4.268,8.576,11.913,9.064,11.913.457,0-.423-7.22-1.043-11.913h12.329a5.994,5.994,0,0,0,5.984-6V553.991A5.994,5.994,0,0,0,1892.616,547.987Z" transform="translate(-1818.86 -547.987)" fill="#89ace8"/>
      </g>
      <g id="Grupo_24751" data-name="Grupo 24751" transform="translate(10.104 44.121)">
        <circle id="Elipse_1527" data-name="Elipse 1527" cx="22.766" cy="22.766" r="22.766" transform="matrix(0.995, -0.099, 0.099, 0.995, 0, 4.487)" fill="#b5d1ff"/>
        <g id="Grupo_24748" data-name="Grupo 24748" transform="translate(1.287 1.287)">
          <path id="Trazado_11831" data-name="Trazado 11831" d="M1819.914,736.207a23.611,23.611,0,1,1,16.7,6.915A23.457,23.457,0,0,1,1819.914,736.207Zm-5.225-16.7a21.92,21.92,0,1,0,21.92-21.92A21.945,21.945,0,0,0,1814.689,719.511Z" transform="translate(-1812.998 -695.9)" fill="#f7cc7f"/>
        </g>
        <g id="Grupo_24750" data-name="Grupo 24750" transform="translate(11.226 16.176)">
          <path id="Trazado_11832" data-name="Trazado 11832" d="M1882.725,798.264c5.949-4.14,8.754,4.239,8.754,4.239s2.8-8.38,8.754-4.239c5.644,3.928-.617,15.288-8.754,19.234C1883.342,813.552,1877.082,802.192,1882.725,798.264Z" transform="translate(-1880.56 -797.114)" fill="#89ace8"/>
          <g id="Grupo_24749" data-name="Grupo 24749" transform="translate(5.375 3.147)">
            <path id="Trazado_11833" data-name="Trazado 11833" d="M1929.705,833.066l1.286-7.892h3.563l.612,4.369,2.5-9.1,2.336,5.778h3.513v-.553h-3.14l-2.809-6.949-2.223,8.09-.307-2.191h-4.516l-.836,5.134L1927.7,818.5l-1.653,6.715H1917.1v.554h9.384l1.129-4.587Z" transform="translate(-1917.1 -818.505)" fill="#fff"/>
          </g>
        </g>
      </g>
      <g id="Grupo_24753" data-name="Grupo 24753" transform="translate(57.879 9.451)">
        <circle id="Elipse_1528" data-name="Elipse 1528" cx="26.022" cy="26.022" r="26.022" transform="translate(0.966 0.966)" fill="#d5e4ff"/>
        <g id="Grupo_24752" data-name="Grupo 24752">
          <path id="Trazado_11834" data-name="Trazado 11834" d="M2156.013,505.437a26.988,26.988,0,1,1,19.083-7.9A26.812,26.812,0,0,1,2156.013,505.437Zm0-52.043a25.055,25.055,0,1,0,25.055,25.055A25.084,25.084,0,0,0,2156.013,453.394Z" transform="translate(-2129.025 -451.461)" fill="#f7cc7f"/>
        </g>
        <path id="Trazado_11835" data-name="Trazado 11835" d="M2214.9,599.161c-2.29-4.736-4.25-9.241-4.174-14.335.057-3.824,2.345-6.347,6.122-6.617,8.54-.611,17.087-.235,25.632-.071,1.579.03,1.321,1.027.988,1.926-.949,2.557-2.773,4.563-4.311,6.76-2.537,3.623-6.282,4.258-10.244,4.512a38.813,38.813,0,0,0-4.258.239,12.693,12.693,0,0,0-8.51,5.66C2215.781,597.766,2215.446,598.319,2214.9,599.161Z" transform="translate(-2198.709 -559.276)" fill="#89ace8"/>
        <path id="Trazado_11836" data-name="Trazado 11836" d="M2282.264,680.54c-4.9,4.427-10.375,7.61-17.052,8.321-1.049.112-1.114-.29-.673-1.094,2.115-3.857,5.259-6.294,9.7-6.638C2276.9,680.924,2279.579,680.954,2282.264,680.54Z" transform="translate(-2244.385 -646.842)" fill="#89ace8"/>
        <path id="Trazado_11837" data-name="Trazado 11837" d="M2296.466,530.189l-3.7,10.9,2.995-.559-3.385,7.744,8.94-9.648-3.662-.413,5.278-6.712Z" transform="translate(-2268.351 -518.608)" fill="#fff"/>
      </g>
      <g id="Grupo_24757" data-name="Grupo 24757" transform="translate(0 0)">
        <g id="Grupo_24755" data-name="Grupo 24755">
          <circle id="Elipse_1529" data-name="Elipse 1529" cx="16.723" cy="16.723" r="16.723" transform="translate(0 23.65) rotate(-45)" fill="#00348d"/>
          <g id="Grupo_24754" data-name="Grupo 24754" transform="translate(6.306 6.306)">
            <path id="Trazado_11838" data-name="Trazado 11838" d="M1783.509,459.688a17.344,17.344,0,1,1,12.264,5.08A17.23,17.23,0,0,1,1783.509,459.688Zm-3.838-12.264a16.1,16.1,0,1,0,16.1-16.1A16.12,16.12,0,0,0,1779.671,447.424Z" transform="translate(-1778.429 -430.08)" fill="#f7cc7f"/>
          </g>
        </g>
        <g id="Grupo_24756" data-name="Grupo 24756" transform="translate(12.581 12.583)">
          <circle id="Elipse_1530" data-name="Elipse 1530" cx="10.617" cy="10.617" r="10.617" transform="translate(0 21.211) rotate(-87.403)" fill="#fff"/>
          <path id="Trazado_11839" data-name="Trazado 11839" d="M1831.025,492.315a9.625,9.625,0,1,0,9.625-9.625A9.625,9.625,0,0,0,1831.025,492.315Z" transform="translate(-1829.563 -481.228)" fill="#89ace8"/>
          <path id="Trazado_11840" data-name="Trazado 11840" d="M1858.109,504.343l1.937-.02.056,5.476,5.477.013,0,1.937-5.452-.013.056,5.452-1.937.02-.056-5.476-5.477-.013,0-1.937,5.452.013Z" transform="translate(-1848.057 -499.679)" fill="#fff"/>
        </g>
      </g>
    </g>
    <g id="Grupo_24761" data-name="Grupo 24761" transform="translate(255.219 377.068)">
      <g id="Grupo_24759" data-name="Grupo 24759" transform="translate(0 0)">
        <path id="Trazado_11841" data-name="Trazado 11841" d="M958.18,590.4h62.557a3.919,3.919,0,0,1,3.913,3.926v25.9a3.919,3.919,0,0,1-3.913,3.926H971.486c-1.993,2.791-5.607,7.789-5.926,7.789-.3,0,.276-4.721.681-7.789H958.18a3.919,3.919,0,0,1-3.913-3.926v-25.9A3.919,3.919,0,0,1,958.18,590.4Z" transform="translate(-954.267 -590.4)" fill="#89ace8"/>
        <rect id="Rectángulo_5756" data-name="Rectángulo 5756" width="38.979" height="1.71" rx="0.855" transform="translate(46.755 10.964) rotate(180)" fill="#fff"/>
        <rect id="Rectángulo_5757" data-name="Rectángulo 5757" width="56.262" height="1.71" rx="0.855" transform="translate(63.913 24.323) rotate(180)" fill="#fff"/>
        <rect id="Rectángulo_5758" data-name="Rectángulo 5758" width="27.804" height="1.71" rx="0.855" transform="translate(63.913 17.643) rotate(180)" fill="#fff"/>
        <rect id="Rectángulo_5759" data-name="Rectángulo 5759" width="25.509" height="1.71" rx="0.855" transform="translate(33.161 17.643) rotate(180)" fill="#fff"/>
      </g>
      <g id="Grupo_24760" data-name="Grupo 24760" transform="translate(50.626 9.254)">
        <rect id="Rectángulo_5760" data-name="Rectángulo 5760" width="13.287" height="1.71" rx="0.855" transform="translate(13.287 1.71) rotate(180)" fill="#fff"/>
      </g>
    </g>
  </g>
</svg>
