<svg xmlns="http://www.w3.org/2000/svg" width="312" height="167" viewBox="0 0 312 167">
  <g id="Grupo_24685" data-name="Grupo 24685" transform="translate(-876 -1047)">
    <rect id="Rectángulo_5739" data-name="Rectángulo 5739" width="312" height="167" rx="10" transform="translate(876 1047)" fill="#e9f0f9"/>
    <g id="healthcare-covid19-coronavirus-hand-hearth" transform="translate(942.085 1042.901)">
      <path id="Trazado_11647" data-name="Trazado 11647" d="M65.114,152.991,55.077,124.077a6.924,6.924,0,0,0-7.887-5.14,6.662,6.662,0,0,0-5.127,7.9q.034.158.075.315l10.325,31.882Z" transform="translate(-11.569 -68.204)" fill="#ffac96"/>
      <path id="Trazado_11648" data-name="Trazado 11648" d="M386.32,152.991l10.037-28.913a6.924,6.924,0,0,1,7.887-5.14,6.662,6.662,0,0,1,5.127,7.9q-.034.158-.075.315l-10.325,31.882Z" transform="translate(-260.592 -68.204)" fill="#ffac96"/>
      <path id="Trazado_11649" data-name="Trazado 11649" d="M74.229,188.119,54.644,176.638a6.634,6.634,0,0,0-8.419,1.5l-7.147-22.065a6.924,6.924,0,0,0-7.887-5.14,6.662,6.662,0,0,0-5.127,7.9q.034.158.075.315l9.638,35.959a8.745,8.745,0,0,0,2.681,4.343l14.977,13.316A8.862,8.862,0,0,1,56.4,219.4v7.09H82.99V203.411A17.725,17.725,0,0,0,74.229,188.119Z" transform="translate(0 -91.341)" fill="#ffbcab"/>
      <path id="Trazado_11650" data-name="Trazado 11650" d="M331.8,150.937a6.924,6.924,0,0,0-7.887,5.14l-7.156,22.065a6.634,6.634,0,0,0-8.419-1.5l-19.586,11.481A17.725,17.725,0,0,0,280,203.411v23.077h26.587V219.4a8.862,8.862,0,0,1,2.969-6.625l14.977-13.316a8.745,8.745,0,0,0,2.681-4.343l9.638-35.959a6.662,6.662,0,0,0-4.737-8.145q-.157-.041-.315-.075Z" transform="translate(-183.717 -91.341)" fill="#ffbcab"/>
      <path id="Trazado_11651" data-name="Trazado 11651" d="M272,424v17.725h31.018V424H272Z" transform="translate(-177.932 -288.853)" fill="#006df0"/>
      <path id="Trazado_11652" data-name="Trazado 11652" d="M159.018,424H128v17.725h31.018Z" transform="translate(-73.813 -288.853)" fill="#006df0"/>
      <path id="Trazado_11653" data-name="Trazado 11653" d="M192,58.842l-1.573,1.573-28.2,28.2-28.2-28.2-1.573-1.573a19.94,19.94,0,0,1,27.6-28.786q.309.3.6.6l1.573,1.573L163.8,30.66a19.94,19.94,0,0,1,28.808,27.578Q192.313,58.547,192,58.842Z" transform="translate(-72.59)" fill="#f579a8"/>
      <path id="Trazado_11654" data-name="Trazado 11654" d="M279.993,31.448a19.719,19.719,0,0,0-16.324-5.714,19.927,19.927,0,0,1,11.893,33.9l-1.573,1.573L248,87.192l2.216,2.216,28.2-28.2,1.573-1.573A19.94,19.94,0,0,0,279.993,31.448Z" transform="translate(-160.579 -0.788)" fill="#e54582"/>
      <path id="Trazado_11655" data-name="Trazado 11655" d="M225.725,106.587V97.725h8.862V88.862h-8.862V80h-8.862v8.862H208v8.862h8.862v8.862Z" transform="translate(-131.657 -40.123)" fill="#f1f2f2"/>
      <g id="Grupo_24676" data-name="Grupo 24676" transform="translate(44.683 88.821)">
        <path id="Trazado_11656" data-name="Trazado 11656" d="M365.186,260.293l-14.809,8.2a1.919,1.919,0,0,0,1.816,3.379q.052-.026.1-.056l12.89-7.09a6.647,6.647,0,0,0,2.922-8,6.583,6.583,0,0,1-2.922,3.565Z" transform="translate(-278.593 -256.728)" fill="#ffac96"/>
        <path id="Trazado_11657" data-name="Trazado 11657" d="M97,260.293l14.809,8.2a1.919,1.919,0,0,1-1.816,3.379q-.052-.026-.1-.056L97,264.724a6.647,6.647,0,0,1-2.922-8A6.583,6.583,0,0,0,97,260.293Z" transform="translate(-93.682 -256.728)" fill="#ffac96"/>
      </g>
    </g>
  </g>
</svg>
