<svg xmlns="http://www.w3.org/2000/svg" width="436.5" height="259.231" viewBox="0 0 436.5 259.231">
  <g id="Grupo_24784" data-name="Grupo 24784" transform="translate(-245.404 -131.174)">
    <path id="Trazado_11845" data-name="Trazado 11845" d="M681.592,406.57S604.5,336.863,647.915,242.643c20.83-45.2,76.3-55.812,93.116-46.561,22.172,12.2,51.579-20.754,115.141-43.377,47.774-17,155.912,17.667,120.7,124.309-21.362,64.689,60.87,47.672,48.116,130.345Z" transform="translate(-350.131 -17.42)" fill="#ffe5ef"/>
    <g id="Grupo_24772" data-name="Grupo 24772" transform="translate(293.53 278.698)">
      <g id="Grupo_24769" data-name="Grupo 24769" transform="translate(27.91 0)">
        <rect id="Rectángulo_5762" data-name="Rectángulo 5762" width="56.703" height="77.43" transform="translate(3.905 33.031)" fill="#f9ddbf"/>
        <rect id="Rectángulo_5763" data-name="Rectángulo 5763" width="44.049" height="77.434" transform="translate(60.609 33.031)" fill="#fff3e9"/>
        <path id="Trazado_11846" data-name="Trazado 11846" d="M756.411,885.524l-18.579,38.25H681.39l29.427-38.11Z" transform="translate(-681.39 -885.524)" fill="#ed9f4a"/>
        <path id="Trazado_11847" data-name="Trazado 11847" d="M769.184,885.524l-18.578,38.25H694.162l29.427-38.11Z" transform="translate(-691.935 -885.524)" fill="#f9ddbf"/>
        <path id="Trazado_11848" data-name="Trazado 11848" d="M825.669,995.186h-1.186a7.292,7.292,0,0,0-7.292,7.292v18.529h15.532v-18.766A7.055,7.055,0,0,0,825.669,995.186Z" transform="translate(-793.508 -976.06)" fill="#efcdaf"/>
        <g id="Grupo_24768" data-name="Grupo 24768" transform="translate(29.277)">
          <path id="Trazado_11849" data-name="Trazado 11849" d="M930.778,925.893H879.544l-30.282-40.373,17.047,0,33.3.006Z" transform="translate(-849.262 -885.521)" fill="#ed9f4a"/>
          <path id="Trazado_11850" data-name="Trazado 11850" d="M1011.48,925.91h-9.388l-55.081-40.369,33.3.006Z" transform="translate(-929.963 -885.537)" fill="#e58638"/>
        </g>
      </g>
      <g id="Grupo_24771" data-name="Grupo 24771" transform="translate(0 48.934)">
        <path id="Trazado_11851" data-name="Trazado 11851" d="M574.767,1166.105l-13.227,27.232H521.355l20.951-27.132Z" transform="translate(-521.355 -1166.105)" fill="#ed9f4a"/>
        <g id="Grupo_24770" data-name="Grupo 24770" transform="translate(1.204)">
          <path id="Trazado_11852" data-name="Trazado 11852" d="M581.671,1166.105l-13.227,27.232H528.26l20.95-27.132Z" transform="translate(-528.26 -1166.105)" fill="#f9ddbf"/>
          <path id="Trazado_11853" data-name="Trazado 11853" d="M568.36,1322.252v29.164h-13.3c-.445-.066-.672-.11-.672-.11a50.721,50.721,0,0,1-14.821-2.755,42.4,42.4,0,0,1-11.3-5.8v-20.5Z" transform="translate(-528.263 -1295.02)" fill="#f9ddbf"/>
          <path id="Trazado_11854" data-name="Trazado 11854" d="M792.127,1322.252v23.707q-3.638,1.06-7.031,1.893a145.3,145.3,0,0,1-20.269,3.564h-6.653v-29.164Z" transform="translate(-718.077 -1295.02)" fill="#fff3e9"/>
          <path id="Trazado_11855" data-name="Trazado 11855" d="M699.517,1195.415H663.042l-21.561-28.744,10.865,0,24.983.005Z" transform="translate(-621.735 -1166.573)" fill="#ed9f4a"/>
          <path id="Trazado_11856" data-name="Trazado 11856" d="M609.949,1317.593v23.118h-1.4c-.445-.066-.672-.11-.672-.11a50.726,50.726,0,0,1-14.821-2.755v-19.975a8.587,8.587,0,0,1,8.586-8.586,8.309,8.309,0,0,1,8.307,8.307Z" transform="translate(-581.756 -1284.315)" fill="#efcdaf"/>
          <circle id="Elipse_1531" data-name="Elipse 1531" cx="1.896" cy="1.896" r="1.896" transform="translate(17.851 13.322)" fill="#efcdaf"/>
          <path id="Trazado_11857" data-name="Trazado 11857" d="M750.952,1195.424h-6.923l-40.248-28.742,24.984.005Z" transform="translate(-673.17 -1166.582)" fill="#e58638"/>
        </g>
      </g>
    </g>
    <path id="Trazado_11858" data-name="Trazado 11858" d="M633.086,1331.808c-29.1-8.628-64.383-16.559-93.364-9.618s-40.116,16.306-71.943-5.24a45.686,45.686,0,0,0-8.048-4.44c5.62-1.019,13.129-2.8,9.8-4.6-3.47-1.877-9.277,1.331-12.634,3.574q-1.26-.386-2.466-.63c7.668-5.49,21.266-15.875,14.941-16.224-6.241-.344-13.785,10.076-17.467,15.842q-.947-.092-1.868-.108c-.326-3-1.525-8.3-5.929-8.633-4.5-.338.814,5.512,4,8.683-17.135,1.14-28.734,20.593-64.714,8.316a30.844,30.844,0,0,0-16.61-.608c-3.384-7.474-13.43-27.8-21.738-25.688s12.257,19.715,20.059,26.087q-1.394.36-2.748.8c-4.724-3.483-13.582-9.114-18.643-6.642-4.947,2.416,7.455,5.874,15.527,7.767a71.9,71.9,0,0,0-18.788,11.334Z" transform="translate(-78.47 -942.645)" fill="#a8d29f"/>
    <path id="Trazado_11859" data-name="Trazado 11859" d="M2467.43,1341.081H2433.58c-1.83-1.535,1.24-5.036,4.454-5.275a19.736,19.736,0,0,1,5.167.61c.467-6.19,3.128-33.995,13.15-32.879,11.271,1.255,0,12.247-3.186,18.758a153.456,153.456,0,0,0-5.987,15c.915.2,1.861.4,2.83.573,1.49-4.589,7.05-20.021,14.121-19.123,8.3,1.052,4.964,7.239-.917,10.913-4.32,2.7-9.623,6.541-12.141,8.394a36.062,36.062,0,0,0,6.626.528C2463.509,1338.447,2466.341,1340.164,2467.43,1341.081Z" transform="translate(-1806.105 -951.91)" fill="#a8d29f"/>
    <g id="Grupo_24776" data-name="Grupo 24776" transform="translate(454.121 170.356)">
      <g id="Grupo_24773" data-name="Grupo 24773" transform="translate(25.248 28.663)">
        <path id="Trazado_11860" data-name="Trazado 11860" d="M1590.763,428.644s8.056,3.811,9.886,3.331,8.784-1.708,9.761-1.276c0,0,1.108,1.766.272,2.928s-7.6,4.3-10.045,4.419-11.721-1.567-13.689-3.1Z" transform="translate(-1586.947 -428.644)" fill="#e8945b"/>
        <path id="Trazado_11861" data-name="Trazado 11861" d="M1718.247,438.116s3.106-1.29,4.124.151,1.593,2.9,1.467,3.638-2.224,1.063-3.063.489a20.374,20.374,0,0,0-2.916-1.375Z" transform="translate(-1695.028 -436.026)" fill="#e8945b"/>
      </g>
      <path id="Trazado_11862" data-name="Trazado 11862" d="M1796.928,1466.151a13.12,13.12,0,0,0-1.752,5.994,1.291,1.291,0,0,0,1.293,1.3h10.691a1.59,1.59,0,0,0,1.544-1.977c-.5-1.958-1.563-4.915-3.7-6.711C1801.6,1461.892,1796.928,1466.151,1796.928,1466.151Z" transform="translate(-1733.612 -1254.578)" fill="#163560"/>
      <path id="Trazado_11863" data-name="Trazado 11863" d="M1592.365,1446.065s-.615,9.912-2.532,10.054c-.255.019-9.726.019-9.726.019H1567.89a4.176,4.176,0,0,1,3.74-3.6c3.534-.616,9.45-3.1,11.591-7.77C1585.472,1439.854,1592.365,1446.065,1592.365,1446.065Z" transform="translate(-1545.965 -1237.331)" fill="#163560"/>
      <g id="Grupo_24774" data-name="Grupo 24774" transform="translate(27.738 95.255)">
        <path id="Trazado_11864" data-name="Trazado 11864" d="M1625.005,862.723c-.428,5.506-.483,9.853.082,11.914,2.522,9.219-4.544,50.845-4.544,50.845-5.209,2.492-12.606-.026-12.606-.026.449-5.766-2.292-57.385-4.843-88.875-1.068-13.22-1.869-22.471-1.869-22.471l31.2-3.633S1626.483,843.6,1625.005,862.723Z" transform="translate(-1601.225 -810.477)" fill="#2b478b"/>
        <path id="Trazado_11865" data-name="Trazado 11865" d="M1632.427,810.477s-5.945,33.122-7.422,52.246l-21.911-26.143c-1.068-13.22-1.869-22.471-1.869-22.471Z" transform="translate(-1601.225 -810.477)" fill="#233862"/>
      </g>
      <path id="Trazado_11866" data-name="Trazado 11866" d="M1692.374,831.019s15.795,91.97,18.512,109.779a19.949,19.949,0,0,0,11.955-.907s.781-42.737-1.286-55.611,1.1-52.672-2.231-56.375S1692.374,831.019,1692.374,831.019Z" transform="translate(-1648.739 -728.701)" fill="#2b478b"/>
      <path id="Trazado_11867" data-name="Trazado 11867" d="M1697.842,398.252s-1.212,8.173-.681,10.615,8.651,3.768,12.048,1.751,2.375-2.766,2.375-2.766-.519-9.357-1-10.024S1697.842,398.252,1697.842,398.252Z" transform="translate(-1652.58 -374.36)" fill="#ffb27d"/>
      <path id="Trazado_11868" data-name="Trazado 11868" d="M1536.482,491.6c1.075-10.268.8-18-.214-23.808-2.966-17.061-12.26-17.629-12.26-17.519,0,2.3-4.939,4.415-8.923,4.154-3.358-.22-5.536-2.772-5.536-4.154,0-.012-.062-.01-.176,0a58.9,58.9,0,0,0-8.618.733c-2.731.472-5.345,1.247-6.573,2.525-.634.659-2.893,2.506-5.8,5.017-7.393,6.393-18.952,17.094-18.441,23.471,0,0,14.289,10.493,23.343,3.915-.493,17.075-3.592,35.161-2.832,35.148,0,0,5.047,4.371,20.382,4.371a97.048,97.048,0,0,0,18.654-1.549c5.732-1.131,8.014-2.467,8.014-2.467C1538.784,521.419,1536.111,495.144,1536.482,491.6Z" transform="translate(-1465.089 -417.83)" fill="#f99746"/>
      <path id="Trazado_11869" data-name="Trazado 11869" d="M1704.522,585.393s-2.282,1.336-8.014,2.467c-7.923-3.509-23.649-12.579-24.264-27.809-.815-20.259,23.918-32.323,23.918-32.323s3.318,1.844,7.12,4.019c1.013,5.813,1.289,13.54.214,23.808C1703.125,559.1,1705.8,585.374,1704.522,585.393Z" transform="translate(-1632.104 -481.785)" fill="#ed7d2b"/>
      <path id="Trazado_11870" data-name="Trazado 11870" d="M1700.966,406.565s3.15,4.439,6.48,4.479,6.73-4.41,6.73-4.41Z" transform="translate(-1655.833 -381.752)" fill="#e8945b"/>
      <path id="Trazado_11871" data-name="Trazado 11871" d="M1690.554,321.51a21.364,21.364,0,0,0,4.414,2.26,5.454,5.454,0,0,0,3.775.08,50,50,0,0,0,5.325-2.049c1.668-1.011,1.56-3.057,1.646-5.9.1-3.368.442-6.012.066-7.954-.447-2.323-1.919-3.644-6.042-4-7.568-.657-10.721,1.238-10.853,3.775-.034.681-.066,1.331-.088,1.946C1688.495,317.576,1689.12,320.382,1690.554,321.51Z" transform="translate(-1645.725 -296.919)" fill="#ffb27d"/>
      <path id="Trazado_11872" data-name="Trazado 11872" d="M1679.054,276.025a3.18,3.18,0,0,1,3.568-1.111c2.329.717,2.568,2.707,6.548,2.388s4.936-2.2,5.653-1.26,1.131,6.507,1.131,6.507,8-18.248-8.218-18.248c0,0-16.716-1.01-8.682,17.54Z" transform="translate(-1635.938 -264.291)" fill="#2c3a64"/>
      <path id="Trazado_11873" data-name="Trazado 11873" d="M1520.395,430.671l.022.012C1520.4,430.693,1520.395,430.671,1520.395,430.671Z" transform="translate(-1506.753 -401.654)" fill="#ffb27d"/>
      <path id="Trazado_11874" data-name="Trazado 11874" d="M1581.182,642.532a9.128,9.128,0,0,1-5.228,1.672s-3.167-3.49-5.835-6.866c-1.728-2.186-3.245-4.324-3.559-5.436-.8-2.825-15.695-3.621-17.519-5.611s7.4-6.983,7.4-6.983,15.125,2.313,17.4,5.284a41.589,41.589,0,0,1,3.546,7.549C1579.344,637.107,1581.182,642.532,1581.182,642.532Z" transform="translate(-1530.206 -557.393)" fill="#e8945b"/>
      <path id="Trazado_11875" data-name="Trazado 11875" d="M1613.082,489.127s2.867-5.565,4.283-5.4-3.255,11.52-3.679,17.039S1613.082,489.127,1613.082,489.127Z" transform="translate(-1583.276 -445.452)" fill="#ed7d2b"/>
      <path id="Trazado_11876" data-name="Trazado 11876" d="M1515.48,633.279a83.993,83.993,0,0,1-4.895,9.758l-.035.059h-.047c-.482,0-4.635-.1-5.041-1.763,0,0-.134-5.77.1-10.354a24.272,24.272,0,0,1,.57-4.815s-22.522-.151-22.126-6.521,12.17-9.741,18.938-6.437c0,0,8.975,3.261,13.7,7.569C1518.961,622.891,1517.534,628.311,1515.48,633.279Z" transform="translate(-1476.704 -551.291)" fill="#ffb27d"/>
      <path id="Trazado_11877" data-name="Trazado 11877" d="M1476.5,605s-3,4.407-2.3,8.519,9.258,6.309,15.245,6.571c0,0,17.123-3.924,14.468-10.751C1503.315,607.788,1476.5,605,1476.5,605Z" transform="translate(-1468.529 -545.577)" fill="#2b478b"/>
      <g id="Grupo_24775" data-name="Grupo 24775" transform="translate(0 1.993)">
        <path id="Trazado_11878" data-name="Trazado 11878" d="M1456.362,278.986s-2.72-5.567-9.289-2.163-.174,16.229-3.621,19.434,1.249,5.3.55,7.6,1.3,4.912,5.9,4.6,9.438-.06,11.514-4.081,1.605-12.871.8-14.115S1456.362,278.986,1456.362,278.986Z" transform="translate(-1442.174 -275.721)" fill="#aa443e"/>
        <path id="Trazado_11879" data-name="Trazado 11879" d="M1531.688,403.2l-11.17-6.741c.062-.025.288-.362,1.123-2.778a13.477,13.477,0,0,0,.637-2.633c.009-.071.018-.139.025-.207a7.208,7.208,0,0,0,.031-1.624l2.447.885,4.525,1.639a5.606,5.606,0,0,0,.353,2.509,2.014,2.014,0,0,0,1.723,1.355Z" transform="translate(-1506.855 -369.426)" fill="#ffb27d"/>
        <path id="Trazado_11880" data-name="Trazado 11880" d="M1537.421,398.441a8.391,8.391,0,0,1-7.381-3.2c-.081-.105-.121-.164-.121-.164l.145-.043c.356-.1,1.321-.4,2.478-.739l4.526,1.639A5.6,5.6,0,0,0,1537.421,398.441Z" transform="translate(-1514.616 -373.614)" fill="#ed985f"/>
        <path id="Trazado_11881" data-name="Trazado 11881" d="M1526,334.487s-9.718,1.068-9.917-5.5-1.635-9.577,5.088-10.163,8.311,1.836,8.708,4.059C1531.114,329.825,1528.734,334.193,1526,334.487Z" transform="translate(-1502.973 -311.231)" fill="#ffb27d"/>
        <path id="Trazado_11882" data-name="Trazado 11882" d="M1501.317,294.967c-3.439-.87-2.124,5.222-2.992,4.8-.972-.467-2.643-.46-2.379.714a22.573,22.573,0,0,0,.843,2.326c.2.733,0,2.184-.8,1.892s-8.236-8.784-2.985-15.4,20.907-2.539,15.977,4.379C1508.112,294.9,1503.765,295.587,1501.317,294.967Z" transform="translate(-1482.6 -284.168)" fill="#aa443e"/>
        <path id="Trazado_11883" data-name="Trazado 11883" d="M1505.888,456.561a16.73,16.73,0,0,1-7.517,1.476,52.259,52.259,0,0,1-13.146-2.76c-2.279-.82-3.837-1.7-3.649-2.433.27-1.061,2.222-9.206,4.025-16.743,1.649-6.892,3.174-13.275,3.174-13.275s4.551,3.234,7.2,2.093,2.312-2.431,2.312-2.431a32.287,32.287,0,0,1,3.972-.284,53.92,53.92,0,0,1,6.133,1.9s.628,1.766-1.037,4.52a5.99,5.99,0,0,1-2.722,2.725S1508.541,443.664,1505.888,456.561Z" transform="translate(-1474.691 -396.644)" fill="#739af0"/>
        <path id="Trazado_11884" data-name="Trazado 11884" d="M1535.069,555.371s2.806-.524,3.9.194,1.422,1.843.632,2.3a5.116,5.116,0,0,1-4.988-.152Z" transform="translate(-1518.495 -506.448)" fill="#ffb27d"/>
        <path id="Trazado_11885" data-name="Trazado 11885" d="M1485.225,513.753c-2.279-.82-3.837-1.7-3.649-2.433.27-1.061,2.222-9.206,4.025-16.743.532-.977.871-1.56.871-1.56S1489.893,508.661,1485.225,513.753Z" transform="translate(-1474.691 -455.121)" fill="#4a82d3"/>
        <path id="Trazado_11886" data-name="Trazado 11886" d="M1465.922,430.887s-8.644,1.83-12.053,15.268a4.075,4.075,0,0,0,.92,3.726c1.568,1.737,5.023,4.278,13.059,5.213.877.1,1-2.124,1-2.124-.087.177-5.459-3.471-7.745-5.431a1.261,1.261,0,0,1-.1-1.554,36.571,36.571,0,0,0,2.5-4.263C1464.14,440.2,1468.338,431.58,1465.922,430.887Z" transform="translate(-1451.726 -403.826)" fill="#ffb27d"/>
        <path id="Trazado_11887" data-name="Trazado 11887" d="M1479.254,425.847s-5.083.362-9.227,5.887c0,0,1.4,5.083,7.986,6.44C1478.013,438.174,1482.07,429.022,1479.254,425.847Z" transform="translate(-1465.169 -399.665)" fill="#739af0"/>
      </g>
      <path id="Trazado_11888" data-name="Trazado 11888" d="M1616.911,723.521a83.922,83.922,0,0,1-4.895,9.758l-.081.059c-.482,0-4.635-.1-5.041-1.763,0,0-.134-5.77.1-10.354C1607.651,721.856,1610.2,723.747,1616.911,723.521Z" transform="translate(-1578.135 -641.533)" fill="#ebf2f9"/>
      <path id="Trazado_11889" data-name="Trazado 11889" d="M1682.094,703.284a9.126,9.126,0,0,1-5.227,1.672s-3.167-3.49-5.835-6.866a29.177,29.177,0,0,0,7.268-5.2C1680.257,697.859,1682.094,703.284,1682.094,703.284Z" transform="translate(-1631.119 -618.145)" fill="#ebf2f9"/>
      <path id="Trazado_11890" data-name="Trazado 11890" d="M1609.106,786.428a.955.955,0,0,1-1.134.758,44.078,44.078,0,0,1-4.427-1.074c-1.323-.482-3.862-1.981-5.185-2.462-.455-.166-1.548-.607-2.256-.895a.79.79,0,0,1-.461-.952,16.716,16.716,0,0,1,1.335-3.331,1.214,1.214,0,0,1,.552-.49,5.138,5.138,0,0,0,3.217,1.163,7.039,7.039,0,0,0,2.9-.611c.09.184,1.9,3.824,3.173,4.289A3.171,3.171,0,0,1,1609.106,786.428Z" transform="translate(-1568.851 -688.394)" fill="#aa443e"/>
      <path id="Trazado_11891" data-name="Trazado 11891" d="M1712.862,739.378a.955.955,0,0,1-.422,1.3,43.986,43.986,0,0,1-4.141,1.9c-1.337.442-4.259.837-5.6,1.278-.459.152-1.591.482-2.325.695a.789.789,0,0,1-.952-.462,16.73,16.73,0,0,1-1.015-3.442,1.214,1.214,0,0,1,.13-.727,5.137,5.137,0,0,0,3.246-1.08,7.037,7.037,0,0,0,1.9-2.277c.185.089,3.857,1.829,5.148,1.4A3.171,3.171,0,0,1,1712.862,739.378Z" transform="translate(-1653.714 -654.196)" fill="#aa443e"/>
      <path id="Trazado_11892" data-name="Trazado 11892" d="M1493.359,623.732s-.648,3.756-3.091,5.485c0,0-9.918-1.365-19.151-3.7-6.787-1.717-13.207-3.957-15.043-6.567-4.337-6.155,2.269-13.648,2.269-13.648s12.733,6.144,26.518,13.672C1487.685,620.516,1490.549,622.116,1493.359,623.732Z" transform="translate(-1452.432 -545.83)" fill="#f99746"/>
      <path id="Trazado_11893" data-name="Trazado 11893" d="M1562.526,742.427s-2.945.239-4.06,1.354-2.8,4.356-1.6,5.641,6.934-1.532,7.094-1.994S1562.526,742.427,1562.526,742.427Z" transform="translate(-1536.521 -659.04)" fill="#ffb27d"/>
      <path id="Trazado_11894" data-name="Trazado 11894" d="M1571.557,688.457s-.648,3.756-3.09,5.485c0,0-9.918-1.365-19.151-3.7,4.341-3.774,10.012-5.652,13.744-6.542C1565.882,685.24,1568.746,686.84,1571.557,688.457Z" transform="translate(-1530.629 -610.554)" fill="#ed7d2b"/>
      <path id="Trazado_11895" data-name="Trazado 11895" d="M1636.067,455.547c-1.982-4.709-15.022-4.889-15.022-4.889-6.634,17.409-8.228,28.826-9.983,36.164a3.725,3.725,0,0,0-.793,0s-9.319,3.636-23.172,13.7a7.98,7.98,0,0,0,1.152,7.224s23.869-5.268,30.535-9.176l.011,0,.2-.128q.152-.094.29-.186C1640.964,484.168,1638.9,462.285,1636.067,455.547Z" transform="translate(-1561.49 -418.156)" fill="#f99746"/>
    </g>
    <g id="Grupo_24778" data-name="Grupo 24778" transform="translate(398.715 205.222)">
      <path id="Trazado_11896" data-name="Trazado 11896" d="M1528.8,957.647a9.177,9.177,0,0,1,5.751,10.02s-.618,3.129-2.545,1.741-1.023-1.131-3.775-3.029-4.547-4.888-4.234-7.264Z" transform="translate(-1454.296 -871.591)" fill="#ffb27d"/>
      <path id="Trazado_11897" data-name="Trazado 11897" d="M1358.037,712.581l-3.964,4.809a.8.8,0,0,1-.761.274c-3.716-.682-16.5-8.925-20.693-12.289a12.427,12.427,0,0,1-1.036-.906c-1.562-1.591-6.948-9.443-10.77-16.436-2.2-4.027-3.884-7.77-4.017-9.867-.476-7.486,3.461-17.954,3.461-17.954,11.648,4.054,12.874,13.354,12.874,13.354l6.458,24.034,18.291,13.671A.911.911,0,0,1,1358.037,712.581Z" transform="translate(-1283.223 -626.031)" fill="#739af0"/>
      <path id="Trazado_11898" data-name="Trazado 11898" d="M1350.843,785.187a12.455,12.455,0,0,1-1.036-.906c-1.562-1.591-6.948-9.443-10.77-16.436-.495-4.226-.155-8.19,1.586-10.961C1340.623,756.884,1350.525,774.308,1350.843,785.187Z" transform="translate(-1301.447 -705.841)" fill="#4a82d3"/>
      <path id="Trazado_11899" data-name="Trazado 11899" d="M1294.484,1297.1l-1.98,8.257-1.225,5.111-4.08,17.013a13.684,13.684,0,0,1-7.122,0,62.06,62.06,0,0,1-1.383-12.652,42.467,42.467,0,0,1,1.389-11.556,26.557,26.557,0,0,1,1.7-4.519C1287.54,1287,1294.484,1297.1,1294.484,1297.1Z" transform="translate(-1251.799 -1148.515)" fill="#ffb27d"/>
      <path id="Trazado_11900" data-name="Trazado 11900" d="M1297.61,1486.278h-19.172a16.291,16.291,0,0,1,.541-5.676,9.788,9.788,0,0,1,.456-1.219,19.427,19.427,0,0,0,7.971,0,31.942,31.942,0,0,0,5.568,3.861C1295.07,1484.152,1297.389,1483.658,1297.61,1486.278Z" transform="translate(-1251.545 -1302.337)" fill="#2b478b"/>
      <path id="Trazado_11901" data-name="Trazado 11901" d="M1292.5,1348.154l-1.225,5.111a29.546,29.546,0,0,1-12.584,4.361,42.466,42.466,0,0,1,1.389-11.556,8.483,8.483,0,0,1,5.087-1.1A14.559,14.559,0,0,1,1292.5,1348.154Z" transform="translate(-1251.799 -1191.307)" fill="#e8945b"/>
      <path id="Trazado_11902" data-name="Trazado 11902" d="M1287.652,1492.046h-9.214a16.291,16.291,0,0,1,.541-5.676C1281.293,1487.09,1286,1488.9,1287.652,1492.046Z" transform="translate(-1251.545 -1308.105)" fill="#1f396d"/>
      <path id="Trazado_11903" data-name="Trazado 11903" d="M1206.853,1297.1l-1.98,8.257-1.225,5.111-4.08,17.013a13.683,13.683,0,0,1-7.121,0,62.055,62.055,0,0,1-1.382-12.652,42.453,42.453,0,0,1,1.389-11.556,26.526,26.526,0,0,1,1.7-4.519C1199.909,1287,1206.853,1297.1,1206.853,1297.1Z" transform="translate(-1179.451 -1148.515)" fill="#ffb27d"/>
      <path id="Trazado_11904" data-name="Trazado 11904" d="M1191.8,1479.379a19.4,19.4,0,0,0,7.971,0,31.933,31.933,0,0,0,5.568,3.862c2.1.906,4.416.414,4.636,3.033h-19.172A15.3,15.3,0,0,1,1191.8,1479.379Z" transform="translate(-1179.196 -1302.334)" fill="#2b478b"/>
      <path id="Trazado_11905" data-name="Trazado 11905" d="M1204.873,1348.154l-1.225,5.111a29.544,29.544,0,0,1-12.584,4.361,42.452,42.452,0,0,1,1.389-11.556,8.482,8.482,0,0,1,5.086-1.1A14.56,14.56,0,0,1,1204.873,1348.154Z" transform="translate(-1179.451 -1191.307)" fill="#e8945b"/>
      <path id="Trazado_11906" data-name="Trazado 11906" d="M1194.632,1019.261a3.906,3.906,0,0,1-3.772,2.886H1160.12a3.971,3.971,0,0,1-3.961-4.275c.323-4.187,1.475-11.026,1.979-15.644a20.718,20.718,0,0,0,.184-4.255c-3.1-20.531-5.708-44.715-5.391-49.338.045-.651.076-.987.076-.987s2.239-.189,5.645-.321c9.9-.391,29.661-.323,32.945,6.151,3.345,6.594,5.365,50.383,5.365,50.383C1197.449,1007.953,1195.722,1015.229,1194.632,1019.261Z" transform="translate(-1147.947 -862.962)" fill="#c65447"/>
      <path id="Trazado_11907" data-name="Trazado 11907" d="M1158.138,1002.855a20.72,20.72,0,0,0,.184-4.255c-3.1-20.531-5.708-44.715-5.391-49.338.045-.651.076-.987.076-.987s2.239-.189,5.645-.321a29.036,29.036,0,0,1,8.454,8.156S1166.074,994.531,1158.138,1002.855Z" transform="translate(-1147.947 -863.588)" fill="#b2443b"/>
      <path id="Trazado_11908" data-name="Trazado 11908" d="M1273.987,464.323c-2.456-.614-3.882,1.321-3.882,3.6a4.125,4.125,0,0,0,4.125,4.126c2.279,0,4.126-2.64,4.126-4.918S1276.2,464.876,1273.987,464.323Z" transform="translate(-1244.708 -464.208)" fill="#b2443b"/>
      <path id="Trazado_11909" data-name="Trazado 11909" d="M1256.4,502.507s-12.793-11.521-1.212-19.678c0,0,3.456-.921,5.213-.592,0,0,6.3-1.842,9.979,2.434s5.284,7.368,2.127,11.183S1256.4,502.507,1256.4,502.507Z" transform="translate(-1228.385 -478.767)" fill="#c65447"/>
      <path id="Trazado_11910" data-name="Trazado 11910" d="M1169.043,988.366a9.177,9.177,0,0,1-2.913,11.18s-2.632,1.8-3.036-.539.062-1.524-.573-4.806.177-6.674,2.065-8.151Z" transform="translate(-1155.711 -895.041)" fill="#ffb27d"/>
      <path id="Trazado_11911" data-name="Trazado 11911" d="M1275.51,586.026s-.157,1.725-.45,4.056c-.143,1.139-.317,2.424-.522,3.722-.146.932-.308,1.873-.485,2.772l-3.961,13.377-9.3-15.051s2.186-1.808,5.148-11.609c.028-.1.048-.161.048-.161Z" transform="translate(-1237.02 -562.392)" fill="#ffb27d"/>
      <path id="Trazado_11912" data-name="Trazado 11912" d="M1182.183,707.735c.121,1.5-.26,1.776-.26,1.776s-5.719,2.073-20.1,1.356q-2.335-.117-4.391-.238c-9.269-.547-14.226-1.118-14.226-1.118s-7.592-17.523,6.671-39.112a69.169,69.169,0,0,1,5.719-7.459c2.31-2.634,2.82-6.159,3.694-9.509.25-.96-.474-1.172-.112-2.078,0,0,2.6-.735,2.869-.735,1.477,1.3,3.426,3.831,8.262,4.331,3.27.341,4.55-1.5,5.016-2.606a39.684,39.684,0,0,1,3.6,1.737,16.6,16.6,0,0,1,9.568,12.367s-8.053,26.482-8.553,29.789C1179.711,697.706,1181.559,699.993,1182.183,707.735Z" transform="translate(-1138.273 -618.108)" fill="#739af0"/>
      <path id="Trazado_11913" data-name="Trazado 11913" d="M1298.469,590.082c-.143,1.139-.625,4.257-.829,5.555-9.849-3.84-8.559-11.322-8.29-12.344.028-.1.048-.161.048-.161S1294.608,586.832,1298.469,590.082Z" transform="translate(-1260.429 -562.392)" fill="#e8945b"/>
      <g id="Grupo_24777" data-name="Grupo 24777" transform="translate(28.441 9.877)">
        <path id="Trazado_11914" data-name="Trazado 11914" d="M1299.271,539.978s-11.375.365-11.493-6.722-1.666-11.813,5.591-12.346,8.714,2.148,9.329,4.5S1302.227,539.7,1299.271,539.978Z" transform="translate(-1287.561 -520.842)" fill="#ffb27d"/>
      </g>
      <path id="Trazado_11915" data-name="Trazado 11915" d="M1291.379,509.221s-.714,11.832-14.581,10.563C1276.8,519.784,1277.093,503.4,1291.379,509.221Z" transform="translate(-1250.234 -500.337)" fill="#c65447"/>
      <path id="Trazado_11916" data-name="Trazado 11916" d="M1345.185,521.892a77.885,77.885,0,0,0,5.648,6.344S1355.156,522.033,1345.185,521.892Z" transform="translate(-1306.694 -511.832)" fill="#c65447"/>
      <path id="Trazado_11917" data-name="Trazado 11917" d="M1345.185,521.892s3.491,5.9,5.254,7.43c0,0,4.717-7.288-5.254-7.43Z" transform="translate(-1306.694 -511.832)" fill="#c65447"/>
      <path id="Trazado_11918" data-name="Trazado 11918" d="M1157.431,804.273c-9.269-.547-14.226-1.118-14.226-1.118s-7.592-17.523,6.671-39.112C1152.764,770.774,1159.573,788.762,1157.431,804.273Z" transform="translate(-1138.273 -711.752)" fill="#4a82d3"/>
      <path id="Trazado_11919" data-name="Trazado 11919" d="M1148.255,650.618s-11,2.258-15.906,7.935c-3.756,4.35-7.866,25.618-7.866,29.132,0,3.358,3.86,21.212,6.27,24.635a.8.8,0,0,0,.736.338l6.2-.657a.911.911,0,0,0,.8-1.045l-3.482-22.569,12.222-21.677S1154.436,658.168,1148.255,650.618Z" transform="translate(-1124.482 -618.108)" fill="#739af0"/>
    </g>
    <g id="Grupo_24779" data-name="Grupo 24779" transform="translate(432.215 249.54)">
      <path id="Trazado_11920" data-name="Trazado 11920" d="M1499.006,1480.775a4.752,4.752,0,0,0,3,2.27,5.169,5.169,0,0,1,3.108,1.91,1.213,1.213,0,0,1-.975,1.931h-10.484a1.508,1.508,0,0,1-1.5-1.659c.078-.777.16-1.681.2-2.375a4.465,4.465,0,0,1,1.594-2.733Z" transform="translate(-1461.525 -1347.262)" fill="#2c3a64"/>
      <path id="Trazado_11921" data-name="Trazado 11921" d="M1444.728,1168.836c.437,7.972-.65,26.092-.65,26.092s-.731,2.021-5.347,2.5a13.832,13.832,0,0,1-4.7-.384q-1.4-6.435-2.586-12.281c-5.7-27.957-7.921-45.227-7.921-45.227l22.495-5.229s-.985,15.784-1.276,26.547C1444.655,1164.216,1444.633,1167.088,1444.728,1168.836Z" transform="translate(-1404.872 -1061.762)" fill="#35488b"/>
      <path id="Trazado_11922" data-name="Trazado 11922" d="M1446.021,1134.31s-.985,15.784-1.276,26.547l-13.3,23.909c-5.7-27.957-7.921-45.227-7.921-45.227Z" transform="translate(-1404.872 -1061.762)" fill="#2c3a64"/>
      <path id="Trazado_11923" data-name="Trazado 11923" d="M1335.1,917.955s-8.7-3.962-15.29-.5-2.559,32.074,6.858,34.847h0S1344.311,957.948,1335.1,917.955Z" transform="translate(-1316.568 -881.557)" fill="#35488b"/>
      <path id="Trazado_11924" data-name="Trazado 11924" d="M1536.488,948.806a1.014,1.014,0,0,0-.085-.111,14.551,14.551,0,0,1-.815-1.714h0c1.751-8.572.572-13.528.572-13.528.208-2.5,1.7-19.929-1.733-28.006-1.655-3.9-4.428-3.9-4.428-3.9a56.387,56.387,0,0,1,.221,9.573c-.394,3.072,2.535,31.862,3.018,36.567-.008,0-.014,0-.016,0l.139,4.784,1.4-.332a1.012,1.012,0,0,0,.175-.062h0a1,1,0,0,0,.428-.375l1.134-1.8a1.012,1.012,0,0,0-.014-1.1Zm-2.671-.776.06-.035-.03.039S1533.832,948.036,1533.817,948.031Z" transform="translate(-1492.777 -869.59)" fill="#e8945b"/>
      <path id="Trazado_11925" data-name="Trazado 11925" d="M1394.357,1480.775a4.752,4.752,0,0,0,3,2.27,5.168,5.168,0,0,1,3.108,1.91,1.213,1.213,0,0,1-.974,1.931H1389a1.508,1.508,0,0,1-1.5-1.659c.078-.777.16-1.681.2-2.375a4.464,4.464,0,0,1,1.594-2.733Z" transform="translate(-1375.127 -1347.262)" fill="#2c3a64"/>
      <path id="Trazado_11926" data-name="Trazado 11926" d="M1408.813,718.326a10.334,10.334,0,0,0-6.57,2.434c-1.605,1.56-3.276,1.64-4.465,3.481a8.038,8.038,0,0,0-1.385,6.616c.68,2.95.542,5.8,2.4,7.971.917,1.072,2.412,1.194,3.454,2.179a8.948,8.948,0,0,0,6.57,2.381c4.678,0,7.589-2.771,9.983-6.224,1.918-2.766,1.538-4.631,1.988-7C1422.2,722.719,1415.988,718.326,1408.813,718.326Z" transform="translate(-1382.29 -718.326)" fill="#35488b"/>
      <path id="Trazado_11927" data-name="Trazado 11927" d="M1455.6,831.774l-8.941,4.57-1.792-6.2a19.021,19.021,0,0,0,1.654-5.664,23.616,23.616,0,0,0,.185-5.106L1454,823.1a13.744,13.744,0,0,0-.29,1.668,12.123,12.123,0,0,0,.126,3.9A5.394,5.394,0,0,0,1455.6,831.774Z" transform="translate(-1422.495 -801.749)" fill="#ffb27d"/>
      <path id="Trazado_11928" data-name="Trazado 11928" d="M1381.12,1145.486s-1.7,22.533-1.321,58.444a13.834,13.834,0,0,0,4.524,1.325c4.618.46,5.743-1.371,5.743-1.371s4.723-17.527,5.9-25.424c1.089-7.28,8.237-33.553,8.237-33.553Z" transform="translate(-1368.726 -1070.51)" fill="#35488b"/>
      <path id="Trazado_11929" data-name="Trazado 11929" d="M1377.3,883.381a28.643,28.643,0,0,0-7.046-2c.039,1.286-.3,2.5-2.554,2.791-3,.391-5.685-1.657-7.043-3.049h0s-2.116.227-4.583.767a28.757,28.757,0,0,0-3.746,1.061,7.958,7.958,0,0,0-3.351,2.006h0c-2.309,2.834-6.108,11.368-6.108,11.368s6.323,2.344,7.919,3.712l.036.305.99,8.219-2.948,16.371a2.471,2.471,0,0,0-.04.427,2.414,2.414,0,0,0,1.848,2.344s.253.042.72.107c3.125.439,15.811,1.952,25.757-.748a4.829,4.829,0,0,0,3.525-5.055l-1.621-20.348c.866-.149,1.864-.306,2.676-.4a5.04,5.04,0,0,1,1.443-.031S1382.049,885.342,1377.3,883.381Z" transform="translate(-1338.28 -852.731)" fill="#f99746"/>
      <path id="Trazado_11930" data-name="Trazado 11930" d="M1386.737,1003.532c-.126,5.712-3.869,12.423-7.137,14.232-.467-.064-.72-.107-.72-.107a2.414,2.414,0,0,1-1.848-2.344,2.47,2.47,0,0,1,.04-.427l2.948-16.371-.99-8.219.073-.22S1386.959,993.441,1386.737,1003.532Z" transform="translate(-1366.486 -942.684)" fill="#ed7d2b"/>
      <path id="Trazado_11931" data-name="Trazado 11931" d="M1548.584,958.14c-.833.093-2.681.4-2.681.4l-.936-8.524S1548.095,956.022,1548.584,958.14Z" transform="translate(-1505.134 -909.608)" fill="#ed7d2b"/>
      <path id="Trazado_11932" data-name="Trazado 11932" d="M1380.276,925.641l.766-4.252c12.966-18.759,13.947-22.124,8.116-30.546a12.425,12.425,0,0,0-5.946-4.261,28.781,28.781,0,0,1,3.746-1.061,14.071,14.071,0,0,1,3.24,1.906C1407.993,902.833,1380.276,925.641,1380.276,925.641Z" transform="translate(-1369.165 -856.362)" fill="#35488b"/>
      <path id="Trazado_11933" data-name="Trazado 11933" d="M1359.106,971.495c-5.076.351-5.779,5.552-5.779,5.552s-8.52.773-9.778,1.333c0,0,.691-1.87,1.92-4.7-1.111-1.092-4.761-2.717-7.179-3.463-1.844,4.7-2.552,9.359-1.518,13.848a1.087,1.087,0,0,0,1.012.836c2.712.127,11.671.082,18.231-5.351l.116-.031c1.57-.093,3.045-1.653,3.611-3.7s.612-1.424,1.045-2.867S1359.106,971.495,1359.106,971.495Z" transform="translate(-1332.854 -926.29)" fill="#ffb27d"/>
      <path id="Trazado_11934" data-name="Trazado 11934" d="M1461.662,852.839c-4.143-.111-7.306-4.19-7.306-4.19l7.18.292A12.12,12.12,0,0,0,1461.662,852.839Z" transform="translate(-1430.326 -825.921)" fill="#e8945b"/>
      <path id="Trazado_11935" data-name="Trazado 11935" d="M1454.222,783s-9.153,1.116-9.348-5.333,3.62-10.625,6.166-10.578c5.078.1,5.915,2.147,6.5,4.284S1458.436,782.55,1454.222,783Z" transform="translate(-1422.491 -758.589)" fill="#ffb27d"/>
      <path id="Trazado_11936" data-name="Trazado 11936" d="M1484.474,834.439s.2.8,2.2.656c0,0,1.683-.124,1.621-1.009A5.418,5.418,0,0,0,1484.474,834.439Z" transform="translate(-1455.191 -813.739)" fill="#fff"/>
      <path id="Trazado_11937" data-name="Trazado 11937" d="M1443.684,765.664s-7.822,0-6.024,5.365c1.132,3.385-2.634,3.911-2.634,3.911l-1.812-5.425,1.135-4.226Z" transform="translate(-1412.87 -757.099)" fill="#35488b"/>
    </g>
    <g id="Grupo_24781" data-name="Grupo 24781" transform="translate(508.672 193.532)">
      <path id="Trazado_11938" data-name="Trazado 11938" d="M1815.608,567.575c-1.949-3.237-3.159-17.686-4.565-21.556-.889-2.446-3.269-5.37-3.018-5.552-2.533-1.494-9.386-2.212-9.386-2.212s0,.01,0,.014c-.267-.056-.533-.111-.789-.162a1.893,1.893,0,0,1-1.69-1.478c0-.041-.008-.085-.013-.126a26.159,26.159,0,0,1-.115-2.977.131.131,0,0,1,0-.038c.022-1.482.135-2.583.135-2.583l-.027,0-8.885-1.428c-.121,2.774-.282,4.839-.452,6.378a2.436,2.436,0,0,1-2.271,2.167c-.177.009-.357.021-.535.033v0s-5.727-.223-7.918.446a3.557,3.557,0,0,0-.557.231c.133.139-21.092,21.412-20.544,23.876s9.861,16.454,13.238,19.031h3.38s-7.491-17.084-7.588-18.47c-.142-2.028,18.836-13.375,18.836-15.444,0-.752,5.291-.98,8.752-.953,3.664.028,10.565-1.886,10.565-1.886s2.984,22.606,6.754,29.312c2.973,5.287,16.106,18.835,16.106,18.835l2.77-2.457S1820.329,575.414,1815.608,567.575Z" transform="translate(-1754.967 -506.402)" fill="#ffb27d"/>
      <path id="Trazado_11939" data-name="Trazado 11939" d="M1818.616,923.487c1.6,15.79-.339,36.466-.339,36.466h-5.441c-8.216-21.608-8.463-35.164-8.931-40.254-.255-2.774-4-13.86-7.361-24.523-2.809-8.9-5.347-17.513-5.364-20.738-.037-7.392,7.329-19.25,7.329-19.25s10.583,4.083,17.115,8.116c2.18,1.347,3.848,2.664,4.419,3.78,1.514,2.969,2.636,24.165-1.394,37.113-2.425,7.8-1.183,11.793-1.183,11.793A66.067,66.067,0,0,1,1818.616,923.487Z" transform="translate(-1784.866 -775.312)" fill="#c65447"/>
      <path id="Trazado_11940" data-name="Trazado 11940" d="M1818.65,904.2c-2.425,7.8-1.183,11.793-1.183,11.793a66.067,66.067,0,0,1,1.149,7.5l-22.071-28.311c-2.809-8.9-5.347-17.513-5.364-20.738-.037-7.392,7.329-19.25,7.329-19.25s10.583,4.083,17.115,8.116c2.18,1.347,3.848,2.664,4.419,3.78C1821.557,870.053,1822.68,891.248,1818.65,904.2Z" transform="translate(-1784.866 -775.312)" fill="#b2443b"/>
      <path id="Trazado_11941" data-name="Trazado 11941" d="M1847.793,1455.912s-.308,3.549-.764,4.279a11.324,11.324,0,0,1-4.563,4.016c-2.19.821-8.457.4-8.944,2.673h22.086a15.617,15.617,0,0,0-.548-5.659c-.852-2.247-1.826-5.308-1.826-5.308Z" transform="translate(-1819.822 -1271.27)" fill="#2b478b"/>
      <path id="Trazado_11942" data-name="Trazado 11942" d="M2097.953,1447.161a45.82,45.82,0,0,1,3.078,4.714c.608,1.339,4.623,7.006,4.137,7.053s-11.195,0-11.195,0a12.945,12.945,0,0,1-.973-4.5c.122-1.825-1.46-5.29-1.156-7.269S2097.953,1447.161,2097.953,1447.161Z" transform="translate(-2033.061 -1263.319)" fill="#2b478b"/>
      <path id="Trazado_11943" data-name="Trazado 11943" d="M1940.42,954.4h-6.109s-23.821-34.437-24.641-43.193c-1.024-10.95-8.675-54.17-8.675-54.17l24.436-7.607s2.135,5.492,3.926,11.03c.78,2.415,1.493,4.838,1.937,6.819.979,4.372-1.776,20.89-3.656,32.634a113.478,113.478,0,0,0-1.6,11.857C1926.183,916.153,1934.215,916.721,1940.42,954.4Z" transform="translate(-1875.528 -770.56)" fill="#c65447"/>
      <path id="Trazado_11944" data-name="Trazado 11944" d="M1939.206,543.218c-.013.221-.027.436-.042.643C1939.177,543.654,1939.192,543.439,1939.206,543.218Z" transform="translate(-1907.04 -517.749)" fill="#2b478b"/>
      <path id="Trazado_11945" data-name="Trazado 11945" d="M1939.517,537.99c-.012.236-.025.466-.038.691C1939.492,538.456,1939.5,538.226,1939.517,537.99Z" transform="translate(-1907.3 -513.433)" fill="#2b478b"/>
      <path id="Trazado_11946" data-name="Trazado 11946" d="M1940,529.474c-.007.173-.015.344-.024.511q.011-.251.022-.511Z" transform="translate(-1907.714 -506.402)" fill="#2b478b"/>
      <path id="Trazado_11947" data-name="Trazado 11947" d="M1868.652,634.833c.8,2.394-10.7,3.794-23.462,3.625a41.683,41.683,0,0,1-9.719-1.2c-5.841-1.51-9.054-4.259-6.49-7.173.729-.829,8.818-12.4,8.818-12.4.477-1.036-.04-4.432-2.51-12.5-1.011-3.3.307-5.353.778-6.662a0,0,0,0,1,0,0,1.319,1.319,0,0,0,.051-1.118,27.471,27.471,0,0,0-4.144-5.218,40.972,40.972,0,0,0-3.466-3.158s4.736-5.161,7.384-6.488c2.728,2.86,8.644,7.983,16.074,8.041,6.41.049,12.637-3.562,16.429-6.3a2.632,2.632,0,0,1,.675.532c2.369,2.779,3.045,7.794,3.045,7.794s-7.624,4.207-7.488,5.577c.378,3.774.735,4.878.569,6.226v.013a9.188,9.188,0,0,1-.394,1.641c-1.3,4.084-4.115,10.392-3.412,12.516C1861.573,619.12,1867.511,631.4,1868.652,634.833Z" transform="translate(-1815.338 -550.205)" fill="#2b478b"/>
      <path id="Trazado_11948" data-name="Trazado 11948" d="M1876.028,580.713c.123-.037.256-.073.4-.1-.143.033-.279.068-.4.105Z" transform="translate(-1854.913 -548.619)" fill="#ffb27d"/>
      <path id="Trazado_11949" data-name="Trazado 11949" d="M1993.505,575.322a2.109,2.109,0,0,0,.683.452A2.1,2.1,0,0,1,1993.505,575.322Z" transform="translate(-1951.904 -544.254)" fill="#ffb27d"/>
      <path id="Trazado_11950" data-name="Trazado 11950" d="M1997.424,577.915a3.1,3.1,0,0,0,.293.107A2.507,2.507,0,0,1,1997.424,577.915Z" transform="translate(-1955.139 -546.395)" fill="#ffb27d"/>
      <path id="Trazado_11951" data-name="Trazado 11951" d="M2158.9,879.81s4.67,1.209,5.308,1.861,2.469,5.716,1.825,5.763a6.694,6.694,0,0,1-5.111-1.552c-2.023-2.226-5.046-2.582-4.9-4.211S2158.9,879.81,2158.9,879.81Z" transform="translate(-2086.082 -795.64)" fill="#ffb27d"/>
      <path id="Trazado_11952" data-name="Trazado 11952" d="M1814.924,828.565s-3.381,4.271-3.381,5.047.685,4.015,1.506,4.061,1.1-2.647,1.734-3.148,2.92-1.446,3.24-2.32a17.145,17.145,0,0,0,.281-3.639Z" transform="translate(-1801.676 -753.332)" fill="#ffb27d"/>
      <path id="Trazado_11953" data-name="Trazado 11953" d="M1937.694,535.193c4.2-.54,9.307-4.676,9.307-4.676a10.087,10.087,0,0,0-7.579-1.218,7.564,7.564,0,0,0-1.339.508Z" transform="translate(-1905.827 -506.017)" fill="#e8945b"/>
      <g id="Grupo_24780" data-name="Grupo 24780" transform="translate(29.119 8.021)">
        <path id="Trazado_11954" data-name="Trazado 11954" d="M1923.164,460.257s10.381,3.464,12.439-3.034,4.784-10.427-1.757-12.914-8.62-.417-9.835,1.585S1920.516,459.188,1923.164,460.257Z" transform="translate(-1921.936 -443.17)" fill="#ffb27d"/>
        <path id="Trazado_11955" data-name="Trazado 11955" d="M1932.568,518.86s-.383.754-2.343.146c0,0-1.646-.51-1.381-1.377A5.533,5.533,0,0,1,1932.568,518.86Z" transform="translate(-1927.615 -504.632)" fill="#fff"/>
      </g>
      <path id="Trazado_11956" data-name="Trazado 11956" d="M1955.972,407.033c-1.163-1.494,2.654-4.574-5.1-8.277-5.882-2.809-7.7,1.446-8.242,3.665-3.5-2-9.206-7.746-12.847-4-4.359,4.485.369,8.432.369,8.432,1.653,1.2,2.456.871,4.873,1.4s.873,3.328,1.062,4.271a3.025,3.025,0,0,0,4.073,1.887c2.235-.963,1.978,2.719-.147,3.476-.605.216-1.234,3.6-.356,3.744.738.12,3.4.145,3.672-2.028.16-1.29,1.8-1.964,3.538-3.3a5.437,5.437,0,0,0,3.826,1.594c1.373-.2,1.388-1.3,4.33-3.262S1957.134,408.526,1955.972,407.033Z" transform="translate(-1897.771 -397.181)" fill="#c65447"/>
      <path id="Trazado_11957" data-name="Trazado 11957" d="M1835.471,803.648c-5.84-1.511-9.055-4.259-6.49-7.175.729-.828,8.818-12.4,8.818-12.4S1839.966,797.141,1835.471,803.648Z" transform="translate(-1815.337 -716.597)" fill="#233862"/>
    </g>
    <g id="Grupo_24783" data-name="Grupo 24783" transform="translate(550.639 197.785)">
      <g id="Grupo_24782" data-name="Grupo 24782" transform="translate(1.879 90.971)">
        <path id="Trazado_11958" data-name="Trazado 11958" d="M2020.531,1043.591l-.874-93.652s-.756-6.745-6.639-6.745c-6.279,0-6.64,6.745-6.64,6.745a.714.714,0,0,0,.735.583.76.76,0,0,0,.786-.583s.278-5.2,5.119-5.2c4.536,0,5.119,5.2,5.119,5.2v93.652Z" transform="translate(-2006.378 -943.194)" fill="#233862"/>
        <path id="Trazado_11959" data-name="Trazado 11959" d="M2069.169,1496.546h3.905l-.348-4.084s.033-.567-.756-.6c-.733-.03-2.18-.135-2.318.309C2069.531,1492.562,2069.169,1496.546,2069.169,1496.546Z" transform="translate(-2058.219 -1396.149)" fill="#233862"/>
      </g>
      <path id="Trazado_11960" data-name="Trazado 11960" d="M2004.076,914.737l-.267,1.339a8.581,8.581,0,0,0-8.169,7.071s-.42,2.953,1.708,2.322,1.8-2.137,4.812-2.962,4.979-1.458,5.436-3.652l.493-2.442Z" transform="translate(-1995.606 -828.729)" fill="#ffb27d"/>
      <path id="Trazado_11961" data-name="Trazado 11961" d="M2065.278,581.784s-1.751,6.891-3.262,13.192c-.608,2.538-1.176,4.979-1.578,6.835a15.71,15.71,0,0,0-.552,3.342c1.313,2.132-1.086,15.133-2.984,19.853-.167.419-.4.909-.675,1.454-2.655,5.2-9.72,15.416-9.72,15.416a8.841,8.841,0,0,1-3.3-.283,4.347,4.347,0,0,1-1.831-1.742c.632-1.017,3.189-13.032,6.479-19.769,1.408-2.882,3.48-29.62,6.207-33.22C2056.336,583.859,2065.278,581.784,2065.278,581.784Z" transform="translate(-2033.394 -553.842)" fill="#f99746"/>
      <path id="Trazado_11962" data-name="Trazado 11962" d="M2126.327,688.284c1.313,2.132-1.086,15.133-2.984,19.854-.167.419-.4.909-.675,1.454-2.536-11.22,1.667-27.115,1.667-27.115C2125.384,682.891,2126.238,688.141,2126.327,688.284Z" transform="translate(-2099.837 -636.974)" fill="#ed7d2b"/>
      <path id="Trazado_11963" data-name="Trazado 11963" d="M2143.116,1445.54s.675,10.155-1.243,10.3c-.255.019-9.726.019-9.726.019H2119.93a4.177,4.177,0,0,1,3.74-3.6c3.534-.616,9.449-3.1,11.59-7.771C2137.512,1439.572,2143.116,1445.54,2143.116,1445.54Z" transform="translate(-2098.248 -1264.487)" fill="#0f2949"/>
      <path id="Trazado_11964" data-name="Trazado 11964" d="M2248.478,1445.54s.675,10.155-1.243,10.3c-.255.019-9.726.019-9.726.019h-12.217a4.177,4.177,0,0,1,3.74-3.6c3.534-.616,9.449-3.1,11.591-7.771C2242.875,1439.572,2248.478,1445.54,2248.478,1445.54Z" transform="translate(-2185.234 -1264.487)" fill="#163560"/>
      <path id="Trazado_11965" data-name="Trazado 11965" d="M2157.027,958.912a132.8,132.8,0,0,1,.7,14.793c-.306,6.96-.526,12.829-.526,12.829-4.589,1.56-13.008-.332-13.008-.332s-2.987-17.588-5.447-31.628c-1.1-6.291-2.019-11.733-2.361-14.3-1.107-8.306,1.178-52.471,1.178-52.471s12.416-7.958,17.546-3.855,8.286,8.111.021,53.051C2154.5,940.4,2156.354,949.294,2157.027,958.912Z" transform="translate(-2111.58 -802.336)" fill="#2b478b"/>
      <path id="Trazado_11966" data-name="Trazado 11966" d="M2157.027,958.912a159.3,159.3,0,0,1,.636,16.144c-4.316-4.568-12.823-14.206-18.921-20.482-1.1-6.291-2.019-11.733-2.361-14.3-1.107-8.306,1.178-52.471,1.178-52.471s12.416-7.958,17.546-3.855,8.286,8.111.021,53.051C2154.5,940.4,2156.354,949.294,2157.027,958.912Z" transform="translate(-2111.58 -802.336)" fill="#233862"/>
      <path id="Trazado_11967" data-name="Trazado 11967" d="M2208.906,887.925s1.115,44.21,2.857,52.407,10.836,45.72,10.836,45.72,8.524.776,12.978-1.132c0,0-.283-17.378-1.795-27.589-1.412-9.538-3.944-18.259-3.581-21.706,4.788-45.442,1.332-49.2-4.1-52.893S2208.906,887.925,2208.906,887.925Z" transform="translate(-2171.707 -801.563)" fill="#2b478b"/>
      <path id="Trazado_11968" data-name="Trazado 11968" d="M2301.889,928.7a8.582,8.582,0,0,0,2.724,10.455s2.461,1.684,2.839-.5-.058-1.426.536-4.494-.166-6.241-1.931-7.623Z" transform="translate(-2247.839 -838.471)" fill="#ffb27d"/>
      <path id="Trazado_11969" data-name="Trazado 11969" d="M2162.777,504.889s3.408,5.181,2.729,10.017l5.044,12.154,9.1-13.913a31.942,31.942,0,0,1-6.6-12.367Z" transform="translate(-2133.623 -486.965)" fill="#ffb27d"/>
      <path id="Trazado_11970" data-name="Trazado 11970" d="M2134.11,454.829s12.414.537,12.64-6.914,3.58-12.409-5.705-13.064c-7.635-.539-10.173,2.645-10.854,5.114S2129.509,454.429,2134.11,454.829Z" transform="translate(-2106.451 -432.484)" fill="#ffb27d"/>
      <path id="Trazado_11971" data-name="Trazado 11971" d="M2141.99,633.968c-2.667.248-6.339.556-10.794.836q-1.335.083-2.761.164c-13.451.753-18.8-1.425-18.8-1.425s-.356-.288-.244-1.868c.585-8.135,2.312-10.537,2.1-12.083-.468-3.474-8.9-31.827-8.9-31.827s-.162-8.956,9.8-13.16a23.593,23.593,0,0,1,3.41-1.134,4.109,4.109,0,0,0,4.691,2.738,15.988,15.988,0,0,0,9.122-4.56c.25,0,.349.008.349.008a27.257,27.257,0,0,1,.834,2.955c.817,3.52,1.295,7.224,3.455,9.993a75.819,75.819,0,0,1,5.514,8.066,67.073,67.073,0,0,1,3.358,6.447C2151.949,618.607,2145.128,633.673,2141.99,633.968Z" transform="translate(-2083.94 -545.476)" fill="#f99746"/>
      <path id="Trazado_11972" data-name="Trazado 11972" d="M2276.75,729.738c-2.667.248-6.339.556-10.793.836-1.3-21.894,7.622-42.923,7.622-42.923a7.9,7.9,0,0,1,.955.791,13.862,13.862,0,0,1,3.358,6.447C2280.549,704.817,2278.324,720.946,2276.75,729.738Z" transform="translate(-2218.7 -641.246)" fill="#ed7d2b"/>
      <path id="Trazado_11973" data-name="Trazado 11973" d="M2127.913,506.342s-2.417,9.587,1.684,10.937,14.988.268,14.984-11.485c0,0-5.714,3.407-8.442,3.321s-4.491-1.661-7.013-.431C2129.125,508.684,2128.2,508.623,2127.913,506.342Z" transform="translate(-2104.255 -491.105)" fill="#c8d9e8"/>
      <path id="Trazado_11974" data-name="Trazado 11974" d="M2246.328,571.69s8.677.2,13.262,6.16c3.513,4.571,7.226,29.1,7.226,32.79s-3.955,24.073-6.169,26.288a8.343,8.343,0,0,1-3.345,0,6.765,6.765,0,0,1-3.226-1.566s1.1-22.69,1.1-24.818c0-3.081-9.634-21.943-9.634-21.943S2240.548,579.624,2246.328,571.69Z" transform="translate(-2200.3 -545.509)" fill="#f99746"/>
      <path id="Trazado_11975" data-name="Trazado 11975" d="M2160.628,426.252a2.153,2.153,0,0,0-1.146-1.16c-6.991-3.045-12.1.286-12.1.286,4.285-5.752,14.627-4.545,16.806.644,3.557,8.471-2.949,10.235-2.949,10.235s-6.5-2.73-2.735-6.152a6.122,6.122,0,0,0,2.049-3.019h0A3,3,0,0,0,2160.628,426.252Z" transform="translate(-2120.913 -421.568)" fill="#c8d9e8"/>
      <path id="Trazado_11976" data-name="Trazado 11976" d="M2141.375,532.078s-.229.815-2.269.6c0,0-1.714-.178-1.623-1.08A5.533,5.533,0,0,1,2141.375,532.078Z" transform="translate(-2112.736 -512.281)" fill="#fff"/>
    </g>
    <path id="Rectángulo_5764" data-name="Rectángulo 5764" d="M.621,0H435.879a.621.621,0,0,1,.621.621v0a.621.621,0,0,1-.621.621H.621A.621.621,0,0,1,0,.621v0A.621.621,0,0,1,.621,0Z" transform="translate(245.404 389.163)" fill="#2e3552"/>
  </g>
</svg>
