<svg xmlns="http://www.w3.org/2000/svg" width="312" height="167" viewBox="0 0 312 167">
  <g id="Grupo_24684" data-name="Grupo 24684" transform="translate(-527 -1047)">
    <rect id="Rectángulo_5738" data-name="Rectángulo 5738" width="312" height="167" rx="10" transform="translate(527 1047)" fill="#ebf2fc"/>
    <g id="Grupo_24675" data-name="Grupo 24675" transform="translate(596 1046.411)">
      <path id="Trazado_11630" data-name="Trazado 11630" d="M192.593,224a2.2,2.2,0,0,0-2.2,2.2v6.6H124.4v-6.6a2.2,2.2,0,0,0-4.4,0V235a2.2,2.2,0,0,0,2.2,2.2h33v6.6a2.2,2.2,0,0,0,4.4,0v-6.6h33a2.2,2.2,0,0,0,2.2-2.2v-8.8A2.2,2.2,0,0,0,192.593,224Z" transform="translate(-69.602 -145.005)" fill="#e1e3e6"/>
      <path id="Trazado_11631" data-name="Trazado 11631" d="M152,326.8v-6.6c0-13.2,15.4-24.2,28.6-24.2s28.6,11,28.6,24.2v6.6Z" transform="translate(-92.803 -197.207)" fill="#f7b030"/>
      <path id="Trazado_11632" data-name="Trazado 11632" d="M30.6,120a6.6,6.6,0,1,0,6.6,6.6V120Z" transform="translate(0 -69.602)" fill="#f0c6a4"/>
      <path id="Trazado_11633" data-name="Trazado 11633" d="M340.8,54.8c0-17.009-8.8-30.8-26.4-30.8S288,37.788,288,54.8v6.6h52.8Z" transform="translate(-191.407)" fill="#8c5237"/>
      <path id="Trazado_11634" data-name="Trazado 11634" d="M293.2,128h-6.6a6.6,6.6,0,1,0,6.6,6.6Z" transform="translate(-185.606 -75.403)" fill="#f0c6a4"/>
      <path id="Trazado_11635" data-name="Trazado 11635" d="M351.6,96.9v8.8a19.8,19.8,0,1,1-39.6,0V96.9s24.492,0,26.29-11.8C338.227,88.5,339.313,96.9,351.6,96.9Z" transform="translate(-208.807 -44.299)" fill="#f7cca9"/>
      <path id="Trazado_11636" data-name="Trazado 11636" d="M185.6,62.6A6.6,6.6,0,0,0,179,56H168V80.2h17.6" transform="translate(-104.404 -23.201)" fill="#eba72e"/>
      <ellipse id="Elipse_1518" data-name="Elipse 1518" cx="6.783" cy="6.406" rx="6.783" ry="6.406" transform="translate(67.713 50.597)" fill="#f0c6a4"/>
      <path id="Trazado_11637" data-name="Trazado 11637" d="M75.8,40h0A19.8,19.8,0,0,1,95.6,59.8V73A19.8,19.8,0,0,1,75.8,92.8h0A19.8,19.8,0,0,1,56,73V59.8A19.8,19.8,0,0,1,75.8,40Z" transform="translate(-23.201 -11.6)" fill="#f7cca9"/>
      <ellipse id="Elipse_1519" data-name="Elipse 1519" cx="2.261" cy="1.884" rx="2.261" ry="1.884" transform="translate(39.073 55.119)" fill="#d49073"/>
      <path id="Trazado_11638" data-name="Trazado 11638" d="M61.2,129.6H56.8a8.8,8.8,0,1,1,0-17.6h4.4a8.8,8.8,0,1,1,0,17.6Zm-4.4-13.2a4.4,4.4,0,1,0,0,8.8h4.4a4.4,4.4,0,1,0,0-8.8Z" transform="translate(-17.401 -63.802)" fill="#fbe9d8"/>
      <circle id="Elipse_1520" data-name="Elipse 1520" cx="1.884" cy="1.884" r="1.884" transform="translate(61.683 55.119)" fill="#d49073"/>
      <path id="Trazado_11639" data-name="Trazado 11639" d="M141.2,129.6h-4.4a8.8,8.8,0,1,1,0-17.6h4.4a8.8,8.8,0,1,1,0,17.6Zm-4.4-13.2a4.4,4.4,0,1,0,0,8.8h4.4a4.4,4.4,0,0,0,0-8.8Z" transform="translate(-75.403 -63.802)" fill="#fbe9d8"/>
      <path id="Trazado_11640" data-name="Trazado 11640" d="M81.195,24c0,13.2-8.8,13.2-8.8,13.2h-33c0,6.6-6.6,13.2-6.6,13.2H30.6A6.6,6.6,0,0,0,24,57V41.6A17.6,17.6,0,0,1,41.6,24Z" fill="#f7b030"/>
      <circle id="Elipse_1521" data-name="Elipse 1521" cx="2.261" cy="2.261" r="2.261" transform="translate(112.179 58.887)" fill="#d49073"/>
      <circle id="Elipse_1522" data-name="Elipse 1522" cx="2.261" cy="2.261" r="2.261" transform="translate(129.514 58.887)" fill="#d49073"/>
      <path id="Trazado_11641" data-name="Trazado 11641" d="M165.2,386V390.6a6.6,6.6,0,1,1-6.6-6.6h2.2A8.773,8.773,0,0,0,165.2,386Z" transform="translate(-92.803 -261.009)" fill="#f0c6a4"/>
      <path id="Trazado_11642" data-name="Trazado 11642" d="M325.2,390.6a6.6,6.6,0,1,1-13.2,0V386a8.773,8.773,0,0,0,4.4-2h2.2A6.6,6.6,0,0,1,325.2,390.6Z" transform="translate(-208.807 -261.009)" fill="#f0c6a4"/>
      <path id="Trazado_11643" data-name="Trazado 11643" d="M223.6,366.6v8.8a19.8,19.8,0,0,1-39.6,0v-8.8a9.635,9.635,0,0,0,6.6,2.2,31.155,31.155,0,0,1,4.738-8.8,8.173,8.173,0,0,0,1.059,3.575c1.056,1.925,3.173,4.125,7.4,5.225,8.461-2.2,8.461-8.8,8.461-8.8A31.155,31.155,0,0,1,217,368.8,9.635,9.635,0,0,0,223.6,366.6Z" transform="translate(-116.004 -243.608)" fill="#f7cca9"/>
      <g id="Grupo_24674" data-name="Grupo 24674" transform="translate(43.798 67.996)">
        <circle id="Elipse_1523" data-name="Elipse 1523" cx="2.261" cy="2.261" r="2.261" transform="translate(32.958 61.736)" fill="#d49073"/>
        <circle id="Elipse_1524" data-name="Elipse 1524" cx="2.261" cy="2.261" r="2.261" transform="translate(50.293 61.736)" fill="#d49073"/>
        <path id="Trazado_11644" data-name="Trazado 11644" d="M240.954,440.644a2.2,2.2,0,0,0-3.111,0h0a8.955,8.955,0,0,1-10.088,0,2.2,2.2,0,1,0-3.111,3.111,13.114,13.114,0,0,0,16.31,0,2.2,2.2,0,0,0,0-3.111Z" transform="translate(-188.803 -369.606)" fill="#d49073"/>
        <path id="Trazado_11645" data-name="Trazado 11645" d="M112.954,184.644a2.2,2.2,0,0,0-3.111,0h0a8.955,8.955,0,0,1-10.088,0,2.2,2.2,0,1,0-3.111,3.111,13.113,13.113,0,0,0,16.31,0,2.2,2.2,0,0,0,0-3.111Z" transform="translate(-96 -184)" fill="#d49073"/>
        <path id="Trazado_11646" data-name="Trazado 11646" d="M368.979,184.644a2.2,2.2,0,0,0-3.111,0h0a8.955,8.955,0,0,1-10.088,0,2.2,2.2,0,0,0-3.111,3.111,13.113,13.113,0,0,0,16.31,0,2.2,2.2,0,0,0,0-3.111Z" transform="translate(-281.632 -184)" fill="#d49073"/>
      </g>
    </g>
  </g>
</svg>
