<svg xmlns="http://www.w3.org/2000/svg" width="312" height="167" viewBox="0 0 312 167">
  <g id="Grupo_24688" data-name="Grupo 24688" transform="translate(-876 -1541)">
    <rect id="Rectángulo_5742" data-name="Rectángulo 5742" width="312" height="167" rx="10" transform="translate(876 1541)" fill="#e8eef6"/>
    <g id="Grupo_24682" data-name="Grupo 24682" transform="translate(955.824 1541.409)">
      <path id="Trazado_11685" data-name="Trazado 11685" d="M92.174,227.224a30.146,30.146,0,0,1-1.556,5.819l6.318,5.724a38.089,38.089,0,0,1-3.059,5.339l-8.111-2.615a30.352,30.352,0,0,1-4.276,4.274l2.615,8.111a38.292,38.292,0,0,1-5.339,3.059l-5.724-6.318a30.108,30.108,0,0,1-5.819,1.556l-1.8,8.345c-1.019.081-2.042.155-3.083.155s-2.064-.075-3.085-.155l-1.8-8.345a30.146,30.146,0,0,1-5.819-1.556l-5.724,6.318a38.088,38.088,0,0,1-5.339-3.059l2.615-8.111a30.444,30.444,0,0,1-4.274-4.274L30.8,244.107a38.291,38.291,0,0,1-3.059-5.339l6.318-5.724a30.108,30.108,0,0,1-1.556-5.819l-8.345-1.8c-.081-1.021-.155-2.044-.155-3.085s.075-2.064.155-3.085l8.345-1.8a30.147,30.147,0,0,1,1.556-5.819l-6.318-5.724a38.089,38.089,0,0,1,3.059-5.339l8.111,2.615a30.352,30.352,0,0,1,4.276-4.274L40.57,190.8a38.292,38.292,0,0,1,5.339-3.059l5.724,6.318a30.107,30.107,0,0,1,5.819-1.556l1.8-8.345c1.019-.081,2.042-.155,3.083-.155s2.064.075,3.085.155l1.8,8.345a30.146,30.146,0,0,1,5.819,1.556l5.724-6.318a38.089,38.089,0,0,1,5.339,3.059l-2.615,8.111a30.35,30.35,0,0,1,4.274,4.276l8.111-2.615a38.289,38.289,0,0,1,3.059,5.339l-6.318,5.724a30.107,30.107,0,0,1,1.556,5.819l8.345,1.8c.081,1.019.155,2.042.155,3.083s-.075,2.064-.155,3.085ZM62.337,202.16a20.177,20.177,0,1,0,20.177,20.177A20.177,20.177,0,0,0,62.337,202.16Z" transform="translate(-5.851 -119.645)" fill="#454a6d"/>
      <path id="Trazado_11686" data-name="Trazado 11686" d="M293.649,50.846a16.174,16.174,0,0,1-1.233,2.986l3.186,6.106A22.3,22.3,0,0,1,291.94,63.6l-6.106-3.186a15.9,15.9,0,0,1-2.986,1.233l-2.066,6.578a21.925,21.925,0,0,1-2.587.165,22.3,22.3,0,0,1-2.585-.163l-2.066-6.578a16.033,16.033,0,0,1-2.986-1.233L264.452,63.6a22.3,22.3,0,0,1-3.662-3.662l3.186-6.106a15.9,15.9,0,0,1-1.233-2.986l-6.578-2.066A21.932,21.932,0,0,1,256,46.2a22.309,22.309,0,0,1,.163-2.585l6.578-2.066a16.034,16.034,0,0,1,1.233-2.986l-3.186-6.106a22.3,22.3,0,0,1,3.662-3.662l6.106,3.186a15.9,15.9,0,0,1,2.986-1.233l2.066-6.578A21.926,21.926,0,0,1,278.2,24a22.3,22.3,0,0,1,2.585.163l2.066,6.578a16.034,16.034,0,0,1,2.986,1.233l6.106-3.186A22.3,22.3,0,0,1,295.6,32.45l-3.186,6.106a15.9,15.9,0,0,1,1.233,2.986l6.578,2.066a21.932,21.932,0,0,1,.165,2.587,22.309,22.309,0,0,1-.163,2.585ZM278.2,38.124a8.071,8.071,0,1,0,8.071,8.071A8.071,8.071,0,0,0,278.2,38.124Z" transform="translate(-179.336)" fill="#e89d43"/>
      <path id="Trazado_11687" data-name="Trazado 11687" d="M375.757,245.935a14.043,14.043,0,0,1-1.31,3.172l2.008,4.225a18.3,18.3,0,0,1-3.123,3.123l-4.225-2.008a14.006,14.006,0,0,1-3.172,1.309l-1.57,4.415a16.583,16.583,0,0,1-4.411,0l-1.57-4.415a14.044,14.044,0,0,1-3.172-1.309l-4.225,2.008a18.3,18.3,0,0,1-3.123-3.123l2.008-4.225a14.03,14.03,0,0,1-1.31-3.17l-4.415-1.57a16.6,16.6,0,0,1,0-4.413l4.415-1.57a13.992,13.992,0,0,1,1.31-3.17l-2.008-4.225a18.3,18.3,0,0,1,3.123-3.123l4.225,2.008a14,14,0,0,1,3.172-1.31l1.57-4.415A17.676,17.676,0,0,1,362.16,224a18.069,18.069,0,0,1,2.205.147l1.57,4.415a14.044,14.044,0,0,1,3.172,1.31l4.225-2.008a18.3,18.3,0,0,1,3.123,3.123l-2.008,4.225a14.005,14.005,0,0,1,1.31,3.172l4.415,1.57a16.583,16.583,0,0,1,0,4.411Zm-13.6-9.828a6.053,6.053,0,1,0,6.053,6.053A6.053,6.053,0,0,0,362.16,236.106Z" transform="translate(-245.141 -149.556)" fill="#4ac3ed"/>
      <g id="Grupo_24681" data-name="Grupo 24681" transform="translate(16.176 25.663)">
        <path id="Trazado_11688" data-name="Trazado 11688" d="M446.633,33.005l-12.068-2.413-2.413,12.066,3.957.793,1.088-5.432a30.276,30.276,0,0,1,2.988,13.105,29.943,29.943,0,0,1-6.638,18.916l3.15,2.524a34.329,34.329,0,0,0,3.981-36.636l5.165,1.033Z" transform="translate(-327.235 -30.592)" fill="#454a6d"/>
        <path id="Trazado_11689" data-name="Trazado 11689" d="M59.931,106.344,57.078,109.2l2.742,2.742c-1.11-.071-2.222-.133-3.333-.133A52.355,52.355,0,0,0,16.176,130.69l3.1,2.585a48.328,48.328,0,0,1,37.211-17.433c1.027,0,2.052.059,3.077.123l-2.486,2.486,2.853,2.853,7.48-7.48Z" transform="translate(-16.176 -87.238)" fill="#454a6d"/>
      </g>
    </g>
  </g>
</svg>
