<?xml version="1.0" encoding="UTF-8" standalone="no"?><!DOCTYPE svg PUBLIC "-//W3C//DTD SVG 1.1//EN" "http://www.w3.org/Graphics/SVG/1.1/DTD/svg11.dtd"><svg width="100%" height="100%" viewBox="0 0 92 100" version="1.1" xmlns="http://www.w3.org/2000/svg" xmlns:xlink="http://www.w3.org/1999/xlink" xml:space="preserve" xmlns:serif="http://www.serif.com/" style="fill-rule:evenodd;clip-rule:evenodd;stroke-linejoin:round;stroke-miterlimit:2;"><g id="Grupo_24814"><g id="Grupo_24810"><circle id="Elipse_76" cx="46" cy="50.493" r="43" style="fill:#00348d;"/><g id="Grupo_24242"><circle id="Elipse_1441" cx="35.831" cy="29.088" r="5.595" style="fill:#fff;"/><path id="Trazado_10436" d="M38.469,36.371l-5.278,-0c-3.068,0.001 -5.676,2.334 -6.017,5.383l-1.162,11.506c-0.117,0.909 0.41,1.787 1.267,2.111l2.85,1.161c0.367,0.12 0.62,0.459 0.633,0.844l1.478,19.212c0.081,1.049 0.954,1.876 2.006,1.9l3.166,-0c1.052,-0.024 1.925,-0.851 2.006,-1.9l1.478,-19.317c0.012,-0.386 0.266,-0.724 0.633,-0.844l2.85,-1.161c0.857,-0.324 1.384,-1.202 1.267,-2.111l-1.161,-11.506c-0.392,-3.007 -2.983,-5.281 -6.016,-5.278Z" style="fill:#fff;fill-rule:nonzero;"/><g id="Grupo_24240"><path id="Trazado_9496" d="M65.844,45.348l-1.646,-11.391l-14.033,-0l-1.926,13.473c-0.016,0.14 -0.024,0.281 -0.024,0.422c0,2.053 1.689,3.742 3.742,3.743l7.45,-1.526l-1.361,-3.427c-1.271,0.486 -3.24,1.232 -4.4,1.632c-0.731,0.252 -1.318,-0.787 -1.227,-1.556l0.384,-3.192l-1.619,0.616l-0.671,-0.6l2.688,-1.374c0.348,-0.169 0.872,-0.057 0.936,0.325c0.071,0.818 0.073,1.64 0.006,2.458l3.051,-1.183c0.121,-0.047 0.25,-0.071 0.38,-0.071c0.432,-0 0.823,0.267 0.979,0.671l0.4,1.02l0.307,0.791l0.322,0.831l0,3.028l2.544,-0.521c1.772,-0.3 3.97,-1.95 3.718,-4.169Zm-5.789,-5.321c0.314,-0 0.573,0.259 0.573,0.573c-0,0.314 -0.259,0.573 -0.573,0.573c-0.314,-0 -0.573,-0.259 -0.573,-0.573c-0,-0.314 0.259,-0.573 0.573,-0.573Zm-3.229,-0.753l0.581,-0c-0,0 -0,0 -0,0c-0,1.191 0.98,2.17 2.17,2.17c1.19,0 2.17,-0.979 2.17,-2.17c-0,-0.495 -0.169,-0.975 -0.48,-1.361l-0,-0.789l0.01,-0.012c0.664,0.521 1.052,1.32 1.052,2.164c-0,1.509 -1.242,2.751 -2.751,2.751c-1.509,-0 -2.751,-1.242 -2.751,-2.751c-0,-0.001 -0,-0.001 -0,-0.001l-0.001,-0.001Zm4.872,6.44c-0.216,0.084 -0.446,0.127 -0.678,0.127c-1.029,-0 -1.876,-0.847 -1.876,-1.876c-0,-1.029 0.847,-1.876 1.876,-1.876c0.773,-0 1.47,0.477 1.749,1.198c0.085,0.217 0.128,0.448 0.128,0.682c0,0.772 -0.476,1.468 -1.196,1.748l-0.003,-0.003Z" style="fill:#fff;fill-rule:nonzero;"/><path id="Trazado_9497" d="M59.536,23.843c-0.406,-0.174 -0.837,-0.285 -1.277,-0.328c-0.155,-0.017 -0.31,-0.025 -0.466,-0.025c-2.407,0 -4.388,1.981 -4.388,4.388c0,2.407 1.981,4.388 4.388,4.388c1.33,0 2.59,-0.604 3.422,-1.641c1.21,1.017 2.746,4.337 5.172,-0.145c-3.094,2.484 -2.985,-5.293 -6.851,-6.637Z" style="fill:#fff;fill-rule:nonzero;"/><path id="Trazado_9498" d="M63.274,50.105l-11.4,2.349l-1.225,12.784l2.476,-0l1.587,14.773l2.557,-0l0.046,-14.773l1.086,-0l-0.033,14.771l2.346,-0l1.789,-14.771l2.618,-0.013l-1.847,-15.12Z" style="fill:#fff;fill-rule:nonzero;"/></g></g></g><rect id="Rectángulo_5780" x="0" y="0" width="92" height="100" style="fill:none;"/></g></svg>