<svg xmlns="http://www.w3.org/2000/svg" width="268" height="234.309" viewBox="0 0 268 234.309">
  <g id="Grupo_24802" data-name="Grupo 24802" transform="translate(-229.315 -172.216)">
    <g id="Grupo_24801" data-name="Grupo 24801" transform="translate(229.315 172.216)">
      <g id="Grupo_24800" data-name="Grupo 24800" transform="translate(0 0)">
        <path id="Trazado_11977" data-name="Trazado 11977" d="M1242.519,785.8l3.621-3.5c-1.133-6.336-7.077-9.385-10.991-9.8-10.54-1.119-15.913,6.128-18.174,17.75-4.127,21.214,1.069,110.29,1.069,110.29.389-2.366,29.015-91.819,28.281-116.4Z" transform="translate(-1075.825 -687.438)" fill="#89ace8"/>
        <path id="Trazado_11978" data-name="Trazado 11978" d="M277.691,1404.418l-.39,2.883-.933-3.334a13.307,13.307,0,0,0-6.705-.7c-16.132,3.666,11.744,25.851,11.744,25.851a134.967,134.967,0,0,0-17.488-9.109l-.109,2.922-1.1-3.3c-6.686-2.617-12.888-3.827-14.127-.048-1.167,3.557,1.181,6.925,5.222,9.924l4.645.163-2.738,1.148c9.331,5.977,24.768,10.253,30.1,11.225-5.1-.8-17.558-2.422-24.943-.828l1.159,1.929-2.916-1.458c-2.585.834-4.19,2.214-4.017,4.387.33,4.156,18.362,5.652,18.362,5.652l65.871-.611.367.183S298.927,1412.2,277.691,1404.418Z" transform="translate(-245.599 -1228.88)" fill="#89ace8"/>
        <path id="Trazado_11979" data-name="Trazado 11979" d="M1327.991,1032.572c-1.465-6.8-16.337-8.8-35.294-5.072,6.75-2.307,16.024-7.557,20.826-9.956l-3.285-2.09,6.6.307c5.4-3.159,8.094-6.262,6.331-9.069-1.317-2.1-4.2-2.969-8.12-2.958l-2.062,3.69.428-3.638c-9.875.57-12.115-1.042-25.436,4.343,8.324-4.321,9.527-5.662,10.074-7.4l-4.509-1.972h5.283c4.271-4.594,11.046-13.683,8.236-17.871-2.319-3.457-12.5,1.341-19,3.834l-2.764,6.218.56-5.313c-20.661,9-13.657,1.779-13.657,1.779s21.567-44.615,8.862-43.612c-5.016.4-10.41,3.419-15.707,8.262l-.134,4.435-1.576-2.814a113.222,113.222,0,0,0-11.326,13.28c4.945-10.386,8.7-20.588,9.068-28.183l-3.774-.457,3.725-2.591c-.351-3.838-1.87-6.74-4.95-8.274-4.724-2.353-9.682,1.207-14.562,8.283l1.205,6.386L1240,938.541c-17.477,28.484-33.457,98.609-33.457,98.609l-1.268,3.8,51.345,2.536S1330.95,1046.309,1327.991,1032.572Z" transform="translate(-1067.154 -819.943)" fill="#c9ddff"/>
        <g id="Grupo_24786" data-name="Grupo 24786" transform="translate(0 222.182)">
          <path id="Trazado_11980" data-name="Trazado 11980" d="M496.514,1743.794h-266.4a.852.852,0,0,1,0-1.7h266.4a.852.852,0,0,1,0,1.7Z" transform="translate(-229.315 -1742.093)" fill="#184655"/>
        </g>
        <path id="Trazado_11981" data-name="Trazado 11981" d="M757.833,1421.718H637.41c-4.6,0-8.328-3.383-8.328-7.556v-4.493c0-4.173,3.729-7.556,8.328-7.556H757.833a13.534,13.534,0,0,0-.221,19.376Z" transform="translate(-572.504 -1228.048)" fill="#86b1f2"/>
        <path id="Trazado_11982" data-name="Trazado 11982" d="M1113.473,1417.985h-60.6a7.556,7.556,0,0,0-7.556,7.556h0a7.556,7.556,0,0,0,7.556,7.556h60.6A14.526,14.526,0,0,1,1113.473,1417.985Z" transform="translate(-929.831 -1241.674)" fill="#fae0b2"/>
        <g id="Grupo_24787" data-name="Grupo 24787" transform="translate(69.646 151.655)">
          <path id="Trazado_11983" data-name="Trazado 11983" d="M831.676,1244.752c.264-.453-.137-.978-.747-.978h-95.9c-7.517,0-13.61,5.029-13.61,11.232h0c0,6.2,6.094,11.232,13.61,11.232h95.93c.612,0,1.014-.528.748-.983h0A19.956,19.956,0,0,1,831.676,1244.752Z" transform="translate(-721.416 -1243.774)" fill="#355389"/>
          <path id="Trazado_11984" data-name="Trazado 11984" d="M1052.578,1260.852H988.232a8.606,8.606,0,0,0-8.606,8.606v.646a8.606,8.606,0,0,0,8.606,8.606h64.483A19.843,19.843,0,0,1,1052.578,1260.852Z" transform="translate(-943.082 -1258.435)" fill="#fae0b2"/>
        </g>
        <path id="Trazado_11985" data-name="Trazado 11985" d="M675.807,1106.718H737.7c5.489,0,9.938-4.8,9.938-10.716h0c0-5.918-4.449-10.716-9.938-10.716H675.807a17.432,17.432,0,0,1,.442,20.824Z" transform="translate(-612.616 -956.06)" fill="#fae0b2"/>
        <path id="Trazado_11986" data-name="Trazado 11986" d="M736.833,1089.265h0c0-5.918-4.5-10.716-10.052-10.716H664.694a.539.539,0,0,1-.521-.561h0a.538.538,0,0,1,.521-.55h98.493c6.127,0,11.094,5.3,11.094,11.827h0c0,6.532-4.967,11.827-11.094,11.827H664.694a.538.538,0,0,1-.521-.55h0a.539.539,0,0,1,.521-.56h62.087C732.333,1099.981,736.833,1095.183,736.833,1089.265Z" transform="translate(-602.628 -949.324)" fill="#466eb6"/>
        <g id="Grupo_24788" data-name="Grupo 24788" transform="translate(129.39 163.072)">
          <path id="Trazado_11987" data-name="Trazado 11987" d="M1152.75,1324.441h-6.623c-1.424,0-2.579.442-2.579.987v.088h9.2Z" transform="translate(-1143.548 -1324.441)" fill="#ff4c16"/>
          <path id="Trazado_11988" data-name="Trazado 11988" d="M1173.5,1326.916c0-1.367-1.73-2.474-3.863-2.474h-8.5c1.619,0,2.93.84,2.93,1.877l-.04,26.523,4.7-3.411,4.787,3.411Z" transform="translate(-1158.643 -1324.441)" fill="#f47458"/>
        </g>
        <g id="Grupo_24789" data-name="Grupo 24789" transform="translate(45.846 193.63)">
          <path id="Trazado_11989" data-name="Trazado 11989" d="M742.247,1540.352H563.312a10.061,10.061,0,0,0-10.061,10.061v8.463a10.061,10.061,0,0,0,10.061,10.061H742.247l-.094-.1A20.489,20.489,0,0,1,742.247,1540.352Z" transform="translate(-553.251 -1540.352)" fill="#00348d"/>
          <path id="Trazado_11990" data-name="Trazado 11990" d="M1225.019,1570.249h-95.656a10.061,10.061,0,0,0-10.061,10.061h0a10.061,10.061,0,0,0,10.061,10.061h95.654A20.518,20.518,0,0,1,1225.019,1570.249Z" transform="translate(-1039.19 -1566.018)" fill="#fae0b2"/>
        </g>
        <g id="Grupo_24790" data-name="Grupo 24790" transform="translate(173.93 207.974)">
          <path id="Trazado_11991" data-name="Trazado 11991" d="M1469.036,1641.706h-7.757a3.021,3.021,0,0,0-3.021,3.021v.27h10.778Z" transform="translate(-1458.258 -1641.706)" fill="#13375b"/>
          <path id="Trazado_11992" data-name="Trazado 11992" d="M1481.843,1641.751c1.854,0,4.623,1.568,6.185,3.5l18.4,22.819,10.807-.007-17.5-21.7c-2.059-2.553-5.71-4.623-8.154-4.621Z" transform="translate(-1478.505 -1641.74)" fill="#355389"/>
        </g>
        <g id="Grupo_24793" data-name="Grupo 24793" transform="translate(43.098 134.246)">
          <path id="Trazado_11993" data-name="Trazado 11993" d="M538.243,1120.825a5.246,5.246,0,0,0-2.254,9.416,3.49,3.49,0,0,1,1.331,2.037l.656,2.8a1.522,1.522,0,0,0,1.709,1.158l1.737-.263a1.521,1.521,0,0,0,1.29-1.611c-.2-2.887-.487-3.937.468-5.211A5.246,5.246,0,0,0,538.243,1120.825Z" transform="translate(-533.833 -1120.763)" fill="#f7cc7f"/>
          <g id="Grupo_24791" data-name="Grupo 24791" transform="translate(2.497 4.848)">
            <path id="Trazado_11994" data-name="Trazado 11994" d="M554.39,1163.457h0a.422.422,0,0,1-.476-.359l-.855-6.111-1.431-1.226a.422.422,0,0,1,.549-.641l1.674,1.434.9,6.427A.422.422,0,0,1,554.39,1163.457Z" transform="translate(-551.475 -1155.019)" fill="#fae0b2"/>
          </g>
          <g id="Grupo_24792" data-name="Grupo 24792" transform="translate(6.017 4.409)">
            <path id="Trazado_11995" data-name="Trazado 11995" d="M577.866,1160.732h0a.422.422,0,0,0,.349-.484l-.99-6.09,1-1.594a.422.422,0,1,0-.714-.45l-1.175,1.865,1.041,6.405A.422.422,0,0,0,577.866,1160.732Z" transform="translate(-576.345 -1151.916)" fill="#fae0b2"/>
          </g>
          <path id="Trazado_11996" data-name="Trazado 11996" d="M558.335,1196.863c.006.023.014.046.019.069l.656,2.8a1.522,1.522,0,0,0,1.709,1.158l1.737-.263a1.522,1.522,0,0,0,1.29-1.611c-.09-1.284-.2-2.2-.2-2.943Z" transform="translate(-554.867 -1185.416)" fill="#96d9c9"/>
        </g>
        <path id="Trazado_11997" data-name="Trazado 11997" d="M525.822,743.1,524,740.47l-3.194.007a.439.439,0,0,1-.35-.705l1.937-2.54L521.4,734.2a.439.439,0,0,1,.563-.551l3.014,1.058,2.58-1.883a.439.439,0,0,1,.7.365l-.074,3.193,2.588,1.872a.439.439,0,0,1-.131.776l-3.06.916-.98,3.04A.439.439,0,0,1,525.822,743.1Z" transform="translate(-479.177 -653.406)" fill="#f47458"/>
        <path id="Trazado_11998" data-name="Trazado 11998" d="M1723.271,793.42l-1.335-1.93-2.347.005a.322.322,0,0,1-.257-.518l1.423-1.866-.73-2.23a.322.322,0,0,1,.413-.4l2.214.777,1.9-1.383a.323.323,0,0,1,.513.268l-.055,2.346,1.9,1.375a.323.323,0,0,1-.1.57l-2.248.673-.72,2.233A.323.323,0,0,1,1723.271,793.42Z" transform="translate(-1508.396 -698.968)" fill="#9bc1f9"/>
        <path id="Trazado_11999" data-name="Trazado 11999" d="M1375.868,618.445l-2.95-.5-1.729,2.514-3.268-.79-1.015,3.245-3.735-.731-1.3,2.873-3.708-.115.044-1.4,2.773.086,1.375-3.032,3.591.7,1.032-3.3,3.606.872,1.688-2.455,2.734.46.771-1.844,1.3.542Z" transform="translate(-1198.396 -552.361)" fill="#f48c7f"/>
        <path id="Trazado_12000" data-name="Trazado 12000" d="M833.441,676.772l-2.161.663-1.451-3.358-3.278.58-1.5-2.336-1.182.758,2,3.124,3.107-.55,1.509,3.494,3.251-1Z" transform="translate(-739.726 -601.542)" fill="#50bfa5"/>
        <path id="Trazado_12001" data-name="Trazado 12001" d="M422.379,955.155l-3.234,1.967L422.5,972.19a1.947,1.947,0,0,0,2.913,1.24h0a1.947,1.947,0,0,0,.885-2.1l-.82-3.538,3.393-2.064,2.806,2.348a1.947,1.947,0,0,0,2.262.17l.061-.037a1.947,1.947,0,0,0,.236-3.159Zm2.187,9.079-.62-2.768,2.177,1.82Z" transform="translate(-392.279 -844.347)" fill="#f48c7f"/>
        <path id="Trazado_12002" data-name="Trazado 12002" d="M1811.919,998.658a4.8,4.8,0,0,1,2.232-3.424c.873-.6,1.589-1.106,1.782-1.8.334-1.2-.932-1.781-2.194-1.775a1.207,1.207,0,0,1-1.207-1.172h0a1.214,1.214,0,0,1,1.156-1.25,7.869,7.869,0,0,1,2.47.283c2.708.752,3.524,2.591,3.051,4.294a5.291,5.291,0,0,1-2.7,2.963,3.788,3.788,0,0,0-1.861,2.644Zm-1.32,2.683a1.906,1.906,0,1,1,1.308,2.374A1.846,1.846,0,0,1,1810.6,1001.341Z" transform="translate(-1586.733 -873.594)" fill="#f7cc7f"/>
        <path id="Trazado_12003" data-name="Trazado 12003" d="M686.684,793.8a24.742,24.742,0,0,1,3.941.829,7.59,7.59,0,0,1,3.688,1.86,2.991,2.991,0,0,1,.848,3.042,3.105,3.105,0,0,1-2.983,2.2l-.011.039a3.438,3.438,0,0,1,1.7,4.005,3.661,3.661,0,0,1-2.174,2.411c-1.179.49-2.91.462-5.537-.289a24.055,24.055,0,0,1-3.179-1.12Zm1.515,5.9.98.28c1.568.448,2.6.042,2.876-.938.286-1-.327-1.748-1.68-2.134a8.473,8.473,0,0,0-1.3-.286Zm-1.675,5.862a9.778,9.778,0,0,0,1.146.37c1.353.387,2.694.219,3.092-1.173.381-1.333-.664-2.2-2.154-2.63l-1.019-.291Z" transform="translate(-618.769 -705.832)" fill="#96d9c9"/>
        <path id="Trazado_12004" data-name="Trazado 12004" d="M1542.136,751.856a1.381,1.381,0,0,1-1.016,1.651,12.941,12.941,0,0,1-2.555.328c-5.208.176-8-2.975-8.143-7.266-.173-5.141,3.4-8.125,7.955-8.279a11.553,11.553,0,0,1,2.345.149,1.381,1.381,0,0,1,1.109,1.66l-.011.048a1.379,1.379,0,0,1-1.582,1.066,7.669,7.669,0,0,0-1.61-.112c-2.7.091-4.75,1.794-4.637,5.146.1,3.017,1.954,4.857,4.993,4.754a8.972,8.972,0,0,0,1.524-.192,1.38,1.38,0,0,1,1.627,1.047Z" transform="translate(-1346.274 -658.169)" fill="#f7cc7f"/>
        <path id="Trazado_12005" data-name="Trazado 12005" d="M395.788,1246.062a2.112,2.112,0,0,1,1.324-2.648,2.1,2.1,0,1,1-1.324,2.648Zm-.368-3.266-3.507-8.377a1.313,1.313,0,0,1,.766-1.742l.854-.308a1.313,1.313,0,0,1,1.7.851l2.66,8.685Z" transform="translate(-368.814 -1082.261)" fill="#466eb6"/>
        <g id="Grupo_24796" data-name="Grupo 24796" transform="translate(148.648)">
          <path id="Trazado_12006" data-name="Trazado 12006" d="M1360.654,205.785H1326.06a16.891,16.891,0,0,1-11.588-4.642,16.586,16.586,0,0,1-5.2-12.142h0a16.784,16.784,0,0,1,16.784-16.784h34.594A16.784,16.784,0,0,1,1377.438,189h0A16.785,16.785,0,0,1,1360.654,205.785Z" transform="translate(-1305.079 -172.216)" fill="#f579a8"/>
          <path id="Trazado_12007" data-name="Trazado 12007" d="M1287.262,309.2,1279.62,318l12.171-2.055Z" transform="translate(-1279.62 -289.817)" fill="#f579a8"/>
          <g id="Grupo_24794" data-name="Grupo 24794" transform="translate(12.879 10.565)">
            <path id="Trazado_12008" data-name="Trazado 12008" d="M1371.81,249.244H1421.6a1.189,1.189,0,1,0,0-2.377H1371.81a1.189,1.189,0,0,0,0,2.377Z" transform="translate(-1370.622 -246.867)" fill="#fff"/>
          </g>
          <g id="Grupo_24795" data-name="Grupo 24795" transform="translate(12.879 19.388)">
            <path id="Trazado_12009" data-name="Trazado 12009" d="M1371.81,311.581H1421.6a1.189,1.189,0,1,0,0-2.377H1371.81a1.189,1.189,0,0,0,0,2.377Z" transform="translate(-1370.622 -309.204)" fill="#fff"/>
          </g>
        </g>
        <g id="Grupo_24799" data-name="Grupo 24799" transform="translate(94.088 20.464)">
          <g id="Grupo_24798" data-name="Grupo 24798" transform="translate(3.293 3.321)">
            <path id="Trazado_12010" data-name="Trazado 12010" d="M1077.232,483.522c4.876-3.948,17.649,1.51,19.552,4.057,1.872,2.505,5.671,28.942,2.874,30.77s-11.449,5.531-15.048,2.264S1077.232,483.522,1077.232,483.522Z" transform="translate(-1054.609 -462.056)" fill="#3259a1"/>
            <path id="Trazado_12011" data-name="Trazado 12011" d="M935.63,387.789s-8.286-4.235-9.407-6.337-5.81-9.181-5.81-9.181-2.394.3-3.027,1.376c.778,2.917,3.164,11,6.247,13.384s11.2,7.294,11.2,7.294Z" transform="translate(-917.386 -367.742)" fill="#ffa283"/>
            <g id="Grupo_24797" data-name="Grupo 24797" transform="translate(16.325 67.152)">
              <path id="Trazado_12012" data-name="Trazado 12012" d="M1033.014,828.377s-.28,5.747-.28,9.251,5.4,17.24,4.906,19.2,5.086,1.7,5.086,1.7.381-10.666-1.056-15.713,0-15.418,0-15.418Z" transform="translate(-1032.734 -825.607)" fill="#ffa283"/>
              <path id="Trazado_12013" data-name="Trazado 12013" d="M1130.365,814.755s1.811,9.5,3.283,11.671,9.391,16.96,9.391,18.852,4.976.35,4.976.35-4.2-16.189-5.887-21.1a58.494,58.494,0,0,1-2.313-8.971Z" transform="translate(-1116.547 -814.755)" fill="#ffa283"/>
            </g>
            <path id="Trazado_12014" data-name="Trazado 12014" d="M1018.388,695.243c-.515,3.126-2.61,22.11-2.61,22.11s7.146,2.194,11.421,1.213c0,0-.12-15.264.861-15.264h.029a3.1,3.1,0,0,1,2.972,2.346c.818,3.29,3.065,13.211,3.065,13.211s9.032-1.258,10.994-2.169c0,0-3.017-21.475-6.311-24.769l-3.952-3.547-14.4-1.857S1018.753,693.031,1018.388,695.243Z" transform="translate(-1001.853 -637.515)" fill="#13375b"/>
            <path id="Trazado_12015" data-name="Trazado 12015" d="M1006.535,1031.532h15.313s.316-5.536-.735-6.588-.771.133-2.523.8-2.892-.945-3.693-1.745-.232,2.555-3.6,2.555S1005.765,1029.99,1006.535,1031.532Z" transform="translate(-993.785 -927.129)" fill="#466eb6"/>
            <path id="Trazado_12016" data-name="Trazado 12016" d="M1190.071,1024.194a8.948,8.948,0,0,0-4.111,4.415c-.827,2.2-.591,2.985-.591,2.985s2.533,1.127,7.4.771,4.122-.889,4.122-.889-.347-5-1.174-6.525S1191.458,1023.875,1190.071,1024.194Z" transform="translate(-1147.415 -927.129)" fill="#466eb6"/>
            <path id="Trazado_12017" data-name="Trazado 12017" d="M1178.761,590.354c5,8.063,7.891,13.609,5.1,17.114-3.051,3.829-9.506,3.079-12.5,6.333a5.533,5.533,0,0,1-3.375-3.805l2.894-.941c5.755-2.5,8.18-3.977,7.383-6.7s-3.609-6.365-3.609-6.365C1175.956,590.1,1178.761,590.354,1178.761,590.354Z" transform="translate(-1132.522 -554.959)" fill="#ffa283"/>
            <path id="Trazado_12018" data-name="Trazado 12018" d="M1024.108,474.092s-3.828,5.654-6.82,5.757c-1.964-2.957-2.84-4.656-2.859-4.332-.022.366-.018,10.024-.527,15.3-3.949,2.286-22.518.778-22.531-1.639-.01-1.846,4.471-20.342,1.892-22.357-.937-.732-8.908-5.007-8.908-5.007s3.325-6.54,5.371-8.568c0,0,3.994,2.089,7.809,3.623,5.006,2.013,9.22,2.57,12,3.863C1019.352,465.286,1020.089,467.477,1024.108,474.092Z" transform="translate(-974.877 -437.256)" fill="#f47458"/>
            <path id="Trazado_12019" data-name="Trazado 12019" d="M1159.679,506.715c-2.6,7.774.726,24.33,4.406,28.454,1.062-2.568-3.026-12.982-.007-26.191C1164.166,508.308,1159.942,506,1159.679,506.715Z" transform="translate(-1124.592 -483.042)" fill="#466eb6"/>
            <path id="Trazado_12020" data-name="Trazado 12020" d="M1056.291,484.229c-3.761,4.087-9.4,19.273-9.524,20.028.165-13.27,5.232-19.556,6.074-21.1C1053.4,482.786,1056.357,483.829,1056.291,484.229Z" transform="translate(-1028.456 -462.869)" fill="#466eb6"/>
            <path id="Trazado_12021" data-name="Trazado 12021" d="M1109.422,456.88v6.938a4.8,4.8,0,0,0,5.835.841l1.517-8.929Z" transform="translate(-1082.244 -439.39)" fill="#ffa283"/>
            <path id="Trazado_12022" data-name="Trazado 12022" d="M1109.422,460.376c2.1.529,4.693-.363,6.925-2.132l.427-2.514-7.352,1.15Z" transform="translate(-1082.244 -439.39)" fill="#ff7f4c" opacity="0.68" style="mix-blend-mode: multiply;isolation: isolate"/>
            <path id="Trazado_12023" data-name="Trazado 12023" d="M1081.98,372.023s-7.159,8.591-3.9,12.808,10.66,1.352,14.319-3.978S1083.333,368.046,1081.98,372.023Z" transform="translate(-1054.609 -366.568)" fill="#ffa283"/>
            <path id="Trazado_12024" data-name="Trazado 12024" d="M1111.877,348.834s2.625.08,1.591,2.546-2.9,3.3-1.909,4.3c.684.684.294,2.082-.017,2.889a2,2,0,0,0-.055,1.3l.018.057a2.1,2.1,0,0,0,2.192,1.483c2.409-.208,6.438-1.421,6.214-7.242,0,0,2.007-3.739.009-6.6s-3.509-2.625-3.509-2.625-.716-2.7-2.944-3.341-8.75-2.944-9.466.636S1106.467,348.436,1111.877,348.834Z" transform="translate(-1077.504 -340.276)" fill="#011037"/>
            <path id="Trazado_12025" data-name="Trazado 12025" d="M1148.113,429.09c.186-.1,2.832-1.323,3.222.179.362,1.393-.14,3.55-2.039,3.55S1145.726,430.313,1148.113,429.09Z" transform="translate(-1114.446 -416.037)" fill="#ffa283"/>
            <path id="Trazado_12026" data-name="Trazado 12026" d="M1021.849,1062.793s.066-1.15.037-2.5c-1.8.776-11.648.652-15.229.579a2.34,2.34,0,0,0-.122,1.922Z" transform="translate(-993.785 -958.39)" fill="#a4c0f5"/>
            <path id="Trazado_12027" data-name="Trazado 12027" d="M1192.765,1063.172c4.864-.355,4.122-.889,4.122-.889s-.08-1.153-.255-2.52h0c-3.386,3.022-8.673,1.479-10.987.579a4.191,4.191,0,0,0-.277,2.058S1187.9,1063.527,1192.765,1063.172Z" transform="translate(-1147.414 -957.935)" fill="#a4c0f5"/>
          </g>
          <path id="Trazado_12028" data-name="Trazado 12028" d="M898.272,328.675a27.865,27.865,0,0,0,3.741-1.453,6.7,6.7,0,0,1-.864-1.333c-.331-1.051,1.756-5.163,1.414-5.5s-1.616,1.8-1.827,1.6-.51-4.907-1.207-4.893,0,3.992-.437,4-1.2-4.734-1.891-4.245.96,4.158.5,4.352-1.787-3.28-2.278-3.27-.121.78.233,1.7.947,2.175.663,2.181-1.67-2.187-2.157-2.019,3.407,6.515,3.745,7.909A8.568,8.568,0,0,0,898.272,328.675Z" transform="translate(-894.119 -316.812)" fill="#ffa283"/>
        </g>
      </g>
    </g>
  </g>
</svg>
