<?xml version="1.0" encoding="UTF-8" standalone="no"?><!DOCTYPE svg PUBLIC "-//W3C//DTD SVG 1.1//EN" "http://www.w3.org/Graphics/SVG/1.1/DTD/svg11.dtd"><svg width="100%" height="100%" viewBox="0 0 92 100" version="1.1" xmlns="http://www.w3.org/2000/svg" xmlns:xlink="http://www.w3.org/1999/xlink" xml:space="preserve" xmlns:serif="http://www.serif.com/" style="fill-rule:evenodd;clip-rule:evenodd;stroke-linejoin:round;stroke-miterlimit:2;"><g id="Grupo_24812"><g id="Grupo_24811"><circle id="Elipse_1535" cx="46" cy="50.201" r="43" style="fill:#00348d;"/><circle id="Elipse_1441" cx="16.155" cy="33.165" r="5.421" style="fill:#fff;"/><path id="Trazado_10436" d="M18.712,40.222l-5.114,0c-2.973,0 -5.5,2.261 -5.83,5.216l-1.125,11.148c-0.114,0.881 0.397,1.731 1.227,2.045l2.761,1.125c0.356,0.116 0.602,0.444 0.614,0.818l1.432,18.614c0.078,1.017 0.924,1.818 1.943,1.841l3.068,0c1.019,-0.023 1.865,-0.824 1.943,-1.841l1.433,-18.716c0.012,-0.374 0.258,-0.702 0.614,-0.818l2.765,-1.125c0.83,-0.314 1.341,-1.164 1.227,-2.045l-1.127,-11.148c-0.379,-2.915 -2.892,-5.118 -5.831,-5.114Z" style="fill:#fff;fill-rule:nonzero;"/><g id="Grupo_24240"><path id="Trazado_9496" d="M45.236,48.919l-1.6,-11.037l-13.6,-0l-1.858,13.054c-0.015,0.136 -0.023,0.272 -0.023,0.409c-0,1.988 1.635,3.624 3.623,3.626l7.218,-1.478l-1.32,-3.321c-1.231,0.471 -3.139,1.193 -4.261,1.581c-0.709,0.245 -1.277,-0.763 -1.189,-1.507l0.372,-3.092l-1.568,0.6l-0.65,-0.584l2.6,-1.331c0.337,-0.164 0.844,-0.055 0.907,0.314c0.069,0.792 0.071,1.589 0.006,2.381l2.957,-1.146c0.521,-0.202 1.115,0.06 1.317,0.581l0.383,0.988l0.3,0.766l0.312,0.8l-0,2.934l2.467,-0.505c1.721,-0.286 3.851,-1.883 3.607,-4.033Zm-5.609,-5.155c0.304,-0 0.555,0.251 0.555,0.555c-0,0.304 -0.251,0.555 -0.555,0.555c-0.304,-0 -0.555,-0.251 -0.555,-0.555c-0,-0.304 0.251,-0.555 0.555,-0.555Zm-3.126,-0.73l0.565,-0c0.004,1.149 0.951,2.093 2.1,2.093c1.152,-0 2.1,-0.948 2.1,-2.1c-0,-0.477 -0.162,-0.94 -0.46,-1.312l-0,-0.765l0.009,-0.012c0.642,0.505 1.018,1.278 1.018,2.095c-0,1.462 -1.203,2.665 -2.665,2.665c-1.46,0 -2.662,-1.2 -2.665,-2.66l-0.002,-0.004Zm4.72,6.239c-0.21,0.081 -0.432,0.123 -0.657,0.123c-0.997,-0 -1.818,-0.821 -1.818,-1.818c-0,-0.997 0.821,-1.818 1.818,-1.818c0.749,-0 1.424,0.463 1.695,1.161c0.36,0.93 -0.108,1.991 -1.037,2.352l-0.001,-0Z" style="fill:#fff;fill-rule:nonzero;"/><path id="Trazado_9497" d="M39.129,28.084c-0.394,-0.169 -0.811,-0.276 -1.237,-0.318c-0.15,-0.016 -0.301,-0.024 -0.451,-0.024c-2.333,-0 -4.252,1.919 -4.252,4.252c-0,2.333 1.919,4.252 4.252,4.252c1.288,-0 2.51,-0.586 3.316,-1.591c1.172,0.985 2.661,4.2 5.011,-0.14c-3.003,2.407 -2.898,-5.13 -6.639,-6.431Z" style="fill:#fff;fill-rule:nonzero;"/><path id="Trazado_9498" d="M42.747,53.528l-11.04,2.276l-1.193,12.386l2.4,-0l1.537,14.312l2.476,-0l0.045,-14.312l1.052,-0l-0.032,14.312l2.273,-0l1.733,-14.312l2.536,-0.013l-1.787,-14.649Z" style="fill:#fff;fill-rule:nonzero;"/></g><path id="Trazado_9432" d="M56.638,38.672c0.019,0.091 0.038,0.22 0.1,0.255c0.037,0.023 0.079,0.035 0.122,0.035c0.081,-0 0.157,-0.043 0.199,-0.112c0.059,-0.078 0.13,-0.145 0.211,-0.2c0.045,0.014 0.093,0.018 0.14,0.012c0.273,-0.044 0.512,-0.21 0.649,-0.45c0.057,-0.092 0.108,-0.188 0.153,-0.287c0.044,0.099 0.096,0.195 0.153,0.287c0.137,0.24 0.376,0.406 0.649,0.45c0.047,0.006 0.095,0.002 0.14,-0.012c0.081,0.054 0.152,0.122 0.211,0.2c0.042,0.069 0.117,0.112 0.199,0.112c0.043,-0 0.085,-0.012 0.122,-0.035c0.063,-0.035 0.083,-0.164 0.1,-0.255c0.007,-0.074 0.005,-0.149 -0.006,-0.222c0.005,-0.237 -0.006,-0.474 -0.033,-0.709c-0.1,-0.523 -0.581,-0.893 -1.112,-0.856c-0.147,0.04 -0.29,0.091 -0.429,0.153c-0.139,-0.062 -0.282,-0.113 -0.429,-0.153c-0.531,-0.037 -1.012,0.333 -1.112,0.856c-0.027,0.235 -0.038,0.472 -0.033,0.709c-0.005,0.074 -0.003,0.148 0.006,0.222Z" style="fill:#00348d;fill-rule:nonzero;"/><path id="Trazado_9433" d="M85.162,50.486c0.2,-0.272 0.26,-0.622 0.163,-0.945l-0,-0.023c-0.838,-3.305 -6.119,-5.465 -6.785,-5.5c-1.099,-0.534 -2.384,-0.538 -3.486,-0.011c-2.347,0.672 -4.442,2.027 -6.017,3.893c-0.1,-0.06 -0.22,-0.136 -0.375,-0.23c-0.191,0.331 -0.623,1.065 -1.169,1.921c0.311,0.214 0.5,0.342 0.5,0.342c0.138,0.089 0.294,0.146 0.456,0.169c0.63,0.251 2.354,-0.564 3.082,-1.013c0.253,-0.156 0.616,-0.392 1,-0.649c0.066,0.645 0.279,1.266 0.623,1.815c0.07,0.371 0.106,0.747 0.108,1.124c-0.019,0.691 -0.13,1.377 -0.331,2.039c-0.05,0.092 -0.095,0.188 -0.139,0.284l-0.007,-0.006c-0.676,1.763 -1.118,3.608 -1.314,5.486c-0.009,0.116 -0.021,0.24 -0.033,0.37c-0.012,0.13 -0.031,0.285 -0.042,0.432c-0.432,4.359 -1.823,14.62 -1.823,14.62c1.022,0.299 2.06,0.537 3.11,0.712c0.269,2.348 0.725,4.425 1.5,4.425c0.737,-0 1.186,-1.9 1.46,-4.12c0.73,0.031 1.419,0.026 2.063,-0.007c0.275,2.166 0.721,3.994 1.444,3.994c0.763,-0 1.217,-2.032 1.487,-4.348c1.107,-0.196 2.186,-0.527 3.213,-0.986c1.027,-0.459 -1.612,-12.452 -2.065,-16.127c-0.147,-1.085 -0.365,-2.159 -0.652,-3.215c1.286,-0.585 4.029,-4.446 4.029,-4.446Zm-8.891,-5.244c-0.355,-0 -0.647,-0.292 -0.647,-0.647c0,-0.263 0.161,-0.501 0.405,-0.6c-0.02,0.068 -0.031,0.139 -0.032,0.21c-0,0.429 0.351,0.784 0.78,0.788c-0.121,0.157 -0.308,0.249 -0.506,0.249Zm1.026,-0c-0.197,-0.001 -0.384,-0.093 -0.505,-0.249c0.43,-0.003 0.783,-0.358 0.783,-0.788c-0.001,-0.071 -0.012,-0.141 -0.032,-0.209c0.243,0.099 0.402,0.337 0.402,0.599c0,0.355 -0.292,0.647 -0.647,0.647l-0.001,-0Zm3.427,8.365c-0.071,-0.146 -0.15,-0.289 -0.237,-0.426c-0.181,-0.583 -0.273,-1.19 -0.273,-1.8c0.003,-0.317 0.03,-0.634 0.083,-0.947c0.408,-0.588 0.661,-1.271 0.735,-1.983c0.387,0.257 0.75,0.493 1,0.649c0.345,0.207 0.702,0.393 1.069,0.556c-0.896,1.252 -1.691,2.573 -2.377,3.951Z" style="fill:#fff;fill-rule:nonzero;"/><path id="Trazado_9434" d="M76.711,34.471c0.581,0 1.155,0.126 1.683,0.369c0.012,-0.08 0.018,-0.161 0.019,-0.242c-0,-0.933 -0.767,-1.7 -1.7,-1.7c-0.933,0 -1.7,0.767 -1.7,1.7c0,0.081 0.007,0.162 0.019,0.242c0.527,-0.242 1.099,-0.368 1.679,-0.369Z" style="fill:#fff;fill-rule:nonzero;"/><path id="Trazado_9436" d="M57.317,41.466l0.479,-0.165c0.053,-0.032 0.083,-0.092 0.077,-0.153l0,-0.095c0.006,-0.061 -0.024,-0.121 -0.077,-0.153l-0.479,-0.165c-0.193,-0.067 -0.409,0.024 -0.409,0.227l0,0.276c0,0.204 0.216,0.294 0.409,0.228Z" style="fill:#f579a8;fill-rule:nonzero;"/><circle id="Elipse_1335" cx="58.211" cy="41.099" r="0.296" style="fill:#f579a8;"/><path id="Trazado_9438" d="M59.111,41.466c0.193,0.067 0.409,-0.024 0.409,-0.227l-0,-0.276c-0,-0.2 -0.216,-0.294 -0.409,-0.227l-0.48,0.164c-0.053,0.032 -0.083,0.092 -0.077,0.153l-0,0.095c-0.006,0.061 0.024,0.121 0.077,0.153l0.48,0.165Z" style="fill:#f579a8;fill-rule:nonzero;"/><path id="Trazado_9439" d="M51.268,59.285c0.208,0.251 0.323,0.567 0.325,0.894l0.693,-0c-0.001,-0.634 -0.289,-1.234 -0.783,-1.631c-0.062,0.251 -0.14,0.497 -0.235,0.737Z" style="fill:#fff;fill-rule:nonzero;"/><path id="Trazado_9440" d="M48.056,60.1l0,19.363l0.689,-0l0,-19.283c0.001,-0.498 0.264,-0.96 0.691,-1.215c-0.067,-0.207 -0.13,-0.434 -0.19,-0.68c-0.7,0.339 -1.159,1.038 -1.19,1.815Z" style="fill:#fff;fill-rule:nonzero;"/><path id="Trazado_9441" d="M63.049,45.348c0,0.006 -0.012,0.01 -0.016,0.017c-0.267,0.412 0.748,1.4 1.928,2.356c0.189,-0.369 0.386,-0.748 0.6,-1.149c-0.311,-0.117 -0.609,-0.242 -0.847,-0.358c-0.395,-0.193 -1.035,-0.524 -1.665,-0.866Z" style="fill:#fff;fill-rule:nonzero;"/><path id="Trazado_9442" d="M68.521,46.454c0.021,-0.135 0.004,-0.274 -0.049,-0.4c-0.834,-2.3 -3.686,-3.856 -5.767,-4.65c-3.634,-2.309 -8.486,-1.46 -11.12,1.945c-0.242,0.289 -0.454,0.602 -0.631,0.935c-0.035,0.06 -0.073,0.119 -0.107,0.181c-0.894,1.618 -2.122,4.6 -1.726,7.048c-0.05,0.14 -0.076,0.287 -0.078,0.436c-0.002,0.149 0.103,7.851 1.37,7.851c1.267,0 1.323,-7.855 1.323,-7.855c-0.001,-0.263 -0.079,-0.52 -0.225,-0.739c0.191,-0.366 0.361,-0.742 0.509,-1.127c0.353,-0.948 1.934,-5.127 2.036,-5.611l0.154,0l-1.217,5.339c-0.017,0.06 -0.027,0.124 -0.042,0.185c-0.028,0.111 -0.055,0.222 -0.077,0.335c-0,0.009 -0,0.019 -0.007,0.028l-0.02,0.087l0.01,0c-0,0.027 -0.006,0.054 -0.01,0.08c-0.017,0.112 -0.033,0.223 -0.043,0.336c-0,0.041 -0,0.084 -0.006,0.125c-0.007,0.114 -0.017,0.227 -0.017,0.344c-0.001,1.109 0.339,2.191 0.974,3.1c-0.027,0.12 -0.053,0.246 -0.08,0.377c-0.4,1.267 -1.124,5.91 0.06,22.417c-0,0 0.063,0.039 0.174,0.095l-0,0.384c-0.068,0.891 0.603,1.682 1.493,1.762l0.008,0c0.89,-0.08 1.56,-0.871 1.492,-1.762l-0,-0.29c0.115,-0.057 0.226,-0.121 0.333,-0.191c0.288,-7.518 -0.264,-16.164 0.98,-19.267c0.296,0.837 0.487,1.708 0.567,2.592c0.038,0.706 0.08,1.358 0.12,1.813c0.021,0.242 0.05,0.542 0.089,0.872c0.179,3.98 0.022,9.215 0.2,13.99c0.07,0.047 0.141,0.084 0.213,0.123l-0,0.321c-0.068,0.891 0.603,1.682 1.493,1.762l0.008,0c0.89,-0.08 1.561,-0.871 1.493,-1.762l-0,-0.292c0.101,-0.045 0.2,-0.096 0.295,-0.152c1.326,-18.474 0.26,-22.09 -0.064,-22.741c0.234,-0.325 0.432,-0.676 0.589,-1.045c0.015,0.107 0.073,0.203 0.16,0.266c1.1,0.624 5.036,-6.172 5.036,-6.172c0.184,-0.327 0.223,-0.716 0.107,-1.073Zm-4.872,4.877l-0,-0.037c-0.001,-0.167 -0.011,-0.334 -0.029,-0.5c-0,-0.026 -0.006,-0.05 -0.009,-0.076c-0.009,-0.078 -0.017,-0.156 -0.028,-0.233l0.007,0l-0.02,-0.088c-0.006,-0.034 -0.017,-0.067 -0.023,-0.1c-0.015,-0.079 -0.034,-0.156 -0.053,-0.233c-0.027,-0.122 -0.047,-0.245 -0.083,-0.363l-1.164,-5.117c0.823,0.46 1.984,1.077 2.593,1.374c0.366,0.174 0.742,0.327 1.126,0.458c-0.872,1.591 -1.647,3.233 -2.32,4.918l0.003,-0.003Z" style="fill:#fff;fill-rule:nonzero;"/><ellipse id="Elipse_1336" cx="75.098" cy="38.643" rx="1.062" ry="0.92" style="fill:#f579a8;"/><ellipse id="Elipse_1337" cx="78.245" cy="38.643" rx="1.062" ry="0.92" style="fill:#f579a8;"/><g id="Grupo_23663"><ellipse id="Elipse_1338" cx="78.245" cy="38.643" rx="1.062" ry="0.92" style="fill:#fff;"/><ellipse id="Elipse_1339" cx="75.098" cy="38.643" rx="1.062" ry="0.92" style="fill:#fff;"/><path id="Trazado_9443" d="M80.655,38.542c0,-0.002 0,-0.003 0,-0.005c0,-2.163 -1.78,-3.943 -3.943,-3.943c-2.163,0 -3.943,1.78 -3.943,3.943c0,0.617 0.145,1.225 0.422,1.775c-0.027,0.051 -0.041,0.108 -0.042,0.166c0,0.156 0.096,0.296 0.241,0.353c-0.08,0.047 -0.129,0.133 -0.13,0.225c0.001,0.147 0.122,0.268 0.269,0.268c0.105,-0 0.201,-0.062 0.245,-0.158c0.745,0.838 1.815,1.319 2.937,1.319c1.122,-0 2.192,-0.481 2.937,-1.319c0.043,0.098 0.139,0.161 0.246,0.161c0.147,-0 0.268,-0.121 0.268,-0.268c-0,-0.093 -0.049,-0.18 -0.129,-0.229c0.145,-0.057 0.241,-0.197 0.241,-0.353c-0.003,-0.057 -0.018,-0.114 -0.046,-0.164c0.28,-0.548 0.426,-1.155 0.427,-1.771Zm-1.257,-0.559c0.161,0.182 0.252,0.417 0.254,0.66c-0.05,0.657 -0.629,1.158 -1.286,1.115c-0.589,0.029 -1.122,-0.366 -1.266,-0.938c-0.026,-0.214 -0.217,-0.372 -0.432,-0.359c-0.197,-0.009 -0.375,0.125 -0.421,0.317c-0.123,0.593 -0.666,1.011 -1.271,0.979c-0.657,0.043 -1.236,-0.458 -1.286,-1.115c0.003,-0.243 0.093,-0.478 0.254,-0.66c-0.229,0.088 -0.551,-0.263 -0.288,-0.153c0.195,0.043 0.399,0.012 0.572,-0.087l0.011,-0.008l-0.014,0c-0.169,0.048 -0.327,-0.245 -0.173,-0.136c0.119,0.084 0.362,0.028 0.466,0c-0.158,0 -0.219,-0.28 -0.113,-0.154c0.106,0.126 0.462,0.087 0.462,0.087l0,0.006c0.038,0 0.075,-0.01 0.114,-0.01c0.617,-0.034 1.168,0.404 1.274,1.013c0.11,-0.109 0.258,-0.17 0.413,-0.17c0.16,0 0.314,0.066 0.425,0.183c0.099,-0.615 0.654,-1.061 1.276,-1.026c0.039,0 0.076,0.007 0.114,0.01l0,-0.006c0,0 0.355,0.041 0.462,-0.087c0.107,-0.128 0.045,0.156 -0.113,0.154c0.1,0.03 0.347,0.086 0.466,0c0.154,-0.109 0,0.183 -0.174,0.136l-0.014,0l0.011,0.008c0.172,0.099 0.375,0.131 0.569,0.089c0.259,-0.111 -0.062,0.24 -0.292,0.153l0,-0.001Z" style="fill:#fff;fill-rule:nonzero;"/></g><g id="Grupo_23664"><path id="Trazado_9445" d="M62.776,32.705l-1.36,0c0.028,-0.112 0.042,-0.227 0.042,-0.343l-0,-0.55c-0,-0.798 -0.657,-1.455 -1.455,-1.455l-3.585,0c-0.798,0 -1.455,0.657 -1.455,1.455l-0,0.546c0,0.116 0.014,0.231 0.042,0.343l-1.36,0c-0.149,0 -0.27,0.26 -0.27,0.581c-0,0.321 0.12,0.581 0.27,0.581l1.328,0c-0.348,0.584 -0.533,1.252 -0.533,1.932c0,2.07 1.703,3.772 3.772,3.772c2.07,0 3.772,-1.702 3.772,-3.772c0,-0.68 -0.184,-1.348 -0.532,-1.932l1.323,0c0.149,0 0.27,-0.26 0.27,-0.581c-0,-0.321 -0.12,-0.577 -0.269,-0.577Zm-2.986,5.967c-0.019,0.091 -0.038,0.22 -0.1,0.255c-0.037,0.023 -0.079,0.035 -0.122,0.035c-0.082,-0 -0.157,-0.043 -0.199,-0.112c-0.059,-0.078 -0.13,-0.145 -0.211,-0.2c-0.045,0.014 -0.093,0.018 -0.14,0.012c-0.273,-0.044 -0.512,-0.21 -0.649,-0.45c-0.057,-0.092 -0.108,-0.188 -0.153,-0.287c-0.044,0.099 -0.095,0.195 -0.153,0.287c-0.137,0.24 -0.376,0.406 -0.649,0.45c-0.047,0.006 -0.095,0.002 -0.14,-0.012c-0.081,0.054 -0.152,0.122 -0.211,0.2c-0.042,0.069 -0.117,0.112 -0.199,0.112c-0.043,-0 -0.085,-0.012 -0.122,-0.035c-0.063,-0.035 -0.083,-0.164 -0.1,-0.255c-0.007,-0.074 -0.005,-0.149 0.006,-0.222c-0.005,-0.237 0.006,-0.474 0.033,-0.709c0.1,-0.52 0.576,-0.889 1.104,-0.856c0.147,0.04 0.29,0.091 0.429,0.153c0.139,-0.062 0.282,-0.113 0.429,-0.153c0.531,-0.037 1.012,0.333 1.112,0.856c0.027,0.235 0.038,0.472 0.033,0.709c0.008,0.073 0.009,0.147 0.002,0.221l-0,0.001Z" style="fill:#fff;fill-rule:nonzero;"/></g><g id="Grupo_23673"><g id="Grupo_23671"><path id="Trazado_9455" d="M54.604,16.961c1.866,0 3.4,-2.059 3.6,-4.707c0.025,-0.174 0.039,-0.349 0.041,-0.524l-0.583,0.67c0.321,-0.711 -0.823,-2.522 -0.823,-2.522c-1.928,1.394 -4.794,0 -4.794,0c-0.865,0.341 -0.455,2.774 -0.455,2.774c-0.174,-0.124 -0.369,-0.216 -0.576,-0.27c0.239,2.584 1.751,4.579 3.59,4.579Z" style="fill:none;fill-rule:nonzero;"/><path id="Trazado_9456" d="M57.885,16.989c-0.01,0.096 -0.033,0.189 -0.068,0.279c0.035,-0.09 0.058,-0.183 0.068,-0.279Z" style="fill:none;fill-rule:nonzero;"/><path id="Trazado_9457" d="M50.504,12.232c-0,0.04 0.006,0.078 0.009,0.117c0.262,2.96 1.993,5.246 4.09,5.246c2.125,0 3.875,-2.346 4.1,-5.361c0.064,-0.44 0.064,-0.888 -0,-1.328c-0.212,-2.094 -1.996,-3.705 -4.1,-3.705c-2.104,-0 -3.888,1.611 -4.1,3.705c-0.032,0.219 -0.048,0.44 -0.048,0.662c-0,0.092 -0,0.183 0.009,0.273c0.009,0.132 0.021,0.263 0.04,0.391Zm1.542,-2.354c-0,0 2.866,1.394 4.794,0c-0,0 1.144,1.811 0.823,2.522l0.583,-0.67c-0.002,0.175 -0.016,0.35 -0.041,0.524c-0.2,2.647 -1.734,4.707 -3.6,4.707c-1.835,0 -3.351,-1.993 -3.589,-4.578c0.207,0.054 0.402,0.145 0.576,0.27c0.174,0.125 -0.411,-2.434 0.453,-2.775l0.001,0Z" style="fill:#fff;fill-rule:nonzero;"/><path id="Trazado_9458" d="M58.405,16.977c-0.168,-0.031 -0.337,-0.055 -0.509,-0.07c0.001,0.008 0.001,0.015 -0,0.023c-0.001,0.02 -0.004,0.04 -0.008,0.06c-0.01,0.096 -0.033,0.189 -0.068,0.279c0.035,-0.09 0.058,-0.183 0.068,-0.279c-0.036,0.169 -0.094,0.332 -0.173,0.486c-0.756,1.34 -1.621,2.616 -2.585,3.815l-0.153,-2.183c0.211,-0.111 0.389,-0.278 0.512,-0.482c0.103,-0.162 0.16,-0.35 0.164,-0.542c-0.726,0.334 -1.563,0.334 -2.289,0c0.004,0.176 0.053,0.348 0.142,0.5c0.124,0.221 0.309,0.402 0.534,0.52l-0.157,2.241c-0.927,-1.254 -1.745,-2.586 -2.444,-3.98c-0.05,-0.118 -0.087,-0.242 -0.111,-0.368c-0.004,-0.022 -0.007,-0.045 -0.008,-0.067l-0,-0.023c-0.081,0.008 -0.162,0.017 -0.243,0.028l-0.014,0c-2.664,0.376 -4.666,2.68 -4.666,5.37c-0,2.994 2.427,2.987 5.421,2.987l5.583,0c2.994,0 5.422,0.007 5.422,-2.987c-0.001,-2.597 -1.867,-4.846 -4.418,-5.328Z" style="fill:#fff;fill-rule:nonzero;"/></g><g id="Grupo_23672"><path id="Trazado_9459" d="M54.851,10.004c-0.026,0.027 -0.062,0.042 -0.1,0.042c-0.038,0 -0.074,-0.015 -0.1,-0.042l-3.333,-1.959l-0.111,1.418l2.889,1.292c0.378,0.31 0.927,0.31 1.305,0l2.7,-1.183l-0.136,-1.391l-3.114,1.823Z" style="fill:#fff;fill-rule:nonzero;"/><path id="Trazado_9460" d="M60.36,6.663l-5.472,-2.277c-0.031,-0.031 -0.073,-0.049 -0.117,-0.049c-0.043,0 -0.085,0.018 -0.116,0.049l-5.472,2.277c-0.064,0.064 -0.064,0.169 -0,0.233l0.408,0.236l-0.026,0.361c-0.137,0.03 -0.236,0.153 -0.236,0.293c0,0.125 0.078,0.237 0.195,0.281l-0.239,3.343l0.33,0.989l0.33,-0.989l-0.239,-3.343c0.117,-0.044 0.195,-0.156 0.195,-0.281c-0,-0.14 -0.099,-0.263 -0.236,-0.293l-0.024,-0.332l0.571,0.331l0.023,0.013l4.421,2.558c0.031,0.031 0.073,0.049 0.116,0.049c0.044,-0 0.086,-0.018 0.117,-0.049l4.2,-2.429l0.246,-0.142l1.029,-0.6c0.06,-0.065 0.058,-0.167 -0.004,-0.229Z" style="fill:#fff;fill-rule:nonzero;"/></g></g></g><rect id="Rectángulo_5782" x="0" y="0" width="92" height="100" style="fill:none;"/></g></svg>