<svg xmlns="http://www.w3.org/2000/svg" width="374.605" height="267.923" viewBox="0 0 374.605 267.923">
  <g id="Grupo_24855" data-name="Grupo 24855" transform="translate(-230.975 -5950.279)">
    <g id="Grupo_23521" data-name="Grupo 23521" transform="translate(230.975 5961.487)">
      <path id="Trazado_9170" data-name="Trazado 9170" d="M173.011,287c55.2,13.851,145.444,15.4,206.351-13.76,56.262-26.929,67.842-125.937,29.23-182.1-27.44-39.909-80.013-55.83-130.424-50.174-59.483,6.673-75.264,47.805-114.734,77.358-24.56,18.387-74.722,13.863-84.2,67.513C68.45,246.985,134.9,277.433,173.011,287Z" transform="translate(-78.07 -39.862)" fill="#ffe5ef"/>
    </g>
    <g id="Grupo_24484" data-name="Grupo 24484" transform="translate(428.5 5965.785)">
      <g id="Grupo_24442" data-name="Grupo 24442" transform="translate(0 0)">
        <path id="Trazado_10878" data-name="Trazado 10878" d="M62.563,155.289l8.059,2.251c6.214-18.972,19.14-57.33,28.506-86.2L83.889,67.3C77.024,94.842,67.57,135.22,62.563,155.289Z" transform="translate(-39.234 64.255)" fill="#fff"/>
        <g id="Grupo_24427" data-name="Grupo 24427" transform="translate(3.709 215.422)">
          <path id="Trazado_10879" data-name="Trazado 10879" d="M68.878,103.528c.2-.706.616-1.595.936-2.411.238-.606,6.139-.406,6.131,1.059a9.1,9.1,0,0,1-.058,1c1.009.028,2.106.035,3.262.013a54.786,54.786,0,0,0,6.359-.443c.065,2.318-.2,6.324-.153,8.9,0,0-26.418,4.516-30.5.588C53.7,111.129,60.4,106.418,68.878,103.528Z" transform="translate(-54.726 -100.797)" fill="#7aa1c1"/>
          <path id="Trazado_10880" data-name="Trazado 10880" d="M85.359,104.486c-.008.573-.013,1.124,0,1.615,0,0-26.418,4.516-30.5.588-.163-.155-.168-.386-.035-.668C62.061,107.738,78.795,105.485,85.359,104.486Z" transform="translate(-54.726 -95.25)" fill="#4b7e9b"/>
          <path id="Trazado_10881" data-name="Trazado 10881" d="M65.951,104.187a.368.368,0,0,0,.305.153.372.372,0,0,0,.29-.591,4.446,4.446,0,0,0-4.3-1.825.373.373,0,0,0,.145.731A3.673,3.673,0,0,1,65.951,104.187Zm-1.878.876a.371.371,0,0,0,.546-.5,5.147,5.147,0,0,0-4.344-1.74.369.369,0,0,0-.33.406.363.363,0,0,0,.4.335A4.341,4.341,0,0,1,64.073,105.063Zm-6.262-.821a.362.362,0,0,0,.421.31,4.816,4.816,0,0,1,3.888,1.5.365.365,0,0,0,.521,0,.374.374,0,0,0,.005-.526,5.623,5.623,0,0,0-4.527-1.712A.371.371,0,0,0,57.811,104.242Z" transform="translate(-50.094 -99.207)" fill="#d3dae5"/>
        </g>
        <path id="Trazado_10882" data-name="Trazado 10882" d="M88.454,157.387l-8.342-.7c.786-19.949,2.033-60.407,3.312-90.728L99.117,67.48C95.957,95.691,90.75,136.832,88.454,157.387Z" transform="translate(-12.848 62.249)" fill="#fff"/>
        <g id="Grupo_24429" data-name="Grupo 24429" transform="translate(22.139 121.353)">
          <path id="Trazado_10883" data-name="Trazado 10883" d="M109.584,66.284c4.634.108,13.89-3.365,19.285-3.039C131.5,94.117,121.135,131.894,118,156.87c-4-.393-8.98.478-12.951.078.631-19.433,3.67-50.19,3.518-69.688-.013-1.838-4.171-3.325-6.069.083-9.962,17.906-19.052,49.812-26.643,69.951-4.424-1.094-9.363-.836-13.762-2C68.41,126.5,77.851,95.586,84.608,65.433,93.491,65.834,100,66.061,109.584,66.284Z" transform="translate(-62.088 -63.223)" fill="#6c93ad"/>
          <g id="Grupo_24428" data-name="Grupo 24428" transform="translate(19.315 0.354)">
            <path id="Trazado_10884" data-name="Trazado 10884" d="M85.108,71.912a8.293,8.293,0,0,0,8.014,8.547,7.526,7.526,0,0,0,1.394-.15,136.739,136.739,0,0,0-.233-16.819,7.428,7.428,0,0,0-1.162-.125A8.293,8.293,0,0,0,85.108,71.912Z" transform="translate(-46.79 -63.365)" fill="#41697f"/>
            <path id="Trazado_10885" data-name="Trazado 10885" d="M69.8,77.681A7.453,7.453,0,0,0,71.871,78a8.293,8.293,0,0,0,8.014-8.547,8.842,8.842,0,0,0-1.635-5.122c-1.682-.07-3.4-.143-5.243-.228C72,68.617,70.912,73.147,69.8,77.681Z" transform="translate(-69.803 -62.251)" fill="#41697f"/>
          </g>
        </g>
        <path id="Trazado_10886" data-name="Trazado 10886" d="M70.476,77.437c1.274-5.3,2.529-10.7,3.748-16.246,8.713.4,15.092.626,24.493.849,4.544.11,11.487-3.322,16.779-3,.611,7.336,1.662,16.226,1.184,23.586-4.875,2.549-11.935,3.951-22.582,4A33.249,33.249,0,0,1,70.476,77.437Z" transform="translate(-27.336 51.811)" opacity="0.19"/>
        <g id="Grupo_24430" data-name="Grupo 24430" transform="translate(78.429 67.144)">
          <path id="Trazado_10887" data-name="Trazado 10887" d="M118.668,108.928c2.09-.924,3.245-2.892,5.182-4.053C108.9,85.437,102.237,63.21,90.643,41.791c-4.93-.941-6.887,11.509-4.857,14.771C96.892,74.4,101.995,91.132,118.668,108.928Z" transform="translate(-83.937 -41.316)" fill="#ffd5c7"/>
          <path id="Trazado_10888" data-name="Trazado 10888" d="M113.524,104.111c3.445-1.4,6.021-4.136,8.42-6.9C110.117,80.354,104.5,61.362,94.91,43.068A26.491,26.491,0,0,0,89.5,41.6c-4.587-.666-6,12.095-4.126,15.187C94.755,72.28,100.846,89.725,113.524,104.111Z" transform="translate(-84.572 -41.571)" fill="#20bcb0"/>
        </g>
        <path id="Trazado_10889" data-name="Trazado 10889" d="M69.472,97.173c4.171,3.956,11.549,12.263,26.345,12.188,14.916-.078,24.808-6.049,27.88-8.545,0,0-7.463-47.21-9.716-58.276-8.8-2.186-26.633-.874-31.911-1.192C78.828,50.824,69.472,97.173,69.472,97.173Z" transform="translate(-28.846 25.08)" fill="#74d1c8"/>
        <g id="Grupo_24431" data-name="Grupo 24431" transform="translate(41.094 100.006)">
          <path id="Trazado_10890" data-name="Trazado 10890" d="M118.85,60.683c-.065-.406-.13-.814-.2-1.229-13.334,3.395-33.486,4.108-47.533-3.044q-.135.635-.265,1.257C78.807,61.624,88.578,63.2,98.032,63.2A86.815,86.815,0,0,0,118.85,60.683Z" transform="translate(-67.864 -52.123)" fill="#39aa9f"/>
          <path id="Trazado_10891" data-name="Trazado 10891" d="M117.5,58.3c-.068-.413-.135-.824-.2-1.242-10.783,2.934-29.653,3.317-45.816-2.363-.09.411-.178.824-.263,1.232a87.145,87.145,0,0,0,28.06,4.476A72.7,72.7,0,0,0,117.5,58.3Z" transform="translate(-67.315 -54.697)" fill="#39aa9f"/>
          <path id="Trazado_10892" data-name="Trazado 10892" d="M70.323,60.221c-.09.433-.185.881-.268,1.289a58.319,58.319,0,0,0,27.752,7.3,55.42,55.42,0,0,0,23.6-5.388c-.07-.438-.14-.879-.215-1.342C98.844,72.654,79.641,65.4,70.323,60.221Z" transform="translate(-69.064 -46.391)" fill="#39aa9f"/>
          <path id="Trazado_10893" data-name="Trazado 10893" d="M122.75,65.214c-.065-.408-.14-.884-.213-1.339-23.792,12.9-42.559,5.132-52.606-1.743-.1.476-.193.949-.273,1.337a49.347,49.347,0,0,0,27.472,8.662C104.754,72.131,113.374,70.224,122.75,65.214Z" transform="translate(-69.659 -43.518)" fill="#39aa9f"/>
          <path id="Trazado_10894" data-name="Trazado 10894" d="M70.734,58.228c-.088.423-.178.849-.263,1.259,8.259,3.518,17.54,6.5,28.6,6.5a69.463,69.463,0,0,0,21.08-3.525c-.065-.393-.128-.789-.193-1.194C99.07,67.985,83.635,63.748,70.734,58.228Z" transform="translate(-68.438 -49.388)" fill="#39aa9f"/>
        </g>
        <path id="Trazado_10895" data-name="Trazado 10895" d="M94.484,44.194A4.035,4.035,0,0,0,93.1,41.307c-4.89-.22-10.15-.145-14.573-.065a4.069,4.069,0,0,0-1.442,2.952c0,2.964,3.9,5.368,8.7,5.368S94.484,47.158,94.484,44.194Z" transform="translate(-17.401 24.958)" fill="#25897f"/>
        <path id="Trazado_10896" data-name="Trazado 10896" d="M90.306,38.338v9.188c0,1.975-2.7,3.58-6.039,3.58s-6.039-1.6-6.039-3.58V38.338Z" transform="translate(-15.679 20.712)" fill="#e4a78e"/>
        <g id="Grupo_24432" data-name="Grupo 24432" transform="translate(64.936 215.422)">
          <path id="Trazado_10897" data-name="Trazado 10897" d="M95.824,103.528c-.2-.706-.616-1.595-.936-2.411-.238-.606-6.139-.406-6.131,1.059a9.109,9.109,0,0,0,.058,1c-1.009.028-2.106.035-3.262.013a54.787,54.787,0,0,1-6.359-.443c-.065,2.318.2,6.324.153,8.9,0,0,26.418,4.516,30.5.588C111,111.129,104.306,106.418,95.824,103.528Z" transform="translate(-79.182 -100.797)" fill="#7aa1c1"/>
          <path id="Trazado_10898" data-name="Trazado 10898" d="M79.246,104.486c.007.573.013,1.124,0,1.615,0,0,26.418,4.516,30.5.588.16-.155.165-.386.033-.668C102.547,107.738,85.81,105.485,79.246,104.486Z" transform="translate(-79.086 -95.25)" fill="#4b7e9b"/>
          <path id="Trazado_10899" data-name="Trazado 10899" d="M89.111,102.654a.373.373,0,0,0,.148-.731,4.447,4.447,0,0,0-4.306,1.825.372.372,0,0,0,.29.591.365.365,0,0,0,.305-.153A3.673,3.673,0,0,1,89.111,102.654Zm2.04.906a.363.363,0,0,0,.4-.335.369.369,0,0,0-.33-.406,5.147,5.147,0,0,0-4.344,1.74.377.377,0,0,0,.025.526.367.367,0,0,0,.521-.023A4.34,4.34,0,0,1,91.151,103.561Zm2.228.258a5.615,5.615,0,0,0-4.524,1.712.372.372,0,0,0,0,.526.365.365,0,0,0,.521,0,4.816,4.816,0,0,1,3.888-1.5.362.362,0,0,0,.421-.31A.371.371,0,0,0,93.38,103.819Z" transform="translate(-70.612 -99.207)" fill="#d3dae5"/>
        </g>
        <path id="Trazado_10900" data-name="Trazado 10900" d="M60.7,63.99a5.268,5.268,0,1,0,5.26-5.561A5.418,5.418,0,0,0,60.7,63.99Z" transform="translate(-42.033 50.922)" fill="#20bcb0"/>
        <g id="Grupo_24435" data-name="Grupo 24435" transform="translate(36.987)">
          <path id="Trazado_10901" data-name="Trazado 10901" d="M99.9,36.648c-.578,4.872-4.464,8.43-7.7,8.42s-4.306-3.79-4.281-8.41,2.674-8.367,5.911-8.344C98.26,28.343,100.446,32.068,99.9,36.648Z" transform="translate(-38.095 5.638)" fill="#fcc8b4"/>
          <path id="Trazado_10902" data-name="Trazado 10902" d="M94.828,35.384c-.914,1.905-2.972,3-4.592,2.449s-2.2-2.549-1.282-4.454,2.972-3,4.594-2.446S95.744,33.479,94.828,35.384Z" transform="translate(-37.196 9.36)" fill="#e4a78e"/>
          <path id="Trazado_10903" data-name="Trazado 10903" d="M126.554,40c.05,19.8-12.127,28.739-29.212,28.779s-27.63-9.2-28.681-29.067c-1.046-19.773,11.466-24,28.551-24.042S126.5,20.2,126.554,40Z" transform="translate(-67.145 -13.367)" fill="#7c473e"/>
          <path id="Trazado_10904" data-name="Trazado 10904" d="M117.471,24.485c2.937,2.343,3.68,8.755,3.525,12.566-.478,11.83-1.129,20.364-1.933,27.69-.821,3.49-5.207,6.695-10.755,9.228a21,21,0,0,1-7.185,1.612c-8.344-.448-20.933-4.469-22.485-7.7-6.309-11.464-8.445-34.978-7.789-38.515,1.1-5.951,8.928-10.32,22.58-11.642C106.268,16.486,112.572,20.575,117.471,24.485Z" transform="translate(-63.933 -10.618)" fill="#ffd5c7"/>
          <path id="Trazado_10905" data-name="Trazado 10905" d="M80.7,39.037c1.064,6,1.467,10.956-2.716,14.336-4.882,3.943-9.514-9.621-9.536-19.158S75.156,17.6,87.3,18.4C93.558,18.813,77.843,22.947,80.7,39.037Z" transform="translate(-67.379 -9.36)" fill="#7c473e"/>
          <path id="Trazado_10906" data-name="Trazado 10906" d="M68.7,40.626c1.905,5.693,7.523,8.84,11.471,7.884s4.321-5.811,3.152-11.359S78,27.865,74.051,28.836C68.656,30.161,66.906,35.278,68.7,40.626Z" transform="translate(-68.019 6.194)" fill="#ffd5c7"/>
          <path id="Trazado_10907" data-name="Trazado 10907" d="M71.131,37.649c1.132,2.566,3.973,3.49,5.135,2.724,1.3-.859,1.224-2.4.576-4.945-.759-2.969-2.126-4.562-4.058-3.8C70.775,32.429,69.8,34.627,71.131,37.649Z" transform="translate(-64.26 10.343)" fill="#e4a78e"/>
          <g id="Grupo_24433" data-name="Grupo 24433" transform="translate(21.242 35.667)">
            <path id="Trazado_10908" data-name="Trazado 10908" d="M86.761,32.883c1.044,2.6.814,4.514-1.56,5.465s-6.552.954-8.289-3.382a4.314,4.314,0,0,1,3.37-5.688A5.859,5.859,0,0,1,86.761,32.883Z" transform="translate(-76.311 -28.705)" fill="#f9feff"/>
            <path id="Trazado_10909" data-name="Trazado 10909" d="M77.011,35.454a4.365,4.365,0,0,1,2.907-6.332,5.888,5.888,0,0,1,7.035,4.053,5.884,5.884,0,0,0-6.464-3.518,4.353,4.353,0,0,0-3.039,2.171,3.861,3.861,0,0,0-.263,3.395,6.742,6.742,0,0,0,2.584,3.212A5.92,5.92,0,0,1,77.011,35.454Z" transform="translate(-76.503 -28.998)" fill="#602220"/>
            <path id="Trazado_10910" data-name="Trazado 10910" d="M77.626,31.872A3.151,3.151,0,1,0,81.714,30.1,3.154,3.154,0,0,0,77.626,31.872Z" transform="translate(-75.147 -27.676)" fill="#461d14"/>
            <path id="Trazado_10911" data-name="Trazado 10911" d="M77.632,30.8a.874.874,0,1,0,1.134-.491A.873.873,0,0,0,77.632,30.8Z" transform="translate(-74.898 -27.112)" fill="#fefffe"/>
          </g>
          <g id="Grupo_24434" data-name="Grupo 24434" transform="translate(44.034 35.23)">
            <path id="Trazado_10912" data-name="Trazado 10912" d="M86.256,32.979c-1.031,2.609-.936,4.461,1.036,5.243s5.54.518,7.258-3.828c1-2.524-.441-5.1-2.571-5.343A5.722,5.722,0,0,0,86.256,32.979Z" transform="translate(-85.607 -28.527)" fill="#f9feff"/>
            <path id="Trazado_10913" data-name="Trazado 10913" d="M94.228,34.876c1.5-3.315-.318-5.738-2.141-6a5.8,5.8,0,0,0-6.221,4.4,5.715,5.715,0,0,1,5.706-3.841,3.17,3.17,0,0,1,2.479,1.928,4.191,4.191,0,0,1,.04,3.3,7.739,7.739,0,0,1-2.376,3.3A6.658,6.658,0,0,0,94.228,34.876Z" transform="translate(-85.217 -28.824)" fill="#602220"/>
            <path id="Trazado_10914" data-name="Trazado 10914" d="M86.216,32.591a2.824,2.824,0,1,0,5.578.6,2.824,2.824,0,1,0-5.578-.6Z" transform="translate(-84.721 -27.443)" fill="#461d14"/>
            <path id="Trazado_10915" data-name="Trazado 10915" d="M86.342,30.885a.784.784,0,1,0,.869-.786A.832.832,0,0,0,86.342,30.885Z" transform="translate(-84.511 -26.911)" fill="#fefffe"/>
          </g>
          <path id="Trazado_10916" data-name="Trazado 10916" d="M94.708,27.9a.78.78,0,0,0,.518-1.362c-2.083-1.85-5.808-2.368-8.873-1.219a.781.781,0,0,0,.548,1.462c2.509-.944,5.643-.546,7.288.921A.777.777,0,0,0,94.708,27.9Z" transform="translate(-41.21 0.215)" fill="#7c473e"/>
          <path id="Trazado_10917" data-name="Trazado 10917" d="M77.049,27.943a.781.781,0,0,0,.521-.2c1.642-1.477,4.777-1.89,7.283-.959a.779.779,0,0,0,.541-1.462c-3.064-1.134-6.795-.6-8.865,1.262a.779.779,0,0,0,.521,1.359Z" transform="translate(-55.614 0.248)" fill="#7c473e"/>
          <path id="Trazado_10918" data-name="Trazado 10918" d="M86.817,34.562a.244.244,0,0,1-.24-.2,1.732,1.732,0,0,0-3.392,0,.241.241,0,1,1-.478-.068,2.214,2.214,0,0,1,4.349-.015.238.238,0,0,1-.2.278Z" transform="translate(-45.939 11.922)" fill="#c68c75"/>
          <path id="Trazado_10919" data-name="Trazado 10919" d="M126.152,22.643C115,28.4,114.029,19.889,103.927,20.323c1.86-.583,3.327-3.62,3.72-5.571-3.212,1.575-9.318,2.534-13.527,2.043-8.487-.989-13.988-.371-18.041,3.866-2.942,3.074-3.192,6.822-2.153,9.188,2.406,5.47,17.61,8.78,25.239,8.858C117.144,38.889,125.13,30.257,126.152,22.643Z" transform="translate(-59.973 -14.752)" fill="#7c473e"/>
          <path id="Trazado_10920" data-name="Trazado 10920" d="M88.232,37.307a4.444,4.444,0,0,0,1.094-.488.554.554,0,0,0,.17-.769.564.564,0,0,0-.779-.17c-1.51.956-4.569.716-6.422-.5a.568.568,0,0,0-.781.155.558.558,0,0,0,.16.774A8.435,8.435,0,0,0,88.232,37.307Z" transform="translate(-47.863 16.13)" fill="#a56959"/>
        </g>
        <g id="Grupo_24441" data-name="Grupo 24441" transform="translate(0 38.442)">
          <path id="Trazado_10921" data-name="Trazado 10921" d="M61.257,34.8c-6.537,13.887-4.093,27.329-8.012,32.449,23.556,16.924,44.8,5.085,50.668,1.132A51.533,51.533,0,0,0,105.6,37.435C89.732,40.092,69.273,31.812,61.257,34.8Z" transform="translate(-53.245 -24.045)" fill="#874944"/>
          <path id="Trazado_10922" data-name="Trazado 10922" d="M83.929,72.111c-1.287.686-3.841.741-5.135,1.2-4.386-7.223-7.884-14.363-9.774-22.62,2.731-.345,1.537-.9,4.256-1.362C76.361,57.848,81.022,65.053,83.929,72.111Z" transform="translate(-29.526 -1.198)" fill="#ffd5c7"/>
          <path id="Trazado_10923" data-name="Trazado 10923" d="M81.125,54.866c-1.707-.566-5.49-4.131-8.214-5.533-1.034,2.246-2.674,5.841-3.648,8.217C71.972,58.651,77.422,61.548,81.125,54.866Z" transform="translate(-29.16 -1.198)" fill="#e05858"/>
          <path id="Trazado_10924" data-name="Trazado 10924" d="M80.883,63.822c.24,4.4.453,8.442.621,11.133l-4.138.518c-.523-2.684-1.359-6.642-2.258-10.888A2.822,2.822,0,0,1,77.536,61.2l.205-.025A2.818,2.818,0,0,1,80.883,63.822Z" transform="translate(-20.464 16.58)" fill="#ffd5c7"/>
          <path id="Trazado_10925" data-name="Trazado 10925" d="M94.277,78.623c-1.707.18-4.489.293-6.2.5-.8-7.258-2.531-10.342-5.808-11.777-3-1.312-6.827.839-13.324-1.73-5.015-1.985-.013-10.342,1.154-10.192C87.159,57.61,93.413,61.944,94.277,78.623Z" transform="translate(-32.929 7.951)" fill="#426793"/>
          <g id="Grupo_24436" data-name="Grupo 24436" transform="translate(55.442 87.552)">
            <path id="Trazado_10926" data-name="Trazado 10926" d="M82.856,65.235c-.135-.3-2.373-.208-2.416.523a3.882,3.882,0,0,0,0,.511c-.541-.028-1.1-.063-1.645-.108a28.351,28.351,0,0,1-3.192-.431c-.108,1.154-.1,3.165-.21,4.449,0,0,12.591,3.715,14.859,1.214C91.215,70.325,83.912,67.538,82.856,65.235Z" transform="translate(-75.39 -65.077)" fill="#c9614c"/>
            <path id="Trazado_10927" data-name="Trazado 10927" d="M80.573,66.1a.193.193,0,0,0,.205-.17.182.182,0,0,0-.168-.2,3.36,3.36,0,0,0-2.243.779.186.186,0,0,0-.008.263.177.177,0,0,0,.12.058.183.183,0,0,0,.143-.05A2.961,2.961,0,0,1,80.573,66.1Zm1.112.431a.186.186,0,0,0-.17-.2,4.233,4.233,0,0,0-2.393.866.181.181,0,0,0-.023.26.177.177,0,0,0,.128.065.183.183,0,0,0,.135-.043,3.914,3.914,0,0,1,2.123-.779A.187.187,0,0,0,81.684,66.53Zm.744.456a4.341,4.341,0,0,0-2.5.919.187.187,0,0,0-.035.263.176.176,0,0,0,.133.07.172.172,0,0,0,.128-.038,4.229,4.229,0,0,1,2.178-.854.191.191,0,0,0,.228-.135A.185.185,0,0,0,82.428,66.986Z" transform="translate(-71.001 -64.106)" fill="#d3dae5"/>
            <path id="Trazado_10928" data-name="Trazado 10928" d="M75.45,66.716c-.018.358-.035.7-.06,1,0,0,12.591,3.715,14.859,1.214.175-.2.1-.443-.15-.729C87.295,69.685,79.14,67.725,75.45,66.716Z" transform="translate(-75.39 -62.612)" fill="#a33f2e"/>
          </g>
          <path id="Trazado_10929" data-name="Trazado 10929" d="M75.25,66.928c-.04-.458-.275-2.261-.3-2.621l7.473-.766s.315,2.273.348,2.651A35.391,35.391,0,0,1,75.25,66.928Z" transform="translate(-20.606 20.166)" fill="#4f79a3"/>
          <path id="Trazado_10930" data-name="Trazado 10930" d="M75.665,65.512c-2.005-3.325-5.611-2.3-7.458-5.7,1.712-.661-3.382-3.6-1.8-4.1,5.736-.08,12.528-.153,18.076,2.4A7.8,7.8,0,0,0,82.63,63c-.093,2.231.8,2.924,1.362,4.294C80.432,65.139,78.444,68.071,75.665,65.512Z" transform="translate(-33.922 8.358)" opacity="0.18"/>
          <path id="Trazado_10931" data-name="Trazado 10931" d="M61.78,67.009c25.389,10.608,22.935,2.721,25.719,1.4-1.675-4.011-2.9-13.046-3.337-18.544-2.969-.729-10.983-1.442-15.49-.273C66.079,61.065,63.007,65.226,61.78,67.009Z" transform="translate(-40.412 -1.734)" fill="#e05858"/>
          <path id="Trazado_10932" data-name="Trazado 10932" d="M73.574,48.031l-.113,5.38c-.025,1.157-1.627,2.06-3.58,2.018s-3.515-1.011-3.49-2.168l.113-5.38Z" transform="translate(-33.479 -3.381)" fill="#e4a78e"/>
          <path id="Trazado_10933" data-name="Trazado 10933" d="M76.267,64.583c-.208,4.406-.406,8.445-.508,11.139l-4.171.1c-.248-2.724-.681-6.747-1.144-11.061A2.82,2.82,0,0,1,73.2,61.636l.208-.005A2.822,2.822,0,0,1,76.267,64.583Z" transform="translate(-27.41 17.293)" fill="#ffd5c7"/>
          <path id="Trazado_10934" data-name="Trazado 10934" d="M88.287,79.314c-1.717.005-4.5-.163-6.211-.135-.06-7.3-1.475-10.543-4.589-12.3-2.849-1.61-8.44.325-13.3-2.283-3.377-1.815-.353-8.2.646-8.615C82.053,59.2,89.116,62.632,88.287,79.314Z" transform="translate(-39.131 8.797)" fill="#426793"/>
          <g id="Grupo_24437" data-name="Grupo 24437" transform="translate(42.666 89.148)">
            <path id="Trazado_10935" data-name="Trazado 10935" d="M78.213,65.964c-.105-.308-2.338-.446-2.456.278a4.043,4.043,0,0,0-.053.506c-.536-.08-1.094-.173-1.627-.273a28.855,28.855,0,0,1-3.132-.749c-.223,1.137-.421,3.137-.658,4.4,0,0,12.152,4.97,14.659,2.709C86.017,71.872,79.035,68.362,78.213,65.964Z" transform="translate(-70.287 -65.714)" fill="#c9614c"/>
            <path id="Trazado_10936" data-name="Trazado 10936" d="M75.6,66.868a.187.187,0,1,0,.075-.365,3.384,3.384,0,0,0-2.311.548.19.19,0,0,0-.033.263.193.193,0,0,0,.113.07.188.188,0,0,0,.148-.038A2.979,2.979,0,0,1,75.6,66.868Zm1.062.543a.184.184,0,0,0-.148-.218,4.239,4.239,0,0,0-2.471.618.187.187,0,0,0,.073.338.2.2,0,0,0,.14-.03,3.916,3.916,0,0,1,2.191-.561A.183.183,0,0,0,76.663,67.412Zm.7.526a4.372,4.372,0,0,0-2.579.663.187.187,0,0,0-.06.258.184.184,0,0,0,.255.06,4.223,4.223,0,0,1,2.253-.631.191.191,0,0,0,.24-.11A.188.188,0,0,0,77.359,67.937Z" transform="translate(-65.765 -64.581)" fill="#d3dae5"/>
            <path id="Trazado_10937" data-name="Trazado 10937" d="M70.447,67.083c-.053.355-.105.694-.16.989,0,0,12.152,4.97,14.659,2.709.2-.178.145-.431-.073-.739C81.934,71.234,74.017,68.46,70.447,67.083Z" transform="translate(-70.287 -63.656)" fill="#a33f2e"/>
          </g>
          <path id="Trazado_10938" data-name="Trazado 10938" d="M70.215,66.822c.008-.461-.045-2.278-.033-2.641H77.7s.083,2.288.078,2.669A35.544,35.544,0,0,1,70.215,66.822Z" transform="translate(-27.781 21.128)" fill="#4f79a3"/>
          <g id="Grupo_24440" data-name="Grupo 24440" transform="translate(5.086)">
            <path id="Trazado_10939" data-name="Trazado 10939" d="M80.589,46.182c0,4.8-2.266,8.475-4.384,8.627s-3.1-3.5-3.445-8.019,1.1-8.327,3.22-8.467C78.877,38.133,80.592,41.671,80.589,46.182Z" transform="translate(-29.061 -17.763)" fill="#fcc8b4"/>
            <path id="Trazado_10940" data-name="Trazado 10940" d="M77.339,45.144c-.451,1.91-1.71,3.087-2.814,2.626s-1.63-2.386-1.179-4.3,1.71-3.089,2.814-2.626S77.79,43.231,77.339,45.144Z" transform="translate(-28.35 -14.108)" fill="#e4a78e"/>
            <path id="Trazado_10941" data-name="Trazado 10941" d="M100.534,47.726C101.723,62.542,93,69.95,80.04,70.992s-23-4.862-24.195-19.678,9.386-20,22.347-21.043S99.345,32.907,100.534,47.726Z" transform="translate(-54.559 -30.107)" fill="#874944"/>
            <path id="Trazado_10942" data-name="Trazado 10942" d="M95.382,37.029c.518.426.8,1.069.781,2.571-.165,11.391,2.4,12.39,2.964,19.383.551,6.88-3.445,11.459-8.96,13.149-5.385,1.647-19.7,3.5-28.351-9.872-3.668-5.676-4.527-18.068-3.793-20.542,2.484-8.352,6.86-7.881,17.405-8.728C85.293,32.2,89.489,32.21,95.382,37.029Z" transform="translate(-51.508 -26.355)" fill="#ffd5c7"/>
            <path id="Trazado_10943" data-name="Trazado 10943" d="M56.151,50.336c2.038,4.564,7.17,6.782,10.573,5.728s3.412-5.085,2.025-9.584-5.27-7.3-8.667-6.231C55.435,41.706,54.234,46.045,56.151,50.336Z" transform="translate(-55.277 -15.197)" fill="#ffd5c7"/>
            <path id="Trazado_10944" data-name="Trazado 10944" d="M58.358,47.521c1.119,2,3.578,2.561,4.511,1.868,1.049-.781.881-2.028.175-4.041-.829-2.351-2.083-3.55-3.668-2.8C57.73,43.32,57.041,45.165,58.358,47.521Z" transform="translate(-51.682 -11.738)" fill="#e4a78e"/>
            <path id="Trazado_10945" data-name="Trazado 10945" d="M71.061,48.1a4.675,4.675,0,1,1-5.035-4.286A4.674,4.674,0,0,1,71.061,48.1Z" transform="translate(-45.581 -9.516)" fill="#ffc6c5"/>
            <path id="Trazado_10946" data-name="Trazado 10946" d="M77.33,46.752c.173,2.151-1.087,4.006-2.809,4.146s-3.262-1.495-3.435-3.645,1.084-4.006,2.809-4.143S77.158,44.6,77.33,46.752Z" transform="translate(-31.528 -10.568)" fill="#ffc6c5"/>
            <g id="Grupo_24438" data-name="Grupo 24438" transform="translate(37.053 24.141)">
              <path id="Trazado_10947" data-name="Trazado 10947" d="M70.4,47.631s5.095,1.477,6.732-1.765c1.993-3.951-1.76-6.642-3.993-5.878C71.074,40.694,69.332,43.017,70.4,47.631Z" transform="translate(-70.076 -39.585)" fill="#f9feff"/>
              <path id="Trazado_10948" data-name="Trazado 10948" d="M76.827,41.193a3.465,3.465,0,0,0-3.615-1.359,4.087,4.087,0,0,0-2.942,2.751A4.287,4.287,0,0,1,72.9,40.335a3.442,3.442,0,0,1,3.78,1.4,4.586,4.586,0,0,1,.11,4.4A4.447,4.447,0,0,0,76.827,41.193Z" transform="translate(-69.785 -39.749)" fill="#661d16"/>
              <path id="Trazado_10949" data-name="Trazado 10949" d="M70.276,42.475A2.832,2.832,0,0,0,71.8,45.8,2.133,2.133,0,0,0,74.565,44.1a2.832,2.832,0,0,0-1.52-3.327A2.132,2.132,0,0,0,70.276,42.475Z" transform="translate(-69.911 -38.41)" fill="#5e2c26"/>
              <path id="Trazado_10950" data-name="Trazado 10950" d="M70.3,41.506a.781.781,0,0,0,.421.921.592.592,0,0,0,.769-.473.782.782,0,0,0-.423-.921A.589.589,0,0,0,70.3,41.506Z" transform="translate(-69.784 -37.873)" fill="#fefffe"/>
            </g>
            <g id="Grupo_24439" data-name="Grupo 24439" transform="translate(18.124 25.659)">
              <path id="Trazado_10951" data-name="Trazado 10951" d="M71.9,47.53s-5.718,2.346-8.2-.566c-3.027-3.548.9-6.857,3.655-6.492C69.9,40.808,72.352,42.8,71.9,47.53Z" transform="translate(-62.376 -40.221)" fill="#f9feff"/>
              <path id="Trazado_10952" data-name="Trazado 10952" d="M63.012,42.327a4.43,4.43,0,0,1,4.006-1.97,4.764,4.764,0,0,1,3.928,2.2,5.161,5.161,0,0,0-3.475-1.76,4.391,4.391,0,0,0-4.186,2.04,3.968,3.968,0,0,0,.636,4.356A3.9,3.9,0,0,1,63.012,42.327Z" transform="translate(-62.516 -40.355)" fill="#661d16"/>
              <path id="Trazado_10953" data-name="Trazado 10953" d="M63.635,43.031a2.647,2.647,0,1,0,3.31-1.753A2.649,2.649,0,0,0,63.635,43.031Z" transform="translate(-61.008 -39.144)" fill="#5e2c26"/>
              <path id="Trazado_10954" data-name="Trazado 10954" d="M63.657,42.044a.735.735,0,1,0,.919-.486A.734.734,0,0,0,63.657,42.044Z" transform="translate(-60.849 -38.595)" fill="#fefffe"/>
            </g>
            <path id="Trazado_10955" data-name="Trazado 10955" d="M77.118,38.949a.589.589,0,0,0,.31-1.057,7.063,7.063,0,0,0-6.875-.4.589.589,0,1,0,.5,1.067,5.9,5.9,0,0,1,5.663.275A.6.6,0,0,0,77.118,38.949Z" transform="translate(-32.816 -20.051)" fill="#6b2e2b"/>
            <path id="Trazado_10956" data-name="Trazado 10956" d="M63.292,40.123a.586.586,0,0,0,.378-.18,5.9,5.9,0,0,1,5.548-1.174.59.59,0,0,0,.323-1.134,7.055,7.055,0,0,0-6.725,1.5.589.589,0,0,0,.476.991Z" transform="translate(-44.183 -19.202)" fill="#6b2e2b"/>
            <path id="Trazado_10957" data-name="Trazado 10957" d="M70.307,47.443c1.077-.088,1.863-1.067,2.116-2.641a.314.314,0,0,0-.621-.1c-.208,1.3-.806,2.07-1.612,2.118-.7.02-1.55-.616-1.825-1.87a.311.311,0,0,0-.376-.24.314.314,0,0,0-.238.373,2.678,2.678,0,0,0,2.456,2.366Z" transform="translate(-36.532 -8.56)" fill="#a04c3c"/>
            <path id="Trazado_10958" data-name="Trazado 10958" d="M71.381,44.476a.192.192,0,0,1-.2-.14,1.333,1.333,0,0,0-2.6.205.185.185,0,0,1-.2.173.187.187,0,0,1-.175-.2,1.706,1.706,0,0,1,3.34-.273.188.188,0,0,1-.135.228Z" transform="translate(-35.836 -10.727)" fill="#c68c75"/>
            <path id="Trazado_10959" data-name="Trazado 10959" d="M60.892,57.863a14.179,14.179,0,0,1-1.174,6.186c7.5-3.452,5.368-6.76,4.8-13.537,6.251-.135,12.681-2.6,19.052-10.22a13.92,13.92,0,0,1,1.865-1.848c-1.452,4.324-3.034,7.421-6.327,9.857,8.783-.849,10.387-10.4,12.879-10.55,6.452-.381,6.472,4.669,6.672,5.505.25,1.034.08,7.5,1.327,10.921,1.124,3.084,1.828,2.574,4.769,2.479-1.685-1.222-2.824-2.413-2.724-4.549,1.009.869,2.656,1.422,5.195.308-2.589-.859-3.813-2.223-5.23-7.133-1.092-5.475-2.411-10.322-8.74-13.307-3.435-1.622-14.962-3.971-26.533,2.326-6.985,4.469-5.1,13.036-10.6,15.219a29.146,29.146,0,0,0,3.863.916c.4,4.594-1.019,6.592-3.528,7.886A4.212,4.212,0,0,0,60.892,57.863Z" transform="translate(-54.004 -30.012)" fill="#874944"/>
          </g>
          <path id="Trazado_10960" data-name="Trazado 10960" d="M84.424,48.915a38.443,38.443,0,0,1,3.032,2.576c-6.8,10.059-10.42,12.568-21.451,6.64-1.905-3.643-1.129-6.589,1.96-8.244C75.354,55.862,75.787,56.8,84.424,48.915Z" transform="translate(-35.611 -1.826)" fill="#ffd5c7"/>
          <path id="Trazado_10961" data-name="Trazado 10961" d="M81.43,46.641c-.786.874-3,1.8-3.755,2.824a.374.374,0,0,0-.048.125c2.068-1.272,4.181-1.665,5.989-2.381,1.662,1.622-1.983,2.371-5.248,4.061,2.083-.754,3.528-1.021,4.94-1.6,1.437.163,1.364,1.052,0,1.758-1.051.546-3.044,1.224-4.965,2.171-.133.145,4.486-1.036,5.3-.526.118.476-.5,1.269-1.915,1.632a19.549,19.549,0,0,0-3.29.9A13.275,13.275,0,0,0,76.2,58.453c-1.127.979-3.883.093-4.186-.376-.781-1.217.243-5.3,1.485-6.817,2.083-2.541,3.069-3.863,7.7-5.853C82.166,45.306,81.811,46.215,81.43,46.641Z" transform="translate(-25.43 -7.113)" fill="#ffd5c7"/>
          <path id="Trazado_10962" data-name="Trazado 10962" d="M76.425,52.86c-1.9-.836-7.421-5.51-10.928-2.706-1.127,2.208-.553,5.12-.881,6.973C67.625,58.664,72.653,60.356,76.425,52.86Z" transform="translate(-36.148 -1.295)" fill="#e05858"/>
        </g>
        <path id="Trazado_10963" data-name="Trazado 10963" d="M60.762,58.384c.138.406.34,1.257,3.6,1.6.536.055-2.5.19-2.028.626a17.846,17.846,0,0,0,7.694,3.618c7.746,1.945,13.637-.486,14.328-2.569.488-1.467-6.437-11.644-12.951-11.714-.656,0,2.812,3.615,2.161,3.956-.889.463-2.651-.506-4.99-.456-5.185.113-8.768.836-7.613,2.163.4.458,8.923,1.707,8.97,2S60.659,58.081,60.762,58.384Z" transform="translate(-41.975 38.16)" fill="#ffd5c7"/>
        <path id="Trazado_10964" data-name="Trazado 10964" d="M85.575,65.36c-.163.393-.421,1.232-3.69,1.354-.541.02,2.481.356,1.98.759a17.85,17.85,0,0,1-7.914,3.1C68.093,72,62.374,69.186,61.824,67.06c-.388-1.495,7.193-11.191,13.7-10.828.653.038-3.047,3.42-2.421,3.8.856.521,2.681-.33,5.01-.125,5.167.458,8.7,1.417,7.453,2.664-.426.431-9.015,1.112-9.083,1.4S85.7,65.065,85.575,65.36Z" transform="translate(-40.368 47.602)" fill="#ffd5c7"/>
      </g>
      <g id="Grupo_24454" data-name="Grupo 24454" transform="translate(92.716 18.199)">
        <path id="Trazado_10965" data-name="Trazado 10965" d="M147.142,39.6c.14,3.545-1.515,7.255-1.217,10.69.245,2.8,4,4.739,3.495,7.669-.413,2.376-3.848,4.319-2.9,6.574.448,1.064,1.75,1.685,2.609,2.559a5.417,5.417,0,0,1,1.339,4.341,10.063,10.063,0,0,1-4.276,7.24,13.111,13.111,0,0,1-9.283,2.2,2.563,2.563,0,0,0-1.094-.015,1.87,1.87,0,0,0-.881.721c-2.434,3.062-5.313,6.036-9.228,7.744s-9.068,1.878-12.468-.428a14.751,14.751,0,0,0-2.158-1.435,8.644,8.644,0,0,0-4.809-.265,15.979,15.979,0,0,1-4.875.368c-1.612-.245-5.152-1.535-5.756-2.794-.744-1.552,3.315-5,.27-4.907-2.486.073-8.227-1.585-4.3-5.375,7.273-7.013,1.988-32.712,2.559-36.778A16.1,16.1,0,0,1,98.9,28.54c5.225-4.859,13.943-5.751,21.3-6C135.505,22.016,146.564,25.028,147.142,39.6Z" transform="translate(-90.278 -21.328)" fill="#773220"/>
        <path id="Trazado_10966" data-name="Trazado 10966" d="M115.362,158.181,107,158.066c-.606-19.956-2.178-60.4-3.014-90.738l15.76.421C118.554,96.112,116.224,137.516,115.362,158.181Z" transform="translate(-69.675 46.103)" fill="#ffd5c7"/>
        <g id="Grupo_24445" data-name="Grupo 24445" transform="translate(35.971 197.945)">
          <g id="Grupo_24443" data-name="Grupo 24443" transform="translate(1.077)">
            <path id="Trazado_10967" data-name="Trazado 10967" d="M112.625,102.066c-.939.028-6-.766-7.476-.981-.06,2.2-.025,9.083-.073,11.529,0,0,24.548,4.279,28.346.546C134.492,112.108,117.595,106.252,112.625,102.066Z" transform="translate(-105.074 -101.085)" fill="#ffd5c7"/>
            <path id="Trazado_10968" data-name="Trazado 10968" d="M105.076,105.078c.01.543.013,1.067,0,1.532,0,0,24.548,4.279,28.346.546.15-.148.155-.363.03-.633C126.727,108.157,111.177,106.022,105.076,105.078Z" transform="translate(-105.076 -95.081)" fill="#ffd5c7"/>
          </g>
          <g id="Grupo_24444" data-name="Grupo 24444" transform="translate(0 3.217)">
            <path id="Trazado_10969" data-name="Trazado 10969" d="M121.683,104.092c-.746-.2-3.81,2.353-6.231,1.888-1.009.028-9.146-3.382-10.73-3.61-.063,2.318.105,5.793.055,8.367,0,0,26.2,4.619,30.284.691C136.212,110.321,124.352,106.864,121.683,104.092Z" transform="translate(-104.554 -102.37)" fill="#916e81"/>
            <path id="Trazado_10970" data-name="Trazado 10970" d="M104.646,105.108c.01.573.015,1.124.005,1.615,0,0,26.418,4.516,30.5.588.163-.155.168-.386.035-.668C127.947,108.36,111.213,106.107,104.646,105.108Z" transform="translate(-104.646 -98.253)" fill="#7a5a6b"/>
          </g>
        </g>
        <path id="Trazado_10971" data-name="Trazado 10971" d="M109.07,158.45l-8.37-.115c-.606-19.956-2.178-60.4-3.014-90.738l15.76.421C112.259,96.378,109.929,137.783,109.07,158.45Z" transform="translate(-79.14 46.507)" fill="#ffd5c7"/>
        <g id="Grupo_24448" data-name="Grupo 24448" transform="translate(20.694 198.618)">
          <g id="Grupo_24446" data-name="Grupo 24446" transform="translate(1.074)">
            <path id="Trazado_10972" data-name="Trazado 10972" d="M106.521,102.335c-.939.025-6-.766-7.476-.981-.06,2.2-.022,9.083-.07,11.529,0,0,24.545,4.279,28.343.546C128.387,112.377,111.493,106.521,106.521,102.335Z" transform="translate(-98.97 -101.354)" fill="#ffd5c7"/>
            <path id="Trazado_10973" data-name="Trazado 10973" d="M98.973,105.346c.01.543.013,1.069.005,1.535,0,0,24.545,4.279,28.343.546.15-.148.155-.366.033-.636C120.624,108.425,105.074,106.292,98.973,105.346Z" transform="translate(-98.973 -95.352)" fill="#ffd5c7"/>
          </g>
          <g id="Grupo_24447" data-name="Grupo 24447" transform="translate(0 3.217)">
            <path id="Trazado_10974" data-name="Trazado 10974" d="M115.58,104.359c-.746-.2-3.808,2.356-6.231,1.89-1.009.028-9.143-3.385-10.73-3.61-.063,2.316.105,5.791.055,8.367,0,0,26.2,4.619,30.284.691C130.109,110.59,118.252,107.133,115.58,104.359Z" transform="translate(-98.453 -102.639)" fill="#a37f90"/>
            <path id="Trazado_10975" data-name="Trazado 10975" d="M98.544,105.377c.007.571.013,1.124,0,1.615,0,0,26.418,4.516,30.5.588.163-.158.168-.386.035-.668C121.842,108.629,105.108,106.376,98.544,105.377Z" transform="translate(-98.544 -98.522)" fill="#7a5a6b"/>
          </g>
        </g>
        <path id="Trazado_10976" data-name="Trazado 10976" d="M132.135,113.668c3.49-23.451,4.849-34.875-1.785-51.537-3.23-8.112-20.81-1.109-24.363,1.595-18.449,18.83-6.412,24.36-6.149,51.316C103.135,115.591,117.679,121.832,132.135,113.668Z" transform="translate(-82.068 32.582)" fill="#c1897c"/>
        <path id="Trazado_10977" data-name="Trazado 10977" d="M137.374,97.408c-3.718,2.849-23.288,16.121-41.635,1.4,0-6.477,5.08-14.957,5.34-18.241.363-4.567-6.915-14.593-4.995-30.421,6.8-2.694,21.538-3.833,32.241-.979C133.035,59.4,135.391,95.866,137.374,97.408Z" transform="translate(-82.068 16.295)" opacity="0.21"/>
        <path id="Trazado_10978" data-name="Trazado 10978" d="M138.777,96.054c-3.718,2.849-25.622,13.707-43.971-1.011,3.034-4.369,7.416-12.543,7.676-15.83.363-4.564-7.26-14.1-5.34-29.923,6.8-2.694,21.884-4.329,32.587-1.475C134.438,58.047,136.794,94.512,138.777,96.054Z" transform="translate(-83.47 14.51)" fill="#ed652f"/>
        <path id="Trazado_10979" data-name="Trazado 10979" d="M120.992,48.417a5.911,5.911,0,0,0-.18-1.3,67.136,67.136,0,0,0-22.114.27,5.634,5.634,0,0,0-.145,1.026c0,4.441,5.022,8.042,11.221,8.042S120.992,52.859,120.992,48.417Z" transform="translate(-77.838 14.526)" fill="#e4a78e"/>
        <path id="Trazado_10980" data-name="Trazado 10980" d="M101.014,43.2v9.188c0,1.975,2.7,3.578,6.039,3.578s6.039-1.6,6.039-3.578V43.2Z" transform="translate(-74.136 9.818)" fill="#e4a78e"/>
        <g id="Grupo_24450" data-name="Grupo 24450" transform="translate(26.723 46.892)">
          <path id="Trazado_10981" data-name="Trazado 10981" d="M125.8,63.41c-.391-4.366-1.748-16.233-3.315-16.9-2.544-1.084-7.008.3-8.547.461-4.549,8.019-2.739,15.042-2.343,18.4C115.391,65.851,123.17,64.872,125.8,63.41Z" transform="translate(-85.986 -32.713)" fill="#b240a8"/>
          <path id="Trazado_10982" data-name="Trazado 10982" d="M101.05,91.782c-1.164,14.108,8.284,19.941,16.719,17.282,13.935-4.394,37.94-27.1,40.175-47.218-7.381-21.486-26.606-28.621-35.872-11.674C118.124,62,100.839,87,101.05,91.782Z" transform="translate(-100.952 -40.751)" fill="#88b4d3"/>
          <g id="Grupo_24449" data-name="Grupo 24449" transform="translate(17.612 2.664)">
            <path id="Trazado_10983" data-name="Trazado 10983" d="M112.437,49.335c-4.96,8.858-1.662,15.933,6.084,20.262s15.653,3.52,20.612-5.338-.12-15.079-7.864-19.408S117.4,40.477,112.437,49.335Z" transform="translate(-104.828 -41.529)" fill="#874944"/>
            <path id="Trazado_10984" data-name="Trazado 10984" d="M117.779,44.191c-.443.118-.8.436-1.217,1.374-3.142,7.115-5.02,7.005-7.361,11.186a8.258,8.258,0,0,0,1.81,10.705c2.872,2.554,11.224,7.771,20.4,1.93,3.893-2.479,7.956-9.927,8.207-11.669.839-5.888-2.01-6.842-8.309-10.362C125.413,44.061,122.809,42.876,117.779,44.191Z" transform="translate(-107.986 -39.033)" opacity="0.4"/>
            <path id="Trazado_10985" data-name="Trazado 10985" d="M118.22,43.767c-.443.115-.8.436-1.219,1.372-3.142,7.118-5.02,7.008-7.361,11.189a8.256,8.256,0,0,0,1.813,10.705c2.869,2.554,11.224,7.771,20.4,1.93,3.893-2.479,7.956-9.927,8.207-11.672.839-5.888-2.01-6.84-8.309-10.362C125.853,43.634,123.25,42.45,118.22,43.767Z" transform="translate(-107.328 -39.673)" fill="#ffd5c7"/>
            <path id="Trazado_10986" data-name="Trazado 10986" d="M125.666,59.368c-2.566,2.253-6.382,2.171-8.192.548s-.666-4.123,1.475-6.522,5.35-3.032,7.153-1.4C128.567,54.213,128.077,57.248,125.666,59.368Z" transform="translate(-95.073 -27.872)" fill="#ffd5c7"/>
            <path id="Trazado_10987" data-name="Trazado 10987" d="M120.791,56.228c-1.264.924-2.949.573-3.33-.123-.428-.784.03-1.51,1.044-2.559,1.182-1.224,2.3-1.61,3.072-.7C122.378,53.8,122.281,55.138,120.791,56.228Z" transform="translate(-93.981 -25.981)" fill="#e4a78e"/>
            <path id="Trazado_10988" data-name="Trazado 10988" d="M113.962,53.438a3.19,3.19,0,1,0,4.344-1.229A3.19,3.19,0,0,0,113.962,53.438Z" transform="translate(-99.615 -26.796)" fill="#ffc6c5"/>
            <path id="Trazado_10989" data-name="Trazado 10989" d="M109.2,50.46a2.19,2.19,0,1,0,3.73,2.086,2.19,2.19,0,1,0-3.73-2.086Z" transform="translate(-106.775 -31.084)" fill="#ffc6c5"/>
            <path id="Trazado_10990" data-name="Trazado 10990" d="M111.417,45.932a.414.414,0,0,1-.2-.263.4.4,0,0,1,.305-.481,4.81,4.81,0,0,1,4.379,1.7.4.4,0,0,1-.045.566.408.408,0,0,1-.568-.045,4.03,4.03,0,0,0-3.59-1.44A.414.414,0,0,1,111.417,45.932Z" transform="translate(-103.136 -36.856)" fill="#874944"/>
            <path id="Trazado_10991" data-name="Trazado 10991" d="M119.488,50.8a.4.4,0,0,1-.185-.22,4.025,4.025,0,0,0-3.107-2.306.4.4,0,0,1,.123-.794,4.8,4.8,0,0,1,3.745,2.839.4.4,0,0,1-.576.481Z" transform="translate(-96.154 -33.307)" fill="#874944"/>
            <path id="Trazado_10992" data-name="Trazado 10992" d="M111.813,50.485a.128.128,0,0,0,.163-.033.91.91,0,0,1,1.557.869.127.127,0,1,0,.238.09,1.164,1.164,0,0,0-2-1.117.127.127,0,0,0,.02.178Z" transform="translate(-102.331 -29.705)" fill="#c68c75"/>
            <path id="Trazado_10993" data-name="Trazado 10993" d="M138.491,68.624c-1.187-1.517-1.5-3.162.058-5.9a19.9,19.9,0,0,0,2.659.528c-2.787-2.917.821-7.7-2.238-12.455-5.383-7.2-13.2-9.015-15.8-8.985-4.777.055-6.975,2.686-9.213,5.776-2.278,2.644-3.425,3.142-5.275,2.939,1.254,1.412,2.436,1.537,3.31,1.284-.546,1.354-1.592,1.77-2.987,2.05,1.8.894,2.09,1.412,3.665-.183,1.75-1.773,3.485-5.831,3.933-6.4.363-.461,1.815-3.59,5.708-1.52,1.5.8-.223,7.183,4.985,10.207-1.349-2.449-1.45-4.819-1.119-7.916a9.321,9.321,0,0,1,.631,1.677c1.78,6.542,5.067,9.9,8.905,11.757-2.281,4.046-4.549,5.49-.879,9.764a9.68,9.68,0,0,1,1.034-4.173A2.868,2.868,0,0,0,138.491,68.624Z" transform="translate(-106.935 -41.815)" fill="#874944"/>
            <path id="Trazado_10994" data-name="Trazado 10994" d="M112.751,51.969a1.365,1.365,0,0,1-.353-.05,1.328,1.328,0,0,1-.814-.581.2.2,0,0,1,.34-.2.944.944,0,0,0,.573.4.746.746,0,0,0,.556-.038.191.191,0,0,1,.268.07.194.194,0,0,1-.07.268A.974.974,0,0,1,112.751,51.969Z" transform="translate(-102.615 -27.939)" fill="#a56959"/>
            <path id="Trazado_10995" data-name="Trazado 10995" d="M112.213,51.088a2.6,2.6,0,0,1-.476-.178,2.492,2.492,0,0,1-1.167-3.322l.618.3a1.805,1.805,0,0,0,.849,2.4,1.835,1.835,0,0,0,1.39.093,1.753,1.753,0,0,0,1.029-.9l.618.3a2.445,2.445,0,0,1-1.43,1.252A2.538,2.538,0,0,1,112.213,51.088Z" transform="translate(-104.473 -33.134)" fill="#601909"/>
            <path id="Trazado_10996" data-name="Trazado 10996" d="M115.924,52.851a2.441,2.441,0,0,1-.478-.175,2.49,2.49,0,0,1-1.164-3.322l.616.3a1.806,1.806,0,0,0,.851,2.4,1.828,1.828,0,0,0,1.387.093,1.765,1.765,0,0,0,1.031-.9l.618.3a2.434,2.434,0,0,1-1.432,1.252A2.486,2.486,0,0,1,115.924,52.851Z" transform="translate(-98.896 -30.481)" fill="#601909"/>
          </g>
          <path id="Trazado_10997" data-name="Trazado 10997" d="M107.664,71.192c3,3.856,9.837,13.459,24.615,18.862C144.194,78.5,148.5,61.426,148.5,61.426c-6.685-16.782-14.639-20.752-21.468-19.851C154.011,54.929,132.134,85.112,107.664,71.192Z" transform="translate(-90.86 -39.692)" fill="#76c6e5"/>
          <path id="Trazado_10998" data-name="Trazado 10998" d="M117.1,94.821c.378-.08.759-.155,1.134-.27,7.05-2.143,16.6-8.92,24.63-17.713C124.709,69.522,117.13,57.4,114.223,50.823c-6.119,11.1-13.327,22.835-13.149,25.99-.025.388-.015.746-.028,1.122C104.905,83.332,110.5,90.064,117.1,94.821Z" transform="translate(-100.809 -25.607)" fill="#5de8ce" opacity="0.2"/>
          <path id="Trazado_10999" data-name="Trazado 10999" d="M113.063,50.714c-4.2,7.546-8.9,15.377-11.421,20.592,6.6,4.789,18,11.957,29.69,14.271a85.936,85.936,0,0,0,9.947-9.291C123.318,69.178,115.895,57.216,113.063,50.714Z" transform="translate(-99.914 -25.771)" fill="#50e2d4" opacity="0.47"/>
        </g>
        <path id="Trazado_11000" data-name="Trazado 11000" d="M130.933,60.01c4.684-1.349,8.708.786,7.646,5.325-7.841,6.6-19.786,11.92-26.846,14.048a11.355,11.355,0,0,1-3.5-5.841A128.631,128.631,0,0,0,130.933,60.01Z" transform="translate(-63.274 34.498)" fill="#ffd5c7"/>
        <path id="Trazado_11001" data-name="Trazado 11001" d="M103.928,76c.285.29.814.944,3.763-.118.486-.173-2.078,1.2-1.49,1.384a17.1,17.1,0,0,0,8.139-.075c7.491-1.542,11.431-6.074,11.294-8.172-.263-4.011-10.39-7.371-16.038-4.722-.568.268,3.926,1.95,3.508,2.514-.573.769-2.5.666-4.494,1.68-4.426,2.253-7.218,4.364-5.668,5.03.533.23,8.4-2.236,8.567-2S103.712,75.78,103.928,76Z" transform="translate(-71.887 40.124)" fill="#ffd5c7"/>
        <path id="Trazado_11002" data-name="Trazado 11002" d="M130.3,60.682c-.113.381-.258,1.167-3.65,2.005-.561.14,2.641-.248,2.178.218a22.289,22.289,0,0,1-7.8,4.474c-7.986,3-11.559,1.715-12.656.093-1.985-2.937,3.252-11.326,10.092-12.47.688-.115-2.671,3.658-1.963,3.851.971.26,2.749-.889,5.207-1.232,5.458-.764,9.278-.721,8.167.641-.381.471-9.238,2.992-9.266,3.257S130.384,60.4,130.3,60.682Z" transform="translate(-63.711 27.565)" fill="#ffd5c7"/>
        <path id="Trazado_11003" data-name="Trazado 11003" d="M132.193,73.306a37.272,37.272,0,0,1,3.545,6.064C109.318,93.59,97.2,87.6,93.107,58.387c1.848-4.514,4.013-7.979,8.4-10.3C104.446,70.472,103.83,88.047,132.193,73.306Z" transform="translate(-86.025 17.164)" fill="#ffd5c7"/>
        <path id="Trazado_11004" data-name="Trazado 11004" d="M109.44,64.186c-1.915-1.447-3.275-21.719-10.7-15.577C95.295,51.455,92.4,63.981,92.1,69.148,94.8,70.055,99.215,74.261,109.44,64.186Z" transform="translate(-87.539 16.219)" fill="#ed652f"/>
        <g id="Grupo_24453" data-name="Grupo 24453" transform="translate(1.069)">
          <path id="Trazado_11005" data-name="Trazado 11005" d="M122.083,42.168c-.6,5.315-4.579,9.188-7.886,9.168s-4.384-4.148-4.346-9.191,2.749-9.128,6.056-9.093C120.426,33.1,122.649,37.171,122.083,42.168Z" transform="translate(-61.92 -5.435)" fill="#fcc8b4"/>
          <path id="Trazado_11006" data-name="Trazado 11006" d="M116.9,40.78c-.941,2.075-3.042,3.267-4.7,2.659s-2.236-2.789-1.3-4.867,3.042-3.267,4.7-2.659S117.837,38.7,116.9,40.78Z" transform="translate(-61.006 -1.373)" fill="#e4a78e"/>
          <path id="Trazado_11007" data-name="Trazado 11007" d="M145.645,44.293c0,18.076-11.136,26.205-26.728,26.205S91.885,62.369,91.885,44.293s11.436-22.272,27.031-22.272S145.645,26.217,145.645,44.293Z" transform="translate(-88.931 -22.021)" fill="#773220"/>
          <path id="Trazado_11008" data-name="Trazado 11008" d="M139.975,31.114c1.878,1.81.426,6.2.153,9.671-.986,12.523.088,15.47.794,20.457.005,9.306-10.876,13.8-15.53,14.566-7.866,1.3-22.575-3.327-24.553-8.2-4.767-7.033-7.571-30.852-6.469-33.946,3.72-10.453,8.84-9.4,21.361-9.4C127.442,24.259,133.223,24.607,139.975,31.114Z" transform="translate(-85.555 -18.701)" fill="#ffd5c7"/>
          <path id="Trazado_11009" data-name="Trazado 11009" d="M103.263,44.217c.956,5.475,1.314,10-2.514,13.079-4.464,3.588-8.662-8.805-8.662-17.508s7.521-16.646,18.6-15.888C116.4,24.291,100.694,29.521,103.263,44.217Z" transform="translate(-88.627 -19.271)" fill="#773220"/>
          <path id="Trazado_11010" data-name="Trazado 11010" d="M91.436,46.017c2.065,5.833,8.177,9.078,12.475,8.114s4.714-5.936,3.45-11.619-5.781-9.526-10.077-8.547C91.411,35.3,89.5,40.534,91.436,46.017Z" transform="translate(-90.705 -4.292)" fill="#ffd5c7"/>
          <path id="Trazado_11011" data-name="Trazado 11011" d="M94.213,42.974c1.179,2.581,4.156,3.515,5.378,2.751,1.372-.861,1.289-2.413.616-4.967-.789-2.984-2.218-4.587-4.246-3.823C93.853,37.729,92.821,39.937,94.213,42.974Z" transform="translate(-86.387 0.12)" fill="#e4a78e"/>
          <path id="Trazado_11012" data-name="Trazado 11012" d="M116.74,33.654a.624.624,0,0,1-.423-.163c-1.68-1.5-4.747-1.9-7.3-.949a.637.637,0,0,1-.446-1.194c2.964-1.107,6.579-.6,8.59,1.2a.636.636,0,0,1-.426,1.109Z" transform="translate(-64.456 -8.874)" fill="#773220"/>
          <path id="Trazado_11013" data-name="Trazado 11013" d="M99.632,33.654a.636.636,0,0,1-.426-1.109c2.01-1.8,5.621-2.3,8.59-1.2a.637.637,0,1,1-.443,1.194c-2.509-.936-5.648-.528-7.3.949A.624.624,0,0,1,99.632,33.654Z" transform="translate(-78.242 -8.873)" fill="#773220"/>
          <path id="Trazado_11014" data-name="Trazado 11014" d="M107.1,43.691a2.225,2.225,0,0,1-.288-.02c-1.412-.18-2.469-1.632-2.571-3.535a.343.343,0,0,1,.323-.358.33.33,0,0,1,.358.32c.09,1.75,1.064,2.784,1.975,2.9,1.031.133,1.988-.8,2.524-2.5a.331.331,0,0,1,.426-.223.339.339,0,0,1,.22.426C109.472,42.6,108.378,43.691,107.1,43.691Z" transform="translate(-70.348 4.678)" fill="#a56959"/>
          <path id="Trazado_11015" data-name="Trazado 11015" d="M109.142,39.405a.239.239,0,0,1-.235-.2,1.7,1.7,0,0,0-3.335-.005.239.239,0,0,1-.473-.068,2.179,2.179,0,0,1,4.279-.005.24.24,0,0,1-.2.275Z" transform="translate(-69.067 1.05)" fill="#c68c75"/>
          <path id="Trazado_11016" data-name="Trazado 11016" d="M103.4,27.6c-.025.19-7.861,8.818-7.336,9.156,7.361,4.709,16.629,4.607,24.528,1.57,3.262-1.257,6.742-4.409,7.909-7.739-.048,2.336.028,5.192-4.794,8.182-.363.225,6.785,1.7,9.684-9.649C133.17,26.116,108.515,17.694,103.4,27.6Z" transform="translate(-82.678 -20.678)" fill="#773220"/>
          <g id="Grupo_24451" data-name="Grupo 24451" transform="translate(42.622 29.039)">
            <path id="Trazado_11017" data-name="Trazado 11017" d="M107.886,42.317s5.7,2.193,7.9-1.367c2.674-4.339-1.372-7.8-4.008-7.138C109.336,34.423,107.11,36.919,107.886,42.317Z" transform="translate(-107.729 -33.451)" fill="#f9feff"/>
            <path id="Trazado_11018" data-name="Trazado 11018" d="M115.73,35.566a4,4,0,0,0-4.018-1.913,4.7,4.7,0,0,0-3.643,2.869A4.941,4.941,0,0,1,111.3,34.2a3.959,3.959,0,0,1,4.2,1.978,5.281,5.281,0,0,1-.3,5.057A5.131,5.131,0,0,0,115.73,35.566Z" transform="translate(-107.218 -33.62)" fill="#661d16"/>
            <path id="Trazado_11019" data-name="Trazado 11019" d="M108.079,36.485a3.258,3.258,0,0,0,1.417,3.966,2.457,2.457,0,0,0,3.345-1.687,3.258,3.258,0,0,0-1.417-3.966A2.453,2.453,0,0,0,108.079,36.485Z" transform="translate(-107.487 -32.183)" fill="#2f5184"/>
            <path id="Trazado_11020" data-name="Trazado 11020" d="M108.081,35.463a.9.9,0,0,0,.393,1.1.681.681,0,0,0,.929-.468.9.9,0,0,0-.4-1.1A.68.68,0,0,0,108.081,35.463Z" transform="translate(-107.278 -31.645)" fill="#fefffe"/>
          </g>
          <g id="Grupo_24452" data-name="Grupo 24452" transform="translate(21.881 28.839)">
            <path id="Trazado_11021" data-name="Trazado 11021" d="M110.015,42.374s-6.86,2.156-9.454-1.465c-3.16-4.411,1.727-7.859,4.88-7.165C108.36,34.385,111,36.929,110.015,42.374Z" transform="translate(-99.304 -33.367)" fill="#f9feff"/>
            <path id="Trazado_11022" data-name="Trazado 11022" d="M100.213,35.47a5.159,5.159,0,0,1,4.837-1.89,5.549,5.549,0,0,1,4.336,2.937,6.016,6.016,0,0,0-3.853-2.383,5.111,5.111,0,0,0-5.055,1.953,4.62,4.62,0,0,0,.308,5.112A4.534,4.534,0,0,1,100.213,35.47Z" transform="translate(-99.445 -33.54)" fill="#661d16"/>
            <path id="Trazado_11023" data-name="Trazado 11023" d="M100.8,36.438a3.079,3.079,0,1,0,4.008-1.7A3.079,3.079,0,0,0,100.8,36.438Z" transform="translate(-97.749 -32.08)" fill="#2f5184"/>
            <path id="Trazado_11024" data-name="Trazado 11024" d="M100.8,35.407a.854.854,0,1,0,1.112-.473A.853.853,0,0,0,100.8,35.407Z" transform="translate(-97.5 -31.537)" fill="#fefffe"/>
          </g>
        </g>
      </g>
    </g>
    <g id="Grupo_24785" data-name="Grupo 24785" transform="translate(-310.327 4137.889)">
      <g id="Grupo_24549" data-name="Grupo 24549" transform="translate(541.302 1939.87)">
        <path id="Trazado_11342" data-name="Trazado 11342" d="M193.461,399.124V356.652H43.3L23.39,376.24v19.672l19.077,13.271H193.461Z" transform="translate(-14.822 -351.042)" fill="#fdd79b"/>
        <path id="Trazado_11343" data-name="Trazado 11343" d="M68.393,405.3a31.661,31.661,0,0,1,4.7-48.651H43.3L23.39,376.24v19.672l19.077,13.271H73.1a31.8,31.8,0,0,1-4.7-3.878Z" transform="translate(-14.822 -351.042)" fill="#fccd7f"/>
        <g id="Grupo_24544" data-name="Grupo 24544" transform="translate(0 0)">
          <g id="Grupo_24543" data-name="Grupo 24543" transform="translate(0)">
            <g id="Grupo_24542" data-name="Grupo 24542">
              <path id="Trazado_11344" data-name="Trazado 11344" d="M190.287,393.151v8.867a2.853,2.853,0,0,1-2.853,2.853H31.986a31.66,31.66,0,1,1,0-63.32H187.433a2.856,2.856,0,0,1,2.853,2.857v8.863a2.853,2.853,0,0,1-2.853,2.853H32.289A17.332,17.332,0,0,0,14.9,373.51,17.1,17.1,0,0,0,31.986,390.3H187.433a2.853,2.853,0,0,1,2.853,2.853Z" transform="translate(-0.326 -341.551)" fill="#fec165"/>
            </g>
          </g>
        </g>
        <path id="Trazado_11345" data-name="Trazado 11345" d="M32.289,356.126H49.765a31.643,31.643,0,0,1,25.591-14.343.584.584,0,0,0,.224-.051l.4-.179H32.391c-17.408,0-31.863,13.883-32.063,31.289a31.663,31.663,0,0,0,31.658,32.031H72.643A31.685,31.685,0,0,1,49.49,390.3h-17.5A17.1,17.1,0,0,1,14.9,373.511a17.331,17.331,0,0,1,17.385-17.386Z" transform="translate(-0.326 -341.552)" fill="#fdb441"/>
        <path id="Trazado_11346" data-name="Trazado 11346" d="M168.253,457.569,158,453.324l-10.257,4.245a1.514,1.514,0,0,1-2.093-1.4V426.776h24.7V456.17A1.514,1.514,0,0,1,168.253,457.569Z" transform="translate(-91.66 -395.116)" fill="#fee45a"/>
        <g id="Grupo_24545" data-name="Grupo 24545" transform="translate(44.74 28.784)">
          <path id="Trazado_11347" data-name="Trazado 11347" d="M159.714,424.787H123.635a2.876,2.876,0,0,1,0-5.753h36.078a2.876,2.876,0,1,1,0,5.753Z" transform="translate(-120.759 -419.034)" fill="#fccd7f"/>
        </g>
      </g>
      <g id="Grupo_24552" data-name="Grupo 24552" transform="translate(574.65 1812.39)">
        <g id="Grupo_24550" data-name="Grupo 24550" transform="translate(0 75.077)">
          <path id="Trazado_11348" data-name="Trazado 11348" d="M80.783,325.36l-.172.238a5.478,5.478,0,0,1-4.44,2.27H57.528a7.319,7.319,0,0,0-7.368,7.018,7.221,7.221,0,0,0,7.218,7.424H34.421L12.534,320.1A7.318,7.318,0,0,0,2.011,330.272l23.84,24.969a21.006,21.006,0,0,0,15.193,6.5h85.568a2.6,2.6,0,0,0,2.6-2.6V330.468a2.6,2.6,0,0,0-2.6-2.6H113.064a5.477,5.477,0,0,1-4.481-2.328,17.067,17.067,0,0,0-27.8-.18Z" transform="translate(0.002 -317.914)" fill="#a5b6d3"/>
          <path id="Trazado_11349" data-name="Trazado 11349" d="M350.182,357.354c-1.6,16.114-15.91,29.44-35.105,33.873h47.1a2.6,2.6,0,0,0,2.6-2.6V359.954a2.6,2.6,0,0,0-2.6-2.6H350.182Z" transform="translate(-235.56 -347.401)" fill="#8aa1c9"/>
        </g>
        <g id="Grupo_24551" data-name="Grupo 24551" transform="translate(14.298)">
          <path id="Trazado_11350" data-name="Trazado 11350" d="M103.286,103.923a5.2,5.2,0,0,0,7.375,0l39.048-39.276a25.9,25.9,0,1,0-42.735-26.961A25.9,25.9,0,1,0,64.239,64.647Z" transform="translate(-56.652 -20.426)" fill="#e7a2cb"/>
          <path id="Trazado_11351" data-name="Trazado 11351" d="M225.738,50.615c-2.325,16.12-14.723,33.277-33.93,44.366a76.376,76.376,0,0,1-33.5,10.41l20.979,21.1a5.2,5.2,0,0,0,7.375,0l39.048-39.276A25.9,25.9,0,0,0,225.738,50.615Z" transform="translate(-132.654 -42.996)" fill="#e278b1"/>
          <path id="Trazado_11352" data-name="Trazado 11352" d="M218.924,141.754h-6.763a2.6,2.6,0,0,1-2.6-2.6v-6.763a2.6,2.6,0,0,0-2.6-2.6H200.9a2.6,2.6,0,0,0-2.6,2.6v6.763a2.6,2.6,0,0,1-2.6,2.6h-6.763a2.6,2.6,0,0,0-2.6,2.6v6.06a2.6,2.6,0,0,0,2.6,2.6H195.7a2.6,2.6,0,0,1,2.6,2.6v6.763a2.6,2.6,0,0,0,2.6,2.6h6.06a2.6,2.6,0,0,0,2.6-2.6v-6.763a2.6,2.6,0,0,1,2.6-2.6h6.763a2.6,2.6,0,0,0,2.6-2.6v-6.06A2.6,2.6,0,0,0,218.924,141.754Z" transform="translate(-153.609 -102.191)" fill="#ecf4ff"/>
        </g>
        <path id="Trazado_11353" data-name="Trazado 11353" d="M233.831,401.077a1.95,1.95,0,0,0-1.95-1.95H201.948a7.221,7.221,0,0,0,6.413,3.9h23.52a1.95,1.95,0,0,0,1.95-1.95Z" transform="translate(-150.982 -303.554)" fill="#8aa1c9"/>
      </g>
    </g>
  </g>
</svg>
