<svg xmlns="http://www.w3.org/2000/svg" width="92" height="100" viewBox="0 0 92 100">
  <g id="Grupo_24814" data-name="Grupo 24814" transform="translate(-179 -3379)">
    <g id="Grupo_24810" data-name="Grupo 24810" transform="translate(3)">
      <circle id="Elipse_76" data-name="Elipse 76" cx="43" cy="43" r="43" transform="translate(179 3386.493)" fill="#fff"/>
      <g id="Grupo_24242" data-name="Grupo 24242" transform="translate(202 3402.493)">
        <ellipse id="Elipse_1441" data-name="Elipse 1441" cx="5.595" cy="5.595" rx="5.595" ry="5.595" transform="translate(4.236 0)" fill="#f579a8"/>
        <path id="Trazado_10436" data-name="Trazado 10436" d="M40.357,49.9H35.079a6.056,6.056,0,0,0-6.017,5.383L27.9,66.789A1.985,1.985,0,0,0,29.167,68.9l2.85,1.161a.92.92,0,0,1,.633.844l1.478,19.212a2.058,2.058,0,0,0,2.006,1.9H39.3a2.058,2.058,0,0,0,2.006-1.9L42.784,70.8a.919.919,0,0,1,.633-.844l2.85-1.161a1.985,1.985,0,0,0,1.267-2.111L46.373,55.178A6.061,6.061,0,0,0,40.357,49.9Z" transform="translate(-27.888 -37.022)" fill="#f579a8"/>
        <g id="Grupo_24240" data-name="Grupo 24240" transform="translate(22.215 0.001)">
          <path id="Trazado_9496" data-name="Trazado 9496" d="M52.618,33.831,50.972,22.44H36.939L35.013,35.913a3.743,3.743,0,0,0,3.718,4.165l7.45-1.526L44.82,35.125c-1.271.486-3.24,1.232-4.4,1.632-.731.252-1.318-.787-1.227-1.556l.384-3.192-1.619.616-.671-.6,2.688-1.374c.348-.169.872-.057.936.325a14.619,14.619,0,0,1,.006,2.458l3.051-1.183a1.05,1.05,0,0,1,1.359.6l.4,1.02.307.791.322.831v3.028L48.9,38C50.672,37.7,52.87,36.05,52.618,33.831ZM46.829,28.51a.573.573,0,1,1-.573.573A.573.573,0,0,1,46.829,28.51ZM43.6,27.757h.581a2.17,2.17,0,1,0,3.86-1.361v-.789l.01-.012a2.751,2.751,0,1,1-4.45,2.163Zm4.872,6.44a1.876,1.876,0,1,1,1.071-2.427A1.876,1.876,0,0,1,48.475,34.2Z" transform="translate(-34.989 -11.977)" fill="#f579a8"/>
          <path id="Trazado_9497" data-name="Trazado 9497" d="M49.3,6.379a4.322,4.322,0,0,0-1.277-.328,4.388,4.388,0,1,0,2.956,7.11c1.21,1.017,2.746,4.337,5.172-.145C53.057,15.5,53.166,7.723,49.3,6.379Z" transform="translate(-37.979 -6.03)" fill="#f579a8"/>
          <path id="Trazado_9498" data-name="Trazado 9498" d="M51.432,47.767l-11.4,2.349L38.807,62.9l2.476,0L42.87,77.673h2.557L45.473,62.9h1.086l-.033,14.771h2.346L50.661,62.9l2.618-.013Z" transform="translate(-36.373 -21.156)" fill="#f579a8"/>
        </g>
      </g>
    </g>
    <rect id="Rectángulo_5780" data-name="Rectángulo 5780" width="92" height="100" transform="translate(179 3379)" fill="none"/>
  </g>
</svg>
