<svg xmlns="http://www.w3.org/2000/svg" width="92" height="100" viewBox="0 0 92 100">
  <g id="Grupo_24813" data-name="Grupo 24813" transform="translate(-549 -3379)">
    <g id="Grupo_24809" data-name="Grupo 24809" transform="translate(-11)">
      <circle id="Elipse_1534" data-name="Elipse 1534" cx="43" cy="43" r="43" transform="translate(563 3386.493)" fill="#fff"/>
      <g id="Grupo_24808" data-name="Grupo 24808" transform="translate(20.729)">
        <g id="Grupo_24242" data-name="Grupo 24242" transform="translate(583 3406.744)">
          <ellipse id="Elipse_1441" data-name="Elipse 1441" cx="5.247" cy="5.247" rx="5.247" ry="5.247" transform="translate(3.972 0)" fill="#f579a8"/>
          <path id="Trazado_10436" data-name="Trazado 10436" d="M39.581,49.9h-4.95a5.679,5.679,0,0,0-5.643,5.049L27.9,65.739a1.862,1.862,0,0,0,1.188,1.98l2.673,1.089a.862.862,0,0,1,.594.792L33.74,87.616A1.93,1.93,0,0,0,35.621,89.4h2.97a1.93,1.93,0,0,0,1.881-1.782L41.858,69.5a.862.862,0,0,1,.594-.792l2.673-1.089a1.862,1.862,0,0,0,1.188-1.98L45.223,54.85A5.684,5.684,0,0,0,39.581,49.9Z" transform="translate(-27.888 -37.823)" fill="#f579a8"/>
          <g id="Grupo_24240" data-name="Grupo 24240" transform="translate(20.833 0.001)">
            <path id="Trazado_9496" data-name="Trazado 9496" d="M51.521,33.122,49.978,22.44H36.817L35.012,35.075A3.51,3.51,0,0,0,38.5,38.981l6.987-1.431-1.277-3.214c-1.192.456-3.039,1.155-4.124,1.531-.686.237-1.236-.738-1.151-1.459l.36-2.993-1.518.578-.629-.566,2.521-1.289c.326-.158.817-.053.878.3a13.709,13.709,0,0,1,.005,2.3l2.862-1.109a.985.985,0,0,1,1.275.563l.371.957.288.741.3.779v2.84l2.387-.489C49.7,36.749,51.758,35.2,51.521,33.122Zm-5.429-4.99a.538.538,0,1,1-.538.538A.538.538,0,0,1,46.093,28.133Zm-3.025-.706h.545a2.035,2.035,0,1,0,3.62-1.277v-.74l.009-.011a2.58,2.58,0,1,1-4.173,2.028Zm4.569,6.039a1.759,1.759,0,1,1,1-2.276A1.76,1.76,0,0,1,47.636,33.466Z" transform="translate(-34.989 -12.628)" fill="#f579a8"/>
            <path id="Trazado_9497" data-name="Trazado 9497" d="M48.927,6.358a4.053,4.053,0,0,0-1.2-.307A4.115,4.115,0,1,0,50.5,12.718c1.135.954,2.575,4.068,4.85-.136C52.446,14.912,52.548,7.618,48.927,6.358Z" transform="translate(-38.306 -6.03)" fill="#f579a8"/>
            <path id="Trazado_9498" data-name="Trazado 9498" d="M50.647,47.767l-10.69,2.2-1.15,11.988,2.322,0,1.488,13.853h2.4l.044-13.853h1.018l-.031,13.853h2.2L49.924,61.96l2.455-.013Z" transform="translate(-36.524 -22.812)" fill="#f579a8"/>
          </g>
        </g>
        <g id="Grupo_24238" data-name="Grupo 24238" transform="translate(567.113 3417.516)">
          <ellipse id="Elipse_1330" data-name="Elipse 1330" cx="4.832" cy="4.832" rx="4.832" ry="4.832" transform="translate(2.271 0)" fill="#f579a8"/>
          <path id="Trazado_9428" data-name="Trazado 9428" d="M84.713,62H80.955a4.3,4.3,0,0,0-4.295,3.865l-.859,8.16a1.438,1.438,0,0,0,.859,1.5l2.04.752a.725.725,0,0,1,.429.644L80.2,90.56a1.4,1.4,0,0,0,1.4,1.288h2.255a1.331,1.331,0,0,0,1.4-1.288l1.074-13.636a.725.725,0,0,1,.429-.644l2.04-.752a1.316,1.316,0,0,0,.859-1.5l-.859-8.16A3.9,3.9,0,0,0,84.713,62Z" transform="translate(-75.785 -50.619)" fill="#f579a8"/>
        </g>
        <g id="Grupo_23659" data-name="Grupo 23659" transform="translate(545.271 3424.361)">
          <g id="Grupo_23658" data-name="Grupo 23658" transform="translate(0 0)">
            <ellipse id="Elipse_1329" data-name="Elipse 1329" cx="4.19" cy="4.19" rx="4.19" ry="4.19" transform="translate(5.732 0)" fill="#f579a8"/>
            <path id="Trazado_9425" data-name="Trazado 9425" d="M57.01,64.645,54.151,67.04,56.308,68.5,54.017,71.3h0v0a1.5,1.5,0,0,0,2.322,1.912h0l3.068-3.742a1.626,1.626,0,0,0-.086-2.392Z" transform="translate(-42.649 -46.738)" fill="#f579a8"/>
            <path id="Trazado_9426" data-name="Trazado 9426" d="M31.5,71.3h0L29.206,68.5l2.157-1.465L28.5,64.644l-2.309,2.434a1.626,1.626,0,0,0-.086,2.392l3.069,3.741h0A1.5,1.5,0,0,0,31.5,71.3Z" transform="translate(-23.022 -46.738)" fill="#f579a8"/>
            <path id="Trazado_9427" data-name="Trazado 9427" d="M35.385,21.405a1.405,1.405,0,0,0-1,.413l-3.154,3.154a2.075,2.075,0,0,1-1.537.757H24.052a2.075,2.075,0,0,1-1.537-.757l-3.154-3.154a1.411,1.411,0,1,0-1.993,2l5.067,5.068V32.89h8.879V28.882l5.067-5.068a1.41,1.41,0,0,0-1-2.409Z" transform="translate(-16.953 -16.48)" fill="#f579a8"/>
          </g>
        </g>
      </g>
    </g>
    <rect id="Rectángulo_5781" data-name="Rectángulo 5781" width="92" height="100" transform="translate(549 3379)" fill="none"/>
  </g>
</svg>
