<svg xmlns="http://www.w3.org/2000/svg" width="92" height="100" viewBox="0 0 92 100">
  <g id="Grupo_24812" data-name="Grupo 24812" transform="translate(-902 -3379)">
    <g id="Grupo_24811" data-name="Grupo 24811" transform="translate(3)">
      <circle id="Elipse_1535" data-name="Elipse 1535" cx="43" cy="43" r="43" transform="translate(902 3386.493)" fill="#fff"/>
      <ellipse id="Elipse_1441" data-name="Elipse 1441" cx="5.421" cy="5.421" rx="5.421" ry="5.421" transform="translate(909.734 3406.744)" fill="#f579a8"/>
      <path id="Trazado_10436" data-name="Trazado 10436" d="M39.969,49.9H34.855a5.867,5.867,0,0,0-5.83,5.216L27.9,66.264a1.923,1.923,0,0,0,1.227,2.045l2.761,1.125a.891.891,0,0,1,.614.818l1.432,18.614a1.994,1.994,0,0,0,1.943,1.841h3.068a1.994,1.994,0,0,0,1.943-1.841L42.321,70.15a.891.891,0,0,1,.614-.818L45.7,68.207a1.923,1.923,0,0,0,1.227-2.045L45.8,55.014A5.872,5.872,0,0,0,39.969,49.9Z" transform="translate(877.743 3369.322)" fill="#f579a8"/>
      <g id="Grupo_24240" data-name="Grupo 24240" transform="translate(927.155 3406.745)">
        <path id="Trazado_9496" data-name="Trazado 9496" d="M52.07,33.477l-1.6-11.037h-13.6L35.012,35.494a3.626,3.626,0,0,0,3.6,4.035l7.218-1.478-1.32-3.321c-1.231.471-3.139,1.193-4.261,1.581-.709.245-1.277-.763-1.189-1.507l.372-3.092-1.568.6-.65-.584,2.6-1.331c.337-.164.844-.055.907.314a14.164,14.164,0,0,1,.006,2.381l2.957-1.146a1.018,1.018,0,0,1,1.317.581l.383.988.3.766.312.8v2.934l2.467-.505C50.184,37.224,52.314,35.627,52.07,33.477Zm-5.609-5.155a.555.555,0,1,1-.555.555A.555.555,0,0,1,46.461,28.322Zm-3.126-.73H43.9a2.1,2.1,0,1,0,3.74-1.319v-.765l.009-.012a2.665,2.665,0,1,1-4.312,2.1Zm4.72,6.239a1.818,1.818,0,1,1,1.038-2.352A1.818,1.818,0,0,1,48.056,33.831Z" transform="translate(-34.989 -12.303)" fill="#f579a8"/>
        <path id="Trazado_9497" data-name="Trazado 9497" d="M49.116,6.369a4.188,4.188,0,0,0-1.237-.318,4.252,4.252,0,1,0,2.865,6.889c1.172.985,2.661,4.2,5.011-.14C52.752,15.207,52.857,7.67,49.116,6.369Z" transform="translate(-38.142 -6.03)" fill="#f579a8"/>
        <path id="Trazado_9498" data-name="Trazado 9498" d="M51.04,47.767,40,50.043,38.807,62.429l2.4,0,1.537,14.312H45.22l.045-14.312h1.052l-.032,14.312h2.273l1.733-14.312,2.536-.013Z" transform="translate(-36.448 -21.984)" fill="#f579a8"/>
      </g>
      <path id="Trazado_9432" data-name="Trazado 9432" d="M34.464,26.287c.019.091.038.22.1.255a.233.233,0,0,0,.321-.077.886.886,0,0,1,.211-.2.33.33,0,0,0,.14.012.916.916,0,0,0,.649-.45,2.454,2.454,0,0,0,.153-.287,2.409,2.409,0,0,0,.153.287.916.916,0,0,0,.649.45.329.329,0,0,0,.14-.012.865.865,0,0,1,.211.2.232.232,0,0,0,.321.077c.063-.035.083-.164.1-.255a.934.934,0,0,0-.006-.222h0a5.369,5.369,0,0,0-.033-.709,1.057,1.057,0,0,0-1.112-.856,2.978,2.978,0,0,0-.429.153,3.023,3.023,0,0,0-.429-.153,1.058,1.058,0,0,0-1.112.856,5.284,5.284,0,0,0-.033.709h0A1.1,1.1,0,0,0,34.464,26.287Z" transform="translate(921.174 3391.385)" fill="#f579a8"/>
      <path id="Trazado_9433" data-name="Trazado 9433" d="M71.7,43.507a1.074,1.074,0,0,0,.163-.945c0-.008,0-.014,0-.023-.838-3.305-6.119-5.465-6.785-5.5a4.014,4.014,0,0,0-3.486-.011,12.3,12.3,0,0,0-6.017,3.893c-.1-.06-.22-.136-.375-.23-.191.331-.623,1.065-1.169,1.921.311.214.5.342.5.342a1.133,1.133,0,0,0,.456.169c.63.251,2.354-.564,3.082-1.013.253-.156.616-.392,1-.649a4.241,4.241,0,0,0,.623,1.815A6.16,6.16,0,0,1,59.8,44.4a7.73,7.73,0,0,1-.331,2.039h0c-.05.092-.095.188-.139.284l-.007-.006a21.566,21.566,0,0,0-1.314,5.486h0c-.009.116-.021.24-.033.37s-.031.285-.042.432c-.432,4.359-1.823,14.62-1.823,14.62a26.755,26.755,0,0,0,3.11.712c.269,2.348.725,4.425,1.5,4.425.737,0,1.186-1.9,1.46-4.12.73.031,1.419.026,2.063-.007.275,2.166.721,3.994,1.444,3.994.763,0,1.217-2.032,1.487-4.348a13.756,13.756,0,0,0,3.213-.986s-1.612-12.452-2.065-16.127a25.16,25.16,0,0,0-.652-3.215C68.957,47.368,71.7,43.507,71.7,43.507Zm-8.891-5.244a.647.647,0,0,1-.242-1.247.774.774,0,0,0-.032.21.788.788,0,0,0,.78.788A.641.641,0,0,1,62.809,38.263Zm1.026,0a.644.644,0,0,1-.505-.249.788.788,0,0,0,.783-.788.767.767,0,0,0-.032-.209.647.647,0,0,1-.245,1.246Zm3.427,8.365a4.3,4.3,0,0,0-.237-.426,6.086,6.086,0,0,1-.273-1.8,6.011,6.011,0,0,1,.083-.947,4.248,4.248,0,0,0,.735-1.983c.387.257.75.493,1,.649a9.808,9.808,0,0,0,1.069.556A29,29,0,0,0,67.262,46.628Z" transform="translate(912.462 3385.979)" fill="#f579a8"/>
      <path id="Trazado_9434" data-name="Trazado 9434" d="M69.281,18.893a4.035,4.035,0,0,1,1.683.369,1.741,1.741,0,0,0,.019-.242,1.7,1.7,0,0,0-3.4,0,1.661,1.661,0,0,0,.019.242A4.038,4.038,0,0,1,69.281,18.893Z" transform="translate(906.43 3394.578)" fill="#f579a8"/>
      <path id="Trazado_9435" data-name="Trazado 9435" d="M44.575,38.386,45.739,43.5c.036.118.056.242.083.363.018.078.038.154.053.233.006.034.017.066.023.1l.02.088h-.007c.012.077.019.155.028.233,0,.026.007.05.009.076a4.8,4.8,0,0,1,.029.5c0,.013,0,.025,0,.037a45.053,45.053,0,0,1,2.319-4.916,10.578,10.578,0,0,1-1.126-.458C46.558,39.463,45.4,38.846,44.575,38.386ZM47.29,41.52c-1.18-.954-2.194-1.944-1.928-2.356,0-.007.012-.011.016-.017.63.339,1.271.674,1.666.866.238.116.536.242.847.358C47.677,40.772,47.479,41.151,47.29,41.52Z" transform="translate(916.67 3385.2)" fill="#f579a8"/>
      <path id="Trazado_9436" data-name="Trazado 9436" d="M35.366,32.157l.479-.165a.162.162,0,0,0,.077-.153v-.095a.161.161,0,0,0-.077-.153l-.479-.165c-.193-.067-.409.024-.409.227v.276C34.957,32.133,35.173,32.223,35.366,32.157Z" transform="translate(920.951 3388.309)" fill="#f579a8"/>
      <ellipse id="Elipse_1335" data-name="Elipse 1335" cx="0.296" cy="0.296" rx="0.296" ry="0.296" transform="translate(956.915 3419.803)" fill="#f579a8"/>
      <path id="Trazado_9437" data-name="Trazado 9437" d="M77.042,47.337a5.848,5.848,0,0,0,.19,2.746,4.365,4.365,0,0,1,.237.426,28.867,28.867,0,0,1,2.38-3.949A10.009,10.009,0,0,1,78.781,46c-.253-.156-.617-.392-1-.649A4.249,4.249,0,0,1,77.042,47.337Z" transform="translate(902.254 3382.098)" fill="#f579a8"/>
      <path id="Trazado_9438" data-name="Trazado 9438" d="M38.48,32.157c.193.067.409-.024.409-.227v-.276c0-.2-.216-.294-.409-.227L38,31.591a.162.162,0,0,0-.077.153v.095a.161.161,0,0,0,.077.153Z" transform="translate(919.631 3388.309)" fill="#f579a8"/>
      <path id="Trazado_9439" data-name="Trazado 9439" d="M24.79,64.288a1.411,1.411,0,0,1,.325.894h.693a2.1,2.1,0,0,0-.783-1.631A5.8,5.8,0,0,1,24.79,64.288Z" transform="translate(925.478 3373.997)" fill="#f579a8"/>
      <path id="Trazado_9440" data-name="Trazado 9440" d="M19,64.891H19v.079h0V84.254h.689V64.971h0a1.417,1.417,0,0,1,.691-1.215q-.1-.311-.19-.68A2.11,2.11,0,0,0,19,64.891Z" transform="translate(928.056 3374.209)" fill="#f579a8"/>
      <path id="Trazado_9441" data-name="Trazado 9441" d="M45.977,39.758c0,.006-.012.01-.016.017-.267.412.748,1.4,1.928,2.356.189-.369.386-.748.6-1.149-.311-.117-.609-.242-.847-.358C47.247,40.431,46.607,40.1,45.977,39.758Z" transform="translate(916.072 3384.59)" fill="#f579a8"/>
      <path id="Trazado_9442" data-name="Trazado 9442" d="M40.264,36.654a.748.748,0,0,0-.049-.4c-.834-2.3-3.686-3.856-5.767-4.65a8.378,8.378,0,0,0-11.12,1.945,5.4,5.4,0,0,0-.631.935c-.035.06-.073.119-.107.181h0c-.894,1.618-2.122,4.6-1.726,7.048a1.337,1.337,0,0,0-.078.436S20.889,50,22.156,50s1.323-7.855,1.323-7.855a1.335,1.335,0,0,0-.225-.739,10.716,10.716,0,0,0,.509-1.127c.353-.948,1.934-5.127,2.036-5.611h.154l-1.217,5.339c-.017.06-.027.124-.042.185-.028.111-.055.222-.077.335,0,.009,0,.019-.007.028l-.02.087H24.6c0,.027-.006.054-.01.08-.017.112-.033.223-.043.336,0,.041,0,.084-.006.125-.007.114-.017.227-.017.344a5.407,5.407,0,0,0,.974,3.1c-.027.12-.053.246-.08.377-.4,1.267-1.124,5.91.06,22.417,0,0,.063.039.174.095V67.9a1.644,1.644,0,0,0,1.493,1.762h.008A1.644,1.644,0,0,0,28.645,67.9v-.29a3.1,3.1,0,0,0,.333-.191c.288-7.518-.264-16.164.98-19.267a10.641,10.641,0,0,1,.567,2.592c.038.706.08,1.358.12,1.813.021.242.05.542.089.872.179,3.98.022,9.215.2,13.99.07.047.141.084.213.123v.321a1.644,1.644,0,0,0,1.493,1.762h.008a1.644,1.644,0,0,0,1.493-1.762v-.292a2.869,2.869,0,0,0,.295-.152c1.326-18.474.26-22.09-.064-22.741a5.424,5.424,0,0,0,.589-1.045.4.4,0,0,0,.16.266c1.1.624,5.036-6.172,5.036-6.172A1.34,1.34,0,0,0,40.264,36.654Zm-9.966-5.4a.161.161,0,0,1,.077-.153l.479-.165c.193-.067.409.024.409.227v.276c0,.2-.216.294-.409.227l-.479-.165a.162.162,0,0,1-.077-.153ZM29.955,31a.3.3,0,1,1-.3.3A.3.3,0,0,1,29.955,31Zm-1.3.158c0-.2.216-.294.409-.227l.479.165a.162.162,0,0,1,.077.153v.095a.161.161,0,0,1-.077.153l-.479.165c-.193.067-.409-.024-.409-.227Zm6.737,10.373c0-.013,0-.025,0-.037a4.791,4.791,0,0,0-.029-.5c0-.026-.006-.05-.009-.076-.009-.078-.017-.156-.028-.233h.007l-.02-.088c-.006-.034-.017-.067-.023-.1-.015-.079-.034-.156-.053-.233-.027-.122-.047-.245-.083-.363l-1.164-5.117c.823.46,1.984,1.077,2.593,1.374a10.748,10.748,0,0,0,1.126.458A44.983,44.983,0,0,0,35.389,41.534Z" transform="translate(927.257 3388.8)" fill="#f579a8"/>
      <ellipse id="Elipse_1336" data-name="Elipse 1336" cx="1.062" cy="0.92" rx="1.062" ry="0.92" transform="translate(973.036 3416.723)" fill="#f579a8"/>
      <ellipse id="Elipse_1337" data-name="Elipse 1337" cx="1.062" cy="0.92" rx="1.062" ry="0.92" transform="translate(976.183 3416.723)" fill="#f579a8"/>
      <g id="Grupo_23663" data-name="Grupo 23663" transform="translate(971.768 3413.599)">
        <ellipse id="Elipse_1338" data-name="Elipse 1338" cx="1.062" cy="0.92" rx="1.062" ry="0.92" transform="translate(4.415 3.124)" fill="#f579a8"/>
        <ellipse id="Elipse_1339" data-name="Elipse 1339" cx="1.062" cy="0.92" rx="1.062" ry="0.92" transform="translate(1.268 3.124)" fill="#f579a8"/>
        <path id="Trazado_9443" data-name="Trazado 9443" d="M71.427,24.329a3.943,3.943,0,1,0-7.464,1.77.375.375,0,0,0-.042.166.38.38,0,0,0,.241.353.265.265,0,0,0-.13.225.269.269,0,0,0,.514.11,3.93,3.93,0,0,0,5.874,0,.268.268,0,1,0,.385-.336.38.38,0,0,0,.241-.353A.375.375,0,0,0,71,26.1,3.908,3.908,0,0,0,71.427,24.329Zm-1.257-.559a1.011,1.011,0,0,1,.254.66,1.21,1.21,0,0,1-1.286,1.115,1.242,1.242,0,0,1-1.266-.938.41.41,0,0,0-.432-.359.414.414,0,0,0-.421.317,1.232,1.232,0,0,1-1.271.979,1.21,1.21,0,0,1-1.286-1.115,1.014,1.014,0,0,1,.254-.66c-.229.088-.551-.263-.288-.153A.8.8,0,0,0,65,23.529l.011-.008-.014,0c-.169.048-.327-.245-.173-.136.119.084.362.028.466,0-.158,0-.219-.28-.113-.154s.462.087.462.087l0,.006c.038,0,.075-.01.114-.01a1.225,1.225,0,0,1,1.274,1.013.586.586,0,0,1,.838.013,1.222,1.222,0,0,1,1.276-1.026c.039,0,.076.007.114.01l0-.006s.355.041.462-.087.045.156-.113.154c.1.03.347.086.466,0,.154-.109,0,.183-.174.136l-.014,0,.011.008a.8.8,0,0,0,.569.089C70.721,23.507,70.4,23.858,70.17,23.771Z" transform="translate(-63.54 -20.386)" fill="#f579a8"/>
      </g>
      <g id="Grupo_23664" data-name="Grupo 23664" transform="translate(952.376 3409.361)">
        <path id="Trazado_9444" data-name="Trazado 9444" d="M37.615,26.065a5.367,5.367,0,0,0-.033-.709A1.057,1.057,0,0,0,36.47,24.5a2.978,2.978,0,0,0-.429.153,3.047,3.047,0,0,0-.429-.153,1.058,1.058,0,0,0-1.112.856,5.282,5.282,0,0,0-.033.709h0a.964.964,0,0,0-.006.222c.019.091.038.22.1.255a.232.232,0,0,0,.321-.077.886.886,0,0,1,.211-.2.33.33,0,0,0,.14.012.916.916,0,0,0,.649-.45,2.453,2.453,0,0,0,.153-.287,2.368,2.368,0,0,0,.153.287.916.916,0,0,0,.649.45.329.329,0,0,0,.14-.012.865.865,0,0,1,.211.2.232.232,0,0,0,.321.077c.063-.035.083-.164.1-.255a.934.934,0,0,0-.006-.222Z" transform="translate(-31.203 -17.977)" fill="#f579a8"/>
        <path id="Trazado_9445" data-name="Trazado 9445" d="M37.991,15.093h-1.36a1.454,1.454,0,0,0,.042-.343V14.2a1.455,1.455,0,0,0-1.455-1.455H31.633A1.455,1.455,0,0,0,30.178,14.2v.546a1.458,1.458,0,0,0,.042.343h-1.36c-.149,0-.27.26-.27.581s.12.581.27.581h1.328a3.772,3.772,0,1,0,6.479,0h1.323c.149,0,.27-.26.27-.581S38.14,15.093,37.991,15.093Zm-2.986,5.967c-.019.091-.038.22-.1.255a.232.232,0,0,1-.321-.077.886.886,0,0,0-.211-.2.33.33,0,0,1-.14.012.916.916,0,0,1-.649-.45,2.456,2.456,0,0,1-.153-.287,2.367,2.367,0,0,1-.153.287.916.916,0,0,1-.649.45.329.329,0,0,1-.14-.012.865.865,0,0,0-.211.2.232.232,0,0,1-.321.077c-.063-.035-.083-.164-.1-.255a.934.934,0,0,1,.006-.222h0a5.368,5.368,0,0,1,.033-.709A1.057,1.057,0,0,1,33,19.273a2.978,2.978,0,0,1,.429.153,3.022,3.022,0,0,1,.429-.153,1.058,1.058,0,0,1,1.112.856,5.282,5.282,0,0,1,.033.709h0A1.065,1.065,0,0,1,35.005,21.059Z" transform="translate(-28.591 -12.749)" fill="#f579a8"/>
      </g>
      <g id="Grupo_23673" data-name="Grupo 23673" transform="translate(945.391 3383.338)">
        <g id="Grupo_23671" data-name="Grupo 23671" transform="translate(0 2.864)">
          <path id="Trazado_9455" data-name="Trazado 9455" d="M44.639,44.295c1.866,0,3.4-2.059,3.6-4.707a4.07,4.07,0,0,0,.041-.524l-.583.67c.321-.711-.823-2.522-.823-2.522-1.928,1.394-4.794,0-4.794,0-.865.341-.455,2.774-.455,2.774a1.751,1.751,0,0,0-.576-.27C41.288,42.3,42.8,44.295,44.639,44.295Z" transform="translate(-36.426 -34.536)" fill="none"/>
          <path id="Trazado_9456" data-name="Trazado 9456" d="M58.328,55.2v0a1.07,1.07,0,0,1-.068.279A1.074,1.074,0,0,0,58.328,55.2Z" transform="translate(-46.834 -45.413)" fill="none"/>
          <path id="Trazado_9457" data-name="Trazado 9457" d="M39.684,35.473c0,.04.006.078.009.117.262,2.96,1.993,5.246,4.09,5.246,2.125,0,3.875-2.346,4.1-5.361a4.637,4.637,0,0,0,0-1.328,4.121,4.121,0,0,0-8.2,0,4.572,4.572,0,0,0-.048.662c0,.092,0,.183.009.273C39.653,35.214,39.665,35.345,39.684,35.473Zm1.542-2.354s2.866,1.394,4.794,0c0,0,1.144,1.811.823,2.522l.583-.67a4.069,4.069,0,0,1-.041.524c-.2,2.647-1.734,4.707-3.6,4.707-1.835,0-3.351-1.993-3.589-4.578a1.743,1.743,0,0,1,.576.27S40.361,33.46,41.225,33.119Z" transform="translate(-35.571 -30.443)" fill="#f380ac"/>
          <path id="Trazado_9458" data-name="Trazado 9458" d="M41.366,55.065c-.168-.031-.337-.055-.509-.07h0a.153.153,0,0,1,0,.023.427.427,0,0,1-.008.06v0a1.069,1.069,0,0,1-.068.279,1.085,1.085,0,0,0,.068-.279,1.964,1.964,0,0,1-.173.486,28.284,28.284,0,0,1-2.585,3.815l-.153-2.183a1.307,1.307,0,0,0,.512-.482,1.045,1.045,0,0,0,.164-.542,2.735,2.735,0,0,1-2.289,0,1.028,1.028,0,0,0,.142.5,1.31,1.31,0,0,0,.534.52l-.157,2.241A27.226,27.226,0,0,1,34.4,55.453h0a1.815,1.815,0,0,1-.111-.368h0a.618.618,0,0,1-.008-.067h0c0-.008,0-.015,0-.023h0c-.081.008-.162.017-.243.028l-.014,0a5.423,5.423,0,0,0-4.666,5.37c0,2.994,2.427,2.987,5.421,2.987h5.583c2.994,0,5.422.007,5.422-2.987A5.425,5.425,0,0,0,41.366,55.065Z" transform="translate(-29.352 -45.29)" fill="#f380ac"/>
        </g>
        <g id="Grupo_23672" data-name="Grupo 23672" transform="translate(2.743)">
          <path id="Trazado_9459" data-name="Trazado 9459" d="M45.186,34.535a.139.139,0,0,1-.2,0l-3.333-1.959-.111,1.418,2.889,1.292a1.028,1.028,0,0,0,1.305,0l2.7-1.183L48.3,32.712Z" transform="translate(-39.469 -28.869)" fill="#f380ac"/>
          <path id="Trazado_9460" data-name="Trazado 9460" d="M47.517,25.523l-5.472-2.277a.164.164,0,0,0-.233,0l-5.472,2.277a.165.165,0,0,0,0,.233l.408.236-.026.361a.3.3,0,0,0-.041.574l-.239,3.343.33.989.33-.989-.239-3.343a.3.3,0,0,0-.041-.574l-.024-.332.571.331.023.013,4.421,2.558a.164.164,0,0,0,.233,0l4.2-2.429.246-.142,1.029-.6A.165.165,0,0,0,47.517,25.523Z" transform="translate(-36.291 -23.198)" fill="#f380ac"/>
        </g>
      </g>
    </g>
    <rect id="Rectángulo_5782" data-name="Rectángulo 5782" width="92" height="100" transform="translate(902 3379)" fill="none"/>
  </g>
</svg>
