<svg xmlns="http://www.w3.org/2000/svg" width="139.178" height="90.437" viewBox="0 0 139.178 90.437">
  <g id="Grupo_24827" data-name="Grupo 24827" transform="translate(-211.691 -6239.023)">
    <g id="Grupo_24826" data-name="Grupo 24826" transform="translate(211.691 6240.875)">
      <path id="Trazado_12095" data-name="Trazado 12095" d="M95.017,380.07v-5.931L85.193,352H17.825L8,373.053v7.018" transform="translate(-8 -291.649)" fill="#3e73a3"/>
      <path id="Trazado_12096" data-name="Trazado 12096" d="M136.421,31.86l-4.21-7.018,1.4-5.614L128,15.018l7.018-2.807L132.211,8l12.632,2.807L149.053,8l5.614,2.807L164.491,8l-1.4,4.211,8.421,2.807L167.3,19.228l1.4,5.614-4.211,7.018" transform="translate(-106.947 -8)" fill="#1d2b38"/>
      <path id="Trazado_12097" data-name="Trazado 12097" d="M184.281,84.632l4.211-7.018L187.088,72H153.4L152,77.614l4.21,7.018Z" transform="translate(-126.737 -60.772)" fill="#0e161c"/>
      <path id="Trazado_12098" data-name="Trazado 12098" d="M200,264v15.439l9.825,9.825,9.825-9.825V264Z" transform="translate(-166.316 -219.088)" fill="#f7ac79"/>
      <path id="Trazado_12099" data-name="Trazado 12099" d="M200,287.12c9.166,3.32,16.657-1.261,19.649-3.577v-5.408H200Z" transform="translate(-166.316 -230.743)" fill="#ea8e50"/>
      <path id="Trazado_12100" data-name="Trazado 12100" d="M203.09,105.121l-8.056,6.905a2.807,2.807,0,0,1-1.827.676h-6.344a2.807,2.807,0,0,1-1.827-.676l-8.056-6.905a2.807,2.807,0,0,1-.98-2.131V77.614c0-1.55,4.064-5.614,5.614-5.614H199.86c1.55,0,4.211,4.064,4.211,5.614V102.99A2.807,2.807,0,0,1,203.09,105.121Z" transform="translate(-146.526 -60.772)" fill="#f7ac79"/>
      <path id="Trazado_12101" data-name="Trazado 12101" d="M196.178,111.045l-9.372-6.816a8.793,8.793,0,0,1-3.615-7.437V72h-1.577c-1.55,0-5.614,4.064-5.614,5.614V102.99a2.807,2.807,0,0,0,.98,2.131l7.178,6.153.877.752a2.807,2.807,0,0,0,1.827.676h6.344a2.807,2.807,0,0,0,1.827-.676Z" transform="translate(-146.526 -60.772)" fill="#f9f2ed" opacity="0.2" style="isolation: isolate"/>
      <g id="Grupo_24825" data-name="Grupo 24825" transform="translate(33.684 18.246)">
        <path id="Trazado_12102" data-name="Trazado 12102" d="M206.025,115.8l-.992-.992H200V112h5.614a1.4,1.4,0,0,1,.992.411l1.4,1.4Z" transform="translate(-200 -112)" fill="#562719"/>
        <path id="Trazado_12103" data-name="Trazado 12103" d="M268.328,115.8l-1.985-1.985,1.4-1.4a1.4,1.4,0,0,1,.992-.411h5.614v2.807H269.32Z" transform="translate(-254.704 -112)" fill="#562719"/>
        <path id="Trazado_12104" data-name="Trazado 12104" d="M208,144h2.807v2.807H208Z" transform="translate(-206.596 -138.386)" fill="#562719"/>
        <path id="Trazado_12105" data-name="Trazado 12105" d="M288,144h2.807v2.807H288Z" transform="translate(-272.561 -138.386)" fill="#562719"/>
      </g>
      <path id="Trazado_12106" data-name="Trazado 12106" d="M247.018,168.421H241.4a1.4,1.4,0,0,1-1.362-1.744l1.362-5.446V160h2.807v1.4a1.4,1.4,0,0,1-.042.34l-.968,3.87h3.816Z" transform="translate(-199.298 -133.333)" fill="#8f4c2e"/>
      <path id="Trazado_12107" data-name="Trazado 12107" d="M156.21,156.632l-4.21-4.21V144l4.21,1.4Z" transform="translate(-126.737 -120.14)" fill="#ef9a60"/>
      <path id="Trazado_12108" data-name="Trazado 12108" d="M336,156.632l4.21-2.807V144L336,145.4Z" transform="translate(-278.456 -120.14)" fill="#ef9a60"/>
      <path id="Trazado_12111" data-name="Trazado 12111" d="M112,416h2.807v16.842H112Z" transform="translate(-93.754 -344.421)" fill="#346182"/>
      <path id="Trazado_12112" data-name="Trazado 12112" d="M384,416h2.807v16.842H384Z" transform="translate(-318.035 -344.421)" fill="#346182"/>
      <path id="Trazado_12113" data-name="Trazado 12113" d="M186.667,332.211l-9.825,25.263-9.825-25.263V328L160,332.211v12.632l7.018,1.4-4.21,5.614,7.018,4.21v4.211H183.86V356.07l7.018-4.21-4.211-5.614,7.018-1.4-1.4-12.632L186.667,328Z" transform="translate(-133.333 -271.86)" fill="#7293b7"/>
      <path id="Trazado_12114" data-name="Trazado 12114" d="M200,352l9.825,8.421L219.649,352l-9.825,25.263Z" transform="translate(-166.316 -291.649)" fill="#dfdfdd"/>
      <path id="Trazado_12115" data-name="Trazado 12115" d="M8,373.053v.678a32.627,32.627,0,0,0,10.406-7.114A30.061,30.061,0,0,0,26.832,352H17.825Z" transform="translate(-8 -291.649)" fill="#f9f2ed" opacity="0.2" style="isolation: isolate"/>
      <path id="Trazado_12116" data-name="Trazado 12116" d="M248,40h2.807v5.614H248Z" transform="translate(-205.895 -34.386)" fill="#29506d"/>
      <path id="Trazado_12117" data-name="Trazado 12117" d="M190.609,42.664l-3.253-6.242-2.51,1.255,2.6,4.986Z" transform="translate(-153.82 -31.436)" fill="#29506d"/>
    </g>
    <g id="Grupo_24824" data-name="Grupo 24824" transform="translate(261.969 6239.023)">
      <path id="Trazado_12075" data-name="Trazado 12075" d="M191.583,71.566l-.506,4.55-.341,3.066H147.819l-.341-3.066-.506-4.55a23.584,23.584,0,0,1,1.763-11.892,23.606,23.606,0,0,0,1.878-10.467l-.266-5.3a18.955,18.955,0,0,1,37.863-1.89q.047.944,0,1.89l-.266,5.3a23.606,23.606,0,0,0,1.878,10.467,23.571,23.571,0,0,1,1.763,11.892Z" transform="translate(-123.295 -23.998)" fill="#8f4d2e"/>
      <path id="Trazado_12076" data-name="Trazado 12076" d="M266.306,71.544l-.506,4.55H248.6V59.234l3.066-6.131V40.841a16.877,16.877,0,0,0-12.4-16.264,18.976,18.976,0,0,1,23.672,19.305l-.266,5.3a23.606,23.606,0,0,0,1.878,10.467,23.572,23.572,0,0,1,1.763,11.892Z" transform="translate(-198.017 -23.976)" fill="#82462a"/>
      <path id="Trazado_12077" data-name="Trazado 12077" d="M227.006,228.262a2.145,2.145,0,0,1-2.146-2.144V216H212.6v10.116a2.145,2.145,0,0,1-2.144,2.146H208v9.2h21.459v-9.2Z" transform="translate(-172.747 -179.209)" fill="#fec9a3"/>
      <path id="Trazado_12078" data-name="Trazado 12078" d="M239.055,223.664a8.41,8.41,0,0,0,5.207-1.879V216H232v5.784a8.411,8.411,0,0,0,5.207,1.88Z" transform="translate(-192.148 -179.209)" fill="#feb784"/>
      <path id="Trazado_12079" data-name="Trazado 12079" d="M219.59,89.2V96.86a13.795,13.795,0,1,1-27.59,0V89.2a20.794,20.794,0,0,0,7.07-8.009L199.664,80l.87.726A38.27,38.27,0,0,0,219.59,89.2Z" transform="translate(-159.812 -69.266)" fill="#fec9a3"/>
      <path id="Trazado_12080" data-name="Trazado 12080" d="M288.9,122.091v7.664A13.8,13.8,0,0,1,277.74,143.3a16.8,16.8,0,0,0,5.031-12.011v-10.6A38.247,38.247,0,0,0,288.9,122.091Z" transform="translate(-229.125 -102.16)" fill="#fec093"/>
      <path id="Trazado_12081" data-name="Trazado 12081" d="M218.3,140.6a2.3,2.3,0,1,1,2.3-2.3A2.3,2.3,0,0,1,218.3,140.6Z" transform="translate(-179.214 -114.537)" fill="#7a432a"/>
      <path id="Trazado_12082" data-name="Trazado 12082" d="M290.3,140.6a2.3,2.3,0,1,1,2.3-2.3A2.3,2.3,0,0,1,290.3,140.6Z" transform="translate(-237.419 -114.537)" fill="#7a432a"/>
      <path id="Trazado_12083" data-name="Trazado 12083" d="M244.6,180.6A4.6,4.6,0,0,1,240,176h3.066a1.533,1.533,0,1,0,3.066,0H249.2A4.6,4.6,0,0,1,244.6,180.6Z" transform="translate(-198.615 -146.873)" fill="#f7a468"/>
      <path id="Trazado_12084" data-name="Trazado 12084" d="M224,312h15.328v10.729H224Z" transform="translate(-185.681 -256.816)" fill="#e0e0de"/>
      <path id="Trazado_12085" data-name="Trazado 12085" d="M146.478,319.788a4.652,4.652,0,0,1-5.167-3.087l-10.124-18.993a11.936,11.936,0,0,1-2.138,11.413v12.262h-27.59V309.122a11.956,11.956,0,0,1-2.115-11.555L89.055,316.7a4.651,4.651,0,0,1-8.831-2.92l11.254-28.013A9.194,9.194,0,0,1,100.013,280h6.045l9.2,16.86,9.2-16.86h6.022a9.2,9.2,0,0,1,8.545,5.8l11.126,27.982a4.653,4.653,0,0,1-3.665,6.006Z" transform="translate(-69.271 -230.947)" fill="#ec8c8c"/>
      <path id="Trazado_12086" data-name="Trazado 12086" d="M74.166,398.372,75.272,384h9.2v14.767a5.159,5.159,0,0,1-10.317,0Q74.151,398.569,74.166,398.372Z" transform="translate(-64.542 -315.021)" fill="#f59898"/>
      <path id="Trazado_12087" data-name="Trazado 12087" d="M38.335,266.922a2.982,2.982,0,0,0-1.944,4.226l1.4,2.806H32.3a9.2,9.2,0,0,1-4.113-.971l-1.527-.764A1.839,1.839,0,0,0,24,273.864v4.326a3.065,3.065,0,0,0,1.695,2.742l2.495,1.248a9.2,9.2,0,0,0,4.113.971H43.926v-9.2l-2.1-5.247a2.982,2.982,0,0,0-3.492-1.784Z" transform="translate(-24 -220.303)" fill="#fec9a3"/>
      <path id="Trazado_12088" data-name="Trazado 12088" d="M80,352h9.2v6.131H80Z" transform="translate(-69.271 -289.152)" fill="#e0e0de"/>
      <path id="Trazado_12089" data-name="Trazado 12089" d="M239.145,323.216a4.652,4.652,0,0,1-5.167-3.087l-10.124-18.993a11.936,11.936,0,0,1-2.138,11.413v12.262H194.63c12.651-8.262,23.325-18.746,32.284-40.572a9.181,9.181,0,0,1,4.771,4.987L242.81,317.21a4.653,4.653,0,0,1-3.665,6.006Z" transform="translate(-161.938 -234.375)" fill="#e07f7f"/>
      <path id="Trazado_12090" data-name="Trazado 12090" d="M311.328,360.524,296,357.459V336l15.328,3.065Z" transform="translate(-243.886 -276.218)" fill="#a36548"/>
      <path id="Trazado_12091" data-name="Trazado 12091" d="M408,360.524l15.328-3.065V336L408,339.065Z" transform="translate(-334.428 -276.218)" fill="#8f4d2e"/>
      <path id="Trazado_12092" data-name="Trazado 12092" d="M376,352h6.131v21.459H376Z" transform="translate(-308.559 -289.152)" fill="#95573a"/>
      <path id="Trazado_12093" data-name="Trazado 12093" d="M314.393,319.664a5.428,5.428,0,0,0-4.536-5.354L296,312v4.6l15.328,3.065h3.065a5.428,5.428,0,0,1,4.536-5.354L332.786,312v4.6l-15.328,3.065Z" transform="translate(-243.886 -256.816)" fill="#d4bd81"/>
      <path id="Trazado_12094" data-name="Trazado 12094" d="M439.916,425.051l-6.131,1.022A1.533,1.533,0,0,1,432,424.561v-5.7a2,2,0,0,1,1.667-1.968l5.206-.868A2,2,0,0,1,441.2,418v5.543A1.533,1.533,0,0,1,439.916,425.051Z" transform="translate(-353.829 -340.89)" fill="#fec9a3"/>
    </g>
  </g>
</svg>
