<svg xmlns="http://www.w3.org/2000/svg" width="115" height="99.324" viewBox="0 0 115 99.324">
  <g id="Grupo_24669" data-name="Grupo 24669" transform="translate(0 -34.897)">
    <path id="Trazado_11524" data-name="Trazado 11524" d="M97.8,45.456c0,.174,0,.346-.013.517a10.558,10.558,0,0,1-21.091,0c-.009-.172-.013-.343-.013-.517a10.559,10.559,0,0,1,21.117,0Z" transform="translate(-59.462 -0.001)" fill="#e6e6e6"/>
    <path id="Trazado_11525" data-name="Trazado 11525" d="M80.874,45.455A10.561,10.561,0,0,1,89.341,35.1a10.558,10.558,0,1,0,0,20.7A10.561,10.561,0,0,1,80.874,45.455Z" transform="translate(-59.466 0)" fill="#d3d3d3"/>
    <path id="Trazado_11526" data-name="Trazado 11526" d="M62.149,337.934v19.832h-50.2V337.934A15,15,0,0,1,24.073,323.2h25.95a15,15,0,0,1,12.125,14.736Z" transform="translate(-9.264 -223.546)" fill="#fd5d65"/>
    <g id="Grupo_24656" data-name="Grupo 24656" transform="translate(2.683 99.652)">
      <path id="Trazado_11527" data-name="Trazado 11527" d="M30.455,323.2H24.07a15.019,15.019,0,0,0-12.125,14.737v19.832H18.33V337.937A15.019,15.019,0,0,1,30.455,323.2Z" transform="translate(-11.945 -323.2)" fill="#e54e5c"/>
      <path id="Trazado_11528" data-name="Trazado 11528" d="M86.57,323.792l-7.711,5.6a12.643,12.643,0,0,1-14.862,0l-7.711-5.6a15.082,15.082,0,0,1,2.166-.594H84.4A15.072,15.072,0,0,1,86.57,323.792Z" transform="translate(-46.327 -323.198)" fill="#e54e5c"/>
    </g>
    <g id="Grupo_24657" data-name="Grupo 24657" transform="translate(0 70.554)">
      <path id="Trazado_11529" data-name="Trazado 11529" d="M4.9,203.919a5.137,5.137,0,0,1,.233-10.269,5,5,0,0,1,.753.055" transform="translate(0 -193.65)" fill="#e0b394"/>
      <path id="Trazado_11530" data-name="Trazado 11530" d="M222.148,203.919a5.137,5.137,0,0,0-.233-10.269,5.287,5.287,0,0,0-.753.055" transform="translate(-171.487 -193.65)" fill="#e0b394"/>
    </g>
    <path id="Trazado_11531" data-name="Trazado 11531" d="M100.2,302.523v12.231a9.582,9.582,0,1,1-19.164,0V302.523Z" transform="translate(-62.837 -207.515)" fill="#f7cba4"/>
    <path id="Trazado_11532" data-name="Trazado 11532" d="M100.2,302.523V311.8l-2.151,1.563a12.636,12.636,0,0,1-14.862,0L81.037,311.8v-9.276Z" transform="translate(-62.835 -207.515)" fill="#e0b394"/>
    <path id="Trazado_11533" data-name="Trazado 11533" d="M35.7,139.475l-9.038-6.567a16.665,16.665,0,0,1-6.792-15.085L21.432,101.6A21.8,21.8,0,0,1,43.126,81.9h0A21.8,21.8,0,0,1,64.82,101.6l1.568,16.223A16.665,16.665,0,0,1,59.6,132.909l-9.038,6.567A12.642,12.642,0,0,1,35.7,139.475Z" transform="translate(-15.343 -36.448)" fill="#f7cba4"/>
    <path id="Trazado_11534" data-name="Trazado 11534" d="M25.493,121.04a10.059,10.059,0,0,0,2.34,7.068l9.446,11.608a7.524,7.524,0,0,0,1.658,1.475,12.554,12.554,0,0,1-3.239-1.7l-9.038-6.566a16.664,16.664,0,0,1-6.79-15.085l1.566-16.223A21.791,21.791,0,0,1,42.8,81.927c-6.825.165-14.554,6.6-14.957,13.451Z" transform="translate(-15.347 -36.467)" fill="#e0b394"/>
    <path id="Trazado_11535" data-name="Trazado 11535" d="M97.836,74.817a10.558,10.558,0,0,1-21.091,0A21.719,21.719,0,0,1,86.767,72.1c.066,0,.132,0,.2,0,.108,0,.216,0,.326,0A21.693,21.693,0,0,1,97.836,74.817Z" transform="translate(-59.507 -28.845)" fill="#d3d3d3"/>
    <path id="Trazado_11536" data-name="Trazado 11536" d="M70.763,104.309c-10.412,0-16.229-11.079-16.229-11.079s-4.862,8.994-21.622,8.781a52.806,52.806,0,0,1-5.8-.407h0a21.8,21.8,0,0,1,21.17-19.693c.066,0,.132,0,.2,0,.108,0,.216,0,.326,0A21.8,21.8,0,0,1,70.5,101.6Z" transform="translate(-21.022 -36.449)" fill="#e6e6e6"/>
    <path id="Trazado_11537" data-name="Trazado 11537" d="M48.481,81.923c-6.826.165-14.556,6.6-14.959,13.451l-.61,6.652a52.811,52.811,0,0,1-5.8-.407h0a21.8,21.8,0,0,1,21.17-19.693C48.349,81.923,48.415,81.923,48.481,81.923Z" transform="translate(-21.023 -36.464)" fill="#d3d3d3"/>
    <g id="Grupo_24658" data-name="Grupo 24658" transform="translate(12.089 73.858)">
      <circle id="Elipse_1513" data-name="Elipse 1513" cx="6.165" cy="6.165" r="6.165" transform="translate(19.061)" fill="#d7e9f4"/>
      <circle id="Elipse_1514" data-name="Elipse 1514" cx="6.165" cy="6.165" r="6.165" fill="#d7e9f4"/>
    </g>
    <g id="Grupo_24659" data-name="Grupo 24659" transform="translate(15.612 77.601)">
      <path id="Trazado_11538" data-name="Trazado 11538" d="M158.325,227.664h-2.641a1.321,1.321,0,0,1,0-2.642h2.641a1.321,1.321,0,1,1,0,2.642Z" transform="translate(-135.304 -225.022)" fill="#b6cdd8"/>
      <path id="Trazado_11539" data-name="Trazado 11539" d="M73.47,227.664H70.829a1.321,1.321,0,0,1,0-2.642H73.47a1.321,1.321,0,0,1,0,2.642Z" transform="translate(-69.508 -225.022)" fill="#b6cdd8"/>
    </g>
    <path id="Trazado_11540" data-name="Trazado 11540" d="M115.925,241.084l2.866-.764a1.654,1.654,0,0,0,1.173-2.025l-1.953-7.331" transform="translate(-89.887 -152.029)" fill="#e0b394"/>
    <path id="Trazado_11541" data-name="Trazado 11541" d="M65.413,204.081a1.1,1.1,0,0,0-1.553-.114L58.5,208.594a7.266,7.266,0,0,0-14.13,1.028H39.674a7.266,7.266,0,0,0-14.13-1.028l-5.363-4.627a1.1,1.1,0,0,0-1.438,1.667l6.5,5.611a7.265,7.265,0,0,0,14.428.579h4.694a7.265,7.265,0,0,0,14.428-.579l6.5-5.611A1.1,1.1,0,0,0,65.413,204.081ZM32.492,215.787a5.064,5.064,0,1,1,5.064-5.064A5.07,5.07,0,0,1,32.492,215.787Zm19.059,0a5.064,5.064,0,1,1,5.064-5.064A5.07,5.07,0,0,1,51.551,215.787Z" transform="translate(-14.238 -130.7)" fill="#ed7c58"/>
    <g id="Grupo_24660" data-name="Grupo 24660" transform="translate(11.048 113.241)">
      <path id="Trazado_11542" data-name="Trazado 11542" d="M52.491,404.679h-3.3L50.84,383.7Z" transform="translate(-49.188 -383.7)" fill="#e54e5c"/>
      <path id="Trazado_11543" data-name="Trazado 11543" d="M186.79,404.679h-3.3l1.652-20.979Z" transform="translate(-153.322 -383.7)" fill="#e54e5c"/>
    </g>
    <path id="Trazado_11544" data-name="Trazado 11544" d="M96.984,288.678c1.273.29,2.276.519,3.248.642a20.3,20.3,0,0,0,2.752.192,20.77,20.77,0,0,0,2.75-.2c.972-.124,1.974-.351,3.25-.637a5.15,5.15,0,0,1-2.256,3.04,6.926,6.926,0,0,1-7.486,0A5.172,5.172,0,0,1,96.984,288.678Z" transform="translate(-75.201 -196.78)" fill="#4d4d4d"/>
    <path id="Trazado_11545" data-name="Trazado 11545" d="M326.756,298.02v28.8h-50.2v-28.8a15.019,15.019,0,0,1,12.125-14.737h25.954a15.013,15.013,0,0,1,12.121,14.737Z" transform="translate(-214.438 -192.596)" fill="#ad653d"/>
    <path id="Trazado_11546" data-name="Trazado 11546" d="M295.062,283.279h-6.385a15.019,15.019,0,0,0-12.125,14.737v28.8h6.385v-28.8A15.019,15.019,0,0,1,295.062,283.279Z" transform="translate(-214.436 -192.593)" fill="#965535"/>
    <g id="Grupo_24661" data-name="Grupo 24661" transform="translate(59.433 62.24)">
      <path id="Trazado_11547" data-name="Trazado 11547" d="M269.51,166.9a5.137,5.137,0,0,1,.233-10.269,5,5,0,0,1,.753.055" transform="translate(-264.607 -156.632)" fill="#e0b394"/>
      <path id="Trazado_11548" data-name="Trazado 11548" d="M486.755,166.9a5.137,5.137,0,0,0-.233-10.269,5.284,5.284,0,0,0-.753.055" transform="translate(-436.094 -156.632)" fill="#e0b394"/>
    </g>
    <path id="Trazado_11549" data-name="Trazado 11549" d="M300.3,102.459l-9.038-6.567a16.666,16.666,0,0,1-6.792-15.085l1.568-16.223a21.8,21.8,0,0,1,21.694-19.7h0a21.8,21.8,0,0,1,21.694,19.7l1.568,16.223A16.665,16.665,0,0,1,324.2,95.893l-9.038,6.567A12.642,12.642,0,0,1,300.3,102.459Z" transform="translate(-220.517 -7.746)" fill="#f7cba4"/>
    <g id="Grupo_24662" data-name="Grupo 24662" transform="translate(63.879 37.146)">
      <path id="Trazado_11550" data-name="Trazado 11550" d="M340.8,196.829s.664,4.563-4.951,6.214c0,0,3.966-3.584,2.312-5.725" transform="translate(-324.297 -162.707)" fill="#e0b394"/>
      <path id="Trazado_11551" data-name="Trazado 11551" d="M290.1,84.023a10.059,10.059,0,0,0,2.34,7.068l9.446,11.608a7.52,7.52,0,0,0,1.658,1.475,12.556,12.556,0,0,1-3.239-1.7l-9.039-6.566a16.664,16.664,0,0,1-6.79-15.085L286.044,64.6A21.791,21.791,0,0,1,307.412,44.91c-6.826.165-14.554,6.6-14.957,13.451Z" transform="translate(-284.401 -44.91)" fill="#e0b394"/>
    </g>
    <path id="Trazado_11552" data-name="Trazado 11552" d="M335.726,192.78h-2.641a1.651,1.651,0,1,1,0-3.3h2.641a1.651,1.651,0,0,1,0,3.3Z" transform="translate(-256.99 -119.86)" fill="gray"/>
    <path id="Trazado_11553" data-name="Trazado 11553" d="M418.626,196.829s-.664,4.563,4.951,6.214c0,0-3.966-3.584-2.312-5.725" transform="translate(-324.58 -125.561)" fill="#e0b394"/>
    <g id="Grupo_24663" data-name="Grupo 24663" transform="translate(72.208 61.672)">
      <path id="Trazado_11554" data-name="Trazado 11554" d="M417.744,158.525a1.426,1.426,0,0,1-1.012-.419,3.913,3.913,0,0,0-5.527,0,1.431,1.431,0,1,1-2.024-2.024,6.778,6.778,0,0,1,9.575,0,1.431,1.431,0,0,1-1.012,2.443Z" transform="translate(-389.159 -154.102)" fill="#e6e6e6"/>
      <path id="Trazado_11555" data-name="Trazado 11555" d="M330.467,158.525a1.426,1.426,0,0,1-1.012-.419,3.912,3.912,0,0,0-5.527,0,1.431,1.431,0,1,1-2.024-2.024,6.778,6.778,0,0,1,9.575,0,1.431,1.431,0,0,1-1.012,2.443Z" transform="translate(-321.485 -154.102)" fill="#e6e6e6"/>
    </g>
    <rect id="Rectángulo_5736" data-name="Rectángulo 5736" width="2.642" height="35.269" transform="translate(85.897 98.95)" fill="#965535"/>
    <path id="Trazado_11556" data-name="Trazado 11556" d="M423,192.78h-2.641a1.651,1.651,0,0,1,0-3.3H423a1.651,1.651,0,0,1,0,3.3Z" transform="translate(-324.665 -119.86)" fill="gray"/>
    <path id="Trazado_11557" data-name="Trazado 11557" d="M346.11,275.494a12.82,12.82,0,0,1-.253,2.166,13.3,13.3,0,0,1-8.805,10.531l-1.1-3.523-7.046,8.367-7.046-8.366-1.1,3.523a13.312,13.312,0,0,1-8.807-10.531,12.826,12.826,0,0,1-.253-2.166c5.143,2.31,12.015,3.12,15.7-1.59a10.44,10.44,0,0,0,1.51-2.717,4.79,4.79,0,0,0,2.433,2.717c2.886,1.411,7.294.341,10.547,0a14.884,14.884,0,0,1,4.216,1.508C346.105,275.439,346.107,275.466,346.11,275.494Z" transform="translate(-241.688 -183.218)" fill="#965535"/>
    <g id="Grupo_24664" data-name="Grupo 24664" transform="translate(66.13 77.824)">
      <path id="Trazado_11558" data-name="Trazado 11558" d="M336.6,235.636a20.378,20.378,0,0,1-3.88,2.261c-5.971,2.682-14.27,3.342-17.2-4.307-2.028,5.278-6.608,6.6-11.214,6.031A21.252,21.252,0,0,1,298.3,237.9a20.374,20.374,0,0,1-3.88-2.261c4.571,0,6.407-4.89,11.088-7.825l0,0a13.535,13.535,0,0,1,2.061-1.064c2.887-1.189,5-.742,6.434.09a4.316,4.316,0,0,1,1.5,1.458,4.427,4.427,0,0,1,1.638-1.539,7.033,7.033,0,0,1,6.291-.009C329.741,229.337,331.41,235.636,336.6,235.636Z" transform="translate(-294.424 -226.017)" fill="#e6e6e6"/>
      <path id="Trazado_11559" data-name="Trazado 11559" d="M346.11,264.044a12.82,12.82,0,0,1-.253,2.166,13.3,13.3,0,0,1-8.805,10.531l-1.1-3.523-7.046,8.367-7.046-8.367-.663,2.12-.438,1.4a13.312,13.312,0,0,1-8.807-10.531,12.826,12.826,0,0,1-.253-2.166,21.568,21.568,0,0,0,5.3,1.623c4.833.793,9.774-.388,11.9-5.929C331.84,267.387,340.139,266.726,346.11,264.044Z" transform="translate(-307.818 -252.164)" fill="#e6e6e6"/>
    </g>
    <path id="Trazado_11560" data-name="Trazado 11560" d="M346.11,264.043a12.82,12.82,0,0,1-.253,2.166c-5.949,2.587-14.058,3.122-16.952-4.419-2.9,7.541-11,7.006-16.954,4.419a12.826,12.826,0,0,1-.253-2.166c5.971,2.682,14.27,3.342,17.207-4.307C331.84,267.385,340.139,266.725,346.11,264.043Z" transform="translate(-241.688 -174.338)" fill="#ccc"/>
    <g id="Grupo_24665" data-name="Grupo 24665" transform="translate(62.665 48.871)">
      <path id="Trazado_11561" data-name="Trazado 11561" d="M456.606,101.516a1.655,1.655,0,0,1-.286-.025L450,100.39a1.651,1.651,0,0,1,.567-3.254l6.316,1.1a1.652,1.652,0,0,1-.282,3.279Z" transform="translate(-410.534 -97.111)" fill="#e6e6e6"/>
      <path id="Trazado_11562" data-name="Trazado 11562" d="M464.311,128.426A1.665,1.665,0,0,1,464,128.4l-5.864-1.1a1.651,1.651,0,0,1,.609-3.246l5.864,1.1a1.652,1.652,0,0,1-.3,3.275Z" transform="translate(-416.859 -117.977)" fill="#e6e6e6"/>
      <path id="Trazado_11563" data-name="Trazado 11563" d="M286.791,101.516a1.652,1.652,0,0,1-.282-3.279l6.316-1.1a1.651,1.651,0,0,1,.567,3.254l-6.316,1.1A1.65,1.65,0,0,1,286.791,101.516Z" transform="translate(-283.761 -97.111)" fill="#e6e6e6"/>
      <path id="Trazado_11564" data-name="Trazado 11564" d="M280.646,128.427a1.652,1.652,0,0,1-.3-3.275l5.864-1.1a1.651,1.651,0,1,1,.609,3.246l-5.864,1.1A1.648,1.648,0,0,1,280.646,128.427Z" transform="translate(-278.996 -117.978)" fill="#e6e6e6"/>
    </g>
    <g id="Grupo_24666" data-name="Grupo 24666" transform="translate(70.481 105.597)">
      <path id="Trazado_11565" data-name="Trazado 11565" d="M317.1,378.29h-3.3l1.652-28.623Z" transform="translate(-313.795 -349.667)" fill="#965535"/>
      <path id="Trazado_11566" data-name="Trazado 11566" d="M451.4,378.29h-3.3l1.652-28.623Z" transform="translate(-417.929 -349.667)" fill="#965535"/>
    </g>
    <path id="Trazado_11567" data-name="Trazado 11567" d="M388.325,201.209l2.866-.764a1.655,1.655,0,0,0,1.173-2.025l-1.953-7.331" transform="translate(-301.104 -121.11)" fill="#e0b394"/>
    <g id="Grupo_24667" data-name="Grupo 24667" transform="translate(90.963 109.962)">
      <circle id="Elipse_1515" data-name="Elipse 1515" cx="1.651" cy="1.651" r="1.651" fill="#4d4d4d"/>
      <circle id="Elipse_1516" data-name="Elipse 1516" cx="1.651" cy="1.651" r="1.651" transform="translate(0 7.76)" fill="#4d4d4d"/>
      <circle id="Elipse_1517" data-name="Elipse 1517" cx="1.651" cy="1.651" r="1.651" transform="translate(0 15.553)" fill="#4d4d4d"/>
    </g>
    <g id="Grupo_24668" data-name="Grupo 24668" transform="translate(66.13 79.618)">
      <path id="Trazado_11568" data-name="Trazado 11568" d="M321.2,290.207l-.438,1.4a13.312,13.312,0,0,1-8.807-10.531,12.822,12.822,0,0,1-.253-2.166,21.57,21.57,0,0,0,5.3,1.623,3.261,3.261,0,0,1,.123.907A10.751,10.751,0,0,0,321.2,290.207Z" transform="translate(-307.819 -268.825)" fill="#ccc"/>
      <path id="Trazado_11569" data-name="Trazado 11569" d="M300.76,242.326a6.128,6.128,0,0,0,3.538,3.488,21.251,21.251,0,0,1-5.993-1.724,20.372,20.372,0,0,1-3.88-2.261c4.571,0,6.407-4.89,11.088-7.825C305.355,234.153,299.886,239.409,300.76,242.326Z" transform="translate(-294.425 -234.003)" fill="#ccc"/>
    </g>
  </g>
</svg>
