<svg xmlns="http://www.w3.org/2000/svg" width="78" height="78" viewBox="0 0 78 78">
  <g id="Grupo_24837" data-name="Grupo 24837" transform="translate(-510 -1785)">
    <g id="Elipse_1492" data-name="Elipse 1492" transform="translate(510 1785)" fill="#fff" stroke="#f579a8" stroke-width="1.5">
      <circle cx="39" cy="39" r="39" stroke="none"/>
      <circle cx="39" cy="39" r="38.25" fill="none"/>
    </g>
    <g id="Grupo_24549" data-name="Grupo 24549" transform="translate(525.674 1799.144)">
      <path id="Trazado_11342" data-name="Trazado 11342" d="M64.192,366.841V356.652H28.166l-4.776,4.7v4.719l4.577,3.184H64.192Z" transform="translate(-21.008 -324.866)" fill="#fdd79b"/>
      <path id="Trazado_11343" data-name="Trazado 11343" d="M34.187,368.324a7.6,7.6,0,0,1,1.129-11.672h-7.15l-4.776,4.7v4.719l4.577,3.184h7.349a7.631,7.631,0,0,1-1.129-.93Z" transform="translate(-21.008 -324.866)" fill="#fccd7f"/>
      <g id="Grupo_24544" data-name="Grupo 24544" transform="translate(0.326 30.441)">
        <g id="Grupo_24543" data-name="Grupo 24543" transform="translate(0)">
          <g id="Grupo_24542" data-name="Grupo 24542">
            <path id="Trazado_11344" data-name="Trazado 11344" d="M45.9,353.93v2.127a.684.684,0,0,1-.685.685H7.922a7.6,7.6,0,1,1,0-15.191H45.215a.685.685,0,0,1,.685.685v2.126a.684.684,0,0,1-.685.685H7.994a4.158,4.158,0,0,0-4.171,4.171,4.1,4.1,0,0,0,4.1,4.027H45.215a.684.684,0,0,1,.685.685Z" transform="translate(-0.326 -341.551)" fill="#fec165"/>
          </g>
        </g>
      </g>
      <path id="Trazado_11345" data-name="Trazado 11345" d="M7.995,345.048h4.193a7.591,7.591,0,0,1,6.139-3.441.14.14,0,0,0,.054-.012l.095-.043H8.019a7.658,7.658,0,0,0-7.692,7.507,7.6,7.6,0,0,0,7.6,7.685h9.754a7.6,7.6,0,0,1-5.555-3.5h-4.2a4.1,4.1,0,0,1-4.1-4.027,4.158,4.158,0,0,1,4.171-4.171Z" transform="translate(0 -311.111)" fill="#fdb441"/>
      <path id="Trazado_11346" data-name="Trazado 11346" d="M151.069,434.164l-2.461-1.018-2.461,1.018a.363.363,0,0,1-.5-.336v-7.052h5.926v7.052A.363.363,0,0,1,151.069,434.164Z" transform="translate(-132.368 -388.74)" fill="#fee45a"/>
      <g id="Grupo_24545" data-name="Grupo 24545" transform="translate(11.059 37.346)">
        <path id="Trazado_11347" data-name="Trazado 11347" d="M130.1,420.414h-8.656a.69.69,0,0,1,0-1.38H130.1a.69.69,0,1,1,0,1.38Z" transform="translate(-120.759 -419.034)" fill="#fccd7f"/>
      </g>
    </g>
    <g id="Grupo_24552" data-name="Grupo 24552" transform="translate(534.002 1778.574)">
      <g id="Grupo_24550" data-name="Grupo 24550" transform="translate(-0.002 38.438)">
        <path id="Trazado_11348" data-name="Trazado 11348" d="M19.379,319.7l-.041.057a1.314,1.314,0,0,1-1.065.545H13.8a1.756,1.756,0,0,0-1.768,1.684,1.732,1.732,0,0,0,1.732,1.781H8.257l-5.251-5.328a1.756,1.756,0,0,0-2.525,2.44l5.72,5.99a5.04,5.04,0,0,0,3.645,1.559H30.374a.624.624,0,0,0,.624-.624v-6.879a.624.624,0,0,0-.624-.624h-3.25a1.314,1.314,0,0,1-1.075-.559,4.094,4.094,0,0,0-6.67-.043Z" transform="translate(0.002 -317.914)" fill="#ffe5ef"/>
        <path id="Trazado_11349" data-name="Trazado 11349" d="M323.5,357.354c-.384,3.866-3.817,7.063-8.422,8.126h11.3a.624.624,0,0,0,.624-.624v-6.879a.624.624,0,0,0-.624-.624H323.5Z" transform="translate(-296 -354.966)" fill="#ffcbbe"/>
      </g>
      <g id="Grupo_24551" data-name="Grupo 24551" transform="translate(3.429 20.426)">
        <path id="Trazado_11350" data-name="Trazado 11350" d="M67.84,40.458a1.247,1.247,0,0,0,1.769,0l9.368-9.423a6.214,6.214,0,1,0-10.253-6.468,6.214,6.214,0,1,0-10.253,6.468Z" transform="translate(-56.652 -20.426)" fill="#e7a2cb"/>
        <path id="Trazado_11351" data-name="Trazado 11351" d="M174.486,50.615c-.558,3.867-3.532,7.984-8.14,10.644a18.323,18.323,0,0,1-8.037,2.5l5.033,5.063a1.247,1.247,0,0,0,1.769,0l9.368-9.423A6.214,6.214,0,0,0,174.486,50.615Z" transform="translate(-152.154 -48.787)" fill="#e278b1"/>
        <path id="Trazado_11352" data-name="Trazado 11352" d="M194.156,132.661h-1.623a.624.624,0,0,1-.624-.624v-1.623a.624.624,0,0,0-.624-.624h-1.454a.624.624,0,0,0-.624.624v1.623a.624.624,0,0,1-.624.624h-1.623a.624.624,0,0,0-.624.624v1.454a.624.624,0,0,0,.624.624h1.623a.624.624,0,0,1,.624.624v1.623a.624.624,0,0,0,.624.624h1.454a.624.624,0,0,0,.624-.624v-1.623a.624.624,0,0,1,.624-.624h1.623a.624.624,0,0,0,.624-.624v-1.454A.624.624,0,0,0,194.156,132.661Z" transform="translate(-178.486 -123.169)" fill="#ecf4ff"/>
      </g>
      <path id="Trazado_11353" data-name="Trazado 11353" d="M209.6,399.595a.468.468,0,0,0-.468-.468h-7.181a1.732,1.732,0,0,0,1.539.936h5.643a.468.468,0,0,0,.468-.468Z" transform="translate(-189.722 -355.772)" fill="#ffcbbe"/>
    </g>
  </g>
</svg>
