<svg xmlns="http://www.w3.org/2000/svg" width="368" height="267.53" viewBox="0 0 368 267.53">
  <g id="Grupo_24849" data-name="Grupo 24849" transform="translate(-767 -2374.235)">
    <g id="Grupo_24840" data-name="Grupo 24840" transform="translate(767 2374.235)">
      <path id="Trazado_9170" data-name="Trazado 9170" d="M177.011,297.409c57.528,14.434,151.571,16.046,215.044-14.339,58.632-28.063,70.7-131.242,30.461-189.767-28.6-41.59-83.383-58.182-135.918-52.287-61.989,6.954-78.434,49.819-119.568,80.617-25.595,19.161-77.87,14.447-87.742,70.357C68.045,255.711,137.292,287.441,177.011,297.409Z" transform="translate(-78.07 -39.862)" fill="#ffe5ef"/>
    </g>
    <g id="Grupo_24848" data-name="Grupo 24848">
      <path id="Trazado_12122" data-name="Trazado 12122" d="M-82.153-3.779a1.408,1.408,0,0,0-.532-1.172,6.615,6.615,0,0,0-1.87-.869,17.941,17.941,0,0,1-2.187-.869q-2.764-1.357-2.764-3.73a3.345,3.345,0,0,1,.688-2.085,4.453,4.453,0,0,1,1.948-1.406,7.582,7.582,0,0,1,2.832-.5,6.632,6.632,0,0,1,2.749.547A4.352,4.352,0,0,1-79.4-12.31,4.068,4.068,0,0,1-78.726-10h-3.418a1.719,1.719,0,0,0-.532-1.348,2.075,2.075,0,0,0-1.44-.479,2.339,2.339,0,0,0-1.45.405,1.243,1.243,0,0,0-.532,1.03,1.252,1.252,0,0,0,.586.991,7.389,7.389,0,0,0,2.061.918A12.623,12.623,0,0,1-81.03-7.461a4.07,4.07,0,0,1,2.3,3.662,3.472,3.472,0,0,1-1.406,2.93A6.255,6.255,0,0,1-83.989.2a7.653,7.653,0,0,1-3.13-.62,4.719,4.719,0,0,1-2.109-1.7,4.427,4.427,0,0,1-.708-2.485H-86.5a2.181,2.181,0,0,0,.591,1.685,2.793,2.793,0,0,0,1.919.542,2.206,2.206,0,0,0,1.343-.366A1.209,1.209,0,0,0-82.153-3.779Zm11.328,2.637A3.393,3.393,0,0,1-73.647.2,3.328,3.328,0,0,1-76.279-.815a4.251,4.251,0,0,1-.894-2.905v-6.846h3.291V-3.7a1.183,1.183,0,0,0,1.318,1.357,1.72,1.72,0,0,0,1.611-.811v-7.412h3.311V0h-3.086Zm8.525-9.424V.361a3.836,3.836,0,0,1-1.074,2.891,4.127,4.127,0,0,1-2.969,1.016A7.009,7.009,0,0,1-67.9,4.1V1.611a6.3,6.3,0,0,0,.928.088A1.2,1.2,0,0,0-65.6.342V-10.566Zm-3.545-2.725a1.469,1.469,0,0,1,.508-1.152,1.916,1.916,0,0,1,1.318-.449,1.916,1.916,0,0,1,1.318.449,1.469,1.469,0,0,1,.508,1.152,1.469,1.469,0,0,1-.508,1.152,1.916,1.916,0,0,1-1.318.449,1.916,1.916,0,0,1-1.318-.449A1.469,1.469,0,0,1-65.845-13.291ZM-55.327.2a5.432,5.432,0,0,1-3.936-1.45,5.008,5.008,0,0,1-1.5-3.774V-5.3a6.489,6.489,0,0,1,.6-2.861,4.395,4.395,0,0,1,1.753-1.919,5.292,5.292,0,0,1,2.734-.679A4.574,4.574,0,0,1-52.163-9.38a5.43,5.43,0,0,1,1.289,3.853v1.279h-6.543a2.372,2.372,0,0,0,.771,1.4,2.3,2.3,0,0,0,1.543.508,2.958,2.958,0,0,0,2.441-1.094l1.5,1.777A4.2,4.2,0,0,1-52.9-.308,5.891,5.891,0,0,1-55.327.2ZM-55.7-8.223q-1.445,0-1.719,1.914h3.32v-.254a1.63,1.63,0,0,0-.4-1.226A1.593,1.593,0,0,0-55.7-8.223Zm9.98-4.971v2.627h1.738v2.285h-1.738v4.834a1.234,1.234,0,0,0,.215.83,1.152,1.152,0,0,0,.85.234,4.828,4.828,0,0,0,.82-.059V-.088A6.074,6.074,0,0,1-45.688.2a3.448,3.448,0,0,1-2.51-.8,3.282,3.282,0,0,1-.811-2.432V-8.281h-1.348v-2.285h1.348v-2.627Zm2.324,7.813A6.236,6.236,0,0,1-42.778-8.2a4.4,4.4,0,0,1,1.768-1.9,5.323,5.323,0,0,1,2.705-.664,4.858,4.858,0,0,1,3.74,1.47,5.64,5.64,0,0,1,1.367,4v.117A5.472,5.472,0,0,1-34.57-1.255,4.871,4.871,0,0,1-38.286.2a4.927,4.927,0,0,1-3.623-1.353,5.29,5.29,0,0,1-1.475-3.667Zm3.291.205a3.932,3.932,0,0,0,.459,2.148,1.529,1.529,0,0,0,1.357.684q1.758,0,1.8-2.705v-.332q0-2.842-1.816-2.842-1.65,0-1.787,2.451Zm13.887,2.207a.76.76,0,0,0-.439-.674,6.685,6.685,0,0,0-1.67-.527,7.615,7.615,0,0,1-2.031-.718,3.4,3.4,0,0,1-1.221-1.079A2.577,2.577,0,0,1-32-7.422a2.92,2.92,0,0,1,1.2-2.4,4.948,4.948,0,0,1,3.145-.942,5.482,5.482,0,0,1,3.359.947,2.962,2.962,0,0,1,1.27,2.49h-3.3q0-1.27-1.338-1.27a1.326,1.326,0,0,0-.869.288.892.892,0,0,0-.352.718.819.819,0,0,0,.43.713,4.06,4.06,0,0,0,1.372.449,11.857,11.857,0,0,1,1.655.42,3.007,3.007,0,0,1,2.383,2.939A2.767,2.767,0,0,1-24.326-.713,5.631,5.631,0,0,1-27.651.2a5.747,5.747,0,0,1-2.422-.488,4.05,4.05,0,0,1-1.66-1.328,3.007,3.007,0,0,1-.6-1.768h3.076a1.272,1.272,0,0,0,.488,1.069,2.009,2.009,0,0,0,1.2.337,1.58,1.58,0,0,0,1.011-.273A.875.875,0,0,0-26.216-2.969Zm9.277-2.393a6.455,6.455,0,0,1,1.084-3.955,3.568,3.568,0,0,1,3.027-1.445,3.035,3.035,0,0,1,2.383,1.113V-15h3.3V0H-10.1l-.166-1.133A3.116,3.116,0,0,1-12.847.2,3.562,3.562,0,0,1-15.835-1.25,6.659,6.659,0,0,1-16.938-5.361Zm3.291.205q0,2.813,1.641,2.813a1.62,1.62,0,0,0,1.563-.918V-7.285a1.576,1.576,0,0,0-1.543-.937q-1.523,0-1.65,2.461ZM-.161.2A5.432,5.432,0,0,1-4.1-1.255,5.008,5.008,0,0,1-5.6-5.029V-5.3A6.489,6.489,0,0,1-5-8.164a4.395,4.395,0,0,1,1.753-1.919,5.292,5.292,0,0,1,2.734-.679A4.574,4.574,0,0,1,3-9.38,5.43,5.43,0,0,1,4.292-5.527v1.279H-2.251a2.372,2.372,0,0,0,.771,1.4,2.3,2.3,0,0,0,1.543.508A2.958,2.958,0,0,0,2.5-3.437l1.5,1.777A4.2,4.2,0,0,1,2.266-.308,5.891,5.891,0,0,1-.161.2ZM-.532-8.223q-1.445,0-1.719,1.914h3.32v-.254a1.63,1.63,0,0,0-.4-1.226A1.593,1.593,0,0,0-.532-8.223ZM18.823-2.656h-4.7L13.306,0H9.644l5.215-14.219h3.223L23.335,0H19.653ZM14.946-5.3H18L16.47-10.234Zm12.939-7.891v2.627h1.738v2.285H27.886v4.834a1.234,1.234,0,0,0,.215.83,1.152,1.152,0,0,0,.85.234,4.828,4.828,0,0,0,.82-.059V-.088A6.074,6.074,0,0,1,27.915.2a3.448,3.448,0,0,1-2.51-.8,3.282,3.282,0,0,1-.811-2.432V-8.281H23.247v-2.285h1.348v-2.627ZM36.03.2a5.432,5.432,0,0,1-3.936-1.45,5.008,5.008,0,0,1-1.5-3.774V-5.3a6.489,6.489,0,0,1,.6-2.861,4.395,4.395,0,0,1,1.753-1.919,5.292,5.292,0,0,1,2.734-.679A4.574,4.574,0,0,1,39.194-9.38a5.43,5.43,0,0,1,1.289,3.853v1.279H33.94a2.372,2.372,0,0,0,.771,1.4,2.3,2.3,0,0,0,1.543.508A2.958,2.958,0,0,0,38.7-3.437L40.2-1.66A4.2,4.2,0,0,1,38.457-.308,5.891,5.891,0,0,1,36.03.2Zm-.371-8.418q-1.445,0-1.719,1.914h3.32v-.254a1.63,1.63,0,0,0-.4-1.226A1.593,1.593,0,0,0,35.659-8.223Zm9.17-2.344.107,1.24a3.583,3.583,0,0,1,3.018-1.436,3.015,3.015,0,0,1,2.466.986,4.7,4.7,0,0,1,.845,2.969V0h-3.3V-6.67a1.783,1.783,0,0,0-.322-1.177,1.491,1.491,0,0,0-1.172-.376,1.569,1.569,0,0,0-1.436.762V0H41.743V-10.566ZM57.554-2.344a1.464,1.464,0,0,0,1.074-.376A1.379,1.379,0,0,0,59-3.77h3.086A3.653,3.653,0,0,1,60.84-.918,4.631,4.631,0,0,1,57.632.2,4.689,4.689,0,0,1,54-1.25a5.7,5.7,0,0,1-1.328-4v-.137a6.436,6.436,0,0,1,.591-2.827,4.3,4.3,0,0,1,1.7-1.885,5.081,5.081,0,0,1,2.637-.659,4.573,4.573,0,0,1,3.271,1.143,4.053,4.053,0,0,1,1.211,3.1H59a1.807,1.807,0,0,0-.4-1.26,1.382,1.382,0,0,0-1.074-.439q-1.279,0-1.494,1.631a11.507,11.507,0,0,0-.068,1.426,4.52,4.52,0,0,0,.381,2.207A1.319,1.319,0,0,0,57.554-2.344ZM66.948,0h-3.3V-10.566h3.3Zm-3.5-13.291a1.469,1.469,0,0,1,.508-1.152,1.916,1.916,0,0,1,1.318-.449,1.916,1.916,0,0,1,1.318.449,1.469,1.469,0,0,1,.508,1.152,1.469,1.469,0,0,1-.508,1.152,1.916,1.916,0,0,1-1.318.449,1.916,1.916,0,0,1-1.318-.449A1.469,1.469,0,0,1,63.452-13.291Zm5.107,7.91A6.236,6.236,0,0,1,69.175-8.2a4.4,4.4,0,0,1,1.768-1.9,5.323,5.323,0,0,1,2.705-.664,4.858,4.858,0,0,1,3.74,1.47,5.64,5.64,0,0,1,1.367,4v.117a5.472,5.472,0,0,1-1.372,3.921A4.871,4.871,0,0,1,73.667.2a4.927,4.927,0,0,1-3.623-1.353,5.29,5.29,0,0,1-1.475-3.667Zm3.291.205a3.932,3.932,0,0,0,.459,2.148,1.529,1.529,0,0,0,1.357.684q1.758,0,1.8-2.705v-.332q0-2.842-1.816-2.842-1.65,0-1.787,2.451ZM74.1-15h3.477l-2.715,3.066H72.173Zm9.131,4.434.107,1.24a3.583,3.583,0,0,1,3.018-1.436,3.015,3.015,0,0,1,2.466.986,4.7,4.7,0,0,1,.845,2.969V0h-3.3V-6.67a1.783,1.783,0,0,0-.322-1.177,1.491,1.491,0,0,0-1.172-.376,1.569,1.569,0,0,0-1.436.762V0H80.142V-10.566Z" transform="translate(977 2471)" fill="#12263f"/>
      <g id="Grupo_24841" data-name="Grupo 24841">
        <text id="Persona_" data-name="Persona " transform="translate(886 2539)" fill="#12263f" font-size="16" font-family="Roboto-Medium, Roboto" font-weight="500"><tspan x="0" y="0">Persona </tspan></text>
        <text id="Familia" transform="translate(1046 2540)" fill="#12263f" font-size="16" font-family="Roboto-Medium, Roboto" font-weight="500"><tspan x="0" y="0">Familia</tspan></text>
        <circle id="Elipse_1536" data-name="Elipse 1536" cx="29" cy="29" r="29" transform="translate(815 2504)" fill="#fff"/>
        <g id="Grupo_24838" data-name="Grupo 24838" transform="translate(837.523 2512.488)">
          <circle id="Elipse_1334" data-name="Elipse 1334" cx="3.779" cy="3.779" r="3.779" transform="translate(2.862)" fill="#00348d"/>
          <path id="Trazado_9431" data-name="Trazado 9431" d="M36.31,49.9H32.745a4.09,4.09,0,0,0-4.064,3.636L27.9,61.308a1.341,1.341,0,0,0,.856,1.426l1.925.784a.621.621,0,0,1,.428.57l1,12.977a1.39,1.39,0,0,0,1.355,1.283H35.6a1.39,1.39,0,0,0,1.355-1.283l1-13.048a.621.621,0,0,1,.428-.57l1.925-.784a1.341,1.341,0,0,0,.856-1.426l-.784-7.772A4.094,4.094,0,0,0,36.31,49.9Z" transform="translate(-27.887 -41.201)" fill="#00348d"/>
        </g>
        <circle id="Elipse_1537" data-name="Elipse 1537" cx="30" cy="30" r="30" transform="translate(970 2504)" fill="#fff"/>
        <g id="Grupo_24839" data-name="Grupo 24839" transform="translate(980.546 2521.042)">
          <g id="Grupo_24558" data-name="Grupo 24558" transform="translate(19.827 0.001)">
            <circle id="Elipse_1334-2" data-name="Elipse 1334" cx="2.633" cy="2.633" r="2.633" transform="translate(1.993)" fill="#00348d"/>
            <path id="Trazado_9431-2" data-name="Trazado 9431" d="M33.755,49.9H31.271a2.85,2.85,0,0,0-2.831,2.533l-.546,5.414a.934.934,0,0,0,.6.993l1.341.546a.433.433,0,0,1,.3.4l.7,9.041a.969.969,0,0,0,.944.894h1.49a.969.969,0,0,0,.944-.894l.7-9.09a.433.433,0,0,1,.3-.4l1.341-.546a.934.934,0,0,0,.6-.993l-.546-5.414A2.852,2.852,0,0,0,33.755,49.9Z" transform="translate(-27.887 -43.84)" fill="#00348d"/>
          </g>
          <g id="Grupo_23695" data-name="Grupo 23695" transform="translate(0 7.219)">
            <circle id="Elipse_1331" data-name="Elipse 1331" cx="1.866" cy="1.866" r="1.866" transform="translate(3.367 0)" fill="#00348d"/>
            <circle id="Elipse_1332" data-name="Elipse 1332" cx="1.866" cy="1.866" r="1.866" transform="translate(12.697 0)" fill="#00348d"/>
            <path id="Trazado_9429" data-name="Trazado 9429" d="M36.127,38.053h0a.935.935,0,0,0-.871-.622H30.218a.894.894,0,0,0-.871.622h0l-1.275,3.483L26.8,38.022h0a.935.935,0,0,0-.871-.622H20.888a.894.894,0,0,0-.871.622h0L18.214,43a.647.647,0,0,0,.373.809.529.529,0,0,0,.218.031.638.638,0,0,0,.591-.4l1.368-3.794h0a.315.315,0,1,1,.591.218l-1.928,5.318h2.115v3.608a.778.778,0,1,0,1.555,0V45.175h.622v3.608a.778.778,0,1,0,1.555,0V45.175h2.115L25.46,39.857a.315.315,0,1,1,.591-.218h0l1.4,3.794a.638.638,0,0,0,.591.4h.124a.638.638,0,0,0,.591-.4l1.368-3.794h0a.382.382,0,0,1,.342-.218.412.412,0,0,1,.4.4v8.957a.778.778,0,1,0,1.555,0v-2.83a.311.311,0,1,1,.622,0v2.83a.778.778,0,1,0,1.555,0V39.826a.412.412,0,0,1,.4-.4.382.382,0,0,1,.342.218h0l1.431,3.794a.638.638,0,0,0,.591.4.529.529,0,0,0,.218-.031A.635.635,0,0,0,37.962,43Z" transform="translate(-18.175 -32.766)" fill="#00348d"/>
          </g>
          <g id="Grupo_23701" data-name="Grupo 23701" transform="translate(29.992 0.001)">
            <path id="Trazado_9496" data-name="Trazado 9496" d="M43.285,27.8l-.775-5.36h-6.6L35,28.78a1.761,1.761,0,0,0,1.75,1.96l3.506-.718-.641-1.613c-.6.229-1.525.58-2.069.768-.344.119-.62-.371-.578-.732l.181-1.5-.762.29-.316-.284,1.265-.647c.164-.08.41-.027.44.153a6.879,6.879,0,0,1,0,1.157l1.436-.557a.494.494,0,0,1,.64.282l.186.48.144.372.152.391v1.425l1.2-.245A2,2,0,0,0,43.285,27.8Zm-2.724-2.5a.27.27,0,1,1-.27.27A.27.27,0,0,1,40.561,25.3Zm-1.518-.354h.273a1.021,1.021,0,1,0,1.816-.641V23.93l0-.006a1.294,1.294,0,1,1-2.094,1.018Zm2.293,3.03a.883.883,0,1,1,.5-1.142A.883.883,0,0,1,41.335,27.973Z" transform="translate(-34.989 -17.517)" fill="#00348d"/>
            <path id="Trazado_9497" data-name="Trazado 9497" d="M46.093,6.195a2.034,2.034,0,0,0-.6-.154,2.065,2.065,0,1,0,1.391,3.346c.569.479,1.292,2.041,2.434-.068C47.859,10.487,47.91,6.827,46.093,6.195Z" transform="translate(-40.763 -6.03)" fill="#00348d"/>
            <path id="Trazado_9498" data-name="Trazado 9498" d="M44.748,47.767l-5.364,1.106-.577,6.015h1.165l.746,6.951h1.2l.022-6.951h.511l-.016,6.951h1.1l.842-6.951,1.232-.006Z" transform="translate(-37.661 -35.245)" fill="#00348d"/>
          </g>
        </g>
      </g>
    </g>
  </g>
</svg>
