<?xml version="1.0" encoding="utf-8"?>
<!-- Generator: Adobe Illustrator 25.3.1, SVG Export Plug-In . SVG Version: 6.00 Build 0)  -->
<svg version="1.1" id="Layer_1" xmlns="http://www.w3.org/2000/svg" xmlns:xlink="http://www.w3.org/1999/xlink" x="0px" y="0px"
	 viewBox="0 0 400.7 400.7" style="enable-background:new 0 0 400.7 400.7;" xml:space="preserve">
<style type="text/css">
	.st0{fill:#F579A8;}
	.st1{fill:#FFFFFF;}
	.st2{fill:#00348D;}
	.st3{fill:#31D3A7;}
	.st4{fill:#12263F;}
</style>
<g id="Grupo_24853" transform="translate(-483 -3462.354)">
	<g id="Grupo_24764" transform="translate(26.264 62)">
		<g id="Trazado_11842" transform="translate(122.736 3197.354)">
			<path class="st0" d="M350.4,477.8c-4.6-11.3-8.1-23-10.5-35c-2.6-12.9-3.9-26.2-3.9-39.5c0-13.5,1.4-26.9,4-40
				c2.6-12.7,6.5-25.3,11.6-37.2c5-11.8,11.1-23.1,18.3-33.7c7.1-10.5,15.2-20.4,24.2-29.4c9-9,18.9-17.1,29.4-24.2
				c10.6-7.2,21.9-13.3,33.7-18.3c12-5.1,24.5-9,37.2-11.6c12.4-2.5,25.2-3.9,38-4v197.5L350.4,477.8z"/>
			<path class="st1" d="M530.4,207c-12,0.2-23.9,1.6-35.6,3.9c-12.6,2.6-25,6.4-36.9,11.4c-11.6,4.9-22.9,11-33.4,18.1
				c-10.4,7-20.2,15.1-29.1,24c-8.9,8.9-17,18.7-24,29.1c-7.1,10.5-13.2,21.7-18.1,33.4c-5,11.8-8.9,24.2-11.4,36.9
				c-2.6,12.9-4,26.3-4,39.6c0,13.2,1.3,26.3,3.9,39.1c2.3,11.1,5.5,22.1,9.7,32.7l178.8-74V207 M534.4,203v200.9l-185,76.5
				c-9.9-23.7-15.3-49.7-15.3-77C334,292.7,423.7,203,534.4,203z"/>
		</g>
		<g id="Trazado_11843" transform="translate(-13.403 3197.354)">
			<path class="st2" d="M854.4,477.8l-181.9-75.3V205c12.8,0.1,25.6,1.5,38,4c12.7,2.6,25.3,6.5,37.2,11.6
				c11.8,5,23.1,11.1,33.7,18.3c10.5,7.1,20.4,15.2,29.4,24.2c9,9,17.1,18.9,24.2,29.4c7.2,10.6,13.3,21.9,18.3,33.7
				c5.1,12,9,24.5,11.6,37.2c2.7,13.1,4,26.5,4,40c0,13.3-1.3,26.6-3.9,39.5C862.5,454.8,859,466.5,854.4,477.8z"/>
			<path class="st1" d="M853.3,475.2c4.2-10.6,7.4-21.6,9.7-32.7c2.6-12.8,3.9-25.9,3.9-39.1c0-13.3-1.3-26.6-4-39.6
				c-2.6-12.6-6.4-25-11.4-36.9c-4.9-11.6-11-22.9-18.1-33.4c-7-10.4-15.1-20.2-24-29.1c-8.9-8.9-18.7-17-29.1-24
				c-10.5-7.1-21.7-13.2-33.4-18.1c-11.8-5-24.2-8.9-36.9-11.4c-11.6-2.4-23.6-3.7-35.6-3.9v194.1L853.3,475.2 M855.5,480.4
				l-185-76.5V203c110.7,0,200.4,89.7,200.4,200.4C870.9,430.7,865.4,456.7,855.5,480.4z"/>
		</g>
		<g id="Trazado_11844" transform="translate(112.307 3060.873)">
			<path class="st3" d="M544.8,738.2c-20.2,0-40.1-3-59.2-9c-18.5-5.8-36-14.2-52.1-25.2c-15.9-10.8-30.1-23.8-42.2-38.6
				C379.4,651,369.7,635,362.4,618l182.4-75.5L727.2,618c-7.3,17.1-17,33-28.8,47.5c-12.2,14.8-26.4,27.8-42.2,38.6
				C640,715,622.5,723.4,604,729.2C584.9,735.2,565,738.2,544.8,738.2z"/>
			<path class="st1" d="M544.8,544.7L365.1,619c7.1,16.2,16.5,31.4,27.7,45.1c12,14.7,26.1,27.6,41.8,38.2
				c15.9,10.8,33.3,19.2,51.6,24.9c18.9,5.9,38.6,8.9,58.6,8.9c20,0,39.7-3,58.6-8.9c18.3-5.7,35.6-14.1,51.6-24.9
				c15.7-10.7,29.8-23.5,41.8-38.2c11.3-13.8,20.6-28.9,27.7-45.1L544.8,544.7 M544.8,540.3l185,76.5
				c-30.2,72.4-101.7,123.3-185,123.3c-83.4,0-154.8-50.9-185-123.3L544.8,540.3z"/>
		</g>
	</g>
	<path id="Trazado_12150" class="st4" d="M554,3584.5l2.9-8.9h2.2L555,3587H553l-4.1-11.4h2.2L554,3584.5z M564.8,3587
		c-0.1-0.3-0.2-0.5-0.2-0.8c-0.6,0.6-1.4,1-2.2,0.9c-0.8,0-1.5-0.2-2.1-0.7c-0.5-0.5-0.8-1.1-0.8-1.8c0-0.8,0.3-1.6,1-2.1
		c0.9-0.5,1.9-0.8,2.9-0.7h1.2v-0.6c0-0.4-0.1-0.8-0.4-1.1c-0.3-0.3-0.7-0.4-1.1-0.4c-0.4,0-0.8,0.1-1.1,0.3
		c-0.3,0.2-0.4,0.5-0.4,0.8h-1.9c0-0.5,0.2-0.9,0.5-1.3c0.3-0.4,0.8-0.7,1.3-0.9c0.6-0.2,1.2-0.4,1.8-0.3c0.9,0,1.7,0.2,2.4,0.7
		c0.6,0.5,0.9,1.3,0.9,2.1v3.8c0,0.6,0.1,1.2,0.3,1.8v0.1H564.8z M562.8,3585.6c0.4,0,0.7-0.1,1.1-0.3c0.3-0.2,0.6-0.4,0.7-0.7v-1.6
		h-1c-0.6,0-1.1,0.1-1.6,0.4c-0.3,0.2-0.5,0.6-0.5,1c0,0.3,0.1,0.6,0.4,0.9C562.1,3585.5,562.4,3585.7,562.8,3585.6z M570.5,3587
		h-1.9v-12h1.9V3587z M572.2,3582.7c0-0.8,0.2-1.5,0.5-2.2c0.3-0.6,0.8-1.2,1.4-1.5c0.6-0.4,1.3-0.6,2-0.5c1,0,2,0.4,2.8,1.1
		c0.7,0.8,1.1,1.8,1.2,2.9l0,0.4c0,0.8-0.2,1.5-0.5,2.2c-0.3,0.6-0.8,1.2-1.4,1.5c-0.6,0.4-1.3,0.6-2.1,0.5c-1.1,0-2.1-0.4-2.9-1.2
		C572.5,3585.1,572.1,3583.9,572.2,3582.7L572.2,3582.7z M574.1,3582.9c0,0.7,0.1,1.4,0.5,2c0.3,0.5,0.9,0.8,1.5,0.7
		c0.6,0,1.2-0.3,1.5-0.8c0.4-0.7,0.6-1.4,0.5-2.2c0-0.7-0.2-1.4-0.6-2c-0.3-0.5-0.9-0.8-1.5-0.8c-0.6,0-1.1,0.3-1.5,0.7
		C574.2,3581.3,574,3582.1,574.1,3582.9L574.1,3582.9z M586.1,3580.3c-0.3,0-0.5-0.1-0.8-0.1c-0.7-0.1-1.4,0.3-1.8,1v5.8h-1.9v-8.5
		h1.8l0,0.9c0.4-0.7,1.1-1.1,1.9-1.1c0.2,0,0.5,0,0.7,0.1L586.1,3580.3z M592.1,3587c-0.1-0.3-0.2-0.5-0.2-0.8
		c-0.6,0.6-1.4,1-2.2,0.9c-0.8,0-1.5-0.2-2.1-0.7c-0.5-0.5-0.8-1.1-0.8-1.8c0-0.8,0.3-1.6,1-2.1c0.9-0.5,1.9-0.8,2.9-0.7h1.2v-0.6
		c0-0.4-0.1-0.8-0.4-1c-0.3-0.3-0.7-0.4-1.1-0.4c-0.4,0-0.8,0.1-1.1,0.3c-0.3,0.2-0.4,0.5-0.4,0.8h-1.9c0-0.5,0.2-0.9,0.5-1.3
		c0.3-0.4,0.8-0.7,1.3-1c0.6-0.2,1.2-0.4,1.8-0.3c0.9,0,1.7,0.2,2.4,0.7c0.6,0.5,0.9,1.3,0.9,2.1v3.8c0,0.6,0.1,1.2,0.3,1.8v0.1
		H592.1z M590,3585.6c0.4,0,0.7-0.1,1.1-0.3c0.3-0.2,0.6-0.4,0.7-0.7v-1.6h-1c-0.6,0-1.1,0.1-1.6,0.4c-0.3,0.2-0.6,0.6-0.5,1
		c0,0.3,0.1,0.6,0.4,0.9C589.3,3585.5,589.6,3585.7,590,3585.6z M599.2,3585.6c0.4,0,0.9-0.1,1.2-0.4c0.3-0.3,0.5-0.6,0.5-1h1.8
		c0,0.5-0.2,1-0.5,1.5c-0.3,0.5-0.7,0.8-1.2,1.1c-0.5,0.3-1.1,0.4-1.7,0.4c-1.1,0.1-2.1-0.4-2.8-1.2c-0.7-0.9-1.1-2-1-3.2v-0.2
		c-0.1-1.1,0.3-2.2,1-3.1c0.7-0.8,1.7-1.2,2.8-1.2c0.9,0,1.8,0.3,2.5,0.9c0.6,0.6,1,1.4,1,2.3h-1.8c0-0.4-0.2-0.9-0.5-1.2
		c-0.3-0.3-0.7-0.5-1.2-0.5c-0.6,0-1.1,0.2-1.4,0.7c-0.4,0.6-0.6,1.3-0.5,2v0.3c-0.1,0.7,0.1,1.4,0.5,2.1
		C598.1,3585.4,598.6,3585.7,599.2,3585.6z M606.1,3587h-1.9v-8.5h1.9V3587z M604.1,3576.4c0-0.3,0.1-0.5,0.3-0.7
		c0.2-0.2,0.5-0.3,0.8-0.3c0.3,0,0.6,0.1,0.8,0.3c0.2,0.2,0.3,0.5,0.3,0.7c0,0.3-0.1,0.5-0.3,0.7c-0.2,0.2-0.5,0.3-0.8,0.3
		c-0.3,0-0.6-0.1-0.8-0.3C604.2,3576.9,604.1,3576.6,604.1,3576.4z M607.8,3582.7c0-0.8,0.2-1.5,0.5-2.2c0.3-0.6,0.8-1.2,1.4-1.5
		c0.6-0.4,1.3-0.5,2-0.5c1,0,2,0.4,2.8,1.1c0.7,0.8,1.1,1.8,1.2,2.9l0,0.4c0,0.8-0.2,1.5-0.5,2.2c-0.3,0.6-0.8,1.2-1.4,1.5
		c-0.6,0.4-1.3,0.6-2.1,0.5c-1.1,0-2.1-0.4-2.9-1.2C608.1,3585.1,607.7,3583.9,607.8,3582.7L607.8,3582.7z M609.7,3582.9
		c0,0.7,0.1,1.4,0.5,2c0.3,0.5,0.9,0.8,1.5,0.7c0.6,0,1.2-0.3,1.5-0.8c0.4-0.7,0.6-1.4,0.5-2.2c0-0.7-0.2-1.4-0.6-2
		c-0.3-0.5-0.9-0.8-1.5-0.8c-0.6,0-1.1,0.3-1.5,0.7C609.8,3581.3,609.6,3582.1,609.7,3582.9L609.7,3582.9z M612.2,3575h2.2l-2.2,2.4
		h-1.5L612.2,3575z M619,3578.5l0.1,1c0.6-0.7,1.5-1.2,2.5-1.1c1.8,0,2.7,1,2.7,3v5.6h-1.9v-5.5c0-0.4-0.1-0.9-0.3-1.2
		c-0.3-0.3-0.7-0.4-1.1-0.4c-0.7,0-1.4,0.4-1.7,1v6h-1.9v-8.5H619z M546.5,3609.6c0.4,0,0.9-0.1,1.2-0.4c0.3-0.3,0.5-0.6,0.5-1h1.8
		c0,0.5-0.2,1-0.5,1.5c-0.3,0.5-0.7,0.8-1.2,1.1c-0.5,0.3-1.1,0.4-1.7,0.4c-1.1,0.1-2.1-0.4-2.8-1.1c-0.7-0.9-1.1-2-1-3.2v-0.2
		c-0.1-1.1,0.3-2.2,1-3.1c0.7-0.8,1.7-1.2,2.8-1.2c0.9,0,1.8,0.3,2.5,0.9c0.6,0.6,1,1.4,1,2.3h-1.8c0-0.4-0.2-0.9-0.5-1.2
		c-0.3-0.3-0.7-0.5-1.2-0.5c-0.6,0-1.1,0.2-1.4,0.7c-0.4,0.6-0.6,1.3-0.5,2v0.3c-0.1,0.7,0.1,1.4,0.5,2.1
		C545.5,3609.4,546,3609.7,546.5,3609.6z M551.1,3606.7c0-0.8,0.2-1.5,0.5-2.2c0.3-0.6,0.8-1.2,1.4-1.5c0.6-0.4,1.3-0.5,2-0.5
		c1,0,2,0.4,2.8,1.1c0.7,0.8,1.1,1.8,1.2,2.9l0,0.4c0,0.8-0.2,1.5-0.5,2.2c-0.3,0.6-0.8,1.2-1.4,1.5c-0.6,0.4-1.3,0.6-2.1,0.5
		c-1.1,0-2.1-0.4-2.9-1.2C551.4,3609.1,551,3607.9,551.1,3606.7L551.1,3606.7z M553,3606.9c0,0.7,0.1,1.4,0.5,2
		c0.3,0.5,0.9,0.8,1.5,0.7c0.6,0,1.2-0.3,1.5-0.8c0.4-0.7,0.6-1.4,0.5-2.2c0-0.7-0.2-1.4-0.6-2c-0.3-0.5-0.9-0.8-1.5-0.8
		c-0.6,0-1.1,0.3-1.5,0.7C553.1,3605.3,552.9,3606.1,553,3606.9L553,3606.9z M562.3,3602.5l0.1,0.9c0.6-0.7,1.5-1.1,2.4-1
		c1-0.1,1.9,0.4,2.3,1.3c0.6-0.9,1.6-1.3,2.6-1.3c0.8-0.1,1.5,0.2,2.1,0.8c0.5,0.7,0.7,1.5,0.7,2.3v5.6h-1.9v-5.5
		c0-0.4-0.1-0.8-0.4-1.2c-0.3-0.3-0.7-0.4-1.2-0.4c-0.4,0-0.8,0.1-1.1,0.3c-0.3,0.2-0.5,0.6-0.6,0.9l0,5.8h-1.9v-5.6
		c0.1-0.7-0.5-1.4-1.2-1.5c-0.1,0-0.2,0-0.3,0c-0.7,0-1.3,0.3-1.6,0.9v6.1h-1.9v-8.5L562.3,3602.5z M581.9,3606.9
		c0.1,1.1-0.3,2.2-0.9,3.1c-0.6,0.8-1.5,1.2-2.4,1.2c-0.8,0-1.7-0.3-2.2-0.9v4h-1.9v-11.7h1.8l0.1,0.9c0.6-0.7,1.4-1.1,2.3-1
		c0.9,0,1.9,0.4,2.4,1.1c0.6,0.9,0.9,2.1,0.9,3.2L581.9,3606.9z M580,3606.7c0-0.7-0.1-1.4-0.5-2c-0.3-0.5-0.9-0.8-1.4-0.7
		c-0.7,0-1.4,0.3-1.7,1v3.8c0.3,0.6,1,1,1.7,1c0.6,0,1.1-0.3,1.4-0.7C579.9,3608.2,580,3607.5,580,3606.7z M583.1,3606.7
		c0-0.8,0.2-1.5,0.5-2.2c0.3-0.6,0.8-1.2,1.4-1.5c0.6-0.4,1.3-0.5,2-0.5c1,0,2,0.4,2.8,1.1c0.7,0.8,1.1,1.8,1.2,2.9l0,0.4
		c0,0.8-0.2,1.5-0.5,2.2c-0.3,0.6-0.8,1.2-1.4,1.5c-0.6,0.4-1.3,0.6-2.1,0.5c-1.1,0-2.1-0.4-2.9-1.2
		C583.5,3609.1,583.1,3607.9,583.1,3606.7L583.1,3606.7z M585,3606.9c0,0.7,0.1,1.4,0.5,2c0.3,0.5,0.9,0.8,1.5,0.7
		c0.6,0,1.2-0.3,1.5-0.8c0.4-0.7,0.6-1.4,0.5-2.2c0-0.7-0.2-1.4-0.6-2c-0.3-0.5-0.9-0.8-1.5-0.8c-0.6,0-1.1,0.3-1.5,0.7
		C585.2,3605.3,585,3606.1,585,3606.9L585,3606.9z M594.4,3602.6l0.1,1c0.6-0.7,1.5-1.2,2.5-1.1c1.8,0,2.7,1,2.7,3v5.6h-1.9v-5.5
		c0-0.4-0.1-0.9-0.3-1.2c-0.3-0.3-0.7-0.4-1.1-0.4c-0.7,0-1.4,0.4-1.7,1v6h-1.9v-8.5L594.4,3602.6z M605.2,3611.2
		c-1.1,0-2.2-0.4-2.9-1.1c-0.8-0.8-1.2-1.9-1.1-3v-0.2c0-0.8,0.2-1.6,0.5-2.3c0.3-0.6,0.8-1.2,1.4-1.6c0.6-0.4,1.3-0.6,2-0.6
		c1-0.1,2,0.3,2.7,1.1c0.7,0.9,1,2,0.9,3.1v0.8h-5.5c0,0.6,0.3,1.2,0.7,1.7c0.4,0.4,1,0.6,1.5,0.6c0.8,0,1.6-0.4,2.1-1.1l1,1
		c-0.3,0.5-0.8,0.9-1.4,1.2C606.5,3611,605.9,3611.2,605.2,3611.2L605.2,3611.2z M605,3603.9c-0.5,0-0.9,0.2-1.3,0.5
		c-0.4,0.4-0.6,1-0.6,1.5h3.6v-0.1c0-0.5-0.2-1-0.5-1.4C605.9,3604.1,605.5,3603.9,605,3603.9L605,3603.9z M611.8,3602.6l0.1,1
		c0.6-0.7,1.5-1.2,2.5-1.1c1.8,0,2.7,1,2.7,3v5.6h-1.9v-5.5c0-0.4-0.1-0.9-0.3-1.2c-0.3-0.3-0.7-0.4-1.1-0.4c-0.7,0-1.4,0.4-1.7,1v6
		h-1.9v-8.5L611.8,3602.6z M621.4,3600.5v2.1h1.5v1.4h-1.5v4.7c0,0.2,0,0.5,0.2,0.7c0.2,0.2,0.4,0.2,0.7,0.2c0.2,0,0.4,0,0.7-0.1
		v1.5c-0.4,0.1-0.8,0.2-1.2,0.2c-1.5,0-2.2-0.8-2.2-2.4v-4.8h-1.4v-1.4h1.4v-2.1L621.4,3600.5z M628,3611.2c-1.1,0-2.2-0.4-2.9-1.1
		c-0.8-0.8-1.2-1.9-1.1-3v-0.2c0-0.8,0.2-1.6,0.5-2.3c0.3-0.6,0.8-1.2,1.4-1.6c0.6-0.4,1.3-0.6,2-0.6c1-0.1,2,0.3,2.7,1.1
		c0.7,0.9,1,2,0.9,3.1v0.8h-5.5c0,0.6,0.3,1.2,0.7,1.7c0.4,0.4,1,0.6,1.5,0.6c0.8,0,1.6-0.4,2.1-1.1l1,1c-0.3,0.5-0.8,0.9-1.4,1.2
		C629.3,3611,628.7,3611.2,628,3611.2L628,3611.2z M627.8,3603.9c-0.5,0-0.9,0.2-1.3,0.5c-0.4,0.4-0.6,1-0.6,1.5h3.6v-0.1
		c0-0.5-0.2-1-0.5-1.4C628.7,3604.1,628.3,3603.9,627.8,3603.9z M567.9,3630.2h-4.6v4.8h-2v-11.4h7.2v1.6h-5.2v3.4h4.6V3630.2z
		 M574.7,3635c-0.1-0.3-0.2-0.5-0.2-0.8c-0.6,0.6-1.4,1-2.2,0.9c-0.8,0-1.5-0.2-2.1-0.7c-0.5-0.5-0.8-1.1-0.8-1.8
		c0-0.8,0.3-1.6,1-2.1c0.9-0.5,1.9-0.8,2.9-0.7h1.2v-0.6c0-0.4-0.1-0.8-0.4-1.1c-0.3-0.3-0.7-0.4-1.1-0.4c-0.4,0-0.8,0.1-1.1,0.3
		c-0.3,0.2-0.4,0.5-0.4,0.8h-1.9c0-0.5,0.2-0.9,0.5-1.3c0.3-0.4,0.8-0.7,1.3-0.9c0.6-0.2,1.2-0.4,1.8-0.3c0.9,0,1.7,0.2,2.4,0.7
		c0.6,0.5,0.9,1.3,0.9,2.1v3.8c0,0.6,0.1,1.2,0.3,1.8v0.1H574.7z M572.6,3633.6c0.4,0,0.7-0.1,1.1-0.3c0.3-0.2,0.6-0.4,0.7-0.7v-1.6
		h-1c-0.6,0-1.1,0.1-1.6,0.4c-0.3,0.2-0.5,0.6-0.5,1c0,0.3,0.1,0.6,0.4,0.9C571.9,3633.5,572.3,3633.7,572.6,3633.6z M580.1,3626.5
		l0.1,0.9c0.6-0.7,1.5-1.1,2.4-1c1-0.1,1.9,0.4,2.3,1.3c0.6-0.9,1.6-1.3,2.6-1.3c0.8-0.1,1.5,0.2,2.1,0.8c0.5,0.7,0.7,1.5,0.7,2.3
		v5.6h-1.9v-5.5c0-0.4-0.1-0.8-0.4-1.2c-0.3-0.3-0.7-0.4-1.2-0.4c-0.4,0-0.8,0.1-1.1,0.3c-0.3,0.2-0.5,0.6-0.6,0.9l0,5.8h-1.9v-5.6
		c0.1-0.7-0.5-1.4-1.2-1.5c-0.1,0-0.2,0-0.3,0c-0.7,0-1.3,0.3-1.6,0.9v6.1h-1.9v-8.5H580.1z M594.3,3635h-1.9v-8.5h1.9V3635z
		 M592.3,3624.4c0-0.3,0.1-0.5,0.3-0.7c0.2-0.2,0.5-0.3,0.8-0.3c0.3,0,0.6,0.1,0.8,0.3c0.2,0.2,0.3,0.5,0.3,0.7
		c0,0.3-0.1,0.5-0.3,0.7c-0.2,0.2-0.5,0.3-0.8,0.3c-0.3,0-0.6-0.1-0.8-0.3C592.3,3624.9,592.2,3624.6,592.3,3624.4z M598.4,3635
		h-1.9v-12h1.9V3635z M602.4,3635h-1.9v-8.5h1.9V3635z M600.4,3624.4c0-0.3,0.1-0.5,0.3-0.7c0.2-0.2,0.5-0.3,0.8-0.3
		c0.3,0,0.6,0.1,0.8,0.3c0.2,0.2,0.3,0.5,0.3,0.7c0,0.3-0.1,0.5-0.3,0.7c-0.2,0.2-0.5,0.3-0.8,0.3c-0.3,0-0.6-0.1-0.8-0.3
		C600.5,3624.9,600.4,3624.6,600.4,3624.4z M609.6,3635c-0.1-0.3-0.2-0.5-0.2-0.8c-1.2,1.2-3,1.3-4.3,0.2c-0.5-0.5-0.8-1.1-0.8-1.8
		c0-0.8,0.3-1.6,1-2.1c0.9-0.5,1.9-0.8,2.9-0.7h1.2v-0.6c0-0.4-0.1-0.8-0.4-1.1c-0.3-0.3-0.7-0.4-1.1-0.4c-0.4,0-0.8,0.1-1.1,0.3
		c-0.3,0.2-0.4,0.5-0.4,0.8h-1.9c0-0.5,0.2-0.9,0.5-1.3c0.3-0.4,0.8-0.7,1.3-0.9c0.6-0.2,1.2-0.4,1.8-0.3c0.9,0,1.7,0.2,2.4,0.7
		c0.6,0.5,0.9,1.3,0.9,2.1v3.8c0,0.6,0.1,1.2,0.3,1.8v0.1H609.6z M607.5,3633.6c0.4,0,0.7-0.1,1.1-0.3c0.3-0.2,0.6-0.4,0.7-0.7v-1.6
		h-1c-0.6,0-1.1,0.1-1.6,0.4c-0.3,0.2-0.5,0.6-0.5,1c0,0.3,0.1,0.6,0.4,0.9C606.8,3633.5,607.1,3633.7,607.5,3633.6z M617.6,3628.3
		c-0.3,0-0.5-0.1-0.8-0.1c-0.7-0.1-1.4,0.3-1.8,1v5.8h-1.9v-8.5h1.8l0,0.9c0.4-0.7,1.1-1.1,1.9-1.1c0.2,0,0.5,0,0.7,0.1
		L617.6,3628.3z"/>
	<path id="Trazado_12151" class="st1" d="M727.8,3581.9h-4.7v3.5h5.5v1.6h-7.4v-11.4h7.4v1.6h-5.4v3.1h4.7V3581.9z M729.5,3582.7
		c-0.1-1.1,0.3-2.2,0.9-3.1c0.6-0.8,1.5-1.2,2.4-1.2c0.8,0,1.6,0.3,2.2,0.9v-4.3h1.9v12h-1.7l-0.1-0.9c-0.6,0.7-1.4,1.1-2.3,1
		c-0.9,0-1.8-0.4-2.4-1.2C729.8,3585,729.5,3583.9,729.5,3582.7L729.5,3582.7z M731.4,3582.9c0,0.7,0.1,1.4,0.5,2
		c0.3,0.5,0.8,0.7,1.4,0.7c0.7,0,1.4-0.4,1.7-1v-3.6c-0.3-0.6-1-1.1-1.7-1c-0.6,0-1.1,0.3-1.4,0.7
		C731.5,3581.3,731.4,3582.1,731.4,3582.9L731.4,3582.9z M744,3586.2c-0.6,0.7-1.5,1-2.4,1c-0.8,0.1-1.5-0.2-2.1-0.8
		c-0.5-0.7-0.8-1.5-0.7-2.3v-5.5h1.9v5.5c0,1.1,0.4,1.6,1.3,1.6c0.8,0.1,1.5-0.3,1.9-1v-6.1h1.9v8.5h-1.8L744,3586.2z M751.3,3585.6
		c0.4,0,0.9-0.1,1.2-0.4c0.3-0.3,0.5-0.6,0.5-1h1.8c0,0.5-0.2,1-0.5,1.5c-0.3,0.5-0.7,0.8-1.2,1.1c-0.5,0.3-1.1,0.4-1.7,0.4
		c-1.1,0-2.1-0.4-2.8-1.2c-0.7-0.9-1.1-2-1-3.2v-0.2c-0.1-1.1,0.3-2.2,1-3.1c0.7-0.8,1.7-1.2,2.8-1.2c0.9,0,1.8,0.3,2.5,0.9
		c0.6,0.6,1,1.4,1,2.3H753c0-0.4-0.2-0.9-0.5-1.2c-0.3-0.3-0.7-0.5-1.2-0.5c-0.6,0-1.1,0.2-1.4,0.7c-0.4,0.6-0.6,1.3-0.5,2v0.3
		c-0.1,0.7,0.1,1.4,0.5,2.1C750.2,3585.4,750.7,3585.7,751.3,3585.6L751.3,3585.6z M761.2,3587c-0.1-0.3-0.2-0.5-0.2-0.8
		c-0.6,0.6-1.4,1-2.2,0.9c-0.8,0-1.5-0.2-2.1-0.7c-0.5-0.5-0.8-1.1-0.8-1.8c0-0.8,0.3-1.6,1-2.1c0.9-0.5,1.9-0.8,2.9-0.7h1.2v-0.6
		c0-0.4-0.1-0.8-0.4-1c-0.3-0.3-0.7-0.4-1.1-0.4c-0.4,0-0.8,0.1-1.1,0.3c-0.3,0.2-0.4,0.5-0.4,0.8h-1.9c0-0.5,0.2-0.9,0.5-1.3
		c0.3-0.4,0.8-0.7,1.3-0.9c0.6-0.2,1.2-0.4,1.8-0.3c0.9,0,1.7,0.2,2.4,0.7c0.6,0.5,0.9,1.3,0.9,2.1v3.8c0,0.6,0.1,1.2,0.3,1.8v0.1
		H761.2z M759.1,3585.6c0.4,0,0.7-0.1,1.1-0.3c0.3-0.2,0.6-0.4,0.7-0.7v-1.6h-1c-0.6,0-1.1,0.1-1.6,0.4c-0.3,0.2-0.5,0.6-0.5,1
		c0,0.3,0.1,0.6,0.4,0.9C758.4,3585.5,758.8,3585.7,759.1,3585.6z M768.3,3585.6c0.4,0,0.9-0.1,1.2-0.4c0.3-0.3,0.5-0.6,0.5-1h1.8
		c0,0.5-0.2,1-0.5,1.5c-0.3,0.5-0.7,0.8-1.3,1.1c-0.5,0.3-1.1,0.4-1.7,0.4c-1.1,0.1-2.1-0.4-2.8-1.1c-0.7-0.9-1.1-2-1-3.2v-0.2
		c-0.1-1.1,0.3-2.2,1-3.1c0.7-0.8,1.7-1.2,2.8-1.2c0.9,0,1.8,0.3,2.5,0.9c0.6,0.6,1,1.4,1,2.3H770c0-0.4-0.2-0.9-0.5-1.2
		c-0.3-0.3-0.7-0.5-1.2-0.5c-0.6,0-1.1,0.2-1.4,0.7c-0.4,0.6-0.6,1.3-0.5,2v0.3c-0.1,0.7,0.1,1.4,0.5,2.1
		C767.2,3585.4,767.7,3585.7,768.3,3585.6L768.3,3585.6z M775.2,3587h-1.9v-8.5h1.9V3587z M773.2,3576.4c0-0.3,0.1-0.5,0.3-0.7
		c0.2-0.2,0.5-0.3,0.8-0.3c0.3,0,0.6,0.1,0.8,0.3c0.2,0.2,0.3,0.5,0.3,0.7c0,0.3-0.1,0.5-0.3,0.7c-0.2,0.2-0.5,0.3-0.8,0.3
		c-0.3,0-0.6-0.1-0.8-0.3C773.3,3576.9,773.2,3576.6,773.2,3576.4z M776.9,3582.7c0-0.8,0.2-1.5,0.5-2.2c0.3-0.6,0.8-1.2,1.4-1.5
		c0.6-0.4,1.3-0.5,2-0.5c1,0,2,0.4,2.8,1.1c0.7,0.8,1.2,1.8,1.2,2.9l0,0.4c0,0.8-0.2,1.5-0.5,2.2c-0.3,0.6-0.8,1.2-1.4,1.5
		c-0.6,0.4-1.3,0.6-2.1,0.5c-1.1,0-2.1-0.4-2.9-1.2C777.3,3585.1,776.9,3583.9,776.9,3582.7L776.9,3582.7z M778.8,3582.9
		c0,0.7,0.1,1.4,0.5,2c0.3,0.5,0.9,0.8,1.5,0.7c0.6,0,1.2-0.3,1.5-0.8c0.4-0.7,0.6-1.4,0.5-2.2c0-0.7-0.2-1.4-0.6-2
		c-0.3-0.5-0.9-0.8-1.5-0.8c-0.6,0-1.1,0.3-1.5,0.7C779,3581.3,778.8,3582.1,778.8,3582.9L778.8,3582.9z M781.4,3575h2.2l-2.2,2.4
		h-1.5L781.4,3575z M788.2,3578.5l0.1,1c0.6-0.7,1.5-1.2,2.5-1.1c1.8,0,2.7,1,2.7,3v5.6h-1.9v-5.5c0-0.4-0.1-0.9-0.3-1.2
		c-0.3-0.3-0.7-0.4-1.1-0.4c-0.7,0-1.4,0.4-1.7,1v6h-1.9v-8.5H788.2z M806.7,3582.9c0.1,1.1-0.3,2.2-0.9,3.1
		c-0.6,0.8-1.4,1.2-2.4,1.2c-0.8,0-1.7-0.3-2.2-0.9v4h-1.9v-11.7h1.8l0.1,0.9c0.6-0.7,1.4-1.1,2.3-1c0.9,0,1.9,0.4,2.4,1.1
		c0.6,0.9,0.9,2.1,0.9,3.2L806.7,3582.9z M804.8,3582.7c0-0.7-0.1-1.4-0.5-2c-0.3-0.5-0.9-0.8-1.4-0.7c-0.7,0-1.4,0.3-1.7,1v3.8
		c0.3,0.6,1,1,1.7,1c0.6,0,1.1-0.3,1.4-0.7C804.7,3584.2,804.8,3583.5,804.8,3582.7z M813.3,3587c-0.1-0.3-0.2-0.5-0.2-0.8
		c-0.6,0.6-1.4,1-2.2,0.9c-0.8,0-1.5-0.2-2.1-0.7c-0.5-0.5-0.8-1.1-0.8-1.8c0-0.8,0.3-1.6,1-2.1c0.9-0.5,1.9-0.8,2.9-0.7h1.2v-0.6
		c0-0.4-0.1-0.8-0.4-1.1c-0.3-0.3-0.7-0.4-1.1-0.4c-0.4,0-0.8,0.1-1.1,0.3c-0.3,0.2-0.4,0.5-0.4,0.8h-1.9c0-0.5,0.2-0.9,0.5-1.3
		c0.3-0.4,0.8-0.7,1.3-0.9c0.6-0.2,1.2-0.4,1.8-0.3c0.9,0,1.7,0.2,2.4,0.7c0.6,0.5,0.9,1.3,0.9,2.1v3.8c0,0.6,0.1,1.2,0.3,1.8v0.1
		H813.3z M811.2,3585.6c0.4,0,0.7-0.1,1.1-0.3c0.3-0.2,0.6-0.4,0.7-0.7v-1.6h-1c-0.6,0-1.1,0.1-1.6,0.4c-0.3,0.2-0.5,0.6-0.5,1
		c0,0.3,0.1,0.6,0.4,0.9C810.5,3585.5,810.9,3585.7,811.2,3585.6z M821.4,3580.3c-0.3,0-0.5-0.1-0.8-0.1c-0.7-0.1-1.4,0.3-1.8,1v5.8
		h-1.9v-8.5h1.8l0,0.9c0.4-0.7,1.1-1.1,1.9-1.1c0.2,0,0.5,0,0.7,0.1L821.4,3580.3z M827.4,3587c-0.1-0.3-0.2-0.5-0.2-0.8
		c-0.6,0.6-1.4,1-2.2,0.9c-0.8,0-1.5-0.2-2.1-0.7c-0.5-0.5-0.8-1.1-0.8-1.8c0-0.8,0.3-1.6,1-2.1c0.9-0.5,1.9-0.8,2.9-0.7h1.2v-0.6
		c0-0.4-0.1-0.8-0.4-1.1c-0.3-0.3-0.7-0.4-1.1-0.4c-0.4,0-0.8,0.1-1.1,0.3c-0.3,0.2-0.4,0.5-0.4,0.8h-1.9c0-0.5,0.2-0.9,0.5-1.3
		c0.3-0.4,0.8-0.7,1.3-0.9c0.6-0.2,1.2-0.4,1.8-0.3c0.9,0,1.7,0.2,2.4,0.7c0.6,0.5,0.9,1.3,0.9,2.1v3.8c0,0.6,0.1,1.2,0.3,1.8v0.1
		H827.4z M825.3,3585.6c0.4,0,0.7-0.1,1.1-0.3c0.3-0.2,0.6-0.4,0.7-0.7v-1.6h-1c-0.6,0-1.1,0.1-1.6,0.4c-0.3,0.2-0.5,0.6-0.5,1
		c0,0.3,0.1,0.6,0.4,0.9C824.6,3585.5,824.9,3585.7,825.3,3585.6z M730.8,3611c-0.1-0.3-0.2-0.5-0.2-0.8c-0.6,0.6-1.4,1-2.2,0.9
		c-0.8,0-1.5-0.2-2.1-0.7c-0.5-0.5-0.8-1.1-0.8-1.8c0-0.8,0.3-1.6,1-2.1c0.9-0.5,1.9-0.8,2.9-0.7h1.2v-0.6c0-0.4-0.1-0.8-0.4-1
		c-0.3-0.3-0.7-0.4-1.1-0.4c-0.4,0-0.8,0.1-1.1,0.3c-0.3,0.2-0.4,0.5-0.4,0.8h-1.9c0-0.5,0.2-0.9,0.5-1.3c0.3-0.4,0.8-0.7,1.3-0.9
		c0.6-0.2,1.2-0.4,1.8-0.3c0.9,0,1.7,0.2,2.4,0.7c0.6,0.5,0.9,1.3,0.9,2.1v3.8c0,0.6,0.1,1.2,0.3,1.8v0.1H730.8z M728.7,3609.6
		c0.4,0,0.7-0.1,1.1-0.3c0.3-0.2,0.6-0.4,0.7-0.7v-1.6h-1c-0.6,0-1.1,0.1-1.6,0.4c-0.3,0.2-0.5,0.6-0.5,1c0,0.3,0.1,0.6,0.4,0.9
		C728,3609.5,728.3,3609.7,728.7,3609.6z M743.1,3608.7c0-0.3-0.1-0.6-0.4-0.8c-0.4-0.2-0.9-0.4-1.4-0.5c-0.6-0.1-1.1-0.3-1.6-0.5
		c-0.8-0.3-1.4-1.1-1.4-2c0-0.7,0.3-1.4,0.9-1.8c0.7-0.5,1.5-0.8,2.3-0.7c0.9,0,1.7,0.2,2.4,0.8c0.6,0.5,1,1.2,0.9,1.9H743
		c0-0.3-0.1-0.7-0.4-0.9c-0.3-0.3-0.7-0.4-1.1-0.4c-0.4,0-0.7,0.1-1,0.3c-0.3,0.2-0.4,0.5-0.4,0.8c0,0.3,0.1,0.5,0.4,0.7
		c0.5,0.2,1,0.4,1.5,0.5c0.6,0.1,1.2,0.3,1.8,0.6c0.4,0.2,0.7,0.5,0.9,0.8c0.2,0.3,0.3,0.7,0.3,1.2c0,0.7-0.3,1.4-0.9,1.8
		c-0.7,0.5-1.6,0.7-2.5,0.7c-0.6,0-1.3-0.1-1.9-0.4c-0.5-0.2-0.9-0.6-1.3-1c-0.3-0.4-0.5-0.9-0.5-1.4h1.8c0,0.4,0.2,0.8,0.5,1
		c0.4,0.3,0.8,0.4,1.2,0.4c0.4,0,0.8-0.1,1.1-0.3C742.9,3609.3,743.1,3609,743.1,3608.7L743.1,3608.7z M751.6,3611
		c-0.1-0.3-0.2-0.5-0.2-0.8c-0.6,0.6-1.4,1-2.2,0.9c-0.8,0-1.5-0.2-2.1-0.7c-0.5-0.5-0.8-1.1-0.8-1.8c0-0.8,0.3-1.6,1-2.1
		c0.9-0.5,1.9-0.8,2.9-0.7h1.2v-0.6c0-0.4-0.1-0.8-0.4-1.1c-0.3-0.3-0.7-0.4-1.1-0.4c-0.4,0-0.8,0.1-1.1,0.3
		c-0.3,0.2-0.4,0.5-0.4,0.8h-1.9c0-0.5,0.2-0.9,0.5-1.3c0.3-0.4,0.8-0.7,1.3-0.9c0.6-0.2,1.2-0.4,1.8-0.3c0.9,0,1.7,0.2,2.4,0.7
		c0.6,0.5,0.9,1.3,0.9,2.1v3.8c0,0.6,0.1,1.2,0.3,1.8v0.1L751.6,3611z M749.6,3609.6c0.4,0,0.7-0.1,1.1-0.3c0.3-0.2,0.6-0.4,0.7-0.7
		v-1.6h-1c-0.6,0-1.1,0.1-1.6,0.4c-0.3,0.2-0.5,0.6-0.5,1c0,0.3,0.1,0.6,0.4,0.9C748.9,3609.5,749.2,3609.7,749.6,3609.6
		L749.6,3609.6z M757.3,3611h-1.9v-12h1.9V3611z M764.5,3610.2c-0.6,0.7-1.5,1-2.4,1c-0.8,0.1-1.5-0.2-2.1-0.8
		c-0.5-0.7-0.8-1.5-0.7-2.3v-5.5h1.9v5.5c0,1.1,0.4,1.6,1.3,1.6c0.8,0.1,1.5-0.3,1.9-1v-6.1h1.9v8.5h-1.8L764.5,3610.2z
		 M767.9,3606.7c-0.1-1.1,0.3-2.2,0.9-3.1c0.6-0.8,1.5-1.2,2.4-1.2c0.8,0,1.6,0.3,2.2,0.9v-4.3h1.9v12h-1.7l-0.1-0.9
		c-0.6,0.7-1.4,1.1-2.3,1c-0.9,0-1.8-0.4-2.4-1.2C768.1,3609,767.8,3607.9,767.9,3606.7z M769.8,3606.9c0,0.7,0.1,1.4,0.5,2
		c0.3,0.5,0.8,0.7,1.4,0.7c0.7,0,1.4-0.4,1.7-1v-3.6c-0.3-0.6-1-1.1-1.7-1c-0.6,0-1.1,0.3-1.4,0.7
		C769.9,3605.3,769.7,3606.1,769.8,3606.9L769.8,3606.9z M780.9,3606.7c-0.1-1.1,0.3-2.2,0.9-3.1c0.6-0.8,1.5-1.2,2.4-1.2
		c0.8,0,1.6,0.3,2.2,0.9v-4.3h1.9v12h-1.7l-0.1-0.9c-0.6,0.7-1.4,1.1-2.3,1c-0.9,0-1.8-0.4-2.4-1.2
		C781.2,3609,780.8,3607.9,780.9,3606.7L780.9,3606.7z M782.8,3606.9c0,0.7,0.1,1.4,0.5,2c0.3,0.5,0.8,0.7,1.4,0.7
		c0.7,0,1.4-0.4,1.7-1v-3.6c-0.3-0.6-1-1.1-1.7-1c-0.6,0-1.1,0.3-1.4,0.7C782.9,3605.3,782.7,3606.1,782.8,3606.9L782.8,3606.9z
		 M792.3,3611h-1.9v-8.5h1.9V3611z M790.3,3600.4c0-0.3,0.1-0.5,0.3-0.7c0.2-0.2,0.5-0.3,0.8-0.3c0.3,0,0.6,0.1,0.8,0.3
		c0.2,0.2,0.3,0.5,0.3,0.7c0,0.3-0.1,0.5-0.3,0.7c-0.2,0.2-0.5,0.3-0.8,0.3c-0.3,0-0.6-0.1-0.8-0.3
		C790.4,3600.9,790.3,3600.6,790.3,3600.4z M798.8,3604.3c-0.3,0-0.5-0.1-0.8-0.1c-0.7-0.1-1.4,0.3-1.8,1v5.8h-1.9v-8.5h1.8l0,0.9
		c0.4-0.7,1.1-1.1,1.9-1.1c0.2,0,0.5,0,0.7,0.1L798.8,3604.3z M802,3611h-1.9v-8.5h1.9V3611z M800,3600.4c0-0.3,0.1-0.5,0.3-0.7
		c0.2-0.2,0.5-0.3,0.8-0.3c0.3,0,0.6,0.1,0.8,0.3c0.2,0.2,0.3,0.5,0.3,0.7c0,0.3-0.1,0.5-0.3,0.7c-0.2,0.2-0.5,0.3-0.8,0.3
		c-0.3,0-0.6-0.1-0.8-0.3C800.1,3600.9,800,3600.6,800,3600.4z M803.7,3606.7c-0.1-1.1,0.3-2.2,0.9-3.1c0.6-0.8,1.5-1.2,2.5-1.2
		c0.9,0,1.7,0.3,2.3,1l0.1-0.9h1.7v8.2c0.1,1-0.3,1.9-1,2.6c-0.8,0.7-1.8,1-2.8,1c-0.6,0-1.2-0.1-1.8-0.4c-0.5-0.2-1-0.6-1.4-1
		l0.9-1.1c0.5,0.7,1.3,1,2.2,1c0.5,0,1.1-0.2,1.5-0.5c0.4-0.4,0.6-0.9,0.5-1.5v-0.6c-0.6,0.6-1.4,0.9-2.2,0.9c-1,0-1.9-0.4-2.4-1.2
		C804,3609,803.7,3607.9,803.7,3606.7z M805.6,3606.9c0,0.7,0.1,1.4,0.5,2c0.3,0.5,0.9,0.8,1.4,0.7c0.7,0,1.4-0.4,1.7-1v-3.7
		c-0.3-0.6-1-1-1.7-1c-0.6,0-1.1,0.3-1.5,0.7C805.8,3605.3,805.6,3606.1,805.6,3606.9z M815.2,3611h-1.9v-8.5h1.9V3611z
		 M813.1,3600.4c0-0.3,0.1-0.5,0.3-0.7c0.2-0.2,0.5-0.3,0.8-0.3c0.3,0,0.6,0.1,0.8,0.3c0.2,0.2,0.3,0.5,0.3,0.7
		c0,0.3-0.1,0.5-0.3,0.7c-0.2,0.2-0.5,0.3-0.8,0.3c-0.3,0-0.6-0.1-0.8-0.3C813.2,3600.9,813.1,3600.6,813.1,3600.4z M816.9,3606.7
		c-0.1-1.1,0.3-2.2,0.9-3.1c0.6-0.8,1.5-1.2,2.4-1.2c0.8,0,1.6,0.3,2.2,0.9v-4.3h1.9v12h-1.7l-0.1-0.9c-0.6,0.7-1.4,1.1-2.3,1
		c-0.9,0-1.8-0.4-2.4-1.2C817.1,3609,816.8,3607.9,816.9,3606.7z M818.8,3606.9c0,0.7,0.1,1.4,0.5,2c0.3,0.5,0.8,0.7,1.4,0.7
		c0.7,0,1.4-0.4,1.7-1v-3.6c-0.3-0.6-1-1.1-1.7-1c-0.6,0-1.1,0.3-1.4,0.7C818.9,3605.3,818.7,3606.1,818.8,3606.9L818.8,3606.9z
		 M831.3,3611c-0.1-0.3-0.2-0.5-0.2-0.8c-1.2,1.2-3,1.3-4.3,0.2c-0.5-0.5-0.8-1.1-0.8-1.8c0-0.8,0.3-1.6,1-2.1
		c0.9-0.5,1.9-0.8,2.9-0.7h1.2v-0.6c0-0.4-0.1-0.8-0.4-1.1c-0.3-0.3-0.7-0.4-1.1-0.4c-0.4,0-0.8,0.1-1.1,0.3
		c-0.3,0.2-0.4,0.5-0.4,0.8h-1.9c0-0.5,0.2-0.9,0.5-1.3c0.3-0.4,0.8-0.7,1.3-0.9c0.6-0.2,1.2-0.4,1.8-0.3c0.9,0,1.7,0.2,2.4,0.7
		c0.6,0.5,0.9,1.3,0.9,2.1v3.8c0,0.6,0.1,1.2,0.3,1.8v0.1H831.3z M829.2,3609.6c0.4,0,0.7-0.1,1.1-0.3c0.3-0.2,0.6-0.4,0.7-0.7v-1.6
		h-1c-0.6,0-1.1,0.1-1.6,0.4c-0.3,0.2-0.5,0.6-0.5,1c0,0.3,0.1,0.6,0.4,0.9C828.5,3609.5,828.9,3609.7,829.2,3609.6z M743.8,3635
		c-0.1-0.3-0.2-0.5-0.2-0.8c-0.6,0.6-1.4,1-2.2,0.9c-0.8,0-1.5-0.2-2.1-0.7c-0.5-0.5-0.8-1.1-0.8-1.8c0-0.8,0.3-1.6,1-2.1
		c0.9-0.5,1.9-0.8,2.9-0.7h1.2v-0.6c0-0.4-0.1-0.8-0.4-1.1c-0.3-0.3-0.7-0.4-1.1-0.4c-0.4,0-0.8,0.1-1.1,0.3
		c-0.3,0.2-0.4,0.5-0.4,0.8h-1.9c0-0.5,0.2-0.9,0.5-1.3c0.3-0.4,0.8-0.7,1.3-0.9c0.6-0.2,1.2-0.4,1.8-0.3c0.9,0,1.7,0.2,2.4,0.7
		c0.6,0.5,0.9,1.3,0.9,2.1v3.8c0,0.6,0.1,1.2,0.3,1.8v0.1H743.8z M741.7,3633.6c0.4,0,0.7-0.1,1.1-0.3c0.3-0.2,0.6-0.4,0.7-0.7v-1.6
		h-1c-0.6,0-1.1,0.1-1.6,0.4c-0.3,0.2-0.5,0.6-0.5,1c0,0.3,0.1,0.6,0.4,0.9C741,3633.5,741.3,3633.7,741.7,3633.6z M753.4,3635h-1.9
		v-12h1.9V3635z M723.6,3611.1h-1.9v-12h1.9V3611.1z M760.5,3635c-0.1-0.3-0.2-0.5-0.2-0.8c-0.6,0.6-1.4,1-2.2,0.9
		c-0.8,0-1.5-0.2-2.1-0.7c-0.5-0.5-0.8-1.1-0.8-1.8c0-0.8,0.3-1.6,1-2.1c0.9-0.5,1.9-0.8,2.9-0.7h1.2v-0.6c0-0.4-0.1-0.8-0.4-1.1
		c-0.3-0.3-0.7-0.4-1.1-0.4c-0.4,0-0.8,0.1-1.1,0.3c-0.3,0.2-0.4,0.5-0.4,0.8h-1.9c0-0.5,0.2-0.9,0.5-1.3c0.3-0.4,0.8-0.7,1.3-0.9
		c0.6-0.2,1.2-0.4,1.8-0.3c0.9,0,1.7,0.2,2.4,0.7c0.6,0.5,0.9,1.3,0.9,2.1v3.8c0,0.6,0.1,1.2,0.3,1.8v0.1H760.5z M758.4,3633.6
		c0.4,0,0.7-0.1,1.1-0.3c0.3-0.2,0.6-0.4,0.7-0.7v-1.6h-1c-0.6,0-1.1,0.1-1.6,0.4c-0.3,0.2-0.5,0.6-0.5,1c0,0.3,0.1,0.6,0.4,0.9
		C757.7,3633.5,758,3633.7,758.4,3633.6z M768.7,3635v-7h-1.3v-1.4h1.3v-0.8c-0.1-0.8,0.2-1.6,0.8-2.2c0.6-0.5,1.4-0.8,2.2-0.8
		c0.4,0,0.7,0.1,1.1,0.1l0,1.5c-0.2,0-0.5-0.1-0.7-0.1c-0.7-0.1-1.3,0.4-1.4,1.1c0,0.1,0,0.2,0,0.3v0.8h1.7v1.4h-1.7v7H768.7z
		 M778.8,3635c-0.1-0.3-0.2-0.5-0.2-0.8c-0.6,0.6-1.4,1-2.2,0.9c-0.8,0-1.5-0.2-2.1-0.7c-0.5-0.5-0.8-1.1-0.8-1.8
		c0-0.8,0.3-1.6,1-2.1c0.9-0.5,1.9-0.8,2.9-0.7h1.2v-0.6c0-0.4-0.1-0.8-0.4-1.1c-0.3-0.3-0.7-0.4-1.1-0.4c-0.4,0-0.8,0.1-1.1,0.3
		c-0.3,0.2-0.4,0.5-0.4,0.8h-1.9c0-0.5,0.2-0.9,0.5-1.3c0.3-0.4,0.8-0.7,1.3-0.9c0.6-0.2,1.2-0.4,1.8-0.3c0.9,0,1.7,0.2,2.4,0.7
		c0.6,0.5,0.9,1.3,0.9,2.1v3.8c0,0.6,0.1,1.2,0.3,1.8v0.1H778.8z M776.7,3633.6c0.4,0,0.7-0.1,1.1-0.3c0.3-0.2,0.6-0.4,0.7-0.7v-1.6
		h-1c-0.6,0-1.1,0.1-1.6,0.4c-0.3,0.2-0.5,0.6-0.5,1c0,0.3,0.1,0.6,0.4,0.9C776,3633.5,776.4,3633.7,776.7,3633.6z M784.2,3626.5
		l0.1,0.9c0.6-0.7,1.5-1.1,2.4-1c1-0.1,1.9,0.4,2.3,1.3c0.6-0.9,1.6-1.3,2.6-1.3c0.8-0.1,1.5,0.2,2.1,0.8c0.5,0.7,0.7,1.5,0.7,2.3
		v5.6h-1.9v-5.5c0-0.4-0.1-0.8-0.4-1.2c-0.3-0.3-0.7-0.4-1.2-0.4c-0.4,0-0.8,0.1-1.1,0.3c-0.3,0.2-0.5,0.6-0.6,0.9l0,5.8h-1.9v-5.6
		c0.1-0.7-0.5-1.4-1.2-1.5c-0.1,0-0.2,0-0.3,0c-0.7,0-1.3,0.3-1.6,0.9v6.1h-1.9v-8.5H784.2z M798.3,3635h-1.9v-8.5h1.9V3635z
		 M796.3,3624.4c0-0.3,0.1-0.5,0.3-0.7c0.2-0.2,0.5-0.3,0.8-0.3c0.3,0,0.6,0.1,0.8,0.3c0.2,0.2,0.3,0.5,0.3,0.7
		c0,0.3-0.1,0.5-0.3,0.7c-0.2,0.2-0.5,0.3-0.8,0.3c-0.3,0-0.6-0.1-0.8-0.3C796.4,3624.9,796.3,3624.6,796.3,3624.4z M802.4,3635
		h-1.9v-12h1.9V3635z M806.5,3635h-1.9v-8.5h1.9V3635z M804.5,3624.4c0-0.3,0.1-0.5,0.3-0.7c0.2-0.2,0.5-0.3,0.8-0.3
		c0.3,0,0.6,0.1,0.8,0.3c0.2,0.2,0.3,0.5,0.3,0.7c0,0.3-0.1,0.5-0.3,0.7c-0.2,0.2-0.5,0.3-0.8,0.3c-0.3,0-0.6-0.1-0.8-0.3
		C804.6,3624.9,804.5,3624.6,804.5,3624.4z M813.6,3635c-0.1-0.3-0.2-0.5-0.2-0.8c-1.2,1.2-3,1.3-4.3,0.2c-0.5-0.5-0.8-1.1-0.8-1.8
		c0-0.8,0.3-1.6,1-2.1c0.9-0.5,1.9-0.8,2.9-0.7h1.2v-0.6c0-0.4-0.1-0.8-0.4-1.1c-0.3-0.3-0.7-0.4-1.1-0.4c-0.4,0-0.8,0.1-1.1,0.3
		c-0.3,0.2-0.4,0.5-0.4,0.8h-1.9c0-0.5,0.2-0.9,0.5-1.3c0.3-0.4,0.8-0.7,1.3-0.9c0.6-0.2,1.2-0.4,1.8-0.3c0.9,0,1.7,0.2,2.4,0.7
		c0.6,0.5,0.9,1.3,0.9,2.1v3.8c0,0.6,0.1,1.2,0.3,1.8v0.1H813.6z M811.5,3633.6c0.4,0,0.7-0.1,1.1-0.3c0.3-0.2,0.6-0.4,0.7-0.7v-1.6
		h-1c-0.6,0-1.1,0.1-1.6,0.4c-0.3,0.2-0.5,0.6-0.5,1c0,0.3,0.1,0.6,0.4,0.9C810.8,3633.5,811.2,3633.7,811.5,3633.6z"/>
	<path id="Trazado_12152" class="st4" d="M631.1,3748.4h-4.4l-0.9,2.6h-2.1l4.3-11.4h1.8l4.3,11.4h-2.1L631.1,3748.4z M627.3,3746.8
		h3.3l-1.6-4.7L627.3,3746.8z M637.5,3740.5v2.1h1.5v1.4h-1.5v4.7c0,0.2,0,0.5,0.2,0.7c0.2,0.2,0.4,0.2,0.7,0.2c0.2,0,0.4,0,0.7-0.1
		v1.5c-0.4,0.1-0.8,0.2-1.2,0.2c-1.5,0-2.2-0.8-2.2-2.4v-4.8h-1.4v-1.4h1.4v-2.1H637.5z M644.1,3751.2c-1.1,0-2.2-0.4-2.9-1.1
		c-0.8-0.8-1.2-1.9-1.1-3v-0.2c0-0.8,0.2-1.6,0.5-2.3c0.3-0.6,0.8-1.2,1.4-1.6c0.6-0.4,1.3-0.6,2-0.6c1-0.1,2,0.3,2.7,1.1
		c0.7,0.9,1,2,0.9,3.1v0.8H642c0,0.6,0.3,1.2,0.7,1.7c0.4,0.4,1,0.6,1.5,0.6c0.8,0,1.6-0.4,2.1-1.1l1,1c-0.3,0.5-0.8,0.9-1.4,1.2
		C645.4,3751,644.8,3751.2,644.1,3751.2z M643.9,3743.9c-0.5,0-0.9,0.2-1.3,0.5c-0.4,0.4-0.6,1-0.6,1.5h3.6v-0.1
		c0-0.5-0.2-1-0.5-1.4C644.8,3744.1,644.4,3743.9,643.9,3743.9z M650.8,3742.5l0.1,1c0.6-0.7,1.5-1.2,2.5-1.1c1.8,0,2.7,1,2.7,3v5.6
		h-1.9v-5.5c0-0.4-0.1-0.9-0.3-1.2c-0.3-0.3-0.7-0.4-1.1-0.4c-0.7,0-1.4,0.4-1.7,1v6H649v-8.5H650.8z M661.4,3749.6
		c0.4,0,0.9-0.1,1.2-0.4c0.3-0.3,0.5-0.6,0.5-1h1.8c0,0.5-0.2,1-0.5,1.5c-0.3,0.5-0.7,0.8-1.2,1.1c-0.5,0.3-1.1,0.4-1.7,0.4
		c-1.1,0.1-2.1-0.4-2.8-1.2c-0.7-0.9-1.1-2-1-3.2v-0.2c-0.1-1.1,0.3-2.2,1-3.1c0.7-0.8,1.7-1.2,2.8-1.2c0.9,0,1.8,0.3,2.5,0.9
		c0.6,0.6,1,1.4,1,2.3h-1.8c0-0.4-0.2-0.9-0.5-1.2c-0.3-0.3-0.7-0.5-1.2-0.5c-0.6,0-1.1,0.2-1.4,0.7c-0.4,0.6-0.6,1.3-0.5,2v0.3
		c-0.1,0.7,0.1,1.4,0.5,2.1C660.3,3749.4,660.8,3749.7,661.4,3749.6z M668.3,3751h-1.9v-8.5h1.9V3751z M666.3,3740.4
		c0-0.3,0.1-0.5,0.3-0.7c0.2-0.2,0.5-0.3,0.8-0.3c0.3,0,0.6,0.1,0.8,0.3c0.2,0.2,0.3,0.5,0.3,0.7c0,0.3-0.1,0.5-0.3,0.7
		c-0.2,0.2-0.5,0.3-0.8,0.3c-0.3,0-0.6-0.1-0.8-0.3C666.4,3740.9,666.3,3740.6,666.3,3740.4z M670,3746.7c0-0.8,0.2-1.5,0.5-2.2
		c0.3-0.6,0.8-1.2,1.4-1.5c0.6-0.4,1.3-0.5,2-0.5c1,0,2,0.4,2.8,1.1c0.7,0.8,1.1,1.8,1.2,2.9l0,0.4c0,0.8-0.2,1.5-0.5,2.2
		c-0.3,0.6-0.8,1.2-1.4,1.5c-0.6,0.4-1.3,0.6-2.1,0.5c-1.1,0-2.1-0.4-2.9-1.2C670.3,3749.1,669.9,3747.9,670,3746.7L670,3746.7z
		 M671.9,3746.9c0,0.7,0.1,1.4,0.5,2c0.3,0.5,0.9,0.8,1.5,0.7c0.6,0,1.2-0.3,1.5-0.8c0.4-0.7,0.6-1.4,0.5-2.2c0-0.7-0.2-1.4-0.6-2
		c-0.3-0.5-0.9-0.8-1.5-0.8c-0.6,0-1.1,0.3-1.5,0.7C672,3745.3,671.8,3746.1,671.9,3746.9L671.9,3746.9z M674.4,3739h2.2l-2.2,2.4
		h-1.5L674.4,3739z M681.2,3742.5l0.1,1c0.6-0.7,1.5-1.2,2.5-1.1c1.8,0,2.7,1,2.7,3v5.6h-1.9v-5.5c0-0.4-0.1-0.9-0.3-1.2
		c-0.3-0.3-0.7-0.4-1.1-0.4c-0.7,0-1.4,0.4-1.7,1v6h-1.9v-8.5H681.2z M699.8,3746.9c0.1,1.1-0.3,2.2-0.9,3.1
		c-0.6,0.8-1.5,1.2-2.4,1.2c-0.9,0-1.8-0.4-2.3-1.1l-0.1,0.9h-1.7v-12h1.9v4.4c0.5-0.6,1.4-1,2.2-1c0.9,0,1.9,0.4,2.4,1.1
		c0.6,0.9,1,2.1,0.9,3.2L699.8,3746.9z M697.9,3746.7c0-0.7-0.1-1.4-0.5-2.1c-0.3-0.5-0.9-0.7-1.4-0.7c-0.7,0-1.4,0.4-1.7,1.1v3.5
		c0.3,0.7,1,1.1,1.8,1.1c0.5,0,1.1-0.2,1.4-0.7c0.4-0.6,0.5-1.3,0.5-2L697.9,3746.7z M706.4,3751c-0.1-0.3-0.2-0.5-0.2-0.8
		c-0.6,0.6-1.4,1-2.2,0.9c-0.8,0-1.5-0.2-2.1-0.7c-0.5-0.5-0.8-1.1-0.8-1.8c0-0.8,0.3-1.6,1-2.1c0.9-0.5,1.9-0.8,2.9-0.7h1.2v-0.6
		c0-0.4-0.1-0.8-0.4-1.1c-0.3-0.3-0.7-0.4-1.1-0.4c-0.4,0-0.8,0.1-1.1,0.3c-0.3,0.2-0.4,0.5-0.4,0.8h-1.9c0-0.5,0.2-0.9,0.5-1.3
		c0.3-0.4,0.8-0.7,1.3-0.9c0.6-0.2,1.2-0.4,1.8-0.3c0.9,0,1.7,0.2,2.4,0.7c0.6,0.5,0.9,1.3,0.9,2.1v3.8c0,0.6,0.1,1.2,0.3,1.8v0.1
		H706.4z M704.3,3749.6c0.4,0,0.7-0.1,1.1-0.3c0.3-0.2,0.6-0.4,0.7-0.7v-1.6h-1c-0.6,0-1.1,0.1-1.6,0.4c-0.3,0.2-0.5,0.6-0.5,1
		c0,0.3,0.1,0.6,0.4,0.9C703.6,3749.5,704,3749.7,704.3,3749.6z M705.4,3739h2.2l-2.2,2.4h-1.5L705.4,3739z M714.8,3748.7
		c0-0.3-0.1-0.6-0.4-0.8c-0.4-0.2-0.9-0.4-1.4-0.5c-0.6-0.1-1.1-0.3-1.6-0.5c-0.8-0.3-1.4-1.1-1.4-2c0-0.7,0.3-1.4,0.9-1.8
		c0.7-0.5,1.5-0.8,2.3-0.7c0.9,0,1.7,0.2,2.4,0.8c0.6,0.5,1,1.2,0.9,1.9h-1.9c0-0.3-0.1-0.7-0.4-0.9c-0.3-0.3-0.7-0.4-1.1-0.4
		c-0.4,0-0.7,0.1-1,0.3c-0.3,0.2-0.4,0.5-0.4,0.8c0,0.3,0.1,0.5,0.4,0.7c0.5,0.2,1,0.4,1.5,0.5c0.6,0.1,1.2,0.3,1.8,0.6
		c0.4,0.2,0.7,0.5,0.9,0.8c0.2,0.3,0.3,0.8,0.3,1.2c0,0.7-0.3,1.4-0.9,1.8c-0.7,0.5-1.6,0.7-2.5,0.7c-0.6,0-1.3-0.1-1.9-0.4
		c-0.5-0.2-0.9-0.6-1.3-1c-0.3-0.4-0.5-0.9-0.5-1.4h1.8c0,0.4,0.2,0.8,0.5,1c0.4,0.3,0.8,0.4,1.2,0.4c0.4,0,0.8-0.1,1.1-0.3
		C714.6,3749.3,714.8,3749,714.8,3748.7z M720.3,3751h-1.9v-8.5h1.9V3751z M718.3,3740.4c0-0.3,0.1-0.5,0.3-0.7
		c0.2-0.2,0.5-0.3,0.8-0.3c0.3,0,0.6,0.1,0.8,0.3c0.2,0.2,0.3,0.5,0.3,0.7c0,0.3-0.1,0.5-0.3,0.7c-0.2,0.2-0.5,0.3-0.8,0.3
		c-0.3,0-0.6-0.1-0.8-0.3C718.4,3740.9,718.3,3740.6,718.3,3740.4z M725.8,3749.6c0.4,0,0.9-0.1,1.2-0.4c0.3-0.3,0.5-0.6,0.5-1h1.8
		c0,0.5-0.2,1-0.5,1.5c-0.3,0.5-0.7,0.8-1.2,1.1c-0.5,0.3-1.1,0.4-1.7,0.4c-1.1,0.1-2.1-0.4-2.8-1.1c-0.7-0.9-1.1-2-1-3.2v-0.2
		c-0.1-1.1,0.3-2.2,1-3.1c0.7-0.8,1.7-1.2,2.8-1.2c0.9,0,1.8,0.3,2.5,0.9c0.6,0.6,1,1.4,1,2.3h-1.8c0-0.4-0.2-0.9-0.5-1.2
		c-0.3-0.3-0.7-0.5-1.2-0.5c-0.6,0-1.1,0.2-1.4,0.7c-0.4,0.6-0.6,1.3-0.5,2v0.3c-0.1,0.7,0.1,1.4,0.5,2.1
		C724.7,3749.4,725.3,3749.7,725.8,3749.6z M735.8,3751c-0.1-0.3-0.2-0.5-0.2-0.8c-0.6,0.6-1.4,1-2.2,0.9c-0.8,0-1.5-0.2-2.1-0.7
		c-0.5-0.5-0.8-1.1-0.8-1.8c0-0.8,0.3-1.6,1-2.1c0.9-0.5,1.9-0.8,2.9-0.7h1.2v-0.6c0-0.4-0.1-0.8-0.4-1.1c-0.3-0.3-0.7-0.4-1.1-0.4
		c-0.4,0-0.8,0.1-1.1,0.3c-0.3,0.2-0.4,0.5-0.4,0.8h-1.9c0-0.5,0.2-0.9,0.5-1.3c0.3-0.4,0.8-0.7,1.3-0.9c0.6-0.2,1.2-0.4,1.8-0.3
		c0.9,0,1.7,0.2,2.4,0.7c0.6,0.5,0.9,1.3,0.9,2.1v3.8c0,0.6,0.1,1.2,0.3,1.8v0.1H735.8z M733.7,3749.6c0.4,0,0.7-0.1,1.1-0.3
		c0.3-0.2,0.6-0.4,0.7-0.7v-1.6h-1c-0.6,0-1.1,0.1-1.6,0.4c-0.3,0.2-0.5,0.6-0.5,1c0,0.3,0.1,0.6,0.4,0.9
		C733,3749.5,733.3,3749.7,733.7,3749.6z M636.6,3775.2c-1.1,0-2.2-0.4-2.9-1.1c-0.8-0.8-1.2-1.9-1.1-3v-0.2c0-0.8,0.2-1.6,0.5-2.3
		c0.3-0.6,0.8-1.2,1.4-1.6c0.6-0.4,1.3-0.6,2-0.6c1-0.1,2,0.3,2.7,1.1c0.7,0.9,1,2,0.9,3.1v0.8h-5.5c0,0.6,0.3,1.2,0.7,1.7
		c0.4,0.4,1,0.6,1.5,0.6c0.8,0,1.6-0.4,2.1-1.1l1,1c-0.3,0.5-0.8,0.9-1.4,1.2C637.9,3775,637.2,3775.2,636.6,3775.2z M636.4,3767.9
		c-0.5,0-0.9,0.2-1.3,0.5c-0.4,0.4-0.6,1-0.6,1.5h3.6v-0.1c0-0.5-0.2-1-0.5-1.4C637.3,3768.1,636.8,3767.9,636.4,3767.9z
		 M643.2,3766.5l0.1,1c0.6-0.7,1.5-1.2,2.5-1.1c1.8,0,2.7,1,2.7,3v5.6h-1.9v-5.5c0-0.4-0.1-0.9-0.3-1.2c-0.3-0.3-0.7-0.4-1.1-0.4
		c-0.7,0-1.4,0.4-1.7,1v6h-1.9v-8.5H643.2z M654,3770.7c0-0.8,0.2-1.5,0.5-2.2c0.3-0.6,0.8-1.2,1.4-1.5c0.6-0.4,1.3-0.5,2-0.5
		c1,0,2,0.4,2.8,1.1c0.7,0.8,1.1,1.8,1.2,2.9l0,0.4c0,0.8-0.2,1.5-0.5,2.2c-0.3,0.6-0.8,1.2-1.4,1.5c-0.6,0.4-1.3,0.6-2.1,0.5
		c-1.1,0-2.1-0.4-2.9-1.2C654.3,3773.1,653.9,3771.9,654,3770.7L654,3770.7z M655.9,3770.9c0,0.7,0.1,1.4,0.5,2
		c0.3,0.5,0.9,0.8,1.5,0.7c0.6,0,1.2-0.3,1.5-0.8c0.4-0.7,0.6-1.4,0.5-2.2c0-0.7-0.2-1.4-0.6-2c-0.3-0.5-0.9-0.8-1.5-0.8
		c-0.6,0-1.1,0.3-1.5,0.7C656,3769.3,655.8,3770.1,655.9,3770.9L655.9,3770.9z M667.9,3768.3c-0.3,0-0.5-0.1-0.8-0.1
		c-0.7-0.1-1.4,0.3-1.8,1v5.8h-1.9v-8.5h1.8l0,0.9c0.4-0.7,1.1-1.1,1.9-1.1c0.2,0,0.5,0,0.7,0.1L667.9,3768.3z M671.1,3775h-1.9
		v-8.5h1.9V3775z M669.1,3764.4c0-0.3,0.1-0.5,0.3-0.7c0.2-0.2,0.5-0.3,0.8-0.3c0.3,0,0.6,0.1,0.8,0.3c0.2,0.2,0.3,0.5,0.3,0.7
		c0,0.3-0.1,0.5-0.3,0.7c-0.2,0.2-0.5,0.3-0.8,0.3c-0.3,0-0.6-0.1-0.8-0.3C669.2,3764.9,669.1,3764.6,669.1,3764.4z M676.9,3775.2
		c-1.1,0-2.1-0.4-2.9-1.1c-0.8-0.8-1.2-1.9-1.1-3v-0.2c0-0.8,0.2-1.6,0.5-2.3c0.3-0.6,0.8-1.2,1.4-1.6c0.6-0.4,1.3-0.6,2-0.6
		c1-0.1,2,0.3,2.7,1.1c0.7,0.9,1,2,0.9,3.1v0.8h-5.5c0,0.6,0.3,1.2,0.7,1.7c0.4,0.4,1,0.6,1.5,0.6c0.8,0,1.6-0.4,2.1-1.1l1,1
		c-0.3,0.5-0.8,0.9-1.4,1.2C678.2,3775,677.5,3775.2,676.9,3775.2L676.9,3775.2z M676.6,3767.9c-0.5,0-0.9,0.2-1.3,0.5
		c-0.4,0.4-0.6,1-0.6,1.5h3.6v-0.1c0-0.5-0.2-1-0.5-1.4C677.6,3768.1,677.1,3767.9,676.6,3767.9L676.6,3767.9z M683.5,3766.5l0.1,1
		c0.6-0.7,1.5-1.2,2.5-1.1c1.8,0,2.7,1,2.7,3v5.6h-1.9v-5.5c0-0.4-0.1-0.9-0.3-1.2c-0.3-0.3-0.7-0.4-1.1-0.4c-0.7,0-1.4,0.4-1.7,1v6
		h-1.9v-8.5H683.5z M693,3764.5v2.1h1.5v1.4H693v4.7c0,0.2,0,0.5,0.2,0.7c0.2,0.2,0.4,0.2,0.7,0.2c0.2,0,0.4,0,0.7-0.1v1.5
		c-0.4,0.1-0.8,0.2-1.2,0.2c-1.5,0-2.2-0.8-2.2-2.4v-4.8h-1.4v-1.4h1.4v-2.1H693z M701,3775c-0.1-0.3-0.2-0.5-0.2-0.8
		c-0.6,0.6-1.4,1-2.2,0.9c-0.8,0-1.5-0.2-2.1-0.7c-0.5-0.5-0.8-1.1-0.8-1.8c0-0.8,0.3-1.6,1-2.1c0.9-0.5,1.9-0.8,2.9-0.7h1.2v-0.6
		c0-0.4-0.1-0.8-0.4-1.1c-0.3-0.3-0.7-0.4-1.1-0.4c-0.4,0-0.8,0.1-1.1,0.3c-0.3,0.2-0.4,0.5-0.4,0.8h-1.9c0-0.5,0.2-0.9,0.5-1.3
		c0.3-0.4,0.8-0.7,1.3-0.9c0.6-0.2,1.2-0.4,1.8-0.3c0.9,0,1.7,0.2,2.4,0.7c0.6,0.5,0.9,1.3,0.9,2.1v3.8c0,0.6,0.1,1.2,0.3,1.8v0.1
		H701z M698.9,3773.6c0.4,0,0.7-0.1,1.1-0.3c0.3-0.2,0.6-0.4,0.7-0.7v-1.6h-1c-0.6,0-1.1,0.1-1.6,0.4c-0.3,0.2-0.5,0.6-0.5,1
		c0,0.3,0.1,0.6,0.4,0.9C698.2,3773.5,698.6,3773.7,698.9,3773.6z M708.1,3773.6c0.4,0,0.9-0.1,1.2-0.4c0.3-0.3,0.5-0.6,0.5-1h1.8
		c0,0.5-0.2,1-0.5,1.5c-0.3,0.5-0.7,0.8-1.2,1.1c-0.5,0.3-1.1,0.4-1.7,0.4c-1.1,0.1-2.1-0.4-2.8-1.2c-0.7-0.9-1.1-2-1-3.2v-0.2
		c-0.1-1.1,0.3-2.2,1-3.1c0.7-0.8,1.7-1.2,2.8-1.2c0.9,0,1.8,0.3,2.5,0.9c0.6,0.6,1,1.4,1,2.3h-1.8c0-0.4-0.2-0.9-0.5-1.2
		c-0.3-0.3-0.7-0.5-1.2-0.5c-0.6,0-1.1,0.2-1.4,0.7c-0.4,0.6-0.6,1.3-0.5,2v0.3c-0.1,0.7,0.1,1.4,0.5,2.1
		C707,3773.4,707.5,3773.7,708.1,3773.6z M715,3775h-1.9v-8.5h1.9V3775z M713,3764.4c0-0.3,0.1-0.5,0.3-0.7c0.2-0.2,0.5-0.3,0.8-0.3
		c0.3,0,0.6,0.1,0.8,0.3c0.2,0.2,0.3,0.5,0.3,0.7c0,0.3-0.1,0.5-0.3,0.7c-0.2,0.2-0.5,0.3-0.8,0.3c-0.3,0-0.6-0.1-0.8-0.3
		C713.1,3764.9,713,3764.6,713,3764.4z M716.7,3770.7c0-0.8,0.2-1.5,0.5-2.2c0.3-0.6,0.8-1.2,1.4-1.5c0.6-0.4,1.3-0.5,2-0.5
		c1,0,2,0.4,2.8,1.1c0.7,0.8,1.1,1.8,1.2,2.9l0,0.4c0,0.8-0.2,1.5-0.5,2.2c-0.3,0.6-0.8,1.2-1.4,1.5c-0.6,0.4-1.3,0.6-2.1,0.5
		c-1.1,0-2.1-0.4-2.9-1.2C717,3773.1,716.7,3771.9,716.7,3770.7L716.7,3770.7z M718.6,3770.9c0,0.7,0.1,1.4,0.5,2
		c0.3,0.5,0.9,0.8,1.5,0.7c0.6,0,1.2-0.3,1.5-0.8c0.4-0.7,0.6-1.4,0.5-2.2c0-0.7-0.2-1.4-0.6-2c-0.6-0.8-1.8-1-2.6-0.4
		c-0.1,0.1-0.3,0.2-0.4,0.4C718.8,3769.3,718.6,3770.1,718.6,3770.9L718.6,3770.9z M721.2,3763h2.2l-2.2,2.4h-1.5L721.2,3763z
		 M727.9,3766.5l0.1,1c0.6-0.7,1.5-1.2,2.5-1.1c1.8,0,2.7,1,2.7,3v5.6h-1.9v-5.5c0-0.4-0.1-0.9-0.3-1.2c-0.3-0.3-0.7-0.4-1.1-0.4
		c-0.7,0-1.4,0.4-1.7,1v6h-1.9v-8.5H727.9z M661.9,3794.2h-4.6v4.8h-2v-11.4h7.2v1.6h-5.2v3.4h4.6V3794.2z M668.7,3799
		c-0.1-0.3-0.2-0.5-0.2-0.8c-0.6,0.6-1.4,1-2.2,0.9c-0.8,0-1.5-0.2-2.1-0.7c-0.5-0.5-0.8-1.1-0.8-1.8c0-0.8,0.3-1.6,1-2.1
		c0.9-0.5,1.9-0.8,2.9-0.7h1.2v-0.6c0-0.4-0.1-0.8-0.4-1.1c-0.3-0.3-0.7-0.4-1.1-0.4c-0.4,0-0.8,0.1-1.1,0.3
		c-0.3,0.2-0.4,0.5-0.4,0.8h-1.9c0-0.5,0.2-0.9,0.5-1.3c0.3-0.4,0.8-0.7,1.3-0.9c0.6-0.2,1.2-0.4,1.8-0.3c0.9,0,1.7,0.2,2.4,0.7
		c0.6,0.5,0.9,1.3,0.9,2.1v3.8c0,0.6,0.1,1.2,0.3,1.8v0.1H668.7z M666.6,3797.6c0.4,0,0.7-0.1,1.1-0.3c0.3-0.2,0.6-0.4,0.7-0.7v-1.6
		h-1c-0.6,0-1.1,0.1-1.6,0.4c-0.3,0.2-0.5,0.6-0.5,1c0,0.3,0.1,0.6,0.4,0.9C665.9,3797.5,666.3,3797.7,666.6,3797.6z M674.1,3790.5
		l0.1,0.9c0.6-0.7,1.5-1.1,2.4-1c1-0.1,1.9,0.4,2.3,1.3c0.6-0.9,1.6-1.3,2.6-1.3c0.8-0.1,1.5,0.2,2.1,0.8c0.5,0.7,0.7,1.5,0.7,2.3
		v5.6h-1.9v-5.5c0-0.4-0.1-0.8-0.4-1.2c-0.3-0.3-0.7-0.4-1.2-0.4c-0.4,0-0.8,0.1-1.1,0.3c-0.3,0.2-0.5,0.6-0.6,0.9l0,5.8h-1.9v-5.6
		c0.1-0.7-0.5-1.4-1.2-1.5c-0.1,0-0.2,0-0.3,0c-0.7,0-1.3,0.3-1.6,0.9v6.1h-1.9v-8.5H674.1z M688.3,3799h-1.9v-8.5h1.9V3799z
		 M686.3,3788.4c0-0.3,0.1-0.5,0.3-0.7c0.2-0.2,0.5-0.3,0.8-0.3c0.3,0,0.6,0.1,0.8,0.3c0.2,0.2,0.3,0.5,0.3,0.7
		c0,0.3-0.1,0.5-0.3,0.7c-0.2,0.2-0.5,0.3-0.8,0.3c-0.3,0-0.6-0.1-0.8-0.3C686.3,3788.9,686.2,3788.6,686.3,3788.4z M692.4,3799
		h-1.9v-12h1.9V3799z M696.4,3799h-1.9v-8.5h1.9V3799z M694.4,3788.4c0-0.3,0.1-0.5,0.3-0.7c0.2-0.2,0.5-0.3,0.8-0.3
		c0.3,0,0.6,0.1,0.8,0.3c0.2,0.2,0.3,0.5,0.3,0.7c0,0.3-0.1,0.5-0.3,0.7c-0.2,0.2-0.5,0.3-0.8,0.3c-0.3,0-0.6-0.1-0.8-0.3
		C694.5,3788.9,694.4,3788.6,694.4,3788.4z M703.6,3799c-0.1-0.3-0.2-0.5-0.2-0.8c-1.2,1.2-3,1.3-4.3,0.2c-0.5-0.5-0.8-1.1-0.8-1.8
		c0-0.8,0.3-1.6,1-2.1c0.9-0.5,1.9-0.8,2.9-0.7h1.2v-0.6c0-0.4-0.1-0.8-0.4-1.1c-0.3-0.3-0.7-0.4-1.1-0.4c-0.4,0-0.8,0.1-1.1,0.3
		c-0.3,0.2-0.4,0.5-0.4,0.8h-1.9c0-0.5,0.2-0.9,0.5-1.3c0.3-0.4,0.8-0.7,1.3-0.9c0.6-0.2,1.2-0.4,1.8-0.3c0.9,0,1.7,0.2,2.4,0.7
		c0.6,0.5,0.9,1.3,0.9,2.1v3.8c0,0.6,0.1,1.2,0.3,1.8v0.1H703.6z M701.5,3797.6c0.4,0,0.7-0.1,1.1-0.3c0.3-0.2,0.6-0.4,0.7-0.7v-1.6
		h-1c-0.6,0-1.1,0.1-1.6,0.4c-0.3,0.2-0.5,0.6-0.5,1c0,0.3,0.1,0.6,0.4,0.9C700.8,3797.5,701.1,3797.7,701.5,3797.6z M711.6,3792.3
		c-0.3,0-0.5-0.1-0.8-0.1c-0.7-0.1-1.4,0.3-1.8,1v5.8h-1.9v-8.5h1.8l0,0.9c0.4-0.7,1.1-1.1,1.9-1.1c0.2,0,0.5,0,0.7,0.1
		L711.6,3792.3z"/>
</g>
</svg>
