<svg xmlns="http://www.w3.org/2000/svg" width="312" height="167" viewBox="0 0 312 167">
  <g id="Grupo_24686" data-name="Grupo 24686" transform="translate(-179 -1541)">
    <rect id="Rectángulo_5740" data-name="Rectángulo 5740" width="312" height="167" rx="10" transform="translate(179 1541)" fill="#e8eef6"/>
    <g id="Grupo_24679" data-name="Grupo 24679" transform="translate(224.193 1557.401)">
      <path id="Trazado_11658" data-name="Trazado 11658" d="M155.2,348.656l-23.493-6.91H90.9l-23.493,6.91a13.374,13.374,0,0,0-9.6,12.831v19.527a6.687,6.687,0,0,0,6.687,6.687h93.618a6.687,6.687,0,0,0,6.687-6.687V361.486A13.374,13.374,0,0,0,155.2,348.656Z" transform="translate(0 -249.503)" fill="#89ace8"/>
      <path id="Trazado_11659" data-name="Trazado 11659" d="M224.942,391.419h-22.29l-4.458-44.58H229.4Z" transform="translate(-102.494 -253.221)" fill="#a5cdff"/>
      <path id="Trazado_11660" data-name="Trazado 11660" d="M198.194,346.839l.667,6.672a19.994,19.994,0,0,0,29.872,0l.667-6.672Z" transform="translate(-102.494 -253.221)" fill="#8cb4eb"/>
      <path id="Trazado_11661" data-name="Trazado 11661" d="M213.8,295.464h0a15.6,15.6,0,0,1-15.6-15.6v-15.6H229.4v15.6A15.6,15.6,0,0,1,213.8,295.464Z" transform="translate(-102.493 -192.93)" fill="#f7d291"/>
      <path id="Trazado_11662" data-name="Trazado 11662" d="M198.194,273.689a32.841,32.841,0,0,0,31.206,0v-9.431H198.194Z" transform="translate(-102.494 -192.93)" fill="#f0c382"/>
      <path id="Trazado_11663" data-name="Trazado 11663" d="M189.626,96.613h-1.114V74.323H130.558v22.29h-1.115a5.572,5.572,0,1,0,0,11.145h1.227a28.948,28.948,0,0,0,57.729,0h1.227a5.573,5.573,0,0,0,0-11.145Z" transform="translate(-48.232 -54.262)" fill="#ffe1a0"/>
      <g id="Grupo_24677" data-name="Grupo 24677" transform="translate(95.7 42.545)">
        <path id="Trazado_11664" data-name="Trazado 11664" d="M200.423,164.308a2.228,2.228,0,0,1-2.229-2.229V159.85a2.229,2.229,0,1,1,4.458,0v2.229A2.228,2.228,0,0,1,200.423,164.308Z" transform="translate(-198.194 -157.621)" fill="#6e5a64"/>
        <path id="Trazado_11665" data-name="Trazado 11665" d="M299.519,164.308a2.228,2.228,0,0,1-2.229-2.229V159.85a2.229,2.229,0,1,1,4.458,0v2.229A2.228,2.228,0,0,1,299.519,164.308Z" transform="translate(-270.542 -157.621)" fill="#6e5a64"/>
      </g>
      <g id="Grupo_24678" data-name="Grupo 24678" transform="translate(93.471 35.664)">
        <path id="Trazado_11666" data-name="Trazado 11666" d="M196.623,136.587h-4.458a2.229,2.229,0,0,1,0-4.458h4.458a2.229,2.229,0,1,1,0,4.458Z" transform="translate(-189.936 -132.129)" fill="#a06e50"/>
        <path id="Trazado_11667" data-name="Trazado 11667" d="M295.719,136.587h-4.458a2.229,2.229,0,0,1,0-4.458h4.458a2.229,2.229,0,0,1,0,4.458Z" transform="translate(-262.284 -132.129)" fill="#a06e50"/>
      </g>
      <path id="Trazado_11668" data-name="Trazado 11668" d="M130.558,74.323v22.29h-.919a5.7,5.7,0,0,0-5.566,4.06,5.59,5.59,0,0,0,5.37,7.086h1.227a28.772,28.772,0,0,0,33.336,26.373,28.958,28.958,0,0,1-24.533-28.6V91.984a9.02,9.02,0,0,1,9.635-9.063c1.46.12,2.993.185,4.6.185a85.661,85.661,0,0,0,21.451-3.066,14.968,14.968,0,0,0,8.31-5.716Z" transform="translate(-48.232 -54.262)" fill="#f7d291"/>
      <path id="Trazado_11669" data-name="Trazado 11669" d="M147.453,41.248l.279,8.916s-6.687,6.687-6.687,15.6v2.752a4.458,4.458,0,0,1-3.905,4.424l-5.011.626V54.622C132.128,47.236,139.094,40.877,147.453,41.248Z" transform="translate(-54.26 -30.103)" fill="#a06e50"/>
      <path id="Trazado_11670" data-name="Trazado 11670" d="M282.705,333.824l-4.415-4.415,4.725-6.3a2.729,2.729,0,0,0-.963-4.079L271.6,313.806,256,367.3h13.374L283.54,338.97A4.458,4.458,0,0,0,282.705,333.824Z" transform="translate(-144.697 -229.104)" fill="#dbd9dc"/>
      <path id="Trazado_11671" data-name="Trazado 11671" d="M376.729,443.25h-3.343v-3.343a2.229,2.229,0,0,0-4.458,0v3.343h-3.343a2.229,2.229,0,1,0,0,4.458h3.343v3.343a2.229,2.229,0,1,0,4.458,0v-3.343h3.343a2.229,2.229,0,1,0,0-4.458Z" transform="translate(-223.075 -319.541)" fill="#a5cdff"/>
      <path id="Trazado_11672" data-name="Trazado 11672" d="M322.343,16.474l-.279,15.6s6.687,6.687,6.687,15.6v2.752a4.458,4.458,0,0,0,3.905,4.424l5.011.626V29.848C337.667,22.462,330.7,16.1,322.343,16.474Z" transform="translate(-192.929 -12.016)" fill="#cd916e"/>
      <path id="Trazado_11673" data-name="Trazado 11673" d="M231.883,221.4a11.929,11.929,0,0,1-8.252-2.871,2.229,2.229,0,0,1,3.13-3.174,9.06,9.06,0,0,0,10.244,0,2.229,2.229,0,0,1,3.13,3.174A11.926,11.926,0,0,1,231.883,221.4Z" transform="translate(-120.581 -156.756)" fill="#e3aa75"/>
      <path id="Trazado_11674" data-name="Trazado 11674" d="M153.531,333.824l4.415-4.415-4.725-6.3a2.729,2.729,0,0,1,.963-4.079l10.449-5.225,15.6,53.5H166.862L152.7,338.97A4.458,4.458,0,0,1,153.531,333.824Z" transform="translate(-68.933 -229.104)" fill="#dbd9dc"/>
      <path id="Trazado_11675" data-name="Trazado 11675" d="M170.313,0c-18.6,0-22.161,5.653-36.481,10.214a1.56,1.56,0,0,0-.871,2.323c3.107,4.861,14.673,17.53,47.531,8.927a10.413,10.413,0,0,0,7.587-8.01h0c.9-4.519-1.842-8.994-5.971-11.04A27.451,27.451,0,0,0,170.313,0Z" transform="translate(-54.691)" fill="#b67f5f"/>
      <path id="Trazado_11676" data-name="Trazado 11676" d="M119.157,475.826H101.325A2.229,2.229,0,0,1,99.1,473.6v-8.916a2.229,2.229,0,0,1,2.229-2.229h17.832a2.229,2.229,0,0,1,2.229,2.229V473.6A2.229,2.229,0,0,1,119.157,475.826Z" transform="translate(-30.144 -337.628)" fill="#a5cdff"/>
      <path id="Trazado_11677" data-name="Trazado 11677" d="M134.358,448.823a2.228,2.228,0,0,1-2.229-2.229v-6.687a2.229,2.229,0,1,1,4.458,0v6.687A2.228,2.228,0,0,1,134.358,448.823Z" transform="translate(-54.261 -319.541)" fill="#fff"/>
      <path id="Trazado_11678" data-name="Trazado 11678" d="M119.157,489.455H101.325a2.229,2.229,0,0,1-2.229-2.229v4.458a2.229,2.229,0,0,0,2.229,2.229h17.832a2.229,2.229,0,0,0,2.229-2.229v-4.458A2.229,2.229,0,0,1,119.157,489.455Z" transform="translate(-30.144 -355.715)" fill="#8cb4eb"/>
    </g>
  </g>
</svg>
