<svg xmlns="http://www.w3.org/2000/svg" width="865" height="465.099" viewBox="0 0 865 465.099">
  <g id="Grupo_24852" data-name="Grupo 24852" transform="translate(-254 -2211.973)">
    <path id="Trazado_12131" data-name="Trazado 12131" d="M4.2-5.01V0H1.27V-14.219H6.816a6.417,6.417,0,0,1,2.817.586,4.318,4.318,0,0,1,1.87,1.665,4.643,4.643,0,0,1,.654,2.456,4.083,4.083,0,0,1-1.431,3.3A5.959,5.959,0,0,1,6.768-5.01Zm0-2.373H6.816A2.573,2.573,0,0,0,8.589-7.93,1.989,1.989,0,0,0,9.2-9.492a2.345,2.345,0,0,0-.615-1.689,2.3,2.3,0,0,0-1.7-.664H4.2ZM19.434-5.205H17.1V0H14.17V-14.219h5.283A5.972,5.972,0,0,1,23.34-13.1a3.876,3.876,0,0,1,1.367,3.174,4.374,4.374,0,0,1-.63,2.427,4.3,4.3,0,0,1-1.909,1.548L25.244-.137V0H22.1ZM17.1-7.578h2.363a2.42,2.42,0,0,0,1.709-.562,2.007,2.007,0,0,0,.605-1.548,2.148,2.148,0,0,0-.571-1.582,2.374,2.374,0,0,0-1.753-.576H17.1Zm21.514.791a8.583,8.583,0,0,1-.742,3.682A5.589,5.589,0,0,1,35.747-.664,5.875,5.875,0,0,1,32.578.2a5.915,5.915,0,0,1-3.154-.85,5.644,5.644,0,0,1-2.148-2.427A8.338,8.338,0,0,1,26.5-6.709v-.7a8.538,8.538,0,0,1,.757-3.7A5.635,5.635,0,0,1,29.4-13.56a5.883,5.883,0,0,1,3.159-.854,5.883,5.883,0,0,1,3.159.854,5.635,5.635,0,0,1,2.139,2.451,8.514,8.514,0,0,1,.757,3.687Zm-2.969-.645a5.984,5.984,0,0,0-.8-3.4,2.61,2.61,0,0,0-2.285-1.162,2.611,2.611,0,0,0-2.275,1.147,5.915,5.915,0,0,0-.811,3.364v.693a6.058,6.058,0,0,0,.8,3.379,2.6,2.6,0,0,0,2.3,1.2,2.579,2.579,0,0,0,2.266-1.157,6.023,6.023,0,0,0,.8-3.374ZM51.992-1.8a5.085,5.085,0,0,1-2.236,1.47,9.365,9.365,0,0,1-3.2.522A6.345,6.345,0,0,1,43.315-.61a5.374,5.374,0,0,1-2.148-2.339,8.232,8.232,0,0,1-.776-3.6V-7.52a8.742,8.742,0,0,1,.718-3.687,5.31,5.31,0,0,1,2.07-2.383,5.964,5.964,0,0,1,3.169-.825A5.939,5.939,0,0,1,50.3-13.208,5.154,5.154,0,0,1,51.992-9.7H49.141a2.835,2.835,0,0,0-.864-1.787,2.76,2.76,0,0,0-1.841-.566,2.6,2.6,0,0,0-2.275,1.123,5.905,5.905,0,0,0-.791,3.34v.908a5.622,5.622,0,0,0,.85,3.379,2.909,2.909,0,0,0,2.49,1.143,3.25,3.25,0,0,0,2.354-.7V-5.312H46.4V-7.471h5.6Zm7.637-3.408H57.295V0h-2.93V-14.219h5.283A5.972,5.972,0,0,1,63.535-13.1,3.876,3.876,0,0,1,64.9-9.922a4.374,4.374,0,0,1-.63,2.427,4.3,4.3,0,0,1-1.909,1.548L65.439-.137V0H62.295ZM57.295-7.578h2.363a2.42,2.42,0,0,0,1.709-.562,2.007,2.007,0,0,0,.605-1.548A2.148,2.148,0,0,0,61.4-11.27a2.374,2.374,0,0,0-1.753-.576H57.295ZM75.156-2.93H70.02L69.043,0H65.928l5.293-14.219h2.715L79.258,0H76.143ZM70.811-5.3h3.555l-1.787-5.322Zm13.6-8.916L88.066-3.906,91.7-14.219h3.848V0H92.607V-3.887L92.9-10.6,89.063,0H87.051L83.223-10.586l.293,6.7V0h-2.93V-14.219ZM106.309-2.93h-5.137L100.2,0H97.08l5.293-14.219h2.715L110.41,0h-3.115ZM101.963-5.3h3.555l-1.787-5.322Zm2.373-12.725h3.076L104.707-15h-2.295Zm16.934,6.182h-4.355V0h-2.93V-11.846h-4.3v-2.373H121.27ZM126.055,0h-2.93V-14.219h2.93Zm13.877-4.736a5.031,5.031,0,0,1-1.694,3.613A5.951,5.951,0,0,1,134.209.2a5.351,5.351,0,0,1-4.3-1.841A7.548,7.548,0,0,1,128.34-6.7v-.869a8.523,8.523,0,0,1,.723-3.613,5.415,5.415,0,0,1,2.065-2.4,5.786,5.786,0,0,1,3.12-.835,5.8,5.8,0,0,1,3.965,1.318,5.407,5.407,0,0,1,1.738,3.7h-2.93a2.97,2.97,0,0,0-.767-2,2.839,2.839,0,0,0-2.007-.62,2.489,2.489,0,0,0-2.192,1.05,5.883,5.883,0,0,0-.747,3.257v1.074a6.3,6.3,0,0,0,.7,3.369,2.443,2.443,0,0,0,2.2,1.064,2.892,2.892,0,0,0,2.026-.62A2.8,2.8,0,0,0,137-4.736Zm13.6-2.051a8.583,8.583,0,0,1-.742,3.682,5.589,5.589,0,0,1-2.124,2.441A5.875,5.875,0,0,1,147.5.2a5.915,5.915,0,0,1-3.154-.85A5.644,5.644,0,0,1,142.2-3.081a8.338,8.338,0,0,1-.771-3.628v-.7a8.538,8.538,0,0,1,.757-3.7,5.635,5.635,0,0,1,2.139-2.451,5.883,5.883,0,0,1,3.159-.854,5.883,5.883,0,0,1,3.159.854,5.635,5.635,0,0,1,2.139,2.451,8.514,8.514,0,0,1,.757,3.687Zm-2.969-.645a5.983,5.983,0,0,0-.8-3.4,2.61,2.61,0,0,0-2.285-1.162,2.611,2.611,0,0,0-2.275,1.147,5.915,5.915,0,0,0-.811,3.364v.693a6.058,6.058,0,0,0,.8,3.379,2.6,2.6,0,0,0,2.3,1.2,2.579,2.579,0,0,0,2.266-1.157,6.023,6.023,0,0,0,.8-3.374Z" transform="translate(307 2230)" fill="#12263f"/>
    <path id="Trazado_12137" data-name="Trazado 12137" d="M1.27,0V-14.219H5.645A6.644,6.644,0,0,1,9-13.374a5.89,5.89,0,0,1,2.31,2.4,7.41,7.41,0,0,1,.83,3.54v.654a7.431,7.431,0,0,1-.815,3.525,5.84,5.84,0,0,1-2.3,2.393A6.694,6.694,0,0,1,5.674,0ZM4.2-11.846v9.492H5.615A3.181,3.181,0,0,0,8.242-3.477,5.075,5.075,0,0,0,9.17-6.689v-.752a5.156,5.156,0,0,0-.9-3.286,3.171,3.171,0,0,0-2.627-1.118ZM22.822-6.162H17.2v3.809h6.6V0H14.268V-14.219h9.512v2.373H17.2v3.389h5.625Zm6.523-8.057L33-3.906l3.633-10.312h3.848V0H37.539V-3.887l.293-6.709L33.994,0H31.982L28.154-10.586l.293,6.7V0h-2.93V-14.219ZM51.24-2.93H46.1L45.127,0H42.012L47.3-14.219H50.02L55.342,0H52.227ZM46.895-5.3h3.555l-1.787-5.322ZM68.232,0H65.3L59.6-9.355V0H56.67V-14.219H59.6l5.713,9.375v-9.375h2.92Zm2.559,0V-14.219h4.375a6.644,6.644,0,0,1,3.354.845,5.89,5.89,0,0,1,2.31,2.4,7.41,7.41,0,0,1,.83,3.54v.654a7.431,7.431,0,0,1-.815,3.525,5.84,5.84,0,0,1-2.3,2.393A6.694,6.694,0,0,1,75.2,0Zm2.93-11.846v9.492h1.416a3.181,3.181,0,0,0,2.627-1.123,5.075,5.075,0,0,0,.928-3.213v-.752a5.156,5.156,0,0,0-.9-3.286,3.171,3.171,0,0,0-2.627-1.118ZM91.611-2.93H86.475L85.5,0H82.383l5.293-14.219h2.715L95.713,0H92.6ZM87.266-5.3H90.82l-1.787-5.322Z" transform="translate(639 2230)" fill="#12263f"/>
    <path id="Trazado_12148" data-name="Trazado 12148" d="M1.27,0V-14.219H5.645A6.644,6.644,0,0,1,9-13.374a5.89,5.89,0,0,1,2.31,2.4,7.41,7.41,0,0,1,.83,3.54v.654a7.431,7.431,0,0,1-.815,3.525,5.84,5.84,0,0,1-2.3,2.393A6.694,6.694,0,0,1,5.674,0ZM4.2-11.846v9.492H5.615A3.181,3.181,0,0,0,8.242-3.477,5.075,5.075,0,0,0,9.17-6.689v-.752a5.156,5.156,0,0,0-.9-3.286,3.171,3.171,0,0,0-2.627-1.118ZM22.822-6.162H17.2v3.809h6.6V0H14.268V-14.219h9.512v2.373H17.2v3.389h5.625Zm6.523-8.057L33-3.906l3.633-10.312h3.848V0H37.539V-3.887l.293-6.709L33.994,0H31.982L28.154-10.586l.293,6.7V0h-2.93V-14.219ZM51.24-2.93H46.1L45.127,0H42.012L47.3-14.219H50.02L55.342,0H52.227ZM46.895-5.3h3.555l-1.787-5.322ZM68.232,0H65.3L59.6-9.355V0H56.67V-14.219H59.6l5.713,9.375v-9.375h2.92Zm2.559,0V-14.219h4.375a6.644,6.644,0,0,1,3.354.845,5.89,5.89,0,0,1,2.31,2.4,7.41,7.41,0,0,1,.83,3.54v.654a7.431,7.431,0,0,1-.815,3.525,5.84,5.84,0,0,1-2.3,2.393A6.694,6.694,0,0,1,75.2,0Zm2.93-11.846v9.492h1.416a3.181,3.181,0,0,0,2.627-1.123,5.075,5.075,0,0,0,.928-3.213v-.752a5.156,5.156,0,0,0-.9-3.286,3.171,3.171,0,0,0-2.627-1.118ZM91.611-2.93H86.475L85.5,0H82.383l5.293-14.219h2.715L95.713,0H92.6ZM87.266-5.3H90.82l-1.787-5.322Z" transform="translate(941 2230)" fill="#12263f"/>
    <path id="Trazado_12132" data-name="Trazado 12132" d="M11678.979,11764.265a3,3,0,0,1-3.957,0l-49.03-43.01a3,3,0,0,1,1.979-5.255h98.061a3,3,0,0,1,1.979,5.255Z" transform="translate(-11297 -9459)" fill="#89ace8"/>
    <path id="Trazado_12133" data-name="Trazado 12133" d="M10,0H250a10,10,0,0,1,10,10v91a10,10,0,0,1-10,10H10A10,10,0,0,1,0,101V10A10,10,0,0,1,10,0Z" transform="translate(254 2327)" fill="#ffe6f0"/>
    <path id="Trazado_12134" data-name="Trazado 12134" d="M-48.09-2.82l2.578-8.555H-42.9L-46.863,0h-2.445l-3.945-11.375h2.6ZM-37.441,0a2.507,2.507,0,0,1-.227-.758A2.732,2.732,0,0,1-39.8.156a3,3,0,0,1-2.059-.719,2.312,2.312,0,0,1-.816-1.812,2.389,2.389,0,0,1,1-2.062A4.915,4.915,0,0,1-38.8-5.164h1.039v-.484a1.393,1.393,0,0,0-.3-.937,1.183,1.183,0,0,0-.949-.352,1.345,1.345,0,0,0-.895.273.929.929,0,0,0-.324.75h-2.258a2.268,2.268,0,0,1,.453-1.359,3,3,0,0,1,1.281-.98,4.669,4.669,0,0,1,1.859-.355,3.689,3.689,0,0,1,2.48.785A2.747,2.747,0,0,1-35.5-5.617v3.664a4.041,4.041,0,0,0,.336,1.82V0Zm-1.867-1.57a1.945,1.945,0,0,0,.922-.223,1.462,1.462,0,0,0,.625-.6V-3.844h-.844q-1.7,0-1.8,1.172l-.008.133a.9.9,0,0,0,.3.7A1.153,1.153,0,0,0-39.309-1.57ZM-31.379,0h-2.266V-12h2.266Zm1.508-4.3a5.013,5.013,0,0,1,.484-2.242A3.546,3.546,0,0,1-27.992-8.07a4.069,4.069,0,0,1,2.113-.539,3.849,3.849,0,0,1,2.793,1.047,4.2,4.2,0,0,1,1.207,2.844l.016.578A4.418,4.418,0,0,1-22.949-1.02,3.775,3.775,0,0,1-25.863.156a3.793,3.793,0,0,1-2.918-1.172A4.5,4.5,0,0,1-29.871-4.2Zm2.258.164A3.151,3.151,0,0,0-27.16-2.3a1.5,1.5,0,0,0,1.3.637,1.5,1.5,0,0,0,1.281-.629A3.448,3.448,0,0,0-24.121-4.3a3.12,3.12,0,0,0-.461-1.828,1.5,1.5,0,0,0-1.3-.648,1.475,1.475,0,0,0-1.281.645A3.506,3.506,0,0,0-27.613-4.141Zm11.891-2.2a6.134,6.134,0,0,0-.812-.062,1.654,1.654,0,0,0-1.68.867V0h-2.258V-8.453h2.133l.063,1.008a2.092,2.092,0,0,1,1.883-1.164,2.366,2.366,0,0,1,.7.1ZM-9.973,0A2.507,2.507,0,0,1-10.2-.758a2.732,2.732,0,0,1-2.133.914,3,3,0,0,1-2.059-.719,2.312,2.312,0,0,1-.816-1.812,2.389,2.389,0,0,1,1-2.062,4.915,4.915,0,0,1,2.879-.727h1.039v-.484a1.393,1.393,0,0,0-.3-.937,1.183,1.183,0,0,0-.949-.352,1.345,1.345,0,0,0-.895.273.929.929,0,0,0-.324.75H-15.02a2.268,2.268,0,0,1,.453-1.359,3,3,0,0,1,1.281-.98,4.669,4.669,0,0,1,1.859-.355,3.689,3.689,0,0,1,2.48.785,2.747,2.747,0,0,1,.918,2.207v3.664a4.041,4.041,0,0,0,.336,1.82V0ZM-11.84-1.57a1.945,1.945,0,0,0,.922-.223,1.462,1.462,0,0,0,.625-.6V-3.844h-.844q-1.7,0-1.8,1.172l-.008.133a.9.9,0,0,0,.3.7A1.153,1.153,0,0,0-11.84-1.57Zm9.063-.094a1.481,1.481,0,0,0,1.016-.344,1.2,1.2,0,0,0,.406-.914H.762A2.9,2.9,0,0,1,.293-1.348,3.093,3.093,0,0,1-.969-.238a3.949,3.949,0,0,1-1.77.395A3.67,3.67,0,0,1-5.6-1,4.56,4.56,0,0,1-6.645-4.18v-.148A4.508,4.508,0,0,1-5.605-7.445,3.627,3.627,0,0,1-2.754-8.609a3.555,3.555,0,0,1,2.543.9A3.2,3.2,0,0,1,.762-5.3H-1.355a1.539,1.539,0,0,0-.406-1.066,1.358,1.358,0,0,0-1.031-.41,1.361,1.361,0,0,0-1.191.574,3.324,3.324,0,0,0-.4,1.863v.234a3.366,3.366,0,0,0,.4,1.875A1.378,1.378,0,0,0-2.777-1.664ZM4.434,0H2.168V-8.453H4.434Zm-2.4-10.641a1.112,1.112,0,0,1,.34-.836A1.277,1.277,0,0,1,3.3-11.8a1.28,1.28,0,0,1,.922.328,1.105,1.105,0,0,1,.344.836,1.108,1.108,0,0,1-.348.844,1.283,1.283,0,0,1-.918.328A1.283,1.283,0,0,1,2.383-9.8,1.108,1.108,0,0,1,2.035-10.641ZM5.941-4.3a5.013,5.013,0,0,1,.484-2.242A3.546,3.546,0,0,1,7.82-8.07a4.069,4.069,0,0,1,2.113-.539,3.849,3.849,0,0,1,2.793,1.047,4.2,4.2,0,0,1,1.207,2.844l.016.578A4.418,4.418,0,0,1,12.863-1.02,3.775,3.775,0,0,1,9.949.156,3.793,3.793,0,0,1,7.031-1.016,4.5,4.5,0,0,1,5.941-4.2ZM8.2-4.141A3.151,3.151,0,0,0,8.652-2.3a1.5,1.5,0,0,0,1.3.637,1.5,1.5,0,0,0,1.281-.629A3.448,3.448,0,0,0,11.691-4.3a3.12,3.12,0,0,0-.461-1.828,1.5,1.5,0,0,0-1.3-.648,1.475,1.475,0,0,0-1.281.645A3.506,3.506,0,0,0,8.2-4.141ZM10.379-12H12.84L10.676-9.578H8.84Zm7.039,3.547.07.977a2.951,2.951,0,0,1,2.43-1.133,2.453,2.453,0,0,1,2,.789,3.682,3.682,0,0,1,.672,2.359V0H20.332V-5.406a1.465,1.465,0,0,0-.312-1.043,1.4,1.4,0,0,0-1.039-.324,1.553,1.553,0,0,0-1.43.813V0H15.293V-8.453ZM27.934-4.289a5.094,5.094,0,0,1,.887-3.148,2.877,2.877,0,0,1,2.426-1.172,2.589,2.589,0,0,1,2.039.922V-12h2.266V0H33.512L33.4-.9A2.657,2.657,0,0,1,31.23.156,2.869,2.869,0,0,1,28.836-1.02,5.258,5.258,0,0,1,27.934-4.289Zm2.258.164a3.328,3.328,0,0,0,.414,1.82,1.349,1.349,0,0,0,1.2.633,1.511,1.511,0,0,0,1.477-.883V-5.891a1.489,1.489,0,0,0-1.461-.883Q30.191-6.773,30.191-4.125Zm11,4.281A4.15,4.15,0,0,1,38.164-.984,4.054,4.054,0,0,1,37-4.023v-.219a5.106,5.106,0,0,1,.492-2.277,3.612,3.612,0,0,1,1.395-1.547,3.914,3.914,0,0,1,2.059-.543,3.508,3.508,0,0,1,2.73,1.094,4.444,4.444,0,0,1,1,3.1v.922H39.285a2.1,2.1,0,0,0,.66,1.328,2,2,0,0,0,1.395.5,2.437,2.437,0,0,0,2.039-.945l1.109,1.242A3.389,3.389,0,0,1,43.113-.246,4.511,4.511,0,0,1,41.191.156Zm-.258-6.937a1.414,1.414,0,0,0-1.09.453,2.341,2.341,0,0,0-.535,1.3h3.141v-.18a1.669,1.669,0,0,0-.406-1.16A1.459,1.459,0,0,0,40.934-6.781ZM48.332,0H46.066V-12h2.266ZM-70.223,22.336a1.481,1.481,0,0,0,1.016-.344,1.2,1.2,0,0,0,.406-.914h2.117a2.9,2.9,0,0,1-.469,1.574,3.093,3.093,0,0,1-1.262,1.109,3.949,3.949,0,0,1-1.77.395A3.67,3.67,0,0,1-73.043,23,4.56,4.56,0,0,1-74.09,19.82v-.148a4.508,4.508,0,0,1,1.039-3.117A3.627,3.627,0,0,1-70.2,15.391a3.555,3.555,0,0,1,2.543.9,3.2,3.2,0,0,1,.973,2.4H-68.8a1.539,1.539,0,0,0-.406-1.066,1.358,1.358,0,0,0-1.031-.41,1.361,1.361,0,0,0-1.191.574,3.324,3.324,0,0,0-.4,1.863v.234a3.366,3.366,0,0,0,.4,1.875A1.378,1.378,0,0,0-70.223,22.336Zm4.477-2.641a5.013,5.013,0,0,1,.484-2.242,3.546,3.546,0,0,1,1.395-1.523,4.069,4.069,0,0,1,2.113-.539,3.849,3.849,0,0,1,2.793,1.047,4.2,4.2,0,0,1,1.207,2.844l.016.578a4.418,4.418,0,0,1-1.086,3.121,3.775,3.775,0,0,1-2.914,1.176,3.793,3.793,0,0,1-2.918-1.172,4.5,4.5,0,0,1-1.09-3.187Zm2.258.164a3.151,3.151,0,0,0,.453,1.84,1.5,1.5,0,0,0,1.3.637,1.5,1.5,0,0,0,1.281-.629A3.448,3.448,0,0,0-60,19.7a3.12,3.12,0,0,0-.461-1.828,1.5,1.5,0,0,0-1.3-.648,1.475,1.475,0,0,0-1.281.645A3.506,3.506,0,0,0-63.488,19.859Zm9.258-4.312.07.945a2.971,2.971,0,0,1,2.43-1.1,2.255,2.255,0,0,1,2.242,1.289,2.9,2.9,0,0,1,2.539-1.289,2.521,2.521,0,0,1,2.047.8,3.681,3.681,0,0,1,.672,2.41V24H-46.5V18.609a1.61,1.61,0,0,0-.281-1.051,1.246,1.246,0,0,0-.992-.332,1.409,1.409,0,0,0-1.406.969l.008,5.8h-2.258V18.617a1.59,1.59,0,0,0-.289-1.062,1.259,1.259,0,0,0-.984-.328,1.463,1.463,0,0,0-1.391.8V24h-2.258V15.547Zm19.344,4.3a5.07,5.07,0,0,1-.887,3.129,2.843,2.843,0,0,1-2.395,1.176,2.633,2.633,0,0,1-2.07-.891V27.25H-42.5v-11.7H-40.4l.078.828a2.654,2.654,0,0,1,2.141-.984,2.862,2.862,0,0,1,2.43,1.156,5.207,5.207,0,0,1,.867,3.188Zm-2.258-.164a3.327,3.327,0,0,0-.418-1.82,1.361,1.361,0,0,0-1.215-.641,1.478,1.478,0,0,0-1.461.813V21.5a1.5,1.5,0,0,0,1.477.836Q-37.145,22.336-37.145,19.688Zm3.3.008a5.013,5.013,0,0,1,.484-2.242,3.546,3.546,0,0,1,1.395-1.523,4.069,4.069,0,0,1,2.113-.539,3.849,3.849,0,0,1,2.793,1.047,4.2,4.2,0,0,1,1.207,2.844l.016.578a4.418,4.418,0,0,1-1.086,3.121,3.775,3.775,0,0,1-2.914,1.176,3.793,3.793,0,0,1-2.918-1.172A4.5,4.5,0,0,1-33.84,19.8Zm2.258.164a3.151,3.151,0,0,0,.453,1.84,1.5,1.5,0,0,0,1.3.637,1.5,1.5,0,0,0,1.281-.629A3.448,3.448,0,0,0-28.09,19.7a3.12,3.12,0,0,0-.461-1.828,1.5,1.5,0,0,0-1.3-.648,1.475,1.475,0,0,0-1.281.645A3.506,3.506,0,0,0-31.582,19.859Zm9.219-4.312.07.977a2.951,2.951,0,0,1,2.43-1.133,2.453,2.453,0,0,1,2,.789,3.682,3.682,0,0,1,.672,2.359V24h-2.258V18.594a1.465,1.465,0,0,0-.312-1.043,1.4,1.4,0,0,0-1.039-.324,1.553,1.553,0,0,0-1.43.813V24h-2.258V15.547Zm10.773,8.609a4.15,4.15,0,0,1-3.027-1.141,4.054,4.054,0,0,1-1.168-3.039v-.219a5.106,5.106,0,0,1,.492-2.277A3.612,3.612,0,0,1-13.9,15.934a3.914,3.914,0,0,1,2.059-.543,3.508,3.508,0,0,1,2.73,1.094,4.444,4.444,0,0,1,1,3.1v.922H-13.5a2.1,2.1,0,0,0,.66,1.328,2,2,0,0,0,1.395.5A2.437,2.437,0,0,0-9.4,21.391l1.109,1.242a3.389,3.389,0,0,1-1.375,1.121A4.511,4.511,0,0,1-11.59,24.156Zm-.258-6.937a1.414,1.414,0,0,0-1.09.453,2.341,2.341,0,0,0-.535,1.3h3.141v-.18a1.669,1.669,0,0,0-.406-1.16A1.459,1.459,0,0,0-11.848,17.219Zm7.094-1.672.07.977a2.951,2.951,0,0,1,2.43-1.133,2.453,2.453,0,0,1,2,.789,3.682,3.682,0,0,1,.672,2.359V24H-1.84V18.594a1.465,1.465,0,0,0-.312-1.043,1.4,1.4,0,0,0-1.039-.324,1.553,1.553,0,0,0-1.43.813V24H-6.879V15.547Zm9.586-2.078v2.078H6.277V17.2H4.832v4.219a1.007,1.007,0,0,0,.18.672.9.9,0,0,0,.688.2,3.6,3.6,0,0,0,.664-.055v1.711a4.648,4.648,0,0,1-1.367.2,2.156,2.156,0,0,1-2.422-2.4V17.2H1.34V15.547H2.574V13.469Zm6.594,10.688A4.15,4.15,0,0,1,8.4,23.016,4.054,4.054,0,0,1,7.23,19.977v-.219a5.106,5.106,0,0,1,.492-2.277,3.612,3.612,0,0,1,1.395-1.547,3.914,3.914,0,0,1,2.059-.543,3.508,3.508,0,0,1,2.73,1.094,4.444,4.444,0,0,1,1,3.1v.922H9.52a2.1,2.1,0,0,0,.66,1.328,2,2,0,0,0,1.395.5,2.437,2.437,0,0,0,2.039-.945l1.109,1.242a3.389,3.389,0,0,1-1.375,1.121A4.511,4.511,0,0,1,11.426,24.156Zm-.258-6.937a1.414,1.414,0,0,0-1.09.453,2.341,2.341,0,0,0-.535,1.3h3.141v-.18a1.669,1.669,0,0,0-.406-1.16A1.459,1.459,0,0,0,11.168,17.219ZM20.785,24V17.2H19.527V15.547h1.258v-.719a2.918,2.918,0,0,1,.816-2.207,3.162,3.162,0,0,1,2.285-.785,5.278,5.278,0,0,1,1.148.156l-.023,1.75a2.878,2.878,0,0,0-.687-.07q-1.273,0-1.273,1.2v.68h1.68V17.2h-1.68V24ZM30.8,24a2.507,2.507,0,0,1-.227-.758,2.732,2.732,0,0,1-2.133.914,3,3,0,0,1-2.059-.719,2.312,2.312,0,0,1-.816-1.812,2.389,2.389,0,0,1,1-2.062,4.915,4.915,0,0,1,2.879-.727H30.48v-.484a1.393,1.393,0,0,0-.3-.937,1.183,1.183,0,0,0-.949-.352,1.345,1.345,0,0,0-.895.273.929.929,0,0,0-.324.75H25.754a2.268,2.268,0,0,1,.453-1.359,3,3,0,0,1,1.281-.98,4.669,4.669,0,0,1,1.859-.355,3.689,3.689,0,0,1,2.48.785,2.747,2.747,0,0,1,.918,2.207v3.664a4.041,4.041,0,0,0,.336,1.82V24Zm-1.867-1.57a1.945,1.945,0,0,0,.922-.223,1.462,1.462,0,0,0,.625-.6V20.156h-.844q-1.7,0-1.8,1.172l-.008.133a.9.9,0,0,0,.3.7A1.153,1.153,0,0,0,28.934,22.43ZM36.6,15.547l.07.945a2.971,2.971,0,0,1,2.43-1.1A2.255,2.255,0,0,1,41.34,16.68a2.9,2.9,0,0,1,2.539-1.289,2.521,2.521,0,0,1,2.047.8A3.681,3.681,0,0,1,46.6,18.6V24H44.332V18.609a1.61,1.61,0,0,0-.281-1.051,1.246,1.246,0,0,0-.992-.332,1.409,1.409,0,0,0-1.406.969L41.66,24H39.4V18.617a1.59,1.59,0,0,0-.289-1.062,1.259,1.259,0,0,0-.984-.328,1.463,1.463,0,0,0-1.391.8V24H34.48V15.547ZM50.715,24H48.449V15.547h2.266Zm-2.4-10.641a1.112,1.112,0,0,1,.34-.836,1.465,1.465,0,0,1,1.848,0,1.193,1.193,0,0,1,0,1.68,1.448,1.448,0,0,1-1.836,0A1.108,1.108,0,0,1,48.316,13.359ZM54.957,24H52.691V12h2.266ZM59.2,24H56.934V15.547H59.2ZM56.8,13.359a1.112,1.112,0,0,1,.34-.836,1.465,1.465,0,0,1,1.848,0,1.193,1.193,0,0,1,0,1.68,1.448,1.448,0,0,1-1.836,0A1.108,1.108,0,0,1,56.8,13.359ZM65.957,24a2.507,2.507,0,0,1-.227-.758,2.732,2.732,0,0,1-2.133.914,3,3,0,0,1-2.059-.719,2.312,2.312,0,0,1-.816-1.812,2.389,2.389,0,0,1,1-2.062,4.915,4.915,0,0,1,2.879-.727h1.039v-.484a1.393,1.393,0,0,0-.3-.937,1.183,1.183,0,0,0-.949-.352,1.345,1.345,0,0,0-.895.273.929.929,0,0,0-.324.75H60.91a2.268,2.268,0,0,1,.453-1.359,3,3,0,0,1,1.281-.98,4.669,4.669,0,0,1,1.859-.355,3.689,3.689,0,0,1,2.48.785,2.747,2.747,0,0,1,.918,2.207v3.664a4.041,4.041,0,0,0,.336,1.82V24ZM64.09,22.43a1.945,1.945,0,0,0,.922-.223,1.462,1.462,0,0,0,.625-.6V20.156h-.844q-1.7,0-1.8,1.172l-.008.133a.9.9,0,0,0,.3.7A1.153,1.153,0,0,0,64.09,22.43Zm10.3-4.766a6.134,6.134,0,0,0-.812-.062,1.654,1.654,0,0,0-1.68.867V24H69.637V15.547H71.77l.063,1.008a2.092,2.092,0,0,1,1.883-1.164,2.366,2.366,0,0,1,.7.1Z" transform="translate(384 2376)" fill="#12263f"/>
    <path id="Trazado_12135" data-name="Trazado 12135" d="M10,0H250a10,10,0,0,1,10,10v91a10,10,0,0,1-10,10H10A10,10,0,0,1,0,101V10A10,10,0,0,1,10,0Z" transform="translate(557 2327)" fill="#ffe6f0"/>
    <path id="Trazado_12136" data-name="Trazado 12136" d="M-52.156-2.344h-4.109L-57.047,0h-2.492L-55.3-11.375h2.172L-48.875,0h-2.492Zm-3.477-1.9h2.844L-54.219-8.5Zm10.242-6.289v2.078h1.445V-6.8h-1.445v4.219a1.007,1.007,0,0,0,.18.672.9.9,0,0,0,.688.2,3.6,3.6,0,0,0,.664-.055V-.047a4.648,4.648,0,0,1-1.367.2,2.156,2.156,0,0,1-2.422-2.4V-6.8h-1.234V-8.453h1.234v-2.078ZM-38.8.156A4.15,4.15,0,0,1-41.824-.984a4.054,4.054,0,0,1-1.168-3.039v-.219A5.106,5.106,0,0,1-42.5-6.52a3.612,3.612,0,0,1,1.395-1.547,3.914,3.914,0,0,1,2.059-.543,3.508,3.508,0,0,1,2.73,1.094,4.444,4.444,0,0,1,1,3.1v.922H-40.7a2.1,2.1,0,0,0,.66,1.328,2,2,0,0,0,1.395.5,2.437,2.437,0,0,0,2.039-.945L-35.5-1.367A3.389,3.389,0,0,1-36.875-.246,4.511,4.511,0,0,1-38.8.156Zm-.258-6.937a1.414,1.414,0,0,0-1.09.453,2.341,2.341,0,0,0-.535,1.3h3.141v-.18a1.669,1.669,0,0,0-.406-1.16A1.459,1.459,0,0,0-39.055-6.781Zm7.094-1.672.07.977a2.951,2.951,0,0,1,2.43-1.133,2.453,2.453,0,0,1,2,.789,3.682,3.682,0,0,1,.672,2.359V0h-2.258V-5.406a1.465,1.465,0,0,0-.312-1.043A1.4,1.4,0,0,0-30.4-6.773a1.553,1.553,0,0,0-1.43.813V0h-2.258V-8.453Zm10.4,6.789a1.481,1.481,0,0,0,1.016-.344,1.2,1.2,0,0,0,.406-.914h2.117a2.9,2.9,0,0,1-.469,1.574A3.093,3.093,0,0,1-19.754-.238a3.949,3.949,0,0,1-1.77.395A3.67,3.67,0,0,1-24.383-1,4.56,4.56,0,0,1-25.43-4.18v-.148a4.508,4.508,0,0,1,1.039-3.117,3.627,3.627,0,0,1,2.852-1.164,3.555,3.555,0,0,1,2.543.9,3.2,3.2,0,0,1,.973,2.4h-2.117a1.539,1.539,0,0,0-.406-1.066,1.358,1.358,0,0,0-1.031-.41,1.361,1.361,0,0,0-1.191.574,3.324,3.324,0,0,0-.4,1.863v.234a3.366,3.366,0,0,0,.4,1.875A1.378,1.378,0,0,0-21.562-1.664ZM-14.352,0h-2.266V-8.453h2.266Zm-2.4-10.641a1.112,1.112,0,0,1,.34-.836,1.277,1.277,0,0,1,.926-.328,1.28,1.28,0,0,1,.922.328,1.105,1.105,0,0,1,.344.836,1.108,1.108,0,0,1-.348.844,1.283,1.283,0,0,1-.918.328A1.283,1.283,0,0,1-16.4-9.8,1.108,1.108,0,0,1-16.75-10.641ZM-12.844-4.3a5.013,5.013,0,0,1,.484-2.242A3.546,3.546,0,0,1-10.965-8.07a4.069,4.069,0,0,1,2.113-.539A3.849,3.849,0,0,1-6.059-7.562,4.2,4.2,0,0,1-4.852-4.719l.016.578A4.418,4.418,0,0,1-5.922-1.02,3.775,3.775,0,0,1-8.836.156a3.793,3.793,0,0,1-2.918-1.172A4.5,4.5,0,0,1-12.844-4.2Zm2.258.164a3.151,3.151,0,0,0,.453,1.84,1.5,1.5,0,0,0,1.3.637,1.5,1.5,0,0,0,1.281-.629A3.448,3.448,0,0,0-7.094-4.3a3.12,3.12,0,0,0-.461-1.828,1.5,1.5,0,0,0-1.3-.648,1.475,1.475,0,0,0-1.281.645A3.506,3.506,0,0,0-10.586-4.141ZM-8.406-12h2.461L-8.109-9.578H-9.945Zm7.039,3.547.07.977a2.951,2.951,0,0,1,2.43-1.133,2.453,2.453,0,0,1,2,.789A3.682,3.682,0,0,1,3.8-5.461V0H1.547V-5.406a1.465,1.465,0,0,0-.312-1.043A1.4,1.4,0,0,0,.2-6.773a1.553,1.553,0,0,0-1.43.813V0H-3.492V-8.453Zm18.484,4.3A5.119,5.119,0,0,1,16.25-.98,2.872,2.872,0,0,1,13.828.156,2.639,2.639,0,0,1,11.633-.9l-.1.9H9.5V-12h2.258v4.3a2.571,2.571,0,0,1,2.055-.914,2.9,2.9,0,0,1,2.426,1.137,5.126,5.126,0,0,1,.879,3.2Zm-2.258-.164a3.363,3.363,0,0,0-.406-1.871,1.374,1.374,0,0,0-1.211-.59,1.489,1.489,0,0,0-1.484.883v3.336a1.509,1.509,0,0,0,1.5.891A1.394,1.394,0,0,0,14.7-2.742,5.562,5.562,0,0,0,14.859-4.312ZM23.406,0a2.507,2.507,0,0,1-.227-.758,2.732,2.732,0,0,1-2.133.914,3,3,0,0,1-2.059-.719,2.312,2.312,0,0,1-.816-1.812,2.389,2.389,0,0,1,1-2.062,4.915,4.915,0,0,1,2.879-.727h1.039v-.484a1.393,1.393,0,0,0-.3-.937,1.183,1.183,0,0,0-.949-.352,1.345,1.345,0,0,0-.895.273.929.929,0,0,0-.324.75H18.359a2.268,2.268,0,0,1,.453-1.359,3,3,0,0,1,1.281-.98,4.669,4.669,0,0,1,1.859-.355,3.689,3.689,0,0,1,2.48.785,2.747,2.747,0,0,1,.918,2.207v3.664a4.041,4.041,0,0,0,.336,1.82V0ZM21.539-1.57a1.945,1.945,0,0,0,.922-.223,1.462,1.462,0,0,0,.625-.6V-3.844h-.844q-1.7,0-1.8,1.172l-.008.133a.9.9,0,0,0,.3.7A1.153,1.153,0,0,0,21.539-1.57ZM22.4-12h2.461L22.7-9.578H20.859Zm9.266,9.664a.727.727,0,0,0-.41-.652,4.659,4.659,0,0,0-1.316-.426q-3.016-.633-3.016-2.562a2.323,2.323,0,0,1,.934-1.879A3.766,3.766,0,0,1,30.3-8.609a4.053,4.053,0,0,1,2.574.758,2.388,2.388,0,0,1,.965,1.969H31.578a1.092,1.092,0,0,0-.312-.8A1.322,1.322,0,0,0,30.289-7a1.351,1.351,0,0,0-.883.258.814.814,0,0,0-.312.656.7.7,0,0,0,.355.605,3.657,3.657,0,0,0,1.2.4A9.8,9.8,0,0,1,32.07-4.7,2.336,2.336,0,0,1,33.859-2.43a2.2,2.2,0,0,1-.992,1.871A4.28,4.28,0,0,1,30.3.156a4.47,4.47,0,0,1-1.887-.379,3.166,3.166,0,0,1-1.293-1.039,2.414,2.414,0,0,1-.469-1.426H28.8a1.179,1.179,0,0,0,.445.922,1.766,1.766,0,0,0,1.109.32,1.635,1.635,0,0,0,.98-.246A.766.766,0,0,0,31.664-2.336ZM37.7,0H35.43V-8.453H37.7ZM35.3-10.641a1.112,1.112,0,0,1,.34-.836,1.277,1.277,0,0,1,.926-.328,1.28,1.28,0,0,1,.922.328,1.105,1.105,0,0,1,.344.836,1.108,1.108,0,0,1-.348.844,1.283,1.283,0,0,1-.918.328,1.283,1.283,0,0,1-.918-.328A1.108,1.108,0,0,1,35.3-10.641ZM43.07-1.664a1.481,1.481,0,0,0,1.016-.344,1.2,1.2,0,0,0,.406-.914h2.117a2.9,2.9,0,0,1-.469,1.574A3.093,3.093,0,0,1,44.879-.238a3.949,3.949,0,0,1-1.77.395A3.67,3.67,0,0,1,40.25-1,4.56,4.56,0,0,1,39.2-4.18v-.148a4.508,4.508,0,0,1,1.039-3.117,3.627,3.627,0,0,1,2.852-1.164,3.555,3.555,0,0,1,2.543.9,3.2,3.2,0,0,1,.973,2.4H44.492a1.539,1.539,0,0,0-.406-1.066,1.358,1.358,0,0,0-1.031-.41,1.361,1.361,0,0,0-1.191.574,3.324,3.324,0,0,0-.4,1.863v.234a3.366,3.366,0,0,0,.4,1.875A1.378,1.378,0,0,0,43.07-1.664ZM52.8,0a2.507,2.507,0,0,1-.227-.758,2.732,2.732,0,0,1-2.133.914,3,3,0,0,1-2.059-.719,2.312,2.312,0,0,1-.816-1.812,2.389,2.389,0,0,1,1-2.062,4.915,4.915,0,0,1,2.879-.727h1.039v-.484a1.393,1.393,0,0,0-.3-.937,1.183,1.183,0,0,0-.949-.352,1.345,1.345,0,0,0-.895.273.929.929,0,0,0-.324.75H47.75A2.268,2.268,0,0,1,48.2-7.273a3,3,0,0,1,1.281-.98,4.669,4.669,0,0,1,1.859-.355,3.689,3.689,0,0,1,2.48.785,2.747,2.747,0,0,1,.918,2.207v3.664a4.041,4.041,0,0,0,.336,1.82V0ZM50.93-1.57a1.945,1.945,0,0,0,.922-.223,1.462,1.462,0,0,0,.625-.6V-3.844h-.844q-1.7,0-1.8,1.172l-.008.133a.9.9,0,0,0,.3.7A1.153,1.153,0,0,0,50.93-1.57ZM-80.609,19.711a5.094,5.094,0,0,1,.887-3.148A2.877,2.877,0,0,1-77.3,15.391a2.589,2.589,0,0,1,2.039.922V12h2.266V24h-2.039l-.109-.9a2.657,2.657,0,0,1-2.172,1.055,2.869,2.869,0,0,1-2.395-1.176A5.258,5.258,0,0,1-80.609,19.711Zm2.258.164a3.328,3.328,0,0,0,.414,1.82,1.349,1.349,0,0,0,1.2.633,1.511,1.511,0,0,0,1.477-.883V18.109a1.489,1.489,0,0,0-1.461-.883Q-78.352,17.227-78.352,19.875Zm11,4.281a4.15,4.15,0,0,1-3.027-1.141,4.054,4.054,0,0,1-1.168-3.039v-.219a5.106,5.106,0,0,1,.492-2.277,3.612,3.612,0,0,1,1.395-1.547,3.914,3.914,0,0,1,2.059-.543,3.508,3.508,0,0,1,2.73,1.094,4.444,4.444,0,0,1,1,3.1v.922h-5.383a2.1,2.1,0,0,0,.66,1.328,2,2,0,0,0,1.395.5,2.437,2.437,0,0,0,2.039-.945l1.109,1.242a3.389,3.389,0,0,1-1.375,1.121A4.511,4.511,0,0,1-67.352,24.156Zm-.258-6.937a1.414,1.414,0,0,0-1.09.453,2.341,2.341,0,0,0-.535,1.3h3.141v-.18a1.669,1.669,0,0,0-.406-1.16A1.459,1.459,0,0,0-67.609,17.219Zm8.648,2.477a5.013,5.013,0,0,1,.484-2.242,3.546,3.546,0,0,1,1.395-1.523,4.069,4.069,0,0,1,2.113-.539,3.849,3.849,0,0,1,2.793,1.047,4.2,4.2,0,0,1,1.207,2.844l.016.578a4.418,4.418,0,0,1-1.086,3.121,3.775,3.775,0,0,1-2.914,1.176,3.793,3.793,0,0,1-2.918-1.172,4.5,4.5,0,0,1-1.09-3.187Zm2.258.164a3.151,3.151,0,0,0,.453,1.84,1.5,1.5,0,0,0,1.3.637,1.5,1.5,0,0,0,1.281-.629,3.448,3.448,0,0,0,.461-2.012,3.12,3.12,0,0,0-.461-1.828,1.5,1.5,0,0,0-1.3-.648,1.475,1.475,0,0,0-1.281.645A3.506,3.506,0,0,0-56.7,19.859Zm11.891-2.2a6.134,6.134,0,0,0-.812-.062,1.654,1.654,0,0,0-1.68.867V24h-2.258V15.547h2.133l.063,1.008a2.092,2.092,0,0,1,1.883-1.164,2.366,2.366,0,0,1,.7.1ZM-41.344,24h-2.266V15.547h2.266Zm-2.4-10.641a1.112,1.112,0,0,1,.34-.836,1.277,1.277,0,0,1,.926-.328,1.28,1.28,0,0,1,.922.328,1.105,1.105,0,0,1,.344.836,1.108,1.108,0,0,1-.348.844,1.283,1.283,0,0,1-.918.328,1.283,1.283,0,0,1-.918-.328A1.108,1.108,0,0,1-43.742,13.359Zm8.148,10.8a4.15,4.15,0,0,1-3.027-1.141,4.054,4.054,0,0,1-1.168-3.039v-.219A5.106,5.106,0,0,1-39.3,17.48,3.612,3.612,0,0,1-37.9,15.934a3.914,3.914,0,0,1,2.059-.543,3.508,3.508,0,0,1,2.73,1.094,4.444,4.444,0,0,1,1,3.1v.922H-37.5a2.1,2.1,0,0,0,.66,1.328,2,2,0,0,0,1.395.5,2.437,2.437,0,0,0,2.039-.945l1.109,1.242a3.389,3.389,0,0,1-1.375,1.121A4.511,4.511,0,0,1-35.594,24.156Zm-.258-6.937a1.414,1.414,0,0,0-1.09.453,2.341,2.341,0,0,0-.535,1.3h3.141v-.18a1.669,1.669,0,0,0-.406-1.16A1.459,1.459,0,0,0-35.852,17.219Zm7.094-1.672.07.977a2.951,2.951,0,0,1,2.43-1.133,2.453,2.453,0,0,1,2,.789,3.682,3.682,0,0,1,.672,2.359V24h-2.258V18.594a1.465,1.465,0,0,0-.312-1.043,1.4,1.4,0,0,0-1.039-.324,1.553,1.553,0,0,0-1.43.813V24h-2.258V15.547Zm9.586-2.078v2.078h1.445V17.2h-1.445v4.219a1.007,1.007,0,0,0,.18.672.9.9,0,0,0,.688.2,3.6,3.6,0,0,0,.664-.055v1.711a4.648,4.648,0,0,1-1.367.2,2.156,2.156,0,0,1-2.422-2.4V17.2h-1.234V15.547h1.234V13.469ZM-11.57,24a2.507,2.507,0,0,1-.227-.758,2.732,2.732,0,0,1-2.133.914,3,3,0,0,1-2.059-.719,2.312,2.312,0,0,1-.816-1.812,2.389,2.389,0,0,1,1-2.062,4.915,4.915,0,0,1,2.879-.727h1.039v-.484a1.393,1.393,0,0,0-.3-.937,1.183,1.183,0,0,0-.949-.352,1.345,1.345,0,0,0-.895.273.929.929,0,0,0-.324.75h-2.258a2.268,2.268,0,0,1,.453-1.359,3,3,0,0,1,1.281-.98,4.669,4.669,0,0,1,1.859-.355,3.689,3.689,0,0,1,2.48.785,2.747,2.747,0,0,1,.918,2.207v3.664a4.041,4.041,0,0,0,.336,1.82V24Zm-1.867-1.57a1.945,1.945,0,0,0,.922-.223,1.462,1.462,0,0,0,.625-.6V20.156h-.844q-1.7,0-1.8,1.172l-.008.133a.9.9,0,0,0,.3.7A1.153,1.153,0,0,0-13.437,22.43Zm9.063-.094a1.481,1.481,0,0,0,1.016-.344,1.2,1.2,0,0,0,.406-.914H-.836A2.9,2.9,0,0,1-1.3,22.652a3.093,3.093,0,0,1-1.262,1.109,3.949,3.949,0,0,1-1.77.395A3.67,3.67,0,0,1-7.2,23,4.56,4.56,0,0,1-8.242,19.82v-.148A4.508,4.508,0,0,1-7.2,16.555a3.627,3.627,0,0,1,2.852-1.164,3.555,3.555,0,0,1,2.543.9,3.2,3.2,0,0,1,.973,2.4H-2.953a1.539,1.539,0,0,0-.406-1.066,1.358,1.358,0,0,0-1.031-.41,1.361,1.361,0,0,0-1.191.574,3.324,3.324,0,0,0-.4,1.863v.234a3.366,3.366,0,0,0,.4,1.875A1.378,1.378,0,0,0-4.375,22.336ZM2.836,24H.57V15.547H2.836ZM.438,13.359a1.112,1.112,0,0,1,.34-.836A1.277,1.277,0,0,1,1.7,12.2a1.28,1.28,0,0,1,.922.328,1.193,1.193,0,0,1,0,1.68,1.283,1.283,0,0,1-.918.328A1.283,1.283,0,0,1,.785,14.2,1.108,1.108,0,0,1,.438,13.359ZM4.344,19.7a5.013,5.013,0,0,1,.484-2.242A3.546,3.546,0,0,1,6.223,15.93a4.069,4.069,0,0,1,2.113-.539,3.849,3.849,0,0,1,2.793,1.047,4.2,4.2,0,0,1,1.207,2.844l.016.578a4.418,4.418,0,0,1-1.086,3.121,3.775,3.775,0,0,1-2.914,1.176,3.793,3.793,0,0,1-2.918-1.172A4.5,4.5,0,0,1,4.344,19.8Zm2.258.164a3.151,3.151,0,0,0,.453,1.84,1.5,1.5,0,0,0,1.3.637,1.5,1.5,0,0,0,1.281-.629,3.448,3.448,0,0,0,.461-2.012,3.12,3.12,0,0,0-.461-1.828,1.5,1.5,0,0,0-1.3-.648,1.475,1.475,0,0,0-1.281.645A3.506,3.506,0,0,0,6.6,19.859ZM8.781,12h2.461L9.078,14.422H7.242Zm7.039,3.547.07.977a2.951,2.951,0,0,1,2.43-1.133,2.453,2.453,0,0,1,2,.789,3.682,3.682,0,0,1,.672,2.359V24H18.734V18.594a1.465,1.465,0,0,0-.312-1.043,1.4,1.4,0,0,0-1.039-.324,1.553,1.553,0,0,0-1.43.813V24H13.7V15.547ZM27.3,24V17.2H26.047V15.547H27.3v-.719a2.918,2.918,0,0,1,.816-2.207,3.162,3.162,0,0,1,2.285-.785,5.278,5.278,0,0,1,1.148.156l-.023,1.75a2.878,2.878,0,0,0-.687-.07q-1.273,0-1.273,1.2v.68h1.68V17.2H29.57V24ZM37.32,24a2.507,2.507,0,0,1-.227-.758,2.732,2.732,0,0,1-2.133.914,3,3,0,0,1-2.059-.719,2.312,2.312,0,0,1-.816-1.812,2.389,2.389,0,0,1,1-2.062,4.915,4.915,0,0,1,2.879-.727H37v-.484a1.393,1.393,0,0,0-.3-.937,1.183,1.183,0,0,0-.949-.352,1.345,1.345,0,0,0-.895.273.929.929,0,0,0-.324.75H32.273a2.268,2.268,0,0,1,.453-1.359,3,3,0,0,1,1.281-.98,4.669,4.669,0,0,1,1.859-.355,3.689,3.689,0,0,1,2.48.785,2.747,2.747,0,0,1,.918,2.207v3.664a4.041,4.041,0,0,0,.336,1.82V24Zm-1.867-1.57a1.945,1.945,0,0,0,.922-.223,1.462,1.462,0,0,0,.625-.6V20.156h-.844q-1.7,0-1.8,1.172l-.008.133a.9.9,0,0,0,.3.7A1.153,1.153,0,0,0,35.453,22.43Zm7.664-6.883.07.945a2.971,2.971,0,0,1,2.43-1.1,2.255,2.255,0,0,1,2.242,1.289A2.9,2.9,0,0,1,50.4,15.391a2.521,2.521,0,0,1,2.047.8,3.681,3.681,0,0,1,.672,2.41V24H50.852V18.609a1.61,1.61,0,0,0-.281-1.051,1.246,1.246,0,0,0-.992-.332,1.409,1.409,0,0,0-1.406.969L48.18,24H45.922V18.617a1.59,1.59,0,0,0-.289-1.062,1.259,1.259,0,0,0-.984-.328,1.463,1.463,0,0,0-1.391.8V24H41V15.547ZM57.234,24H54.969V15.547h2.266Zm-2.4-10.641a1.112,1.112,0,0,1,.34-.836,1.465,1.465,0,0,1,1.848,0,1.193,1.193,0,0,1,0,1.68,1.448,1.448,0,0,1-1.836,0A1.108,1.108,0,0,1,54.836,13.359ZM61.477,24H59.211V12h2.266Zm4.242,0H63.453V15.547h2.266Zm-2.4-10.641a1.112,1.112,0,0,1,.34-.836,1.465,1.465,0,0,1,1.848,0,1.193,1.193,0,0,1,0,1.68,1.448,1.448,0,0,1-1.836,0A1.108,1.108,0,0,1,63.32,13.359ZM72.477,24a2.507,2.507,0,0,1-.227-.758,2.732,2.732,0,0,1-2.133.914,3,3,0,0,1-2.059-.719,2.312,2.312,0,0,1-.816-1.812,2.389,2.389,0,0,1,1-2.062,4.915,4.915,0,0,1,2.879-.727h1.039v-.484a1.393,1.393,0,0,0-.3-.937,1.183,1.183,0,0,0-.949-.352,1.345,1.345,0,0,0-.895.273.929.929,0,0,0-.324.75H67.43a2.268,2.268,0,0,1,.453-1.359,3,3,0,0,1,1.281-.98,4.669,4.669,0,0,1,1.859-.355,3.689,3.689,0,0,1,2.48.785,2.747,2.747,0,0,1,.918,2.207v3.664a4.041,4.041,0,0,0,.336,1.82V24Zm-1.867-1.57a1.945,1.945,0,0,0,.922-.223,1.462,1.462,0,0,0,.625-.6V20.156h-.844q-1.7,0-1.8,1.172l-.008.133a.9.9,0,0,0,.3.7A1.153,1.153,0,0,0,70.609,22.43Zm10.3-4.766a6.134,6.134,0,0,0-.812-.062,1.654,1.654,0,0,0-1.68.867V24H76.156V15.547h2.133l.063,1.008a2.092,2.092,0,0,1,1.883-1.164,2.366,2.366,0,0,1,.7.1Z" transform="translate(687 2376)" fill="#12263f"/>
    <path id="Trazado_12145" data-name="Trazado 12145" d="M10,0H250a10,10,0,0,1,10,10v91a10,10,0,0,1-10,10H10A10,10,0,0,1,0,101V10A10,10,0,0,1,10,0Z" transform="translate(859 2327)" fill="#ffe6f0"/>
    <path id="Trazado_12146" data-name="Trazado 12146" d="M-57.578-4.93h-4.5v3.047H-56.8V0h-7.625V-11.375h7.609v1.9h-5.266v2.711h4.5Zm1.508.641a5.094,5.094,0,0,1,.887-3.148,2.877,2.877,0,0,1,2.426-1.172,2.589,2.589,0,0,1,2.039.922V-12h2.266V0h-2.039L-50.6-.9A2.657,2.657,0,0,1-52.773.156,2.869,2.869,0,0,1-55.168-1.02,5.258,5.258,0,0,1-56.07-4.289Zm2.258.164A3.328,3.328,0,0,0-53.4-2.3a1.349,1.349,0,0,0,1.2.633,1.511,1.511,0,0,0,1.477-.883V-5.891a1.489,1.489,0,0,0-1.461-.883Q-53.813-6.773-53.812-4.125ZM-41.641-.859A2.831,2.831,0,0,1-43.953.156a2.67,2.67,0,0,1-2.074-.781,3.335,3.335,0,0,1-.73-2.289V-8.453H-44.5v5.461q0,1.32,1.2,1.32a1.631,1.631,0,0,0,1.578-.8V-8.453h2.266V0h-2.125Zm7.406-.8a1.481,1.481,0,0,0,1.016-.344,1.2,1.2,0,0,0,.406-.914H-30.7a2.9,2.9,0,0,1-.469,1.574A3.093,3.093,0,0,1-32.426-.238,3.949,3.949,0,0,1-34.2.156,3.67,3.67,0,0,1-37.055-1,4.56,4.56,0,0,1-38.1-4.18v-.148a4.508,4.508,0,0,1,1.039-3.117,3.627,3.627,0,0,1,2.852-1.164,3.555,3.555,0,0,1,2.543.9A3.2,3.2,0,0,1-30.7-5.3h-2.117a1.539,1.539,0,0,0-.406-1.066,1.358,1.358,0,0,0-1.031-.41,1.361,1.361,0,0,0-1.191.574,3.324,3.324,0,0,0-.4,1.863v.234a3.366,3.366,0,0,0,.4,1.875A1.378,1.378,0,0,0-34.234-1.664ZM-24.508,0a2.507,2.507,0,0,1-.227-.758,2.732,2.732,0,0,1-2.133.914,3,3,0,0,1-2.059-.719,2.312,2.312,0,0,1-.816-1.812,2.389,2.389,0,0,1,1-2.062,4.915,4.915,0,0,1,2.879-.727h1.039v-.484a1.393,1.393,0,0,0-.3-.937,1.183,1.183,0,0,0-.949-.352,1.345,1.345,0,0,0-.895.273.929.929,0,0,0-.324.75h-2.258A2.268,2.268,0,0,1-29.1-7.273a3,3,0,0,1,1.281-.98,4.669,4.669,0,0,1,1.859-.355,3.689,3.689,0,0,1,2.48.785,2.747,2.747,0,0,1,.918,2.207v3.664a4.041,4.041,0,0,0,.336,1.82V0Zm-1.867-1.57a1.945,1.945,0,0,0,.922-.223,1.462,1.462,0,0,0,.625-.6V-3.844h-.844q-1.7,0-1.8,1.172l-.008.133a.9.9,0,0,0,.3.7A1.153,1.153,0,0,0-26.375-1.57Zm9.063-.094A1.481,1.481,0,0,0-16.3-2.008a1.2,1.2,0,0,0,.406-.914h2.117a2.9,2.9,0,0,1-.469,1.574A3.093,3.093,0,0,1-15.5-.238a3.949,3.949,0,0,1-1.77.395A3.67,3.67,0,0,1-20.133-1,4.56,4.56,0,0,1-21.18-4.18v-.148a4.508,4.508,0,0,1,1.039-3.117,3.627,3.627,0,0,1,2.852-1.164,3.555,3.555,0,0,1,2.543.9,3.2,3.2,0,0,1,.973,2.4h-2.117A1.539,1.539,0,0,0-16.3-6.371a1.358,1.358,0,0,0-1.031-.41,1.361,1.361,0,0,0-1.191.574,3.324,3.324,0,0,0-.4,1.863v.234a3.366,3.366,0,0,0,.4,1.875A1.378,1.378,0,0,0-17.312-1.664ZM-10.1,0h-2.266V-8.453H-10.1Zm-2.4-10.641a1.112,1.112,0,0,1,.34-.836,1.277,1.277,0,0,1,.926-.328,1.28,1.28,0,0,1,.922.328,1.105,1.105,0,0,1,.344.836,1.108,1.108,0,0,1-.348.844,1.283,1.283,0,0,1-.918.328,1.283,1.283,0,0,1-.918-.328A1.108,1.108,0,0,1-12.5-10.641ZM-8.594-4.3a5.013,5.013,0,0,1,.484-2.242A3.546,3.546,0,0,1-6.715-8.07,4.069,4.069,0,0,1-4.6-8.609,3.849,3.849,0,0,1-1.809-7.562,4.2,4.2,0,0,1-.6-4.719l.016.578A4.418,4.418,0,0,1-1.672-1.02,3.775,3.775,0,0,1-4.586.156,3.793,3.793,0,0,1-7.5-1.016,4.5,4.5,0,0,1-8.594-4.2Zm2.258.164A3.151,3.151,0,0,0-5.883-2.3a1.5,1.5,0,0,0,1.3.637A1.5,1.5,0,0,0-3.3-2.293,3.448,3.448,0,0,0-2.844-4.3,3.12,3.12,0,0,0-3.3-6.133a1.5,1.5,0,0,0-1.3-.648,1.475,1.475,0,0,0-1.281.645A3.506,3.506,0,0,0-6.336-4.141ZM-4.156-12H-1.7L-3.859-9.578H-5.7ZM2.883-8.453l.07.977a2.951,2.951,0,0,1,2.43-1.133,2.453,2.453,0,0,1,2,.789,3.682,3.682,0,0,1,.672,2.359V0H5.8V-5.406a1.465,1.465,0,0,0-.312-1.043,1.4,1.4,0,0,0-1.039-.324,1.553,1.553,0,0,0-1.43.813V0H.758V-8.453Zm18.477,4.3a5.07,5.07,0,0,1-.887,3.129A2.843,2.843,0,0,1,18.078.156a2.633,2.633,0,0,1-2.07-.891V3.25H13.75v-11.7h2.094l.078.828a2.654,2.654,0,0,1,2.141-.984,2.862,2.862,0,0,1,2.43,1.156,5.207,5.207,0,0,1,.867,3.188ZM19.1-4.312a3.327,3.327,0,0,0-.418-1.82,1.361,1.361,0,0,0-1.215-.641,1.478,1.478,0,0,0-1.461.813V-2.5a1.5,1.5,0,0,0,1.477.836Q19.1-1.664,19.1-4.312ZM27.656,0a2.507,2.507,0,0,1-.227-.758A2.732,2.732,0,0,1,25.3.156a3,3,0,0,1-2.059-.719,2.312,2.312,0,0,1-.816-1.812,2.389,2.389,0,0,1,1-2.062A4.915,4.915,0,0,1,26.3-5.164h1.039v-.484a1.393,1.393,0,0,0-.3-.937,1.183,1.183,0,0,0-.949-.352,1.345,1.345,0,0,0-.895.273.929.929,0,0,0-.324.75H22.609a2.268,2.268,0,0,1,.453-1.359,3,3,0,0,1,1.281-.98A4.669,4.669,0,0,1,26.2-8.609a3.689,3.689,0,0,1,2.48.785A2.747,2.747,0,0,1,29.6-5.617v3.664a4.041,4.041,0,0,0,.336,1.82V0ZM25.789-1.57a1.945,1.945,0,0,0,.922-.223,1.462,1.462,0,0,0,.625-.6V-3.844h-.844q-1.7,0-1.8,1.172l-.008.133a.9.9,0,0,0,.3.7A1.153,1.153,0,0,0,25.789-1.57Zm10.3-4.766a6.134,6.134,0,0,0-.812-.062,1.654,1.654,0,0,0-1.68.867V0H31.336V-8.453h2.133l.063,1.008a2.092,2.092,0,0,1,1.883-1.164,2.366,2.366,0,0,1,.7.1ZM41.836,0a2.507,2.507,0,0,1-.227-.758,2.732,2.732,0,0,1-2.133.914,3,3,0,0,1-2.059-.719A2.312,2.312,0,0,1,36.6-2.375a2.389,2.389,0,0,1,1-2.062,4.915,4.915,0,0,1,2.879-.727h1.039v-.484a1.393,1.393,0,0,0-.3-.937,1.183,1.183,0,0,0-.949-.352,1.345,1.345,0,0,0-.895.273.929.929,0,0,0-.324.75H36.789a2.268,2.268,0,0,1,.453-1.359,3,3,0,0,1,1.281-.98,4.669,4.669,0,0,1,1.859-.355,3.689,3.689,0,0,1,2.48.785,2.747,2.747,0,0,1,.918,2.207v3.664a4.041,4.041,0,0,0,.336,1.82V0ZM39.969-1.57a1.945,1.945,0,0,0,.922-.223,1.462,1.462,0,0,0,.625-.6V-3.844h-.844q-1.7,0-1.8,1.172l-.008.133a.9.9,0,0,0,.3.7A1.153,1.153,0,0,0,39.969-1.57ZM51.883,0H49.617V-12h2.266Zm6.758,0a2.507,2.507,0,0,1-.227-.758,2.732,2.732,0,0,1-2.133.914,3,3,0,0,1-2.059-.719,2.312,2.312,0,0,1-.816-1.812,2.389,2.389,0,0,1,1-2.062,4.915,4.915,0,0,1,2.879-.727H58.32v-.484a1.393,1.393,0,0,0-.3-.937,1.183,1.183,0,0,0-.949-.352,1.345,1.345,0,0,0-.895.273.929.929,0,0,0-.324.75H53.594a2.268,2.268,0,0,1,.453-1.359,3,3,0,0,1,1.281-.98,4.669,4.669,0,0,1,1.859-.355,3.689,3.689,0,0,1,2.48.785,2.747,2.747,0,0,1,.918,2.207v3.664a4.041,4.041,0,0,0,.336,1.82V0ZM56.773-1.57a1.945,1.945,0,0,0,.922-.223,1.462,1.462,0,0,0,.625-.6V-3.844h-.844q-1.7,0-1.8,1.172l-.008.133a.9.9,0,0,0,.3.7A1.153,1.153,0,0,0,56.773-1.57ZM-14.062,21.664a.727.727,0,0,0-.41-.652,4.659,4.659,0,0,0-1.316-.426q-3.016-.633-3.016-2.562a2.323,2.323,0,0,1,.934-1.879,3.766,3.766,0,0,1,2.441-.754,4.053,4.053,0,0,1,2.574.758,2.388,2.388,0,0,1,.965,1.969h-2.258a1.092,1.092,0,0,0-.312-.8A1.322,1.322,0,0,0-15.437,17a1.351,1.351,0,0,0-.883.258.814.814,0,0,0-.312.656.7.7,0,0,0,.355.605,3.657,3.657,0,0,0,1.2.4,9.8,9.8,0,0,1,1.422.379,2.336,2.336,0,0,1,1.789,2.273,2.2,2.2,0,0,1-.992,1.871,4.28,4.28,0,0,1-2.562.715,4.47,4.47,0,0,1-1.887-.379A3.166,3.166,0,0,1-18.6,22.738a2.414,2.414,0,0,1-.469-1.426h2.141a1.179,1.179,0,0,0,.445.922,1.766,1.766,0,0,0,1.109.32,1.635,1.635,0,0,0,.98-.246A.766.766,0,0,0-14.062,21.664ZM-5.516,24a2.507,2.507,0,0,1-.227-.758,2.732,2.732,0,0,1-2.133.914,3,3,0,0,1-2.059-.719,2.312,2.312,0,0,1-.816-1.812,2.389,2.389,0,0,1,1-2.062,4.915,4.915,0,0,1,2.879-.727h1.039v-.484a1.393,1.393,0,0,0-.3-.937,1.183,1.183,0,0,0-.949-.352,1.345,1.345,0,0,0-.895.273.929.929,0,0,0-.324.75h-2.258a2.268,2.268,0,0,1,.453-1.359,3,3,0,0,1,1.281-.98,4.669,4.669,0,0,1,1.859-.355,3.689,3.689,0,0,1,2.48.785,2.747,2.747,0,0,1,.918,2.207v3.664a4.041,4.041,0,0,0,.336,1.82V24Zm-1.867-1.57a1.945,1.945,0,0,0,.922-.223,1.462,1.462,0,0,0,.625-.6V20.156H-6.68q-1.7,0-1.8,1.172l-.008.133a.9.9,0,0,0,.3.7A1.153,1.153,0,0,0-7.383,22.43ZM.547,24H-1.719V12H.547Zm6.922-.859a2.831,2.831,0,0,1-2.312,1.016,2.67,2.67,0,0,1-2.074-.781,3.335,3.335,0,0,1-.73-2.289V15.547H4.609v5.461q0,1.32,1.2,1.32a1.631,1.631,0,0,0,1.578-.8V15.547H9.656V24H7.531Zm3.539-3.43a5.094,5.094,0,0,1,.887-3.148,2.877,2.877,0,0,1,2.426-1.172,2.589,2.589,0,0,1,2.039.922V12h2.266V24H16.586l-.109-.9A2.657,2.657,0,0,1,14.3,24.156,2.869,2.869,0,0,1,11.91,22.98,5.258,5.258,0,0,1,11.008,19.711Zm2.258.164a3.328,3.328,0,0,0,.414,1.82,1.349,1.349,0,0,0,1.2.633,1.511,1.511,0,0,0,1.477-.883V18.109a1.489,1.489,0,0,0-1.461-.883Q13.266,17.227,13.266,19.875Z" transform="translate(989 2376)" fill="#12263f"/>
    <path id="Trazado_12138" data-name="Trazado 12138" d="M11640.4,11747.157l-18.734-24.75a3,3,0,0,1,2.391-4.812h7.46V11696h23.58v21.595h6.428a3,3,0,0,1,2.395,4.813l-18.735,24.75a3,3,0,0,1-4.783,0Z" transform="translate(-11259.047 -9243.348)" fill="#8fafe7"/>
    <path id="Trazado_12139" data-name="Trazado 12139" d="M11678.979,11764.265a3,3,0,0,1-3.957,0l-49.03-43.01a3,3,0,0,1,1.979-5.255h98.061a3,3,0,0,1,1.979,5.255Z" transform="translate(-10989.965 -9459)" fill="#89ace8"/>
    <path id="Trazado_12147" data-name="Trazado 12147" d="M11678.979,11764.265a3,3,0,0,1-3.957,0l-49.03-43.01a3,3,0,0,1,1.979-5.255h98.061a3,3,0,0,1,1.979,5.255Z" transform="translate(-10687.965 -9459)" fill="#89ace8"/>
    <path id="Trazado_12140" data-name="Trazado 12140" d="M8,0H110a8,8,0,0,1,8,8V49a8,8,0,0,1-8,8H8a8,8,0,0,1-8-8V8A8,8,0,0,1,8,0Z" transform="translate(323 2517)" fill="#f53c82"/>
    <path id="Trazado_12142" data-name="Trazado 12142" d="M3.359-4.008V0H1.016V-11.375H5.453a5.134,5.134,0,0,1,2.254.469A3.454,3.454,0,0,1,9.2-9.574a3.714,3.714,0,0,1,.523,1.965A3.266,3.266,0,0,1,8.582-4.973a4.767,4.767,0,0,1-3.168.965Zm0-1.9H5.453a2.059,2.059,0,0,0,1.418-.437,1.591,1.591,0,0,0,.488-1.25,1.876,1.876,0,0,0-.492-1.352,1.839,1.839,0,0,0-1.359-.531H3.359ZM16.367-2.344H12.258L11.477,0H8.984l4.234-11.375h2.172L19.648,0H17.156Zm-3.477-1.9h2.844L14.3-8.5Zm16.656,2.8A4.068,4.068,0,0,1,27.758-.262,7.492,7.492,0,0,1,25.2.156a5.076,5.076,0,0,1-2.59-.645,4.3,4.3,0,0,1-1.719-1.871,6.585,6.585,0,0,1-.621-2.883v-.773a6.994,6.994,0,0,1,.574-2.949A4.248,4.248,0,0,1,22.5-10.871a4.771,4.771,0,0,1,2.535-.66,4.751,4.751,0,0,1,3.164.965,4.123,4.123,0,0,1,1.352,2.809H27.266a2.268,2.268,0,0,0-.691-1.43A2.208,2.208,0,0,0,25.1-9.641a2.078,2.078,0,0,0-1.82.9,4.724,4.724,0,0,0-.633,2.672v.727a4.5,4.5,0,0,0,.68,2.7,2.327,2.327,0,0,0,1.992.914A2.6,2.6,0,0,0,27.2-2.289V-4.25H25.07V-5.977h4.477Zm8.32-.906H33.758L32.977,0H30.484l4.234-11.375h2.172L41.148,0H38.656Zm-3.477-1.9h2.844L35.8-8.5Zm12.031.078H44.555V0H42.211V-11.375h4.227a4.778,4.778,0,0,1,3.109.9,3.1,3.1,0,0,1,1.094,2.539A3.5,3.5,0,0,1,50.137-6a3.437,3.437,0,0,1-1.527,1.238L51.07-.109V0H48.555Zm-1.867-1.9h1.891a1.936,1.936,0,0,0,1.367-.449A1.606,1.606,0,0,0,48.3-7.75a1.719,1.719,0,0,0-.457-1.266,1.9,1.9,0,0,0-1.4-.461H44.555Z" transform="translate(357 2551)" fill="#fff"/>
    <path id="Trazado_11690" data-name="Trazado 11690" d="M-11273-9000.168v76.239h655.176l.478-213.922" transform="translate(11620 11600)" fill="none" stroke="#00348d" stroke-width="2"/>
    <path id="Trazado_11691" data-name="Trazado 11691" d="M-11273-9029.8v39.445h276v-172.422" transform="translate(11688 11627.29)" fill="none" stroke="#00348d" stroke-width="2"/>
    <path id="Trazado_12141" data-name="Trazado 12141" d="M11657.091,11734.977a2,2,0,0,1-3.218,0l-11.656-15.789a2,2,0,0,1,1.609-3.187h23.312a2,2,0,0,1,1.609,3.188Z" transform="translate(12346.482 14184.166) rotate(180)" fill="#00348d"/>
    <path id="Trazado_12149" data-name="Trazado 12149" d="M11657.091,11734.977a2,2,0,0,1-3.218,0l-11.656-15.789a2,2,0,0,1,1.609-3.187h23.312a2,2,0,0,1,1.609,3.188Z" transform="translate(12657.658 14184.166) rotate(180)" fill="#00348d"/>
    <path id="Trazado_12143" data-name="Trazado 12143" d="M4,0A4,4,0,1,1,0,4,4,4,0,0,1,4,0Z" transform="translate(343 2595)" fill="#00348d"/>
    <path id="Trazado_12144" data-name="Trazado 12144" d="M4,0A4,4,0,1,1,0,4,4,4,0,0,1,4,0Z" transform="translate(411 2595)" fill="#00348d"/>
  </g>
</svg>
