<svg xmlns="http://www.w3.org/2000/svg" width="139.131" height="85.395" viewBox="0 0 139.131 85.395">
  <g id="Grupo_24820" data-name="Grupo 24820" transform="translate(-206.056 -6038)">
    <g id="Grupo_24595" data-name="Grupo 24595" transform="translate(279.074 6038)">
      <path id="Trazado_11409" data-name="Trazado 11409" d="M198.194,291.194h19.283v18.922H198.194Z" transform="translate(-174.779 -242.627)" fill="#e2a975"/>
      <path id="Trazado_11410" data-name="Trazado 11410" d="M231.232,415.67h-5.509l-2.755-19.283h11.019Z" transform="translate(-195.421 -330.275)" fill="#f4dbb3"/>
      <path id="Trazado_11411" data-name="Trazado 11411" d="M80.2,330.323l-8.275,3.009-.516.249c-3.81,1.386-4.91,6.7-4.91,9V357.87l1.3,2.755h6.887l1.455-1.334,1.3,1.334H95.352V346.63Z" transform="translate(-65.05 -275.229)" fill="#ff8086"/>
      <path id="Trazado_11412" data-name="Trazado 11412" d="M198.194,261.87a20.61,20.61,0,0,0,19.283,0V256H198.194Z" transform="translate(-174.779 -213.303)" fill="#d19a6e"/>
      <path id="Trazado_11413" data-name="Trazado 11413" d="M72.958,82.581H59.184a1.377,1.377,0,0,0,0,2.755H72.958V82.581Z" transform="translate(-57.807 -68.808)" fill="#db4655"/>
      <path id="Trazado_11414" data-name="Trazado 11414" d="M194.606,107.361h-.689V99.1H160.612L160,114.248c.706,9.243,6.588,16.356,16.012,16.356a18.181,18.181,0,0,0,2.806-.047,17.905,17.905,0,0,0,15.03-16.309h.758a3.443,3.443,0,0,0,0-6.887Z" transform="translate(-142.956 -82.569)" fill="#ecbd83"/>
      <path id="Trazado_11415" data-name="Trazado 11415" d="M133.512,112.87V99.1H128v8.264h-.689a3.443,3.443,0,0,0,0,6.887h.758a17.9,17.9,0,0,0,17.836,16.528,18.478,18.478,0,0,0,2.806-.219A17.945,17.945,0,0,1,133.512,112.87Z" transform="translate(-112.852 -82.569)" fill="#e2a975"/>
      <path id="Trazado_11416" data-name="Trazado 11416" d="M148.645,82.581l5.51,10.473a32.138,32.138,0,0,0,15.15-7.718l1.043,4.172a1.371,1.371,0,0,0,1.7.995c2.219-.626,6.658-2.173,9.651-5.167v5.509a2.755,2.755,0,0,0,5.509,0V85.336l-2.355-2.755Z" transform="translate(-133.494 -68.808)" fill="#6e4848"/>
      <path id="Trazado_11417" data-name="Trazado 11417" d="M140.393,82.581h-5.509l-2.755,2.755v5.509a2.739,2.739,0,0,0,2.7,2.754,28.1,28.1,0,0,0,5.567-.546V82.581Z" transform="translate(-119.733 -68.808)" fill="#643c3e"/>
      <path id="Trazado_11418" data-name="Trazado 11418" d="M201.813,11.019A13.779,13.779,0,0,0,188.314,0H182.8c-12.552,0-16.3,6.167-16.3,13.773l2.531,2.755h23.415Z" transform="translate(-148.371 0)" fill="#ff8086"/>
      <path id="Trazado_11419" data-name="Trazado 11419" d="M207.829,152.777a1.377,1.377,0,0,1-1.377-1.377v-1.377a1.377,1.377,0,1,1,2.755,0V151.4A1.377,1.377,0,0,1,207.829,152.777Z" transform="translate(-181.66 -123.853)" fill="#785353"/>
      <path id="Trazado_11420" data-name="Trazado 11420" d="M290.409,152.777a1.377,1.377,0,0,1-1.377-1.377v-1.377a1.377,1.377,0,1,1,2.755,0V151.4A1.376,1.376,0,0,1,290.409,152.777Z" transform="translate(-250.467 -123.853)" fill="#785353"/>
      <path id="Trazado_11421" data-name="Trazado 11421" d="M163.8,326.958a4.144,4.144,0,0,0-1.541-3.21,26.864,26.864,0,0,1-6.165-7.11,1.373,1.373,0,0,0-1.7-.586l-5.743,2.3A42.462,42.462,0,0,0,163.8,334.657Z" transform="translate(-133.494 -263.256)" fill="#f5ebcd"/>
      <path id="Trazado_11422" data-name="Trazado 11422" d="M223.006,210.579A11.415,11.415,0,0,1,217.064,209a1.377,1.377,0,0,1,1.431-2.354,9.511,9.511,0,0,0,9.023,0A1.377,1.377,0,1,1,228.949,209,11.416,11.416,0,0,1,223.006,210.579Z" transform="translate(-189.95 -172.014)" fill="#c38c66"/>
      <g id="Grupo_24594" data-name="Grupo 24594" transform="translate(0 0)">
        <path id="Trazado_11423" data-name="Trazado 11423" d="M154.166,0H145.9a13.773,13.773,0,0,0-13.773,13.773v2.755h8.264V13.773A13.773,13.773,0,0,1,154.166,0Z" transform="translate(-119.733)" fill="#e5646e"/>
        <path id="Trazado_11424" data-name="Trazado 11424" d="M331.432,66.065H324.82a2.755,2.755,0,0,0-2.755,2.755v2.755h9.641V68.82A13.837,13.837,0,0,0,331.432,66.065Z" transform="translate(-277.99 -55.046)" fill="#e5646e"/>
        <path id="Trazado_11425" data-name="Trazado 11425" d="M60.562,356.24a9.622,9.622,0,0,1,4.121-7.876l-.529.192a9.641,9.641,0,0,0-6.347,9.061V372.9a2.755,2.755,0,0,0,2.755,2.755Z" transform="translate(-57.807 -290.261)" fill="#e5646e"/>
        <path id="Trazado_11426" data-name="Trazado 11426" d="M118.368,456.955h-2.755v-9.641a1.377,1.377,0,0,1,2.755,0Z" transform="translate(-105.972 -371.56)" fill="#e5646e"/>
      </g>
      <path id="Trazado_11427" data-name="Trazado 11427" d="M287.667,330.323l8.8,3.2a9.641,9.641,0,0,1,6.347,9.061V357.87a2.755,2.755,0,0,1-2.755,2.755h-6.887l-1.441-1.084-1.314,1.084H272.516V346.63Z" transform="translate(-236.705 -275.229)" fill="#ff8086"/>
      <path id="Trazado_11428" data-name="Trazado 11428" d="M272.516,326.958a4.144,4.144,0,0,1,1.541-3.21,26.864,26.864,0,0,0,6.165-7.11,1.373,1.373,0,0,1,1.7-.586l5.743,2.3a42.462,42.462,0,0,1-15.151,16.307Z" transform="translate(-236.705 -263.256)" fill="#f5ebcd"/>
      <path id="Trazado_11429" data-name="Trazado 11429" d="M379.871,456.955h2.755v-9.641a1.377,1.377,0,0,0-2.755,0Z" transform="translate(-326.155 -371.56)" fill="#e5646e"/>
    </g>
    <g id="Grupo_24623" data-name="Grupo 24623" transform="translate(206.056 6053.921)">
      <path id="Trazado_11430" data-name="Trazado 11430" d="M125.955,136.584l-.227-.779a.786.786,0,0,0-.854-.559l-.795-5.962a5.961,5.961,0,0,0-3.243-4.544l-2.568-1.284a.754.754,0,0,0-1.017.36l-5.133-1.889a2.384,2.384,0,0,1-1.63-2.262V115.82l5.136-2.14a7.153,7.153,0,0,0,4.4-6.6v-1.192a3.577,3.577,0,0,0,0-7.154V96.346c0-3.292-2.669-8.346-5.961-8.346H92.6c-3.292,0-5.961,5.054-5.961,8.346V98.73a3.577,3.577,0,0,0,0,7.154v1.192a7.154,7.154,0,0,0,4.4,6.6l5.136,2.14v3.845a2.385,2.385,0,0,1-1.63,2.262l-5.032,1.852a.748.748,0,0,0-1-.325l-2.342,1.171a6.087,6.087,0,0,0-3.473,4.659l-.795,5.962a.786.786,0,0,0-.854.559l-.227.779a.787.787,0,0,0,.535.976l1.7.5v3.6a2.385,2.385,0,0,0,2.385,2.385h35.768a2.385,2.385,0,0,0,2.385-2.385V138.09l1.818-.53A.787.787,0,0,0,125.955,136.584Z" transform="translate(-71.142 -74.885)" fill="#ffd7a3"/>
      <path id="Trazado_11431" data-name="Trazado 11431" d="M191.711,274H177.4v3.945a2.384,2.384,0,0,1-1.155,2.042A16.191,16.191,0,0,0,191.711,274Z" transform="translate(-152.366 -233.162)" fill="#fdc88e"/>
      <g id="Grupo_24596" data-name="Grupo 24596" transform="translate(10.594 48.489)">
        <path id="Trazado_11432" data-name="Trazado 11432" d="M130.382,338.412l-.952-7.142a5.961,5.961,0,0,0-3.243-4.544l-2.568-1.284a.76.76,0,0,0-1.071.5,14.309,14.309,0,0,1-27.61,0,.756.756,0,0,0-1.065-.5l-2.342,1.171a6.088,6.088,0,0,0-3.473,4.659l-.971,7.278c3.15,1.085,8.542,2.706,8.542,2.706v4.769h26.23v-4.769Z" transform="translate(-87.087 -325.36)" fill="#8db9e2"/>
      </g>
      <g id="Grupo_24597" data-name="Grupo 24597" transform="translate(10.62 52.627)">
        <path id="Trazado_11433" data-name="Trazado 11433" d="M95.744,364.516a7.141,7.141,0,0,0-1.4-3.928l-5.6-7.463A5.81,5.81,0,0,0,88.2,354.9l-.945,7.088Z" transform="translate(-87.257 -353.125)" fill="#6aa2de"/>
      </g>
      <g id="Grupo_24598" data-name="Grupo 24598" transform="translate(9.657 60.353)">
        <path id="Trazado_11434" data-name="Trazado 11434" d="M80.831,406.31a.787.787,0,0,0,.535.976l8.912,2.6v-.891a7.126,7.126,0,0,0-.218-1.656L82.034,405a.786.786,0,0,0-.975.535Z" transform="translate(-80.799 -404.965)" fill="#4e87bb"/>
      </g>
      <g id="Grupo_24599" data-name="Grupo 24599" transform="translate(45.395 52.627)">
        <path id="Trazado_11435" data-name="Trazado 11435" d="M320.6,364.516a7.141,7.141,0,0,1,1.4-3.928l5.6-7.463a5.811,5.811,0,0,1,.543,1.772l.945,7.088Z" transform="translate(-320.598 -353.125)" fill="#6aa2de"/>
      </g>
      <g id="Grupo_24600" data-name="Grupo 24600" transform="translate(45.366 60.353)">
        <path id="Trazado_11436" data-name="Trazado 11436" d="M329.847,406.31a.787.787,0,0,1-.535.976l-8.912,2.6v-.891a7.125,7.125,0,0,1,.218-1.656L328.644,405a.786.786,0,0,1,.975.535Z" transform="translate(-320.4 -404.965)" fill="#4e87bb"/>
      </g>
      <g id="Grupo_24601" data-name="Grupo 24601" transform="translate(0 21.46)">
        <path id="Trazado_11437" data-name="Trazado 11437" d="M29.115,144c-3.577,0-10.73,1.341-10.73,11.923S16,179.768,16,179.768s11.923-1.263,11.923-15.5c0-13.264,2.385-15.5,2.385-15.5Z" transform="translate(-16 -144)" fill="#9d6e48"/>
      </g>
      <g id="Grupo_24602" data-name="Grupo 24602" transform="translate(0 22.653)">
        <path id="Trazado_11438" data-name="Trazado 11438" d="M27.923,171.076c0-13.264,2.385-15.5,2.385-15.5L27.923,152c-1.379.186-6.655.224-5.961,9.538.7,9.34,4.173,18.778-5.961,25.038C16,186.576,27.923,185.313,27.923,171.076Z" transform="translate(-16 -152)" fill="#8d5f3d"/>
      </g>
      <g id="Grupo_24603" data-name="Grupo 24603" transform="translate(10.73 20.268)">
        <path id="Trazado_11439" data-name="Trazado 11439" d="M91.8,140.875l-1.483-4.089a1.192,1.192,0,0,0-2.242.813l1.483,4.089a1.192,1.192,0,1,0,2.242-.813Z" transform="translate(-88 -136)" fill="#6aa2de"/>
      </g>
      <g id="Grupo_24604" data-name="Grupo 24604" transform="translate(50.075 21.46)">
        <path id="Trazado_11440" data-name="Trazado 11440" d="M353.192,144c3.577,0,10.73,1.341,10.73,11.923s2.385,23.845,2.385,23.845-11.923-1.263-11.923-15.5c0-13.264-2.385-15.5-2.385-15.5Z" transform="translate(-352 -144)" fill="#9d6e48"/>
      </g>
      <g id="Grupo_24605" data-name="Grupo 24605" transform="translate(50.075 22.653)">
        <path id="Trazado_11441" data-name="Trazado 11441" d="M354.385,171.076c0-13.264-2.385-15.5-2.385-15.5L354.385,152c1.379.186,6.655.224,5.961,9.538-.7,9.34-4.173,18.778,5.961,25.038C366.307,186.576,354.385,185.313,354.385,171.076Z" transform="translate(-352 -152)" fill="#8d5f3d"/>
      </g>
      <g id="Grupo_24606" data-name="Grupo 24606" transform="translate(49.784 20.268)">
        <path id="Trazado_11442" data-name="Trazado 11442" d="M350.115,140.875l1.483-4.089a1.192,1.192,0,0,1,2.242.813l-1.483,4.089a1.192,1.192,0,0,1-2.242-.813Z" transform="translate(-350.043 -136)" fill="#6aa2de"/>
      </g>
      <path id="Trazado_11443" data-name="Trazado 11443" d="M132.96,98.73V96.346C132.96,93.054,130.291,88,127,88H105.538c-3.292,0-5.961,5.054-5.961,8.346V98.73a3.577,3.577,0,0,0,0,7.154v1.193a7.154,7.154,0,0,0,4.4,6.6l7.7,3.21a11.922,11.922,0,0,0,4.586.917h0a11.924,11.924,0,0,0,4.586-.917l7.7-3.21a7.153,7.153,0,0,0,4.4-6.6v-1.192a3.577,3.577,0,0,0,0-7.154Z" transform="translate(-84.077 -74.885)" fill="#ffe1b2"/>
      <g id="Grupo_24607" data-name="Grupo 24607" transform="translate(22.653 25.037)">
        <path id="Trazado_11444" data-name="Trazado 11444" d="M169.192,171.577h0A1.2,1.2,0,0,1,168,170.385v-1.192A1.2,1.2,0,0,1,169.192,168h0a1.2,1.2,0,0,1,1.192,1.192v1.192A1.2,1.2,0,0,1,169.192,171.577Z" transform="translate(-168 -168)" fill="#623f33"/>
      </g>
      <g id="Grupo_24608" data-name="Grupo 24608" transform="translate(39.345 25.037)">
        <path id="Trazado_11445" data-name="Trazado 11445" d="M281.192,171.577h0A1.2,1.2,0,0,1,280,170.385v-1.192A1.2,1.2,0,0,1,281.192,168h0a1.2,1.2,0,0,1,1.192,1.192v1.192A1.2,1.2,0,0,1,281.192,171.577Z" transform="translate(-280 -168)" fill="#623f33"/>
      </g>
      <g id="Grupo_24610" data-name="Grupo 24610" transform="translate(26.23 33.383)">
        <g id="Grupo_24609" data-name="Grupo 24609">
          <path id="Trazado_11446" data-name="Trazado 11446" d="M197.96,227.608a9.931,9.931,0,0,1-5.44-1.431,1.192,1.192,0,0,1,1.341-1.971,8.758,8.758,0,0,0,8.2,0,1.192,1.192,0,1,1,1.341,1.971A9.93,9.93,0,0,1,197.96,227.608Z" transform="translate(-191.999 -223.998)" fill="#e4b07b"/>
        </g>
      </g>
      <path id="Trazado_11447" data-name="Trazado 11447" d="M115.232,87c-.206,6.444-15.656,10.88-15.656,10.88a3.577,3.577,0,0,0,0,7.154v1.192a7.154,7.154,0,0,0,4.4,6.6l7.7,3.21a11.939,11.939,0,0,0,1.152.41,49.76,49.76,0,0,1-7-6.091,5.589,5.589,0,0,1-1.49-3.819V99.871c3.413-1.191,12.992-5.1,13.115-11.533.009-.487,0-.933-.018-1.342Z" transform="translate(-84.077 -74.031)" fill="#ffd7a3"/>
      <path id="Trazado_11448" data-name="Trazado 11448" d="M122.169,0a12.871,12.871,0,0,0-5.961,1.192A12.871,12.871,0,0,0,110.247,0c-3.875,0-18.58,7.46-13.115,24.748,0,0,19.076-3.386,19.076-11.633,0,8.246,19.076,11.633,19.076,11.633C140.749,7.46,126.044,0,122.169,0Z" transform="translate(-84.017 0)" fill="#9d6e48"/>
      <g id="Grupo_24611" data-name="Grupo 24611" transform="translate(11.912 0)">
        <path id="Trazado_11449" data-name="Trazado 11449" d="M116.208,1.193h0A12.871,12.871,0,0,0,110.247,0c-3.875,0-18.579,7.46-13.115,24.748,0,0,2.309-.411,5.319-1.292C99.083,7.954,112.511,1.2,116.208,1.193Z" transform="translate(-95.929)" fill="#8d5f3d"/>
      </g>
      <g id="Grupo_24612" data-name="Grupo 24612" transform="translate(30.865 65.689)">
        <ellipse id="Elipse_1498" data-name="Elipse 1498" cx="1.298" cy="1.154" rx="1.298" ry="1.154" transform="translate(0 0)" fill="#ff8c51"/>
      </g>
      <g id="Grupo_24613" data-name="Grupo 24613" transform="translate(21.346 65.689)">
        <ellipse id="Elipse_1499" data-name="Elipse 1499" cx="1.298" cy="1.154" rx="1.298" ry="1.154" transform="translate(0 0)" fill="#ff8c51"/>
      </g>
      <g id="Grupo_24614" data-name="Grupo 24614" transform="translate(40.673 65.689)">
        <ellipse id="Elipse_1500" data-name="Elipse 1500" cx="1.154" cy="1.154" rx="1.154" ry="1.154" transform="translate(0 0)" fill="#ff8c51"/>
      </g>
      <g id="Grupo_24615" data-name="Grupo 24615" transform="translate(35.769 65.689)">
        <ellipse id="Elipse_1501" data-name="Elipse 1501" cx="1.154" cy="1.154" rx="1.154" ry="1.154" transform="translate(0 0)" fill="#ffc84a"/>
      </g>
      <g id="Grupo_24616" data-name="Grupo 24616" transform="translate(26.25 65.689)">
        <ellipse id="Elipse_1502" data-name="Elipse 1502" cx="1.154" cy="1.154" rx="1.154" ry="1.154" transform="translate(0 0)" fill="#ffc84a"/>
      </g>
      <g id="Grupo_24617" data-name="Grupo 24617" transform="translate(33.462 61.94)">
        <ellipse id="Elipse_1503" data-name="Elipse 1503" cx="1.154" cy="1.154" rx="1.154" ry="1.154" transform="translate(0 0)" fill="#ffc84a"/>
      </g>
      <g id="Grupo_24618" data-name="Grupo 24618" transform="translate(23.943 61.94)">
        <ellipse id="Elipse_1504" data-name="Elipse 1504" cx="1.154" cy="1.154" rx="1.154" ry="1.154" transform="translate(0 0)" fill="#ffc84a"/>
      </g>
      <g id="Grupo_24619" data-name="Grupo 24619" transform="translate(42.981 61.94)">
        <ellipse id="Elipse_1505" data-name="Elipse 1505" cx="1.154" cy="1.154" rx="1.154" ry="1.154" transform="translate(0 0)" fill="#ffc84a"/>
      </g>
      <g id="Grupo_24620" data-name="Grupo 24620" transform="translate(19.039 61.94)">
        <ellipse id="Elipse_1506" data-name="Elipse 1506" cx="1.154" cy="1.154" rx="1.154" ry="1.154" transform="translate(0 0)" fill="#ff8c51"/>
      </g>
      <g id="Grupo_24621" data-name="Grupo 24621" transform="translate(38.077 61.94)">
        <ellipse id="Elipse_1507" data-name="Elipse 1507" cx="1.298" cy="1.154" rx="1.298" ry="1.154" transform="translate(0 0)" fill="#ff8c51"/>
      </g>
      <g id="Grupo_24622" data-name="Grupo 24622" transform="translate(28.558 61.94)">
        <ellipse id="Elipse_1508" data-name="Elipse 1508" cx="1.154" cy="1.154" rx="1.154" ry="1.154" transform="translate(0 0)" fill="#ff8c51"/>
      </g>
    </g>
  </g>
</svg>
