<?xml version="1.0" encoding="UTF-8" standalone="no"?><!DOCTYPE svg PUBLIC "-//W3C//DTD SVG 1.1//EN" "http://www.w3.org/Graphics/SVG/1.1/DTD/svg11.dtd"><svg width="100%" height="100%" viewBox="0 0 92 100" version="1.1" xmlns="http://www.w3.org/2000/svg" xmlns:xlink="http://www.w3.org/1999/xlink" xml:space="preserve" xmlns:serif="http://www.serif.com/" style="fill-rule:evenodd;clip-rule:evenodd;stroke-linejoin:round;stroke-miterlimit:2;"><g id="Grupo_24813"><g id="Grupo_24809"><circle id="Elipse_1534" cx="46" cy="50.493" r="43" style="fill:#00348d;"/><g id="Grupo_24808"><g id="Grupo_24242"><circle id="Elipse_1441" cx="52.948" cy="32.991" r="5.247" style="fill:#fff;"/><path id="Trazado_10436" d="M55.422,39.821l-4.95,0c-2.878,0 -5.324,2.189 -5.643,5.049l-1.088,10.79c-0.11,0.853 0.384,1.676 1.188,1.98l2.673,1.089c0.344,0.112 0.582,0.43 0.594,0.792l1.385,18.016c0.074,0.985 0.894,1.762 1.881,1.784l2.97,0c0.987,-0.022 1.806,-0.798 1.881,-1.782l1.386,-18.118c0.012,-0.362 0.25,-0.68 0.594,-0.792l2.673,-1.089c0.804,-0.304 1.298,-1.127 1.188,-1.98l-1.09,-10.789c-0.367,-2.82 -2.798,-4.953 -5.642,-4.95Z" style="fill:#fff;fill-rule:nonzero;"/><g id="Grupo_24240"><path id="Trazado_9496" d="M81.094,48.239l-1.543,-10.682l-13.161,0l-1.805,12.635c-0.015,0.131 -0.022,0.264 -0.022,0.396c-0,1.926 1.584,3.51 3.51,3.51c-0,0 -0,0 0,0l6.987,-1.431l-1.277,-3.214c-1.192,0.456 -3.039,1.155 -4.124,1.531c-0.686,0.237 -1.236,-0.738 -1.151,-1.459l0.36,-2.993l-1.518,0.578l-0.629,-0.566l2.521,-1.289c0.326,-0.158 0.817,-0.053 0.878,0.3c0.066,0.765 0.068,1.535 0.005,2.3l2.862,-1.109c0.114,-0.044 0.234,-0.067 0.356,-0.067c0.406,0 0.773,0.251 0.919,0.63l0.371,0.957l0.288,0.741l0.3,0.779l0,2.84l2.387,-0.489c1.665,-0.271 3.723,-1.82 3.486,-3.898Zm-5.429,-4.99c0.295,0 0.538,0.243 0.538,0.538c0,0.295 -0.243,0.538 -0.538,0.538c-0.295,0 -0.538,-0.243 -0.538,-0.538c0.001,-0.295 0.243,-0.537 0.538,-0.537c0,-0 0.001,-0 0.001,0l-0.001,-0.001Zm-3.025,-0.706l0.545,0c0,1.116 0.919,2.034 2.035,2.034c1.116,0 2.035,-0.918 2.035,-2.035c-0,-0.464 -0.159,-0.914 -0.45,-1.276l0,-0.74l0.009,-0.011c0.623,0.489 0.987,1.238 0.987,2.029c-0,1.416 -1.165,2.58 -2.58,2.58c-1.415,0 -2.58,-1.164 -2.58,-2.58c-0,-0 -0,-0.001 0,-0.001l-0.001,0Zm4.569,6.039c-0.204,0.08 -0.421,0.12 -0.639,0.12c-0.965,0 -1.759,-0.794 -1.759,-1.759c-0,-0.965 0.794,-1.759 1.759,-1.759c0.723,0 1.377,0.447 1.639,1.122c0.349,0.899 -0.102,1.926 -1,2.277l0,-0.001Z" style="fill:#fff;fill-rule:nonzero;"/><path id="Trazado_9497" d="M75.183,28.073c-0.382,-0.163 -0.787,-0.267 -1.2,-0.307c-0.145,-0.015 -0.291,-0.023 -0.437,-0.023c-2.257,-0 -4.115,1.857 -4.115,4.115c0,2.257 1.858,4.115 4.115,4.115c1.248,-0 2.429,-0.567 3.21,-1.54c1.135,0.954 2.575,4.068 4.85,-0.136c-2.904,2.33 -2.802,-4.964 -6.423,-6.224Z" style="fill:#fff;fill-rule:nonzero;"/><path id="Trazado_9498" d="M78.685,52.7l-10.69,2.2l-1.15,11.988l2.322,0l1.488,13.853l2.4,0l0.044,-13.853l1.018,0l-0.031,13.853l2.2,0l1.676,-13.848l2.455,-0.013l-1.732,-14.18Z" style="fill:#fff;fill-rule:nonzero;"/></g></g><g id="Grupo_24238"><circle id="Elipse_1330" cx="34.945" cy="43.348" r="4.832" style="fill:#fff;"/><path id="Trazado_9428" d="M36.77,49.897l-3.758,0c-2.202,-0.009 -4.072,1.675 -4.295,3.865l-0.859,8.16c-0.079,0.634 0.272,1.248 0.859,1.5l2.04,0.752c0.255,0.114 0.422,0.365 0.429,0.644l1.071,13.639c0.058,0.725 0.672,1.29 1.4,1.288l2.255,0c0.023,0.001 0.046,0.002 0.07,0.002c0.714,-0 1.308,-0.576 1.33,-1.29l1.074,-13.636c0.007,-0.279 0.174,-0.53 0.429,-0.644l2.04,-0.752c0.618,-0.215 0.987,-0.859 0.859,-1.5l-0.859,-8.16c-0.015,-2.129 -1.771,-3.872 -3.9,-3.872c-0.062,-0 -0.123,0.001 -0.185,0.004Z" style="fill:#fff;fill-rule:nonzero;"/></g><g id="Grupo_23659"><g id="Grupo_23658"><circle id="Elipse_1329" cx="15.922" cy="49.551" r="4.19" style="fill:#fff;"/><path id="Trazado_9425" d="M20.361,63.268l-2.859,2.395l2.157,1.46l-2.291,2.8c-0.222,0.269 -0.343,0.607 -0.343,0.956c0,0.825 0.679,1.504 1.504,1.504c0.449,-0 0.875,-0.201 1.161,-0.548l3.068,-3.742c0.309,-0.305 0.483,-0.722 0.483,-1.156c-0,-0.475 -0.208,-0.927 -0.569,-1.236l-2.311,-2.433Z" style="fill:#fff;fill-rule:nonzero;"/><path id="Trazado_9426" d="M14.478,69.923l-2.294,-2.8l2.157,-1.465l-2.863,-2.391l-2.309,2.434c-0.361,0.309 -0.569,0.761 -0.569,1.236c0,0.434 0.174,0.851 0.483,1.156l3.069,3.741c0.286,0.348 0.713,0.55 1.163,0.55c0.826,-0 1.505,-0.68 1.505,-1.506c0,-0.348 -0.121,-0.686 -0.342,-0.955Z" style="fill:#fff;fill-rule:nonzero;"/><path id="Trazado_9427" d="M24.432,50.286c-0.375,-0.001 -0.735,0.147 -1,0.413l-3.154,3.154c-0.379,0.462 -0.94,0.738 -1.537,0.757l-5.642,-0c-0.597,-0.019 -1.158,-0.295 -1.537,-0.757l-3.154,-3.154c-0.265,-0.264 -0.623,-0.412 -0.997,-0.412c-0.774,0 -1.411,0.638 -1.411,1.412c-0,0.375 0.149,0.735 0.415,1l5.067,5.068l-0,4.004l8.879,-0l-0,-4.008l5.067,-5.068c0.266,-0.264 0.415,-0.624 0.415,-0.999c-0,-0.774 -0.637,-1.41 -1.41,-1.41c-0.002,-0 -0.003,-0 -0.005,-0l0.004,-0Z" style="fill:#fff;fill-rule:nonzero;"/></g></g></g></g><rect id="Rectángulo_5781" x="0" y="0" width="92" height="100" style="fill:none;"/></g></svg>