<svg id="Grupo_24589" data-name="Grupo 24589" xmlns="http://www.w3.org/2000/svg" width="138.701" height="61.731" viewBox="0 0 138.701 61.731">
  <g id="Grupo_24571" data-name="Grupo 24571" transform="translate(96.975 0)">
    <path id="Trazado_11358" data-name="Trazado 11358" d="M116.885,58.141l-1.347-10.778a4.258,4.258,0,0,0-2.878-3.511l-5.195-1.732a2.129,2.129,0,0,0-2.046.382l-1.53-.51a2.129,2.129,0,0,1-1.455-2.019V36.541l4.585-1.91a6.385,6.385,0,0,0,3.93-5.894V27.672a3.192,3.192,0,0,0,2.42-5.274c.9-3.288,3.443-13.691.773-18.141L115.2,0S104.029.266,98.176,2.129L100.3,0S85.337,0,82.212,5.321h0s-5.322-.044-5.322,6.386c0,2.353,1.313,8.23,1.876,10.645a3.192,3.192,0,0,0,2.381,5.32v1.064a6.386,6.386,0,0,0,3.93,5.895l4.585,1.91v3.433a2.129,2.129,0,0,1-1.455,2.019l-1.53.51a2.129,2.129,0,0,0-2.046-.382l-5.195,1.732a4.257,4.257,0,0,0-2.878,3.511L75.209,58.142a3.193,3.193,0,0,0,3.168,3.589h35.339A3.193,3.193,0,0,0,116.885,58.141Z" transform="translate(-75.184 0)" fill="#ffd7a3"/>
    <g id="Grupo_24561" data-name="Grupo 24561" transform="translate(13.41 36.542)">
      <path id="Trazado_11359" data-name="Trazado 11359" d="M189.822,274.667H177.05V278.1a2.11,2.11,0,0,1-1.067,1.817A14.487,14.487,0,0,0,189.822,274.667Z" transform="translate(-175.983 -274.667)" fill="#fdc88e"/>
    </g>
    <g id="Grupo_24562" data-name="Grupo 24562" transform="translate(1.705 0)">
      <path id="Trazado_11360" data-name="Trazado 11360" d="M90.129,23.415S88,14.7,88,11.708c0-6.43,5.322-6.386,5.322-6.386h0C96.448,0,111.415,0,111.415,0l-2.129,2.129C115.14.266,126.316,0,126.316,0l-1.064,4.257c3.193,5.322-1.064,19.158-1.064,19.158Z" transform="translate(-88 0)" fill="#734a3e"/>
    </g>
    <g id="Grupo_24563" data-name="Grupo 24563" transform="translate(1.705 0)">
      <path id="Trazado_11361" data-name="Trazado 11361" d="M111.415,0S96.448,0,93.323,5.321h0S88,5.277,88,11.708c0,3,2.129,11.708,2.129,11.708S112.258,13.526,126.316,0c0,0-11.175.266-17.029,2.129Z" transform="translate(-88)" fill="#623f33"/>
    </g>
    <path id="Trazado_11362" data-name="Trazado 11362" d="M128.994,111.45v-2.129A5.322,5.322,0,0,0,123.672,104H104.515a5.322,5.322,0,0,0-5.322,5.322v2.129a3.193,3.193,0,1,0,0,6.386V118.9a6.386,6.386,0,0,0,3.93,5.895L110,127.661a10.643,10.643,0,0,0,4.094.819h0a10.645,10.645,0,0,0,4.094-.819l6.877-2.866a6.386,6.386,0,0,0,3.93-5.895v-1.064a3.193,3.193,0,1,0,0-6.386Z" transform="translate(-93.231 -90.164)" fill="#ffe1b2"/>
    <g id="Grupo_24564" data-name="Grupo 24564" transform="translate(12.348 22.351)">
      <path id="Trazado_11363" data-name="Trazado 11363" d="M169.064,171.193h0A1.067,1.067,0,0,1,168,170.129v-1.064A1.067,1.067,0,0,1,169.064,168h0a1.067,1.067,0,0,1,1.064,1.064v1.064A1.067,1.067,0,0,1,169.064,171.193Z" transform="translate(-168 -168)" fill="#623f33"/>
    </g>
    <g id="Grupo_24565" data-name="Grupo 24565" transform="translate(27.249 22.351)">
      <path id="Trazado_11364" data-name="Trazado 11364" d="M281.064,171.193h0A1.068,1.068,0,0,1,280,170.129v-1.064A1.067,1.067,0,0,1,281.064,168h0a1.067,1.067,0,0,1,1.064,1.064v1.064A1.067,1.067,0,0,1,281.064,171.193Z" transform="translate(-280 -168)" fill="#623f33"/>
    </g>
    <g id="Grupo_24567" data-name="Grupo 24567" transform="translate(15.541 29.801)">
      <g id="Grupo_24566" data-name="Grupo 24566" transform="translate(0)">
        <path id="Trazado_11365" data-name="Trazado 11365" d="M197.321,227.221a8.865,8.865,0,0,1-4.856-1.278,1.064,1.064,0,1,1,1.2-1.76,7.818,7.818,0,0,0,7.317,0,1.064,1.064,0,0,1,1.2,1.76A8.865,8.865,0,0,1,197.321,227.221Z" transform="translate(-191.999 -223.998)" fill="#e4b07b"/>
      </g>
    </g>
    <g id="Grupo_24568" data-name="Grupo 24568" transform="translate(0 42.01)">
      <path id="Trazado_11366" data-name="Trazado 11366" d="M116.885,331.9l-1.347-10.778a4.257,4.257,0,0,0-2.878-3.511l-5.195-1.732a2.094,2.094,0,0,0-2.433.826,10.631,10.631,0,0,1-17.969,0,2.094,2.094,0,0,0-2.433-.826l-5.195,1.732a4.257,4.257,0,0,0-2.878,3.511L75.209,331.9a3.193,3.193,0,0,0,3.168,3.589h35.339A3.193,3.193,0,0,0,116.885,331.9Z" transform="translate(-75.184 -315.769)" fill="#00bea4"/>
    </g>
    <g id="Grupo_24569" data-name="Grupo 24569" transform="translate(0 45.256)">
      <path id="Trazado_11367" data-name="Trazado 11367" d="M77.444,340.168a4.248,4.248,0,0,0-.887,2.108l-1.347,10.778a3.193,3.193,0,0,0,3.168,3.589h5.962v-6.927a4.258,4.258,0,0,0-1.039-2.788Z" transform="translate(-75.184 -340.168)" fill="#00ab9a"/>
    </g>
    <g id="Grupo_24570" data-name="Grupo 24570" transform="translate(32.57 45.256)">
      <path id="Trazado_11368" data-name="Trazado 11368" d="M326.9,340.168a4.248,4.248,0,0,1,.887,2.108l1.347,10.778a3.193,3.193,0,0,1-3.168,3.589H320v-6.927a4.258,4.258,0,0,1,1.039-2.788Z" transform="translate(-320 -340.168)" fill="#00ab9a"/>
    </g>
    <path id="Trazado_11369" data-name="Trazado 11369" d="M104.78,122.589a4.989,4.989,0,0,1-1.33-3.409V107.118c3.388-.254,14.068-1.178,20.222-3.118H104.515a5,5,0,0,0-1.064.117v-.01a5.323,5.323,0,0,0-4.257,5.214v2.129a3.193,3.193,0,1,0,0,6.386V118.9a6.386,6.386,0,0,0,3.93,5.895L110,127.661a10.665,10.665,0,0,0,1.028.366A44.427,44.427,0,0,1,104.78,122.589Z" transform="translate(-93.231 -90.164)" fill="#ffd7a3"/>
  </g>
  <g id="Grupo_24586" data-name="Grupo 24586" transform="translate(0 18.505)">
    <g id="Grupo_24572" data-name="Grupo 24572" transform="translate(0)">
      <path id="Trazado_11370" data-name="Trazado 11370" d="M90.938,43.226a15.22,15.22,0,0,1-15.22-15.22V15.22a15.22,15.22,0,0,1,30.441,0V28.005A15.22,15.22,0,0,1,90.938,43.226Z" transform="translate(-75.718)" fill="#b0d8fd"/>
    </g>
    <g id="Grupo_24574" data-name="Grupo 24574" transform="translate(0 13.3)">
      <g id="Grupo_24573" data-name="Grupo 24573">
        <path id="Trazado_11371" data-name="Trazado 11371" d="M75.838,157.537a15.365,15.365,0,0,0-.12,1.92v12.785a15.221,15.221,0,0,0,27.618,8.831Z" transform="translate(-75.718 -157.537)" fill="#72bafd"/>
      </g>
    </g>
    <g id="Grupo_24575" data-name="Grupo 24575" transform="translate(0)">
      <path id="Trazado_11372" data-name="Trazado 11372" d="M90.938,3.262a1.631,1.631,0,1,1,0-3.262,15.22,15.22,0,0,0-15.22,15.22V28.005A15.22,15.22,0,0,0,100.994,39.43l0-.008L82.478,23.68Z" transform="translate(-75.718)" fill="#9ccefd"/>
    </g>
    <g id="Grupo_24576" data-name="Grupo 24576" transform="translate(3.256 3.256)">
      <ellipse id="Elipse_1495" data-name="Elipse 1495" cx="11.964" cy="11.964" rx="11.964" ry="11.964" fill="#ffdfcf"/>
    </g>
    <g id="Grupo_24577" data-name="Grupo 24577" transform="translate(3.262 3.262)">
      <path id="Trazado_11373" data-name="Trazado 11373" d="M121.328,59.053a11.958,11.958,0,0,1,6.721-20.293,11.961,11.961,0,1,0,0,23.665A11.9,11.9,0,0,1,121.328,59.053Z" transform="translate(-114.351 -38.634)" fill="#ffcebf"/>
    </g>
    <g id="Grupo_24584" data-name="Grupo 24584" transform="translate(5.748 14.901)">
      <g id="Grupo_24580" data-name="Grupo 24580" transform="translate(0 1.601)">
        <g id="Grupo_24578" data-name="Grupo 24578">
          <ellipse id="Elipse_1496" data-name="Elipse 1496" cx="2.553" cy="2.033" rx="2.553" ry="2.033" fill="#fda0c1"/>
        </g>
        <g id="Grupo_24579" data-name="Grupo 24579" transform="translate(13.839)">
          <ellipse id="Elipse_1497" data-name="Elipse 1497" cx="2.553" cy="2.033" rx="2.553" ry="2.033" fill="#fda0c1"/>
        </g>
      </g>
      <g id="Grupo_24581" data-name="Grupo 24581" transform="translate(3.408)">
        <path id="Trazado_11374" data-name="Trazado 11374" d="M184.8,178.811a.633.633,0,0,1-.633-.633v-1.044a.633.633,0,1,1,1.266,0v1.044A.633.633,0,0,1,184.8,178.811Z" transform="translate(-184.167 -176.501)" fill="#6e6e6e"/>
      </g>
      <g id="Grupo_24582" data-name="Grupo 24582" transform="translate(14.271)">
        <path id="Trazado_11375" data-name="Trazado 11375" d="M313.466,178.811a.633.633,0,0,1-.633-.633v-1.044a.633.633,0,0,1,1.266,0v1.044A.633.633,0,0,1,313.466,178.811Z" transform="translate(-312.833 -176.501)" fill="#6e6e6e"/>
      </g>
      <g id="Grupo_24583" data-name="Grupo 24583" transform="translate(7.407 1.013)">
        <path id="Trazado_11376" data-name="Trazado 11376" d="M233.6,190.413a2.533,2.533,0,0,1-1.909-.869.633.633,0,0,1,.955-.832,1.265,1.265,0,0,0,1.909,0,.633.633,0,0,1,.955.832,2.533,2.533,0,0,1-1.909.869Z" transform="translate(-231.539 -188.494)" fill="#6e6e6e"/>
      </g>
    </g>
    <g id="Grupo_24585" data-name="Grupo 24585" transform="translate(12.296 3.535)">
      <path id="Trazado_11377" data-name="Trazado 11377" d="M228.878,47.575A3.515,3.515,0,0,1,224.3,49.5a2.685,2.685,0,0,1-1.469-3.5,2.022,2.022,0,0,1,2.633-1.106,1.491,1.491,0,0,1,.815,1.941,1.057,1.057,0,0,1-.573.579.633.633,0,1,0,.49,1.168,2.316,2.316,0,0,0,1.255-1.267,2.759,2.759,0,0,0-1.508-3.593,3.29,3.29,0,0,0-4.284,1.8,3.953,3.953,0,0,0,2.162,5.149,4.778,4.778,0,0,0,6.23-2.616,5.776,5.776,0,0,0-.021-4.45,5.9,5.9,0,0,0-.373-.738,11.875,11.875,0,0,0-2.794-.994A4.554,4.554,0,0,1,228.878,47.575Z" transform="translate(-221.365 -41.872)" fill="#c4715a"/>
    </g>
  </g>
  <g id="Grupo_24588" data-name="Grupo 24588" transform="translate(37.157 7.11)">
    <path id="Trazado_11378" data-name="Trazado 11378" d="M23.71,389.4a.709.709,0,0,0-.71.7v11.673a.709.709,0,0,0,.71.7H35.491a.708.708,0,0,0,.71-.7V389.4Z" transform="translate(-23 -347.854)" fill="#fb8276"/>
    <path id="Trazado_11379" data-name="Trazado 11379" d="M212.228,302.521a8.429,8.429,0,0,1,1.581-5.025,9.42,9.42,0,0,1-5.54.756V303a14.283,14.283,0,0,0,3.958-.121Z" transform="translate(-188.505 -265.759)" fill="#a2f9f9"/>
    <path id="Trazado_11380" data-name="Trazado 11380" d="M260.609,276.594a11.118,11.118,0,0,1-4.777,1.078h-3.306a12.711,12.711,0,0,1-4.607-.831,8.387,8.387,0,0,0-3.545,7.008v1.5l.44.044-.055-.16-.082-.216a.8.8,0,0,1,.466-1.033l.231-.087a.8.8,0,0,1,.283-.052.806.806,0,0,1,.75.518l.882,2.307.008.011a2.974,2.974,0,0,1,.254.437l.022.046.049.012a8.84,8.84,0,0,0,2.166.269,8.953,8.953,0,0,0,7.984-4.93,2.138,2.138,0,0,1,2.843-.973,2.092,2.092,0,0,1,.97,2.813,13.027,13.027,0,0,1-4.944,5.381,13.285,13.285,0,0,1-6.877,1.921h0a13.091,13.091,0,0,1-2.713-.286v4.316h1.884l.011-.095a2.237,2.237,0,0,1,4.2-.766l.094.18.095-.18a2.237,2.237,0,0,1,4.2.766l.011.095h6.9V283.739A8.243,8.243,0,0,0,260.609,276.594Z" transform="translate(-220.758 -247.087)" fill="#48e5e1"/>
    <path id="Trazado_11381" data-name="Trazado 11381" d="M244.816,287.459l-.055-.16-.082-.216a.8.8,0,0,1,.466-1.033l.231-.087a.8.8,0,0,1,.283-.052.806.806,0,0,1,.75.518l.882,2.307.008.011a2.974,2.974,0,0,1,.254.437l.022.046.049.012c.043.011.087.02.13.031v-3.358a8.385,8.385,0,0,1,2.715-6.334,12.072,12.072,0,0,1-2.548-.674,8.387,8.387,0,0,0-3.545,7.008v1.5Z" transform="translate(-220.758 -249.152)" fill="#41ceca"/>
    <path id="Trazado_11382" data-name="Trazado 11382" d="M269.555,437.634a2.174,2.174,0,0,1,.217-.944,2.344,2.344,0,0,0-4.459.68h-1.789v5.424a.709.709,0,0,1-.71.7h4.982v-.008a2.338,2.338,0,0,0,1.976-1.37,2.172,2.172,0,0,1-.216-.94Z" transform="translate(-237.229 -388.876)" fill="#a2f9f9"/>
    <path id="Trazado_11383" data-name="Trazado 11383" d="M327.188,443.489v.008h9.482a3.064,3.064,0,1,0,0-6.127h-7a2.34,2.34,0,0,0-4.663.264v3.545A2.325,2.325,0,0,0,327.188,443.489Z" transform="translate(-292.789 -388.876)" fill="#a2f9f9"/>
    <path id="Trazado_11384" data-name="Trazado 11384" d="M328.356,441.179v-3.545a2.3,2.3,0,0,1,.665-1.617,2.342,2.342,0,0,0-4.013,1.617v3.545a2.325,2.325,0,0,0,2.18,2.31v.008h3.348v-.008A2.326,2.326,0,0,1,328.356,441.179Z" transform="translate(-292.789 -388.876)" fill="#91e0e0"/>
    <path id="Trazado_11385" data-name="Trazado 11385" d="M311.379,285.98h-3.306a13.786,13.786,0,0,1-1.518-.085v.093a2.674,2.674,0,0,0,5.348,0v-.021C311.729,285.975,311.554,285.98,311.379,285.98Z" transform="translate(-276.305 -255.395)" fill="#ffc987"/>
    <path id="Trazado_11386" data-name="Trazado 11386" d="M241.439,85.794h-.045V84.232c0-.119,0-.238-.006-.356a2.8,2.8,0,0,1-.811.447,5.832,5.832,0,0,1-1.939.356h0c-3.359,0-4.879-3.534-4.894-3.57l-.1-.241-.1.243c-.018.046-1.861,4.583-4.937,4.583a3.424,3.424,0,0,1-1.027-.164c-1.459-.46-1.941-1.569-1.433-3.3l-.194-.085c-.946,1.578-2.4,3.46-3.936,3.46a1.9,1.9,0,0,1-.535-.077,1.862,1.862,0,0,1-1.219-.994,4.319,4.319,0,0,1,.255-3.345l-.195-.087c-1.274,2.672-2.631,3.971-4.146,3.971a2.692,2.692,0,0,1-.521-.052v6.735c0,7.257,5.021,11.175,11.215,11.175h3.306a11.212,11.212,0,0,0,10.843-8.311,2.784,2.784,0,0,0,.418.033c1.921,0,3.478-1.984,3.478-4.43S243.36,85.794,241.439,85.794Z" transform="translate(-195.104 -72.24)" fill="#ffd5b3"/>
    <path id="Trazado_11387" data-name="Trazado 11387" d="M219.021,111.8v-7.525c0-.327.015-.651.042-.971a3.7,3.7,0,0,1-2.886,1.814,2.692,2.692,0,0,1-.521-.052V111.8c0,7.257,5.021,11.175,11.215,11.175H230.2C224.021,122.959,219.021,119.043,219.021,111.8Z" transform="translate(-195.104 -92.284)" fill="#e5bfa1"/>
    <g id="Grupo_24587" data-name="Grupo 24587" transform="translate(24.626 16.41)">
      <path id="Trazado_11388" data-name="Trazado 11388" d="M368.8,156.773a.8.8,0,0,1-.8-.8V154.62a.8.8,0,0,1,1.6,0v1.352A.8.8,0,0,1,368.8,156.773Z" transform="translate(-355.825 -153.82)" fill="#775436"/>
      <path id="Trazado_11389" data-name="Trazado 11389" d="M254.64,156.773a.8.8,0,0,1-.8-.8V154.62a.8.8,0,1,1,1.6,0v1.352A.8.8,0,0,1,254.64,156.773Z" transform="translate(-253.84 -153.82)" fill="#775436"/>
      <path id="Trazado_11390" data-name="Trazado 11390" d="M307.78,165.916h-.535a1.344,1.344,0,0,1-1.334-1.349v-1.039a.8.8,0,1,1,1.6,0v.788h.269a.8.8,0,0,1,0,1.6Z" transform="translate(-300.356 -161.777)" fill="#775436"/>
    </g>
    <path id="Trazado_11391" data-name="Trazado 11391" d="M288.56,217.244a3.761,3.761,0,0,1-3.774-3.74.707.707,0,0,1,.71-.7h6.129a.706.706,0,0,1,.71.7A3.761,3.761,0,0,1,288.56,217.244Z" transform="translate(-256.858 -190.099)" fill="#fb8276"/>
    <path id="Trazado_11392" data-name="Trazado 11392" d="M288.174,213.508a.706.706,0,0,1,.71-.7H285.5a.706.706,0,0,0-.71.7,3.779,3.779,0,0,0,5.468,3.341A3.741,3.741,0,0,1,288.174,213.508Z" transform="translate(-256.858 -190.103)" fill="#e1756a"/>
    <path id="Trazado_11393" data-name="Trazado 11393" d="M218.189,0h-3.576a12.11,12.11,0,0,0-12.132,12.088v.181a3.271,3.271,0,0,0,.8.443c2.571,1.019,4.308-1.567,5.374-3.8-.794,1.922-.768,3.956,1.033,4.481,1.737.507,3.4-1.449,4.592-3.43-.407,1.385-.317,2.856,1.5,3.43,3.832,1.208,6.1-4.481,6.1-4.481s2.09,5,6.967,3.273a2.828,2.828,0,0,0,1.434-1.1A12.114,12.114,0,0,0,218.189,0Z" transform="translate(-183.334 0)" fill="#f7931e"/>
    <path id="Trazado_11394" data-name="Trazado 11394" d="M205.832,12.269v-.181A12.11,12.11,0,0,1,217.964,0h-3.351a12.11,12.11,0,0,0-12.132,12.088v.181a3.27,3.27,0,0,0,.8.443,2.83,2.83,0,0,0,2.763-.3C205.967,12.366,205.9,12.319,205.832,12.269Z" transform="translate(-183.334 0)" fill="#de841b"/>
    <path id="Trazado_11395" data-name="Trazado 11395" d="M119.146,247.222v-.909a1.554,1.554,0,0,0-1.561-1.547h-4.542a1.554,1.554,0,0,0-1.562,1.547v.909Z" transform="translate(-102.042 -218.654)" fill="#89c947"/>
    <path id="Trazado_11396" data-name="Trazado 11396" d="M114.884,247.222v-.909a1.554,1.554,0,0,1,1.561-1.547h-3.406a1.554,1.554,0,0,0-1.562,1.547v.909Z" transform="translate(-102.038 -218.654)" fill="#7bb540"/>
    <path id="Trazado_11397" data-name="Trazado 11397" d="M98.737,279.166a.709.709,0,0,1-.71.7H86.246a.708.708,0,0,1-.71-.7V267.492a.709.709,0,0,1,.71-.7H98.027a.709.709,0,0,1,.71.7Z" transform="translate(-78.865 -238.328)" fill="#d5e962"/>
    <path id="Trazado_11398" data-name="Trazado 11398" d="M120.649,304.333a.4.4,0,0,1-.188-.046l-1.674-.867-1.674.867a.4.4,0,0,1-.188.046.407.407,0,0,1-.238-.076.394.394,0,0,1-.16-.39l.32-1.837-1.355-1.3a.394.394,0,0,1-.1-.408.4.4,0,0,1,.326-.272l1.872-.268.837-1.672a.407.407,0,0,1,.725,0l.837,1.672,1.872.268a.4.4,0,0,1,.326.272.392.392,0,0,1-.1.408l-1.354,1.3.32,1.837a.4.4,0,0,1-.16.39A.407.407,0,0,1,120.649,304.333Z" transform="translate(-105.516 -266.108)" fill="#89c947"/>
    <path id="Trazado_11399" data-name="Trazado 11399" d="M25.61,401.771V390.1a.708.708,0,0,1,.71-.7H23.71a.709.709,0,0,0-.71.7v11.673a.709.709,0,0,0,.71.7h2.61A.708.708,0,0,1,25.61,401.771Z" transform="translate(-23 -347.854)" fill="#e1756a"/>
    <path id="Trazado_11400" data-name="Trazado 11400" d="M53.7,428.421a.336.336,0,0,1-.235-.1l-2.951-2.885a1.767,1.767,0,0,1,0-2.536,1.862,1.862,0,0,1,2.593,0l.593.58.593-.58a1.862,1.862,0,0,1,2.593,0,1.767,1.767,0,0,1,0,2.536l-2.95,2.885A.337.337,0,0,1,53.7,428.421Z" transform="translate(-47.099 -377.319)" fill="#ef5050"/>
    <path id="Trazado_11401" data-name="Trazado 11401" d="M158.673,391.84l-.033-.01-.033.011a3.03,3.03,0,0,1-1.271.142l-2.731-.275a.736.736,0,0,1-.658-.8l.023-.228a.732.732,0,0,1,.73-.661c.025,0,.049,0,.075,0l2.079.209.036-.359-2.514-.253a.729.729,0,0,1-.453-.22h-7.184v12.376a.708.708,0,0,0,.71.7H159.23a.708.708,0,0,0,.709-.7v-9.61C159.513,392.075,159.09,391.969,158.673,391.84Z" transform="translate(-133.538 -347.854)" fill="#ffc502"/>
    <path id="Trazado_11402" data-name="Trazado 11402" d="M149.673,401.771V389.4h-2.934v12.377a.708.708,0,0,0,.71.7h2.934A.708.708,0,0,1,149.673,401.771Z" transform="translate(-133.538 -347.854)" fill="#e5b102"/>
    <path id="Trazado_11403" data-name="Trazado 11403" d="M180.212,428.7a1.365,1.365,0,0,1-1.064-.609l-1.029-1.765a1.341,1.341,0,0,1,0-1.218l1.029-1.765a1.365,1.365,0,0,1,1.064-.609h2.057a1.365,1.365,0,0,1,1.065.609l1.029,1.765a1.339,1.339,0,0,1,0,1.218l-1.029,1.765a1.365,1.365,0,0,1-1.065.609Z" transform="translate(-161.44 -377.636)" fill="#fcdb67"/>
    <path id="Trazado_11404" data-name="Trazado 11404" d="M88.355,279.166V267.492a.709.709,0,0,1,.71-.7H86.246a.709.709,0,0,0-.71.7v11.673a.708.708,0,0,0,.71.7h2.819A.708.708,0,0,1,88.355,279.166Z" transform="translate(-78.865 -238.328)" fill="#bfd158"/>
    <path id="Trazado_11405" data-name="Trazado 11405" d="M449.965,155.6a.8.8,0,0,1-.381-1.5c.906-.49.379-1.738.356-1.791a.8.8,0,0,1,1.469-.635,4.066,4.066,0,0,1,.3,1.384,2.559,2.559,0,0,1-1.36,2.45A.792.792,0,0,1,449.965,155.6Z" transform="translate(-403.7 -135.058)" fill="#ffb98a"/>
    <path id="Trazado_11406" data-name="Trazado 11406" d="M271.639,320.208a2.245,2.245,0,0,0-2.985,1.021,8.81,8.81,0,0,1-10.167,4.571,2.867,2.867,0,0,1,.3,1.58,2.9,2.9,0,0,1-2.125,2.5,13.307,13.307,0,0,0,16-6.716A2.2,2.2,0,0,0,271.639,320.208Z" transform="translate(-231.734 -285.848)" fill="#a2f9f9"/>
    <path id="Trazado_11407" data-name="Trazado 11407" d="M211.368,349.949l.023-.228a.841.841,0,0,1,.921-.753l1.973.2.015-.147-2.408-.243a.841.841,0,0,1-.753-.921l.023-.228a.842.842,0,0,1,.921-.753l2.408.243.015-.147-1.973-.2a.841.841,0,0,1-.753-.921l.023-.228a.842.842,0,0,1,.921-.753l2.236.225h.005l-.082-.216a.908.908,0,0,1,.528-1.17l.232-.088a.908.908,0,0,1,1.17.529l.877,2.294a2.969,2.969,0,0,1,.531,2.01,3.051,3.051,0,0,1-3.371,2.692l-2.731-.275A.841.841,0,0,1,211.368,349.949Z" transform="translate(-191.065 -306.911)" fill="#ffd5b3"/>
  </g>
</svg>
