<svg xmlns="http://www.w3.org/2000/svg" width="161.326" height="92.322" viewBox="0 0 161.326 92.322">
  <g id="Grupo_24822" data-name="Grupo 24822" transform="translate(-198.648 -6222.532)">
    <g id="Grupo_24821" data-name="Grupo 24821" transform="translate(-491.418 -370.468)">
      <g id="flat" transform="translate(758.635 6593)">
        <path id="Trazado_11494" data-name="Trazado 11494" d="M86.661,344l30.619,15.309a12.422,12.422,0,0,1,6.742,9.354l.736,5.151H32l.736-5.151a12.422,12.422,0,0,1,6.742-9.354L70.1,344Z" transform="translate(-32 -281.494)" fill="#026ca2"/>
        <path id="Trazado_11495" data-name="Trazado 11495" d="M216,344h16.564v29.815H216Z" transform="translate(-177.903 -281.494)" fill="#cbcbcb"/>
        <path id="Trazado_11496" data-name="Trazado 11496" d="M209.656,312v6.626L208,323.595v1.656h19.877v-1.656l-1.656-4.969V312Z" transform="translate(-171.559 -256.119)" fill="#fdc9a6"/>
        <path id="Trazado_11497" data-name="Trazado 11497" d="M232.564,312v4.066c-.017.012-.035.023-.052.035A14.68,14.68,0,0,1,216,316.066V312Z" transform="translate(-177.903 -256.119)" fill="#fdc9a6"/>
        <path id="Trazado_11498" data-name="Trazado 11498" d="M232.564,312v4.066c-.017.012-.035.023-.052.035A14.68,14.68,0,0,1,216,316.066V312Z" transform="translate(-177.903 -256.119)" fill="#e6af89"/>
        <path id="Trazado_11499" data-name="Trazado 11499" d="M72,456.282v-6.625a1.656,1.656,0,1,1,3.313,0v6.625Z" transform="translate(-63.718 -363.961)" fill="#015078"/>
        <path id="Trazado_11500" data-name="Trazado 11500" d="M424,456.282v-6.625a1.656,1.656,0,1,1,3.313,0v6.625Z" transform="translate(-342.837 -363.961)" fill="#015078"/>
        <path id="Trazado_11501" data-name="Trazado 11501" d="M230.857,378.6l1.893,5.679h6.626l1.893-5.679-5.206-2.6Z" transform="translate(-189.684 -306.868)" fill="#0296e5"/>
        <path id="Trazado_11502" data-name="Trazado 11502" d="M233.656,416,232,430.907h9.938L240.282,416Z" transform="translate(-190.59 -338.586)" fill="#026ca2"/>
        <path id="Trazado_11503" data-name="Trazado 11503" d="M190.52,68.985l.708-2.816a19.029,19.029,0,0,0-4.051-17.078,17.42,17.42,0,0,0-17.9-6.53l-3.237.753a15.744,15.744,0,0,0-10.521,8.295h-.44a9.059,9.059,0,0,0-8.967,10.34l1.125,7.88.6,4.969h40.827l1.363-4.142q.272-.827.484-1.671Z" transform="translate(-122.416 -42.107)" fill="#55300b"/>
        <path id="Trazado_11504" data-name="Trazado 11504" d="M192.564,156.144a14.68,14.68,0,0,1-13.629-9.227A41.029,41.029,0,0,1,176,131.678V119.7l4.969-8.433a28.175,28.175,0,0,0,20.1,8.433h8.057v11.975a41.029,41.029,0,0,1-2.934,15.239,14.68,14.68,0,0,1-13.629,9.227Z" transform="translate(-146.185 -96.95)" fill="#fdc9a6"/>
        <g id="Grupo_24653" data-name="Grupo 24653" transform="translate(34.784 26.066)">
          <path id="Trazado_11505" data-name="Trazado 11505" d="M278.626,171.313h-4.969a1.656,1.656,0,1,1,0-3.313h4.969a1.656,1.656,0,0,1,0,3.313Z" transform="translate(-257.092 -168)" fill="#55300b"/>
          <ellipse id="Elipse_1511" data-name="Elipse 1511" cx="2.07" cy="2.07" rx="2.07" ry="2.07" transform="translate(16.564 4.969)" fill="#55300b"/>
          <path id="Trazado_11506" data-name="Trazado 11506" d="M206.626,171.313h-4.969a1.656,1.656,0,0,1,0-3.313h4.969a1.656,1.656,0,1,1,0,3.313Z" transform="translate(-200 -168)" fill="#55300b"/>
          <ellipse id="Elipse_1512" data-name="Elipse 1512" cx="2.07" cy="2.07" rx="2.07" ry="2.07" transform="translate(2.485 4.969)" fill="#55300b"/>
        </g>
        <path id="Trazado_11507" data-name="Trazado 11507" d="M240.282,267.313h-6.626a1.656,1.656,0,0,1,0-3.313h6.626a1.656,1.656,0,0,1,0,3.313Z" transform="translate(-190.59 -218.057)" fill="#e6af89"/>
        <path id="Trazado_11508" data-name="Trazado 11508" d="M244.969,216.282h-3.313A1.656,1.656,0,0,1,240,214.626v-4.969a1.656,1.656,0,0,1,3.313,0v3.313h1.656a1.656,1.656,0,1,1,0,3.313Z" transform="translate(-196.934 -173.652)" fill="#e6af89"/>
        <path id="Trazado_11509" data-name="Trazado 11509" d="M150.626,176h-2.289A4.336,4.336,0,0,0,144,180.336v2.922a4.336,4.336,0,0,0,4.336,4.336h2.91Z" transform="translate(-120.811 -148.278)" fill="#fdc9a6"/>
        <path id="Trazado_11510" data-name="Trazado 11510" d="M333.621,176h2.289a4.336,4.336,0,0,1,4.336,4.336v2.922a4.336,4.336,0,0,1-4.336,4.336H333Z" transform="translate(-270.678 -148.278)" fill="#fdc9a6"/>
        <path id="Trazado_11511" data-name="Trazado 11511" d="M209.656,344l8.282,6.626L208,355.595v-6.626Z" transform="translate(-171.559 -281.494)" fill="#ebebeb"/>
        <path id="Trazado_11512" data-name="Trazado 11512" d="M264.282,344,256,350.626l9.938,4.969v-6.626Z" transform="translate(-209.621 -281.494)" fill="#ebebeb"/>
        <path id="Trazado_11513" data-name="Trazado 11513" d="M165.251,373.815h-8.282L152,358.907,165.251,344Z" transform="translate(-127.154 -281.494)" fill="#0296e5"/>
        <path id="Trazado_11514" data-name="Trazado 11514" d="M296,373.815h8.282l4.969-14.907L296,344Z" transform="translate(-241.339 -281.494)" fill="#0296e5"/>
      </g>
      <g id="Grupo_24655" data-name="Grupo 24655" transform="translate(690.066 6598.876)">
        <path id="Trazado_11515" data-name="Trazado 11515" d="M138.522,328.013H125.108l-7.452,7.452-7.452-7.452H96.79a8.942,8.942,0,0,0-8.942,8.942V353.35h59.616V336.955A8.942,8.942,0,0,0,138.522,328.013Z" transform="translate(-81.945 -266.904)" fill="#1c9699"/>
        <path id="Trazado_11516" data-name="Trazado 11516" d="M183.694,106.686V95.941h0a16.19,16.19,0,0,0,7.228-7.324c.088-.176.174-.352.256-.531q.149-.34.3-.686c.1-.24.182-.483.267-.729.064-.188.134-.373.192-.562.13-.425.24-.858.334-1.3.034-.158.06-.32.089-.48.063-.34.116-.683.158-1.03.018-.149.037-.307.051-.462.045-.492.076-.988.076-1.49V72.407h-1.307a5.962,5.962,0,0,1-5.783-4.516L182.2,56.013l-3.06,10.75a7.452,7.452,0,0,1-7.224,5.644H159.848V81.35a16.381,16.381,0,0,0,8.942,14.591h0v10.746h-1.075a11.892,11.892,0,0,1,3.954,7.452h16.5a7.452,7.452,0,0,0,7.452-7.452Z" transform="translate(-140.532 -45.578)" fill="#f2dbc0"/>
        <g id="Grupo_24654" data-name="Grupo 24654" transform="translate(25.65 31.673)">
          <path id="Trazado_11517" data-name="Trazado 11517" d="M196.456,175.229a2.608,2.608,0,1,1,2.608-2.608A2.608,2.608,0,0,1,196.456,175.229Zm0-2.981a.372.372,0,0,0-.373.373c0,.41.745.41.745,0A.373.373,0,0,0,196.456,172.249Z" transform="translate(-193.848 -170.013)" fill="#30271f"/>
          <path id="Trazado_11518" data-name="Trazado 11518" d="M276.456,175.229a2.608,2.608,0,1,1,2.608-2.608A2.608,2.608,0,0,1,276.456,175.229Zm0-2.981a.373.373,0,0,0-.373.373c0,.41.745.41.745,0A.373.373,0,0,0,276.456,172.249Z" transform="translate(-258.944 -170.013)" fill="#30271f"/>
        </g>
        <path id="Trazado_11519" data-name="Trazado 11519" d="M223.437,229.6a5.6,5.6,0,0,1-5.589-5.589h2.236a3.353,3.353,0,0,0,6.707,0h2.236A5.6,5.6,0,0,1,223.437,229.6Z" transform="translate(-187.726 -182.279)" fill="#f0caa8"/>
        <path id="Trazado_11520" data-name="Trazado 11520" d="M222.752,271.815v-1.49h0a16.047,16.047,0,0,1-1.626.718c-.08.031-.161.06-.243.089a15.038,15.038,0,0,1-1.455.447c-.134.036-.267.071-.4.1-.461.107-.93.191-1.4.258-.149.022-.3.052-.447.07a15.444,15.444,0,0,1-3.735,0c-.149-.018-.3-.048-.447-.07-.474-.067-.943-.149-1.4-.258-.134-.033-.267-.069-.4-.1q-.745-.192-1.455-.447c-.082-.03-.162-.058-.243-.089a16.034,16.034,0,0,1-1.644-.717h0v1.49h0a16.759,16.759,0,0,0,1.626.718c.08.031.161.06.243.089.474.173.96.32,1.455.447.134.036.267.073.4.1.461.107.93.189,1.4.258.149.022.3.052.447.07a15.444,15.444,0,0,0,3.735,0c.149-.018.3-.048.447-.07.474-.069.943-.149,1.4-.258.134-.031.267-.069.4-.1.495-.13.981-.277,1.455-.447.082-.03.162-.058.243-.089a16.711,16.711,0,0,0,1.644-.718Z" transform="translate(-179.589 -219.964)" fill="#dbc6ae"/>
        <path id="Trazado_11521" data-name="Trazado 11521" d="M94.54.151a23.847,23.847,0,0,0-26.511,23.7v.674a26.159,26.159,0,0,0,1.9,9.79q.3.745.639,1.459t.745,1.455l3.334,6H66.539a4.471,4.471,0,1,0,0,8.942h-1.49a8.942,8.942,0,0,0-1.483,17.751c0,.045-.007.089-.007.134a11.923,11.923,0,1,0,19.791-8.942h1.075V50.361a16.441,16.441,0,0,1-8.2-9.711c-.013-.04-.028-.079-.042-.119v-.022a16.294,16.294,0,0,1-.7-4.736V26.829H87.553a7.452,7.452,0,0,0,7.23-5.644l3.054-10.75,3.343,11.878a5.962,5.962,0,0,0,5.783,4.516h1.307v8.942c0,.5-.03,1-.076,1.49-.013.149-.033.309-.051.462q-.063.52-.158,1.03c-.03.161-.055.32-.089.48-.1.438-.2.872-.334,1.3-.057.191-.128.374-.192.562-.085.244-.171.489-.267.729s-.191.459-.3.686c-.082.179-.168.355-.256.531a16.344,16.344,0,0,1-.942,1.677h2.663l.069-.124,4.091-7.364q.4-.715.745-1.455t.639-1.459a26.16,26.16,0,0,0,1.908-9.79C115.722,12.255,106.738,1.47,94.54.151Z" transform="translate(-56.165 0)" fill="#1e1c19"/>
        <path id="Trazado_11522" data-name="Trazado 11522" d="M234.932,56.013l-3.06,10.75a7.452,7.452,0,0,1-7.224,5.644h1.49a7.452,7.452,0,0,0,7.23-5.644l2.31-8.117Z" transform="translate(-193.26 -45.578)" fill="#dbc6ae"/>
        <path id="Trazado_11523" data-name="Trazado 11523" d="M170.971,328.013a11.9,11.9,0,0,1-7.123,20.828c.247.015.493.037.745.037a11.911,11.911,0,0,0,7.868-20.866" transform="translate(-143.787 -266.904)" opacity="0.25" style="isolation: isolate"/>
      </g>
    </g>
  </g>
</svg>
