<svg xmlns="http://www.w3.org/2000/svg" width="78" height="78" viewBox="0 0 78 78">
  <g id="Grupo_24836" data-name="Grupo 24836" transform="translate(-261 -1785)">
    <g id="Elipse_1491" data-name="Elipse 1491" transform="translate(261 1785)" fill="#fff" stroke="#f579a8" stroke-width="1.5">
      <circle cx="39" cy="39" r="39" stroke="none"/>
      <circle cx="39" cy="39" r="38.25" fill="none"/>
    </g>
    <g id="Grupo_24541" data-name="Grupo 24541" transform="translate(270.995 1785.364)">
      <path id="Trazado_11306" data-name="Trazado 11306" d="M33.424,446.226a2.645,2.645,0,0,1-2.644,2.647H23.422a2.645,2.645,0,0,1-2.644-2.647h0a2.645,2.645,0,0,1,2.644-2.647H30.78a2.645,2.645,0,0,1,2.644,2.647Z" transform="translate(-18.465 -384.06)" fill="#00348d"/>
      <path id="Trazado_11307" data-name="Trazado 11307" d="M27.1,443.578H23.422a2.647,2.647,0,0,0,0,5.294H27.1v-5.294Z" transform="translate(-18.465 -384.059)" fill="#e6e9ed"/>
      <g id="Grupo_24527" data-name="Grupo 24527" transform="translate(2.313 59.519)" opacity="0.1">
        <path id="Trazado_11308" data-name="Trazado 11308" d="M25.735,448.873a2.647,2.647,0,0,1,0-5.294H23.422a2.647,2.647,0,0,0,0,5.294Z" transform="translate(-20.778 -443.579)"/>
      </g>
      <rect id="Rect치ngulo_5728" data-name="Rect치ngulo 5728" width="11.131" height="3.932" transform="translate(26.915 40.863)" fill="#c6a07d"/>
      <rect id="Rect치ngulo_5729" data-name="Rect치ngulo 5729" width="3.529" height="3.932" transform="translate(26.915 40.863)" opacity="0.1" style="isolation: isolate"/>
      <g id="Grupo_24528" data-name="Grupo 24528" transform="translate(21.725 44.655)">
        <path id="Trazado_11309" data-name="Trazado 11309" d="M195.143,450.362a.658.658,0,0,0,.656.656H216a.658.658,0,0,0,.655-.656v-5.555h-21.51Z" transform="translate(-195.143 -429.807)" fill="#775436"/>
        <path id="Trazado_11310" data-name="Trazado 11310" d="M214.032,310.069H197.765a2.631,2.631,0,0,0-2.622,2.624v3.463h21.51v-3.463A2.631,2.631,0,0,0,214.032,310.069Z" transform="translate(-195.143 -310.069)" fill="#775436"/>
      </g>
      <g id="Grupo_24529" data-name="Grupo 24529" transform="translate(21.725 50.743)">
        <path id="Trazado_11311" data-name="Trazado 11311" d="M199.382,369.208a6.5,6.5,0,0,1,1.76-4.456h-6v8.912h6A6.5,6.5,0,0,1,199.382,369.208Z" transform="translate(-195.143 -364.752)" fill="#e6e9ed"/>
        <path id="Trazado_11312" data-name="Trazado 11312" d="M334.479,364.753a6.521,6.521,0,0,1,0,8.912h6v-8.912Z" transform="translate(-318.967 -364.753)" fill="#e6e9ed"/>
      </g>
      <g id="Grupo_24530" data-name="Grupo 24530" transform="translate(21.725 44.655)" opacity="0.1">
        <path id="Trazado_11313" data-name="Trazado 11313" d="M198.1,330.624v-17.93a2.631,2.631,0,0,1,2.622-2.624h-2.955a2.631,2.631,0,0,0-2.622,2.624v17.93a.658.658,0,0,0,.656.656h2.955A.658.658,0,0,1,198.1,330.624Z" transform="translate(-195.143 -310.069)"/>
      </g>
      <path id="Trazado_11314" data-name="Trazado 11314" d="M228.436,231.13a.567.567,0,0,1-.565.565H210.866a.567.567,0,0,1-.565-.565v-4.6a.567.567,0,0,1,.565-.565h17.006a.567.567,0,0,1,.565.565Z" transform="translate(-186.888 -190.67)" fill="#f7931e"/>
      <g id="Grupo_24531" data-name="Grupo 24531" transform="translate(23.413 35.292)" opacity="0.1">
        <path id="Trazado_11315" data-name="Trazado 11315" d="M213.831,231.13v-4.6a.567.567,0,0,1,.565-.565h-3.529a.567.567,0,0,0-.565.565v4.6a.567.567,0,0,0,.565.565H214.4A.566.566,0,0,1,213.831,231.13Z" transform="translate(-210.301 -225.962)"/>
      </g>
      <ellipse id="Elipse_1488" data-name="Elipse 1488" cx="6.516" cy="6.523" rx="6.516" ry="6.523" transform="translate(25.964 48.677)" fill="#ffc502"/>
      <g id="Grupo_24532" data-name="Grupo 24532" transform="translate(25.964 48.676)" opacity="0.1">
        <path id="Trazado_11316" data-name="Trazado 11316" d="M235.57,352.71a6.522,6.522,0,0,1,5.341-6.415,6.523,6.523,0,1,0,0,12.83A6.522,6.522,0,0,1,235.57,352.71Z" transform="translate(-233.219 -346.187)"/>
      </g>
      <g id="Grupo_24533" data-name="Grupo 24533" transform="translate(28.777 53.052)">
        <path id="Trazado_11317" data-name="Trazado 11317" d="M265.057,387.163H259.32a.835.835,0,0,1,0-1.67h5.737a.835.835,0,0,1,0,1.67Z" transform="translate(-258.485 -385.493)" fill="#775436"/>
        <path id="Trazado_11318" data-name="Trazado 11318" d="M270.95,411.916H266.9a.835.835,0,1,1,0-1.67h4.05a.835.835,0,0,1,0,1.67Z" transform="translate(-265.221 -407.49)" fill="#775436"/>
      </g>
      <g id="Grupo_24534" data-name="Grupo 24534" transform="translate(4.871 46.201)">
        <path id="Trazado_11319" data-name="Trazado 11319" d="M115.772,372.949a2.349,2.349,0,0,1-2.349,2.351h-1.2a2.35,2.35,0,0,1-2.349-2.351h0a2.35,2.35,0,0,1,2.349-2.351h1.2a2.35,2.35,0,0,1,2.349,2.351Z" transform="translate(-102.512 -365.405)" fill="#00348d"/>
        <path id="Trazado_11320" data-name="Trazado 11320" d="M48.615,324.641a2.352,2.352,0,0,1,0,3.325l-.85.851a2.347,2.347,0,0,1-3.321,0h0a2.353,2.353,0,0,1,0-3.325l.85-.851a2.347,2.347,0,0,1,3.321,0Z" transform="translate(-43.756 -323.953)" fill="#00348d"/>
      </g>
      <path id="Trazado_11321" data-name="Trazado 11321" d="M427.478,177.848a2.649,2.649,0,0,1,0,3.743l-5.2,5.208a2.642,2.642,0,0,1-3.74,0h0a2.649,2.649,0,0,1,0-3.743l5.2-5.208a2.643,2.643,0,0,1,3.74,0Z" transform="translate(-371.252 -147.223)" fill="#e6e9ed"/>
      <path id="Trazado_11322" data-name="Trazado 11322" d="M421.137,207.426l-2.6,2.6a2.646,2.646,0,0,0,3.74,3.743l2.6-2.6Z" transform="translate(-371.252 -174.198)" fill="#48c1e1"/>
      <g id="Grupo_24535" data-name="Grupo 24535" transform="translate(46.509 34.389)" opacity="0.1">
        <path id="Trazado_11323" data-name="Trazado 11323" d="M419.979,221.593a2.649,2.649,0,0,1,0-3.743l-1.444,1.444a2.646,2.646,0,1,0,3.74,3.743l1.429-1.431A2.642,2.642,0,0,1,419.979,221.593Z" transform="translate(-417.761 -217.85)"/>
      </g>
      <path id="Trazado_11324" data-name="Trazado 11324" d="M345.625,136.921a2.646,2.646,0,0,1-2.644,2.647h-7.358a2.646,2.646,0,0,1-2.644-2.647h0a2.645,2.645,0,0,1,2.644-2.647h7.358a2.645,2.645,0,0,1,2.644,2.647Z" transform="translate(-295.908 -109.19)" fill="#e6e9ed"/>
      <path id="Trazado_11325" data-name="Trazado 11325" d="M339.3,134.273h-3.679a2.647,2.647,0,0,0,0,5.294H339.3Z" transform="translate(-295.909 -109.189)" fill="#48c1e1"/>
      <g id="Grupo_24536" data-name="Grupo 24536" transform="translate(37.07 25.085)" opacity="0.1">
        <path id="Trazado_11326" data-name="Trazado 11326" d="M337.984,139.569a2.647,2.647,0,0,1,0-5.294h-2.362a2.647,2.647,0,0,0,0,5.294Z" transform="translate(-332.978 -134.275)"/>
      </g>
      <path id="Trazado_11327" data-name="Trazado 11327" d="M418.242,303.959a4.121,4.121,0,1,1,4.123-4.123A4.116,4.116,0,0,1,418.242,303.959Z" transform="translate(-368.019 -252.659)" fill="#ffc502"/>
      <path id="Trazado_11328" data-name="Trazado 11328" d="M421.4,301.815A4.148,4.148,0,0,0,420.219,303l5.7,5.7a4.151,4.151,0,0,0,1.181-1.181Z" transform="translate(-373.437 -258.079)" fill="#fcdb67"/>
      <g id="Grupo_24537" data-name="Grupo 24537" transform="translate(6.956 15.207)">
        <path id="Trazado_11329" data-name="Trazado 11329" d="M237.429,51.881l4.166-4.17-2.155-2.157-4.166,4.171Z" transform="translate(-216.037 -45.553)" fill="#e6e9ed"/>
        <path id="Trazado_11330" data-name="Trazado 11330" d="M64.314,226.353l-1.67,1.672a.567.567,0,0,0,0,.8l2.816,2.819a.566.566,0,0,0,.8,0l1.671-1.672Z" transform="translate(-62.479 -206.225)" fill="#e6e9ed"/>
      </g>
      <path id="Trazado_11331" data-name="Trazado 11331" d="M11.816,224.666l-1.48,1.481-.627-.628,1.48-1.481-1.18-1.181-1.48,1.481L7.9,223.71l1.48-1.481L8.2,221.047,6.53,222.72a1.4,1.4,0,0,0,0,1.98l.819.819-7.1,7.111a.835.835,0,0,0,1.181,1.18l7.1-7.11.818.818a1.4,1.4,0,0,0,1.98,0L13,225.847Z" transform="translate(0 -186.302)" fill="#9ea7af"/>
      <path id="Trazado_11332" data-name="Trazado 11332" d="M82.808,87.459l-13.92,13.934a.567.567,0,0,0,0,.8l5.319,5.324a.566.566,0,0,0,.8,0l13.92-13.934Z" transform="translate(-61.072 -67.586)" fill="#e6e9ed"/>
      <path id="Trazado_11333" data-name="Trazado 11333" d="M78.778,123.693l-9.89,9.9a.567.567,0,0,0,0,.8l5.319,5.324a.566.566,0,0,0,.8,0l9.891-9.9Z" transform="translate(-61.072 -99.786)" fill="#a2dff9"/>
      <path id="Trazado_11334" data-name="Trazado 11334" d="M84.4,89.057l-1.6-1.6-13.92,13.934a.567.567,0,0,0,0,.8l1.6,1.6a.567.567,0,0,1,0-.8Z" transform="translate(-61.072 -67.586)" opacity="0.1" style="isolation: isolate"/>
      <path id="Trazado_11335" data-name="Trazado 11335" d="M178.726,51.25a.567.567,0,0,1,0-.8l1.99-1.992a.566.566,0,0,1,.8,0l9.212,9.222a.567.567,0,0,1,0,.8l-1.99,1.992a.566.566,0,0,1-.8,0Z" transform="translate(-158.682 -32.781)" fill="#c5ccd3"/>
      <g id="Grupo_24538" data-name="Grupo 24538" transform="translate(19.879 15.513)" opacity="0.1">
        <path id="Trazado_11336" data-name="Trazado 11336" d="M180.568,53.092a.567.567,0,0,1,0-.8l1.99-1.992a.565.565,0,0,1,.789-.008l-1.832-1.834a.566.566,0,0,0-.8,0l-1.99,1.992a.567.567,0,0,0,0,.8Z" transform="translate(-178.561 -48.294)"/>
      </g>
      <path id="Trazado_11337" data-name="Trazado 11337" d="M255.11,13.668a.567.567,0,0,1,0-.8l1.3-1.3a.566.566,0,0,1,.8,0l5.5,5.51a.567.567,0,0,1,0,.8l-1.3,1.3a.566.566,0,0,1-.8,0Z" transform="translate(-226.562 0)" fill="#c5ccd3"/>
      <g id="Grupo_24539" data-name="Grupo 24539" transform="translate(28.383 11.406)" opacity="0.1">
        <path id="Trazado_11338" data-name="Trazado 11338" d="M256.561,15.12a.567.567,0,0,1,0-.8l1.3-1.3a.566.566,0,0,1,.791-.007L257.2,11.571a.566.566,0,0,0-.8,0l-1.3,1.3a.567.567,0,0,0,0,.8Z" transform="translate(-254.945 -11.406)"/>
      </g>
      <g id="Grupo_24540" data-name="Grupo 24540" transform="translate(14.07 30.964)">
        <path id="Trazado_11339" data-name="Trazado 11339" d="M127.8,226.414a.835.835,0,0,0-1.181,1.181l1.4,1.4,1.18-1.181Z" transform="translate(-126.379 -221.819)" fill="#48c1e1"/>
        <path id="Trazado_11340" data-name="Trazado 11340" d="M147.345,206.874a.835.835,0,0,0-1.181,1.181l1.4,1.4,1.18-1.181Z" transform="translate(-143.745 -204.454)" fill="#48c1e1"/>
        <path id="Trazado_11341" data-name="Trazado 11341" d="M166.885,187.333a.835.835,0,0,0-1.181,1.181l1.4,1.4,1.18-1.181Z" transform="translate(-161.109 -187.089)" fill="#48c1e1"/>
      </g>
    </g>
  </g>
</svg>
