<svg xmlns="http://www.w3.org/2000/svg" width="312" height="167" viewBox="0 0 312 167">
  <g id="Grupo_24683" data-name="Grupo 24683" transform="translate(-179 -1047)">
    <rect id="Rectángulo_5737" data-name="Rectángulo 5737" width="312" height="167" rx="10" transform="translate(179 1047)" fill="#edf4ff"/>
    <g id="Flat" transform="translate(249 1042.911)">
      <path id="Trazado_11570" data-name="Trazado 11570" d="M282.319,30.046a15.115,15.115,0,0,1,3.023,9.068V50.792a8.294,8.294,0,0,0,2.43,5.866,8.906,8.906,0,0,1-6.3,15.2H248.906a8.906,8.906,0,0,1-6.3-15.2,8.294,8.294,0,0,0,2.43-5.866V39.114A15.114,15.114,0,0,1,260.152,24h10.076A15.111,15.111,0,0,1,282.319,30.046Z" transform="translate(-163.766 -0.013)" fill="#bfbfbd"/>
      <path id="Trazado_11571" data-name="Trazado 11571" d="M302.228,70.671a15.114,15.114,0,0,1-15.114,15.114A15.092,15.092,0,0,1,272,70.671v-12.6a16.3,16.3,0,0,0,14.582-9.012L287.114,48c.227,0,.453.009.677.028a8.536,8.536,0,0,1,7.859,8.489,8.723,8.723,0,0,1-.116,1.42l-.526,3.161a8.218,8.218,0,0,0,5.551,9.166,13.034,13.034,0,0,0,1.669.406Z" transform="translate(-184.877 -16.456)" fill="#fec9a3"/>
      <path id="Trazado_11572" data-name="Trazado 11572" d="M327.674,70.733A15.114,15.114,0,0,1,312.56,85.847a15.278,15.278,0,0,1-3.42-.387,22.6,22.6,0,0,0,6.93-16.314V59.07a22.537,22.537,0,0,0-2.834-10.98,8.536,8.536,0,0,1,7.859,8.489,8.723,8.723,0,0,1-.116,1.42l-.526,3.161A8.218,8.218,0,0,0,326,70.327,13.033,13.033,0,0,0,327.674,70.733Z" transform="translate(-210.986 -16.518)" fill="#fec093"/>
      <path id="Trazado_11573" data-name="Trazado 11573" d="M298.823,186.076V228.9H256V186.076A10.076,10.076,0,0,1,266.076,176h22.671a10.07,10.07,0,0,1,10.076,10.064Z" transform="translate(-174.657 -111.855)" fill="#d3669a"/>
      <path id="Trazado_11574" data-name="Trazado 11574" d="M298.823,188.077V230.9H256V210.269a107.421,107.421,0,0,0,36.957-31.349,10.08,10.08,0,0,1,5.866,9.157Z" transform="translate(-174.657 -113.927)" fill="#cc6395"/>
      <path id="Trazado_11575" data-name="Trazado 11575" d="M174.228,39.114V49.19a15.107,15.107,0,0,1-14.8,15.108c-.1.006-.211.006-.315.006A15.114,15.114,0,0,1,144,49.19V39.114a15.114,15.114,0,0,1,30.228,0Z" transform="translate(-89.457 -0.013)" fill="#fec9a3"/>
      <path id="Trazado_11576" data-name="Trazado 11576" d="M199.03,39.1V49.177a15.107,15.107,0,0,1-14.8,15.108,22.532,22.532,0,0,0,3.826-12.6V41.607a22.6,22.6,0,0,0-6.641-16.03q-.586-.586-1.215-1.13A15.12,15.12,0,0,1,199.03,39.1Z" transform="translate(-115.598)" fill="#fec093"/>
      <g id="Grupo_24673" data-name="Grupo 24673" transform="translate(58.238 44.139)">
        <path id="Trazado_11577" data-name="Trazado 11577" d="M296,96h5.038v5.038H296Z" transform="translate(-255.696 -93.481)" fill="#7a432a"/>
        <path id="Trazado_11578" data-name="Trazado 11578" d="M328,96h5.038v5.038H328Z" transform="translate(-277.62 -93.481)" fill="#7a432a"/>
        <path id="Trazado_11579" data-name="Trazado 11579" d="M168,88h5.038v5.038H168Z" transform="translate(-168 -88)" fill="#7a432a"/>
        <path id="Trazado_11580" data-name="Trazado 11580" d="M200,88h5.038v5.038H200Z" transform="translate(-189.924 -88)" fill="#7a432a"/>
      </g>
      <path id="Trazado_11581" data-name="Trazado 11581" d="M144,104l4.557,4.557a5.888,5.888,0,0,0,6.8,1.1,5.891,5.891,0,0,1,2.633-.621h2.259a5.887,5.887,0,0,1,2.633.622,5.888,5.888,0,0,0,6.8-1.1L174.228,104v12.6a10.076,10.076,0,0,1-10.076,10.076H154.076A10.076,10.076,0,0,1,144,116.6Z" transform="translate(-89.457 -57.885)" fill="#92563a"/>
      <path id="Trazado_11582" data-name="Trazado 11582" d="M144,39.465a5.389,5.389,0,0,1,5.389-5.389h.9a5.388,5.388,0,0,1,2.41.569l2.763,1.381a5.388,5.388,0,0,0,2.41.569h2.7a5.386,5.386,0,0,0,2.044-.4l4.182-1.714a5.387,5.387,0,0,1,7.431,4.986V34.839A10.839,10.839,0,0,0,163.389,24h-8.551A10.838,10.838,0,0,0,144,34.839Z" transform="translate(-89.457 -0.013)" fill="#92563a"/>
      <path id="Trazado_11583" data-name="Trazado 11583" d="M162.823,186.076V228.9H120V186.076A10.076,10.076,0,0,1,130.076,176h22.671a10.063,10.063,0,0,1,10.076,10.05Z" transform="translate(-72.272 -111.855)" fill="#f35244"/>
      <path id="Trazado_11584" data-name="Trazado 11584" d="M162.823,187.446v42.823H120V203.127A107.853,107.853,0,0,0,156.264,178a10.084,10.084,0,0,1,6.559,9.446Z" transform="translate(-72.272 -113.275)" fill="#e64d40"/>
      <path id="Trazado_11585" data-name="Trazado 11585" d="M120,344h42.823v45.342H120Z" transform="translate(-72.272 -234.253)" fill="#f35244"/>
      <path id="Trazado_11586" data-name="Trazado 11586" d="M64.3,276.6v42.823H36.6V284.152H24V276.6A12.6,12.6,0,0,1,36.6,264H51.709A12.6,12.6,0,0,1,64.3,276.6Z" transform="translate(0 -179.443)" fill="#348fd9"/>
      <path id="Trazado_11587" data-name="Trazado 11587" d="M91.709,283.179V326H64V296.061A91.7,91.7,0,0,0,87.3,273.61a12.547,12.547,0,0,1,4.411,9.569Z" transform="translate(-27.405 -186.027)" fill="#3086cd"/>
      <path id="Trazado_11588" data-name="Trazado 11588" d="M64,440H91.709v15.114H64Z" transform="translate(-27.405 -300.025)" fill="#7a432a"/>
      <path id="Trazado_11589" data-name="Trazado 11589" d="M61.785,353.19H34.076A10.076,10.076,0,0,1,24,343.114V328H39.114v12.6H54.228l7.557-2.519Z" transform="translate(0 -220.166)" fill="#fec9a3"/>
      <path id="Trazado_11590" data-name="Trazado 11590" d="M392.3,345.494H352V280h30.228l1.023,8.193,4.015,32.111Z" transform="translate(-246.929 -190.405)" fill="#7eb457"/>
      <path id="Trazado_11591" data-name="Trazado 11591" d="M392.3,363.321H352V332.4c11.323-5.158,22.1-13.584,31.251-26.377l4.015,32.111Z" transform="translate(-246.929 -208.232)" fill="#79ad54"/>
      <path id="Trazado_11592" data-name="Trazado 11592" d="M324.6,280h0v32.747H312V292.6A12.6,12.6,0,0,1,324.6,280Z" transform="translate(-212.4 -186.072)" fill="#feb784"/>
      <path id="Trazado_11593" data-name="Trazado 11593" d="M404.152,280v27.709H384v12.6h22.671a10.076,10.076,0,0,0,10.076-10.076V292.6A12.6,12.6,0,0,0,404.152,280Z" transform="translate(-268.853 -186.834)" fill="#feb784"/>
      <path id="Trazado_11594" data-name="Trazado 11594" d="M86.228,175.114v7.557a15.114,15.114,0,0,1-15.114,15.114h0c-.23,0-.46-.006-.686-.016A15.114,15.114,0,0,1,56,182.671v-7.557A15.114,15.114,0,0,1,71.114,160q.666,0,1.313.057A15.116,15.116,0,0,1,86.228,175.114Z" transform="translate(-21.924 -99.121)" fill="#fec9a3"/>
      <path id="Trazado_11595" data-name="Trazado 11595" d="M117.62,175.237v7.557a15.114,15.114,0,0,1-15.114,15.114h0c-.23,0-.46-.006-.686-.016a22.58,22.58,0,0,0,5.772-15.111V172.706a22.556,22.556,0,0,0-3.772-12.526A15.116,15.116,0,0,1,117.62,175.237Z" transform="translate(-57.493 -99.249)" fill="#fec093"/>
      <path id="Trazado_11596" data-name="Trazado 11596" d="M80,216h5.038v5.038H80Z" transform="translate(-38.367 -137.986)" fill="#7a432a"/>
      <path id="Trazado_11597" data-name="Trazado 11597" d="M112,216h5.038v5.038H112Z" transform="translate(-64.653 -137.986)" fill="#7a432a"/>
      <path id="Trazado_11598" data-name="Trazado 11598" d="M56,180.6v-5.038A7.557,7.557,0,0,1,63.557,168Z" transform="translate(-21.924 -103.766)" fill="#804a32"/>
      <path id="Trazado_11599" data-name="Trazado 11599" d="M86.228,162.076v7.557l-10.076-7.557h-12.6A7.557,7.557,0,0,1,56,154.519V152H76.152A10.076,10.076,0,0,1,86.228,162.076Z" transform="translate(-21.924 -92.416)" fill="#92563a"/>
      <path id="Trazado_11600" data-name="Trazado 11600" d="M439.557,184H432v10.076h7.557v10.076a10.076,10.076,0,0,0,10.076,10.076V194.076A10.076,10.076,0,0,0,439.557,184Z" transform="translate(-301.739 -116.155)" fill="#f7a116"/>
      <path id="Trazado_11601" data-name="Trazado 11601" d="M390.228,191.114v7.557A15.112,15.112,0,0,1,376.71,213.7a14.857,14.857,0,0,1-1.6.085A15.114,15.114,0,0,1,360,198.671v-7.557A15.114,15.114,0,0,1,375.114,176c.368,0,.734.013,1.1.041A15.114,15.114,0,0,1,390.228,191.114Z" transform="translate(-252.41 -110.781)" fill="#fec9a3"/>
      <path id="Trazado_11602" data-name="Trazado 11602" d="M425.5,191.2v7.557a15.112,15.112,0,0,1-13.518,15.029,22.564,22.564,0,0,0,4.433-13.467V190.246a22.56,22.56,0,0,0-4.934-14.116A15.114,15.114,0,0,1,425.5,191.2Z" transform="translate(-287.68 -110.868)" fill="#fec093"/>
      <path id="Trazado_11603" data-name="Trazado 11603" d="M384,232h5.038v5.038H384Z" transform="translate(-264.49 -149.484)" fill="#7a432a"/>
      <path id="Trazado_11604" data-name="Trazado 11604" d="M416,232h5.038v5.038H416Z" transform="translate(-290.777 -149.484)" fill="#7a432a"/>
      <path id="Trazado_11605" data-name="Trazado 11605" d="M360,188.152s12.6,0,20.152-10.076c0,0,2.519,7.557,10.076,10.076v-5.038a15.114,15.114,0,1,0-30.228,0Z" transform="translate(-252.41 -104.072)" fill="#ffb531"/>
      <path id="Trazado_11606" data-name="Trazado 11606" d="M360,368h10.076v27.709H360Z" transform="translate(-247.475 -250.696)" fill="#fec9a3"/>
      <path id="Trazado_11607" data-name="Trazado 11607" d="M29.038,256h2.519a5.038,5.038,0,0,1,5.038,5.038v5.038H24v-5.038A5.038,5.038,0,0,1,29.038,256Z" transform="translate(0 -167.018)" fill="#fec9a3"/>
      <path id="Trazado_11608" data-name="Trazado 11608" d="M173.342,383.861H128l4.144-20.725.894-4.465v-12.6A10.076,10.076,0,0,1,143.114,336h15.114a10.045,10.045,0,0,1,7.126,2.95c.17.17.331.343.488.526a10.034,10.034,0,0,1,2.462,6.6v12.6Z" transform="translate(-78.47 -228.772)" fill="#f59898"/>
      <path id="Trazado_11609" data-name="Trazado 11609" d="M173.342,391.425H128l4.144-20.725a81.172,81.172,0,0,0,33.7-23.66,10.034,10.034,0,0,1,2.462,6.6v12.6Z" transform="translate(-78.47 -236.336)" fill="#ed9191"/>
      <path id="Trazado_11610" data-name="Trazado 11610" d="M146.519,401.19H156.6L154.076,376H144Z" transform="translate(-88.5 -256.177)" fill="#fec9a3"/>
      <path id="Trazado_11611" data-name="Trazado 11611" d="M226.076,401.19H216L218.519,376H228.6Z" transform="translate(-141.6 -256.177)" fill="#feb784"/>
      <path id="Trazado_11612" data-name="Trazado 11612" d="M120,273.19V258.076A10.076,10.076,0,0,1,130.076,248h7.557v10.076h-7.557v5.038A10.076,10.076,0,0,1,120,273.19Z" transform="translate(-70.997 -162.232)" fill="#f57707"/>
      <path id="Trazado_11613" data-name="Trazado 11613" d="M182.228,239.114v5.038a15.114,15.114,0,0,1-30.228,0v-5.038a15.114,15.114,0,0,1,30.228,0Z" transform="translate(-95.42 -145.561)" fill="#fec9a3"/>
      <path id="Trazado_11614" data-name="Trazado 11614" d="M219.9,239.463V244.5a15.122,15.122,0,0,1-10.076,14.254,22.572,22.572,0,0,0,2.251-9.859V238.821a22.577,22.577,0,0,0-5.088-14.311A15.117,15.117,0,0,1,219.9,239.463Z" transform="translate(-134.978 -145.855)" fill="#fec093"/>
      <path id="Trazado_11615" data-name="Trazado 11615" d="M176,280h5.038v5.038H176Z" transform="translate(-111.674 -183.977)" fill="#7a432a"/>
      <path id="Trazado_11616" data-name="Trazado 11616" d="M208,280h5.038v5.038H208Z" transform="translate(-135.184 -183.977)" fill="#7a432a"/>
      <path id="Trazado_11617" data-name="Trazado 11617" d="M182.228,233.633h-2.209a13.3,13.3,0,0,1-12.905-10.076,13.3,13.3,0,0,1-12.905,10.076H152v-2.519a15.114,15.114,0,0,1,30.228,0Z" transform="translate(-95.42 -138.616)" fill="#f98500"/>
      <path id="Trazado_11618" data-name="Trazado 11618" d="M302.228,215.114v5.038a15.114,15.114,0,0,1-14.047,15.076q-.529.038-1.067.038A15.114,15.114,0,0,1,272,220.152v-5.038A15.114,15.114,0,0,1,287.114,200a14.491,14.491,0,0,1,1.533.079A15.114,15.114,0,0,1,302.228,215.114Z" transform="translate(-184.877 -128.096)" fill="#fec9a3"/>
      <path id="Trazado_11619" data-name="Trazado 11619" d="M337.437,215.285v5.038A15.114,15.114,0,0,1,323.39,235.4a22.545,22.545,0,0,0,4.018-12.885V212.439a22.566,22.566,0,0,0-3.552-12.189,15.114,15.114,0,0,1,13.581,15.035Z" transform="translate(-220.973 -128.27)" fill="#fec093"/>
      <path id="Trazado_11620" data-name="Trazado 11620" d="M295.136,202.519s-2.519,10.076,7.557,12.6a15.113,15.113,0,0,0-30.015-2.522C274.689,212.553,290.423,211.945,295.136,202.519Z" transform="translate(-185.355 -126.942)" fill="#92563a"/>
      <path id="Trazado_11621" data-name="Trazado 11621" d="M296,256h5.038v5.038H296Z" transform="translate(-199.837 -166.73)" fill="#7a432a"/>
      <path id="Trazado_11622" data-name="Trazado 11622" d="M328,256h5.038v5.038H328Z" transform="translate(-223.347 -166.73)" fill="#7a432a"/>
      <path id="Trazado_11623" data-name="Trazado 11623" d="M293.342,322.076v7.557H283.266v15.114h-25.19V329.633H248v-7.557A10.076,10.076,0,0,1,258.076,312h25.19a10.06,10.06,0,0,1,10.076,10.045Z" transform="translate(-169.013 -209.329)" fill="#348fd9"/>
      <path id="Trazado_11624" data-name="Trazado 11624" d="M315.266,323.789v7.557H305.19V346.46H280V336.11a82.333,82.333,0,0,0,29.107-21.61A10.086,10.086,0,0,1,315.266,323.789Z" transform="translate(-191.543 -211.063)" fill="#3086cd"/>
      <path id="Trazado_11625" data-name="Trazado 11625" d="M280,416h25.19v22.671H280Z" transform="translate(-190.197 -283.582)" fill="#7a432a"/>
      <path id="Trazado_11626" data-name="Trazado 11626" d="M312,440h5.038v15.114H312Z" transform="translate(-211.592 -300.025)" fill="#5c2e1a"/>
      <path id="Trazado_11627" data-name="Trazado 11627" d="M248,368h10.076v27.709H248Z" transform="translate(-164.983 -250.696)" fill="#fec9a3"/>
      <path id="Trazado_11628" data-name="Trazado 11628" d="M274.519,344h0a2.519,2.519,0,0,1,2.519,2.519v5.038a2.519,2.519,0,0,1-2.519,2.519h0A2.519,2.519,0,0,1,272,351.557v-5.038A2.519,2.519,0,0,1,274.519,344Z" transform="translate(-182.204 -230.365)" fill="#2a71ad"/>
      <path id="Trazado_11629" data-name="Trazado 11629" d="M354.519,344h0a2.519,2.519,0,0,1,2.519,2.519v5.038a2.519,2.519,0,0,1-2.519,2.519h0A2.519,2.519,0,0,1,352,351.557v-5.038A2.519,2.519,0,0,1,354.519,344Z" transform="translate(-240.98 -230.365)" fill="#2a71ad"/>
    </g>
  </g>
</svg>
